%TF.GenerationSoftware,KiCad,Pcbnew,(6.0.1)*%
%TF.CreationDate,2022-03-29T16:03:17-05:00*%
%TF.ProjectId,microcontroller_board,6d696372-6f63-46f6-9e74-726f6c6c6572,rev?*%
%TF.SameCoordinates,Original*%
%TF.FileFunction,Soldermask,Bot*%
%TF.FilePolarity,Negative*%
%FSLAX46Y46*%
G04 Gerber Fmt 4.6, Leading zero omitted, Abs format (unit mm)*
G04 Created by KiCad (PCBNEW (6.0.1)) date 2022-03-29 16:03:17*
%MOMM*%
%LPD*%
G01*
G04 APERTURE LIST*
%ADD10R,1.700000X1.700000*%
%ADD11O,1.700000X1.700000*%
%ADD12C,1.600000*%
%ADD13O,1.600000X1.600000*%
%ADD14R,1.158000X1.158000*%
%ADD15C,1.158000*%
%ADD16C,1.400000*%
%ADD17O,1.400000X1.400000*%
%ADD18C,3.200001*%
%ADD19O,2.641600X1.320800*%
%ADD20C,3.200000*%
G04 APERTURE END LIST*
D10*
%TO.C,J6*%
X151511000Y-67945000D03*
D11*
X151511000Y-65405000D03*
X151511000Y-62865000D03*
X151511000Y-60325000D03*
%TD*%
D12*
%TO.C,C1*%
X102235000Y-64837000D03*
D13*
X102235000Y-57337000D03*
%TD*%
D14*
%TO.C,Y1*%
X151003000Y-109855000D03*
D15*
X166243000Y-109855000D03*
X166243000Y-102235000D03*
X151003000Y-102235000D03*
%TD*%
D16*
%TO.C,R2*%
X132588000Y-72898000D03*
D17*
X132588000Y-70998000D03*
%TD*%
D10*
%TO.C,J2*%
X130048000Y-85344000D03*
D11*
X132588000Y-85344000D03*
X135128000Y-85344000D03*
%TD*%
D18*
%TO.C,H3*%
X107950000Y-125730000D03*
%TD*%
D16*
%TO.C,R1*%
X101346000Y-68077000D03*
D17*
X101346000Y-69977000D03*
%TD*%
D18*
%TO.C,H4*%
X179070000Y-125730000D03*
%TD*%
D19*
%TO.C,IC1*%
X108458000Y-51816000D03*
X108458000Y-54356000D03*
X108458000Y-56896000D03*
X108458000Y-59436000D03*
X108458000Y-61976000D03*
X108458000Y-64516000D03*
X108458000Y-67056000D03*
X108458000Y-69596000D03*
X108458000Y-72136000D03*
X108458000Y-74676000D03*
X116078000Y-74676000D03*
X116078000Y-72136000D03*
X116078000Y-69596000D03*
X116078000Y-67056000D03*
X116078000Y-64516000D03*
X116078000Y-61976000D03*
X116078000Y-59436000D03*
X116078000Y-56896000D03*
X116078000Y-54356000D03*
X116078000Y-51816000D03*
%TD*%
%TO.C,IC2*%
X137541000Y-51816000D03*
X137541000Y-54356000D03*
X137541000Y-56896000D03*
X137541000Y-59436000D03*
X137541000Y-61976000D03*
X137541000Y-64516000D03*
X137541000Y-67056000D03*
X137541000Y-69596000D03*
X137541000Y-72136000D03*
X137541000Y-74676000D03*
X145161000Y-74676000D03*
X145161000Y-72136000D03*
X145161000Y-69596000D03*
X145161000Y-67056000D03*
X145161000Y-64516000D03*
X145161000Y-61976000D03*
X145161000Y-59436000D03*
X145161000Y-56896000D03*
X145161000Y-54356000D03*
X145161000Y-51816000D03*
%TD*%
D18*
%TO.C,H1*%
X107950000Y-42291000D03*
%TD*%
D10*
%TO.C,J5*%
X121793000Y-70612000D03*
D11*
X121793000Y-68072000D03*
X121793000Y-65532000D03*
X121793000Y-62992000D03*
%TD*%
D13*
%TO.C,C4*%
X181229000Y-102549000D03*
D12*
X181229000Y-110049000D03*
%TD*%
D20*
%TO.C,H2*%
X179070000Y-41910000D03*
%TD*%
D10*
%TO.C,J3*%
X130048000Y-92202000D03*
D11*
X132588000Y-92202000D03*
X135128000Y-92202000D03*
%TD*%
D12*
%TO.C,C2*%
X132334000Y-65218000D03*
D13*
X132334000Y-57718000D03*
%TD*%
D10*
%TO.C,J7*%
X173101000Y-61214000D03*
D11*
X175641000Y-61214000D03*
X173101000Y-63754000D03*
X175641000Y-63754000D03*
X173101000Y-66294000D03*
X175641000Y-66294000D03*
X173101000Y-68834000D03*
X175641000Y-68834000D03*
X173101000Y-71374000D03*
X175641000Y-71374000D03*
X173101000Y-73914000D03*
X175641000Y-73914000D03*
X173101000Y-76454000D03*
X175641000Y-76454000D03*
X173101000Y-78994000D03*
X175641000Y-78994000D03*
X173101000Y-81534000D03*
X175641000Y-81534000D03*
X173101000Y-84074000D03*
X175641000Y-84074000D03*
X173101000Y-86614000D03*
X175641000Y-86614000D03*
%TD*%
D12*
%TO.C,C3*%
X176784000Y-109668000D03*
D13*
X176784000Y-102168000D03*
%TD*%
D10*
%TO.C,J4*%
X130048000Y-99695000D03*
D11*
X132588000Y-99695000D03*
X135128000Y-99695000D03*
%TD*%
D10*
%TO.C,J1*%
X125222000Y-51816000D03*
D11*
X125222000Y-54356000D03*
X125222000Y-56896000D03*
%TD*%
M02*
