%TF.GenerationSoftware,KiCad,Pcbnew,(6.0.1)*%
%TF.CreationDate,2022-03-29T16:03:17-05:00*%
%TF.ProjectId,microcontroller_board,6d696372-6f63-46f6-9e74-726f6c6c6572,rev?*%
%TF.SameCoordinates,Original*%
%TF.FileFunction,Legend,Top*%
%TF.FilePolarity,Positive*%
%FSLAX46Y46*%
G04 Gerber Fmt 4.6, Leading zero omitted, Abs format (unit mm)*
G04 Created by KiCad (PCBNEW (6.0.1)) date 2022-03-29 16:03:17*
%MOMM*%
%LPD*%
G01*
G04 APERTURE LIST*
%ADD10C,0.150000*%
%ADD11C,0.120000*%
%ADD12C,0.127000*%
%ADD13C,0.200000*%
%ADD14C,0.152400*%
G04 APERTURE END LIST*
D10*
X101330952Y-85483571D02*
X101664285Y-85483571D01*
X101807142Y-86007380D02*
X101330952Y-86007380D01*
X101330952Y-85007380D01*
X101807142Y-85007380D01*
X102807142Y-85912142D02*
X102759523Y-85959761D01*
X102616666Y-86007380D01*
X102521428Y-86007380D01*
X102378571Y-85959761D01*
X102283333Y-85864523D01*
X102235714Y-85769285D01*
X102188095Y-85578809D01*
X102188095Y-85435952D01*
X102235714Y-85245476D01*
X102283333Y-85150238D01*
X102378571Y-85055000D01*
X102521428Y-85007380D01*
X102616666Y-85007380D01*
X102759523Y-85055000D01*
X102807142Y-85102619D01*
X103235714Y-85483571D02*
X103569047Y-85483571D01*
X103711904Y-86007380D02*
X103235714Y-86007380D01*
X103235714Y-85007380D01*
X103711904Y-85007380D01*
X105330952Y-85340714D02*
X105330952Y-86007380D01*
X105092857Y-84959761D02*
X104854761Y-85674047D01*
X105473809Y-85674047D01*
X106283333Y-85340714D02*
X106283333Y-86007380D01*
X106045238Y-84959761D02*
X105807142Y-85674047D01*
X106426190Y-85674047D01*
X107283333Y-85007380D02*
X106807142Y-85007380D01*
X106759523Y-85483571D01*
X106807142Y-85435952D01*
X106902380Y-85388333D01*
X107140476Y-85388333D01*
X107235714Y-85435952D01*
X107283333Y-85483571D01*
X107330952Y-85578809D01*
X107330952Y-85816904D01*
X107283333Y-85912142D01*
X107235714Y-85959761D01*
X107140476Y-86007380D01*
X106902380Y-86007380D01*
X106807142Y-85959761D01*
X106759523Y-85912142D01*
X108378571Y-85007380D02*
X108950000Y-85007380D01*
X108664285Y-86007380D02*
X108664285Y-85007380D01*
X109664285Y-85959761D02*
X109569047Y-86007380D01*
X109378571Y-86007380D01*
X109283333Y-85959761D01*
X109235714Y-85864523D01*
X109235714Y-85483571D01*
X109283333Y-85388333D01*
X109378571Y-85340714D01*
X109569047Y-85340714D01*
X109664285Y-85388333D01*
X109711904Y-85483571D01*
X109711904Y-85578809D01*
X109235714Y-85674047D01*
X110569047Y-86007380D02*
X110569047Y-85483571D01*
X110521428Y-85388333D01*
X110426190Y-85340714D01*
X110235714Y-85340714D01*
X110140476Y-85388333D01*
X110569047Y-85959761D02*
X110473809Y-86007380D01*
X110235714Y-86007380D01*
X110140476Y-85959761D01*
X110092857Y-85864523D01*
X110092857Y-85769285D01*
X110140476Y-85674047D01*
X110235714Y-85626428D01*
X110473809Y-85626428D01*
X110569047Y-85578809D01*
X111045238Y-86007380D02*
X111045238Y-85340714D01*
X111045238Y-85435952D02*
X111092857Y-85388333D01*
X111188095Y-85340714D01*
X111330952Y-85340714D01*
X111426190Y-85388333D01*
X111473809Y-85483571D01*
X111473809Y-86007380D01*
X111473809Y-85483571D02*
X111521428Y-85388333D01*
X111616666Y-85340714D01*
X111759523Y-85340714D01*
X111854761Y-85388333D01*
X111902380Y-85483571D01*
X111902380Y-86007380D01*
X113092857Y-85102619D02*
X113140476Y-85055000D01*
X113235714Y-85007380D01*
X113473809Y-85007380D01*
X113569047Y-85055000D01*
X113616666Y-85102619D01*
X113664285Y-85197857D01*
X113664285Y-85293095D01*
X113616666Y-85435952D01*
X113045238Y-86007380D01*
X113664285Y-86007380D01*
X113997619Y-85007380D02*
X114664285Y-85007380D01*
X114235714Y-86007380D01*
X99997619Y-87617380D02*
X99997619Y-86617380D01*
X100330952Y-87331666D01*
X100664285Y-86617380D01*
X100664285Y-87617380D01*
X101140476Y-87617380D02*
X101140476Y-86950714D01*
X101140476Y-86617380D02*
X101092857Y-86665000D01*
X101140476Y-86712619D01*
X101188095Y-86665000D01*
X101140476Y-86617380D01*
X101140476Y-86712619D01*
X102045238Y-87569761D02*
X101950000Y-87617380D01*
X101759523Y-87617380D01*
X101664285Y-87569761D01*
X101616666Y-87522142D01*
X101569047Y-87426904D01*
X101569047Y-87141190D01*
X101616666Y-87045952D01*
X101664285Y-86998333D01*
X101759523Y-86950714D01*
X101950000Y-86950714D01*
X102045238Y-86998333D01*
X102473809Y-87617380D02*
X102473809Y-86950714D01*
X102473809Y-87141190D02*
X102521428Y-87045952D01*
X102569047Y-86998333D01*
X102664285Y-86950714D01*
X102759523Y-86950714D01*
X103235714Y-87617380D02*
X103140476Y-87569761D01*
X103092857Y-87522142D01*
X103045238Y-87426904D01*
X103045238Y-87141190D01*
X103092857Y-87045952D01*
X103140476Y-86998333D01*
X103235714Y-86950714D01*
X103378571Y-86950714D01*
X103473809Y-86998333D01*
X103521428Y-87045952D01*
X103569047Y-87141190D01*
X103569047Y-87426904D01*
X103521428Y-87522142D01*
X103473809Y-87569761D01*
X103378571Y-87617380D01*
X103235714Y-87617380D01*
X104426190Y-87569761D02*
X104330952Y-87617380D01*
X104140476Y-87617380D01*
X104045238Y-87569761D01*
X103997619Y-87522142D01*
X103950000Y-87426904D01*
X103950000Y-87141190D01*
X103997619Y-87045952D01*
X104045238Y-86998333D01*
X104140476Y-86950714D01*
X104330952Y-86950714D01*
X104426190Y-86998333D01*
X104997619Y-87617380D02*
X104902380Y-87569761D01*
X104854761Y-87522142D01*
X104807142Y-87426904D01*
X104807142Y-87141190D01*
X104854761Y-87045952D01*
X104902380Y-86998333D01*
X104997619Y-86950714D01*
X105140476Y-86950714D01*
X105235714Y-86998333D01*
X105283333Y-87045952D01*
X105330952Y-87141190D01*
X105330952Y-87426904D01*
X105283333Y-87522142D01*
X105235714Y-87569761D01*
X105140476Y-87617380D01*
X104997619Y-87617380D01*
X105759523Y-86950714D02*
X105759523Y-87617380D01*
X105759523Y-87045952D02*
X105807142Y-86998333D01*
X105902380Y-86950714D01*
X106045238Y-86950714D01*
X106140476Y-86998333D01*
X106188095Y-87093571D01*
X106188095Y-87617380D01*
X106521428Y-86950714D02*
X106902380Y-86950714D01*
X106664285Y-86617380D02*
X106664285Y-87474523D01*
X106711904Y-87569761D01*
X106807142Y-87617380D01*
X106902380Y-87617380D01*
X107235714Y-87617380D02*
X107235714Y-86950714D01*
X107235714Y-87141190D02*
X107283333Y-87045952D01*
X107330952Y-86998333D01*
X107426190Y-86950714D01*
X107521428Y-86950714D01*
X107997619Y-87617380D02*
X107902380Y-87569761D01*
X107854761Y-87522142D01*
X107807142Y-87426904D01*
X107807142Y-87141190D01*
X107854761Y-87045952D01*
X107902380Y-86998333D01*
X107997619Y-86950714D01*
X108140476Y-86950714D01*
X108235714Y-86998333D01*
X108283333Y-87045952D01*
X108330952Y-87141190D01*
X108330952Y-87426904D01*
X108283333Y-87522142D01*
X108235714Y-87569761D01*
X108140476Y-87617380D01*
X107997619Y-87617380D01*
X108902380Y-87617380D02*
X108807142Y-87569761D01*
X108759523Y-87474523D01*
X108759523Y-86617380D01*
X109426190Y-87617380D02*
X109330952Y-87569761D01*
X109283333Y-87474523D01*
X109283333Y-86617380D01*
X110188095Y-87569761D02*
X110092857Y-87617380D01*
X109902380Y-87617380D01*
X109807142Y-87569761D01*
X109759523Y-87474523D01*
X109759523Y-87093571D01*
X109807142Y-86998333D01*
X109902380Y-86950714D01*
X110092857Y-86950714D01*
X110188095Y-86998333D01*
X110235714Y-87093571D01*
X110235714Y-87188809D01*
X109759523Y-87284047D01*
X110664285Y-87617380D02*
X110664285Y-86950714D01*
X110664285Y-87141190D02*
X110711904Y-87045952D01*
X110759523Y-86998333D01*
X110854761Y-86950714D01*
X110950000Y-86950714D01*
X112378571Y-87093571D02*
X112521428Y-87141190D01*
X112569047Y-87188809D01*
X112616666Y-87284047D01*
X112616666Y-87426904D01*
X112569047Y-87522142D01*
X112521428Y-87569761D01*
X112426190Y-87617380D01*
X112045238Y-87617380D01*
X112045238Y-86617380D01*
X112378571Y-86617380D01*
X112473809Y-86665000D01*
X112521428Y-86712619D01*
X112569047Y-86807857D01*
X112569047Y-86903095D01*
X112521428Y-86998333D01*
X112473809Y-87045952D01*
X112378571Y-87093571D01*
X112045238Y-87093571D01*
X113188095Y-87617380D02*
X113092857Y-87569761D01*
X113045238Y-87522142D01*
X112997619Y-87426904D01*
X112997619Y-87141190D01*
X113045238Y-87045952D01*
X113092857Y-86998333D01*
X113188095Y-86950714D01*
X113330952Y-86950714D01*
X113426190Y-86998333D01*
X113473809Y-87045952D01*
X113521428Y-87141190D01*
X113521428Y-87426904D01*
X113473809Y-87522142D01*
X113426190Y-87569761D01*
X113330952Y-87617380D01*
X113188095Y-87617380D01*
X114378571Y-87617380D02*
X114378571Y-87093571D01*
X114330952Y-86998333D01*
X114235714Y-86950714D01*
X114045238Y-86950714D01*
X113950000Y-86998333D01*
X114378571Y-87569761D02*
X114283333Y-87617380D01*
X114045238Y-87617380D01*
X113950000Y-87569761D01*
X113902380Y-87474523D01*
X113902380Y-87379285D01*
X113950000Y-87284047D01*
X114045238Y-87236428D01*
X114283333Y-87236428D01*
X114378571Y-87188809D01*
X114854761Y-87617380D02*
X114854761Y-86950714D01*
X114854761Y-87141190D02*
X114902380Y-87045952D01*
X114950000Y-86998333D01*
X115045238Y-86950714D01*
X115140476Y-86950714D01*
X115902380Y-87617380D02*
X115902380Y-86617380D01*
X115902380Y-87569761D02*
X115807142Y-87617380D01*
X115616666Y-87617380D01*
X115521428Y-87569761D01*
X115473809Y-87522142D01*
X115426190Y-87426904D01*
X115426190Y-87141190D01*
X115473809Y-87045952D01*
X115521428Y-86998333D01*
X115616666Y-86950714D01*
X115807142Y-86950714D01*
X115902380Y-86998333D01*
%TO.C,J6*%
X151177666Y-69727380D02*
X151177666Y-70441666D01*
X151130047Y-70584523D01*
X151034809Y-70679761D01*
X150891952Y-70727380D01*
X150796714Y-70727380D01*
X152082428Y-69727380D02*
X151891952Y-69727380D01*
X151796714Y-69775000D01*
X151749095Y-69822619D01*
X151653857Y-69965476D01*
X151606238Y-70155952D01*
X151606238Y-70536904D01*
X151653857Y-70632142D01*
X151701476Y-70679761D01*
X151796714Y-70727380D01*
X151987190Y-70727380D01*
X152082428Y-70679761D01*
X152130047Y-70632142D01*
X152177666Y-70536904D01*
X152177666Y-70298809D01*
X152130047Y-70203571D01*
X152082428Y-70155952D01*
X151987190Y-70108333D01*
X151796714Y-70108333D01*
X151701476Y-70155952D01*
X151653857Y-70203571D01*
X151606238Y-70298809D01*
%TO.C,C1*%
X100172142Y-61253666D02*
X100219761Y-61301285D01*
X100267380Y-61444142D01*
X100267380Y-61539380D01*
X100219761Y-61682238D01*
X100124523Y-61777476D01*
X100029285Y-61825095D01*
X99838809Y-61872714D01*
X99695952Y-61872714D01*
X99505476Y-61825095D01*
X99410238Y-61777476D01*
X99315000Y-61682238D01*
X99267380Y-61539380D01*
X99267380Y-61444142D01*
X99315000Y-61301285D01*
X99362619Y-61253666D01*
X100267380Y-60301285D02*
X100267380Y-60872714D01*
X100267380Y-60587000D02*
X99267380Y-60587000D01*
X99410238Y-60682238D01*
X99505476Y-60777476D01*
X99553095Y-60872714D01*
%TO.C,Y1*%
X150956460Y-98046004D02*
X150956460Y-98580818D01*
X150582090Y-97457708D02*
X150956460Y-98046004D01*
X151330830Y-97457708D01*
X152293496Y-98580818D02*
X151651719Y-98580818D01*
X151972607Y-98580818D02*
X151972607Y-97457708D01*
X151865645Y-97618152D01*
X151758682Y-97725115D01*
X151651719Y-97778597D01*
%TO.C,R2*%
X131120380Y-72114666D02*
X130644190Y-72448000D01*
X131120380Y-72686095D02*
X130120380Y-72686095D01*
X130120380Y-72305142D01*
X130168000Y-72209904D01*
X130215619Y-72162285D01*
X130310857Y-72114666D01*
X130453714Y-72114666D01*
X130548952Y-72162285D01*
X130596571Y-72209904D01*
X130644190Y-72305142D01*
X130644190Y-72686095D01*
X130215619Y-71733714D02*
X130168000Y-71686095D01*
X130120380Y-71590857D01*
X130120380Y-71352761D01*
X130168000Y-71257523D01*
X130215619Y-71209904D01*
X130310857Y-71162285D01*
X130406095Y-71162285D01*
X130548952Y-71209904D01*
X131120380Y-71781333D01*
X131120380Y-71162285D01*
%TO.C,J2*%
X127170380Y-85677333D02*
X127884666Y-85677333D01*
X128027523Y-85724952D01*
X128122761Y-85820190D01*
X128170380Y-85963047D01*
X128170380Y-86058285D01*
X127265619Y-85248761D02*
X127218000Y-85201142D01*
X127170380Y-85105904D01*
X127170380Y-84867809D01*
X127218000Y-84772571D01*
X127265619Y-84724952D01*
X127360857Y-84677333D01*
X127456095Y-84677333D01*
X127598952Y-84724952D01*
X128170380Y-85296380D01*
X128170380Y-84677333D01*
%TO.C,H3*%
X107188095Y-121982380D02*
X107188095Y-120982380D01*
X107188095Y-121458571D02*
X107759523Y-121458571D01*
X107759523Y-121982380D02*
X107759523Y-120982380D01*
X108140476Y-120982380D02*
X108759523Y-120982380D01*
X108426190Y-121363333D01*
X108569047Y-121363333D01*
X108664285Y-121410952D01*
X108711904Y-121458571D01*
X108759523Y-121553809D01*
X108759523Y-121791904D01*
X108711904Y-121887142D01*
X108664285Y-121934761D01*
X108569047Y-121982380D01*
X108283333Y-121982380D01*
X108188095Y-121934761D01*
X108140476Y-121887142D01*
%TO.C,R1*%
X103718380Y-69193666D02*
X103242190Y-69527000D01*
X103718380Y-69765095D02*
X102718380Y-69765095D01*
X102718380Y-69384142D01*
X102766000Y-69288904D01*
X102813619Y-69241285D01*
X102908857Y-69193666D01*
X103051714Y-69193666D01*
X103146952Y-69241285D01*
X103194571Y-69288904D01*
X103242190Y-69384142D01*
X103242190Y-69765095D01*
X103718380Y-68241285D02*
X103718380Y-68812714D01*
X103718380Y-68527000D02*
X102718380Y-68527000D01*
X102861238Y-68622238D01*
X102956476Y-68717476D01*
X103004095Y-68812714D01*
%TO.C,H4*%
X178308095Y-121982380D02*
X178308095Y-120982380D01*
X178308095Y-121458571D02*
X178879523Y-121458571D01*
X178879523Y-121982380D02*
X178879523Y-120982380D01*
X179784285Y-121315714D02*
X179784285Y-121982380D01*
X179546190Y-120934761D02*
X179308095Y-121649047D01*
X179927142Y-121649047D01*
%TO.C,IC1*%
X112847457Y-50504633D02*
X111847331Y-50504633D01*
X112752207Y-49456882D02*
X112799832Y-49504507D01*
X112847457Y-49647382D01*
X112847457Y-49742632D01*
X112799832Y-49885507D01*
X112704582Y-49980757D01*
X112609332Y-50028383D01*
X112418832Y-50076008D01*
X112275957Y-50076008D01*
X112085457Y-50028383D01*
X111990207Y-49980757D01*
X111894957Y-49885507D01*
X111847331Y-49742632D01*
X111847331Y-49647382D01*
X111894957Y-49504507D01*
X111942582Y-49456882D01*
X112847457Y-48504381D02*
X112847457Y-49075882D01*
X112847457Y-48790131D02*
X111847331Y-48790131D01*
X111990207Y-48885381D01*
X112085457Y-48980631D01*
X112133082Y-49075882D01*
%TO.C,IC2*%
X141930457Y-50504633D02*
X140930331Y-50504633D01*
X141835207Y-49456882D02*
X141882832Y-49504507D01*
X141930457Y-49647382D01*
X141930457Y-49742632D01*
X141882832Y-49885507D01*
X141787582Y-49980757D01*
X141692332Y-50028383D01*
X141501832Y-50076008D01*
X141358957Y-50076008D01*
X141168457Y-50028383D01*
X141073207Y-49980757D01*
X140977957Y-49885507D01*
X140930331Y-49742632D01*
X140930331Y-49647382D01*
X140977957Y-49504507D01*
X141025582Y-49456882D01*
X141025582Y-49075882D02*
X140977957Y-49028257D01*
X140930331Y-48933006D01*
X140930331Y-48694881D01*
X140977957Y-48599631D01*
X141025582Y-48552006D01*
X141120832Y-48504381D01*
X141216082Y-48504381D01*
X141358957Y-48552006D01*
X141930457Y-49123507D01*
X141930457Y-48504381D01*
%TO.C,H1*%
X107188095Y-38543380D02*
X107188095Y-37543380D01*
X107188095Y-38019571D02*
X107759523Y-38019571D01*
X107759523Y-38543380D02*
X107759523Y-37543380D01*
X108759523Y-38543380D02*
X108188095Y-38543380D01*
X108473809Y-38543380D02*
X108473809Y-37543380D01*
X108378571Y-37686238D01*
X108283333Y-37781476D01*
X108188095Y-37829095D01*
%TO.C,J5*%
X121459666Y-72394380D02*
X121459666Y-73108666D01*
X121412047Y-73251523D01*
X121316809Y-73346761D01*
X121173952Y-73394380D01*
X121078714Y-73394380D01*
X122412047Y-72394380D02*
X121935857Y-72394380D01*
X121888238Y-72870571D01*
X121935857Y-72822952D01*
X122031095Y-72775333D01*
X122269190Y-72775333D01*
X122364428Y-72822952D01*
X122412047Y-72870571D01*
X122459666Y-72965809D01*
X122459666Y-73203904D01*
X122412047Y-73299142D01*
X122364428Y-73346761D01*
X122269190Y-73394380D01*
X122031095Y-73394380D01*
X121935857Y-73346761D01*
X121888238Y-73299142D01*
%TO.C,C4*%
X179166142Y-106465666D02*
X179213761Y-106513285D01*
X179261380Y-106656142D01*
X179261380Y-106751380D01*
X179213761Y-106894238D01*
X179118523Y-106989476D01*
X179023285Y-107037095D01*
X178832809Y-107084714D01*
X178689952Y-107084714D01*
X178499476Y-107037095D01*
X178404238Y-106989476D01*
X178309000Y-106894238D01*
X178261380Y-106751380D01*
X178261380Y-106656142D01*
X178309000Y-106513285D01*
X178356619Y-106465666D01*
X178594714Y-105608523D02*
X179261380Y-105608523D01*
X178213761Y-105846619D02*
X178928047Y-106084714D01*
X178928047Y-105465666D01*
%TO.C,H2*%
X178308095Y-38162380D02*
X178308095Y-37162380D01*
X178308095Y-37638571D02*
X178879523Y-37638571D01*
X178879523Y-38162380D02*
X178879523Y-37162380D01*
X179308095Y-37257619D02*
X179355714Y-37210000D01*
X179450952Y-37162380D01*
X179689047Y-37162380D01*
X179784285Y-37210000D01*
X179831904Y-37257619D01*
X179879523Y-37352857D01*
X179879523Y-37448095D01*
X179831904Y-37590952D01*
X179260476Y-38162380D01*
X179879523Y-38162380D01*
%TO.C,J3*%
X127170380Y-92535333D02*
X127884666Y-92535333D01*
X128027523Y-92582952D01*
X128122761Y-92678190D01*
X128170380Y-92821047D01*
X128170380Y-92916285D01*
X127170380Y-92154380D02*
X127170380Y-91535333D01*
X127551333Y-91868666D01*
X127551333Y-91725809D01*
X127598952Y-91630571D01*
X127646571Y-91582952D01*
X127741809Y-91535333D01*
X127979904Y-91535333D01*
X128075142Y-91582952D01*
X128122761Y-91630571D01*
X128170380Y-91725809D01*
X128170380Y-92011523D01*
X128122761Y-92106761D01*
X128075142Y-92154380D01*
%TO.C,U1*%
X147777380Y-86173904D02*
X148586904Y-86173904D01*
X148682142Y-86126285D01*
X148729761Y-86078666D01*
X148777380Y-85983428D01*
X148777380Y-85792952D01*
X148729761Y-85697714D01*
X148682142Y-85650095D01*
X148586904Y-85602476D01*
X147777380Y-85602476D01*
X148777380Y-84602476D02*
X148777380Y-85173904D01*
X148777380Y-84888190D02*
X147777380Y-84888190D01*
X147920238Y-84983428D01*
X148015476Y-85078666D01*
X148063095Y-85173904D01*
%TO.C,C2*%
X130271142Y-61634666D02*
X130318761Y-61682285D01*
X130366380Y-61825142D01*
X130366380Y-61920380D01*
X130318761Y-62063238D01*
X130223523Y-62158476D01*
X130128285Y-62206095D01*
X129937809Y-62253714D01*
X129794952Y-62253714D01*
X129604476Y-62206095D01*
X129509238Y-62158476D01*
X129414000Y-62063238D01*
X129366380Y-61920380D01*
X129366380Y-61825142D01*
X129414000Y-61682285D01*
X129461619Y-61634666D01*
X129461619Y-61253714D02*
X129414000Y-61206095D01*
X129366380Y-61110857D01*
X129366380Y-60872761D01*
X129414000Y-60777523D01*
X129461619Y-60729904D01*
X129556857Y-60682285D01*
X129652095Y-60682285D01*
X129794952Y-60729904D01*
X130366380Y-61301333D01*
X130366380Y-60682285D01*
%TO.C,J7*%
X174037666Y-58336380D02*
X174037666Y-59050666D01*
X173990047Y-59193523D01*
X173894809Y-59288761D01*
X173751952Y-59336380D01*
X173656714Y-59336380D01*
X174418619Y-58336380D02*
X175085285Y-58336380D01*
X174656714Y-59336380D01*
%TO.C,C3*%
X174721142Y-106084666D02*
X174768761Y-106132285D01*
X174816380Y-106275142D01*
X174816380Y-106370380D01*
X174768761Y-106513238D01*
X174673523Y-106608476D01*
X174578285Y-106656095D01*
X174387809Y-106703714D01*
X174244952Y-106703714D01*
X174054476Y-106656095D01*
X173959238Y-106608476D01*
X173864000Y-106513238D01*
X173816380Y-106370380D01*
X173816380Y-106275142D01*
X173864000Y-106132285D01*
X173911619Y-106084666D01*
X173816380Y-105751333D02*
X173816380Y-105132285D01*
X174197333Y-105465619D01*
X174197333Y-105322761D01*
X174244952Y-105227523D01*
X174292571Y-105179904D01*
X174387809Y-105132285D01*
X174625904Y-105132285D01*
X174721142Y-105179904D01*
X174768761Y-105227523D01*
X174816380Y-105322761D01*
X174816380Y-105608476D01*
X174768761Y-105703714D01*
X174721142Y-105751333D01*
%TO.C,J4*%
X127170380Y-100028333D02*
X127884666Y-100028333D01*
X128027523Y-100075952D01*
X128122761Y-100171190D01*
X128170380Y-100314047D01*
X128170380Y-100409285D01*
X127503714Y-99123571D02*
X128170380Y-99123571D01*
X127122761Y-99361666D02*
X127837047Y-99599761D01*
X127837047Y-98980714D01*
%TO.C,J1*%
X124888666Y-48938380D02*
X124888666Y-49652666D01*
X124841047Y-49795523D01*
X124745809Y-49890761D01*
X124602952Y-49938380D01*
X124507714Y-49938380D01*
X125888666Y-49938380D02*
X125317238Y-49938380D01*
X125602952Y-49938380D02*
X125602952Y-48938380D01*
X125507714Y-49081238D01*
X125412476Y-49176476D01*
X125317238Y-49224095D01*
D11*
%TO.C,J6*%
X150181000Y-66675000D02*
X150181000Y-58995000D01*
X152841000Y-69275000D02*
X151511000Y-69275000D01*
X152841000Y-66675000D02*
X150181000Y-66675000D01*
X152841000Y-66675000D02*
X152841000Y-58995000D01*
X152841000Y-58995000D02*
X150181000Y-58995000D01*
X152841000Y-67945000D02*
X152841000Y-69275000D01*
%TO.C,C1*%
X103655000Y-59067000D02*
X100815000Y-59067000D01*
X100815000Y-63107000D02*
X103655000Y-63107000D01*
X102235000Y-58377000D02*
X102235000Y-59067000D01*
X102235000Y-63797000D02*
X102235000Y-63107000D01*
X100815000Y-59067000D02*
X100815000Y-63107000D01*
X103655000Y-63107000D02*
X103655000Y-59067000D01*
D12*
%TO.C,Y1*%
X148193000Y-112645000D02*
X151003000Y-112645000D01*
X152273000Y-99445000D02*
X149473000Y-99445000D01*
X148193000Y-109855000D02*
X148193000Y-112645000D01*
X169053000Y-111345000D02*
X169053000Y-108585000D01*
X164973000Y-99445000D02*
X167773000Y-99445000D01*
X169053000Y-100745000D02*
X169053000Y-103505000D01*
X148193000Y-100745000D02*
X148193000Y-103505000D01*
X164973000Y-112645000D02*
X167773000Y-112645000D01*
X167773000Y-112645000D02*
G75*
G03*
X169053000Y-111345000I-9999J1289999D01*
G01*
X169053000Y-100745000D02*
G75*
G03*
X167773000Y-99445000I-1289999J10001D01*
G01*
X149473000Y-99445000D02*
G75*
G03*
X148193000Y-100745000I9999J-1289999D01*
G01*
D13*
X147723000Y-110045000D02*
G75*
G03*
X147723000Y-110045000I-100000J0D01*
G01*
D11*
%TO.C,R2*%
X131888000Y-72480867D02*
G75*
G03*
X133337359Y-72577905I700000J-417133D01*
G01*
%TO.C,J2*%
X131318000Y-84014000D02*
X136458000Y-84014000D01*
X131318000Y-86674000D02*
X136458000Y-86674000D01*
X128718000Y-86674000D02*
X128718000Y-85344000D01*
X131318000Y-86674000D02*
X131318000Y-84014000D01*
X130048000Y-86674000D02*
X128718000Y-86674000D01*
X136458000Y-86674000D02*
X136458000Y-84014000D01*
%TO.C,R1*%
X102046000Y-68494133D02*
G75*
G03*
X100596641Y-68397095I-700000J417133D01*
G01*
D14*
%TO.C,IC1*%
X115189000Y-50546000D02*
X113284000Y-50546000D01*
X109347000Y-50546000D02*
X111252000Y-50546000D01*
X109347000Y-50546000D02*
X109347000Y-75946000D01*
X115189000Y-75946000D02*
X109347000Y-75946000D01*
X115189000Y-75946000D02*
X115189000Y-50546000D01*
X111252000Y-50546000D02*
G75*
G03*
X113284000Y-50546000I1016000J0D01*
G01*
%TO.C,IC2*%
X144272000Y-75946000D02*
X144272000Y-50546000D01*
X138430000Y-50546000D02*
X140335000Y-50546000D01*
X138430000Y-50546000D02*
X138430000Y-75946000D01*
X144272000Y-50546000D02*
X142367000Y-50546000D01*
X144272000Y-75946000D02*
X138430000Y-75946000D01*
X140335000Y-50546000D02*
G75*
G03*
X142367000Y-50546000I1016000J0D01*
G01*
D11*
%TO.C,J5*%
X123123000Y-71942000D02*
X121793000Y-71942000D01*
X123123000Y-70612000D02*
X123123000Y-71942000D01*
X123123000Y-69342000D02*
X123123000Y-61662000D01*
X123123000Y-69342000D02*
X120463000Y-69342000D01*
X123123000Y-61662000D02*
X120463000Y-61662000D01*
X120463000Y-69342000D02*
X120463000Y-61662000D01*
%TO.C,C4*%
X179809000Y-104279000D02*
X179809000Y-108319000D01*
X181229000Y-109009000D02*
X181229000Y-108319000D01*
X179809000Y-108319000D02*
X182649000Y-108319000D01*
X182649000Y-104279000D02*
X179809000Y-104279000D01*
X182649000Y-108319000D02*
X182649000Y-104279000D01*
X181229000Y-103589000D02*
X181229000Y-104279000D01*
%TO.C,J3*%
X131318000Y-90872000D02*
X136458000Y-90872000D01*
X128718000Y-93532000D02*
X128718000Y-92202000D01*
X130048000Y-93532000D02*
X128718000Y-93532000D01*
X131318000Y-93532000D02*
X131318000Y-90872000D01*
X136458000Y-93532000D02*
X136458000Y-90872000D01*
X131318000Y-93532000D02*
X136458000Y-93532000D01*
D10*
%TO.C,U1*%
X158000000Y-89037000D02*
X158000000Y-88712000D01*
X158000000Y-81787000D02*
X157675000Y-81787000D01*
X150750000Y-89037000D02*
X150975000Y-89037000D01*
X150750000Y-81787000D02*
X151075000Y-81787000D01*
X150750000Y-81787000D02*
X150750000Y-82112000D01*
X158000000Y-81787000D02*
X158000000Y-82112000D01*
X150975000Y-89037000D02*
X150975000Y-90462000D01*
X150750000Y-89037000D02*
X150750000Y-88712000D01*
X158000000Y-89037000D02*
X157675000Y-89037000D01*
D11*
%TO.C,C2*%
X133754000Y-63488000D02*
X133754000Y-59448000D01*
X132334000Y-58758000D02*
X132334000Y-59448000D01*
X130914000Y-63488000D02*
X133754000Y-63488000D01*
X130914000Y-59448000D02*
X130914000Y-63488000D01*
X133754000Y-59448000D02*
X130914000Y-59448000D01*
X132334000Y-64178000D02*
X132334000Y-63488000D01*
%TO.C,J7*%
X171771000Y-61214000D02*
X171771000Y-59884000D01*
X171771000Y-87944000D02*
X176971000Y-87944000D01*
X176971000Y-59884000D02*
X176971000Y-87944000D01*
X171771000Y-62484000D02*
X171771000Y-87944000D01*
X171771000Y-59884000D02*
X173101000Y-59884000D01*
X174371000Y-59884000D02*
X176971000Y-59884000D01*
X174371000Y-62484000D02*
X174371000Y-59884000D01*
X171771000Y-62484000D02*
X174371000Y-62484000D01*
%TO.C,C3*%
X178204000Y-107938000D02*
X178204000Y-103898000D01*
X176784000Y-103208000D02*
X176784000Y-103898000D01*
X176784000Y-108628000D02*
X176784000Y-107938000D01*
X178204000Y-103898000D02*
X175364000Y-103898000D01*
X175364000Y-107938000D02*
X178204000Y-107938000D01*
X175364000Y-103898000D02*
X175364000Y-107938000D01*
%TO.C,J4*%
X130048000Y-101025000D02*
X128718000Y-101025000D01*
X131318000Y-101025000D02*
X131318000Y-98365000D01*
X128718000Y-101025000D02*
X128718000Y-99695000D01*
X131318000Y-98365000D02*
X136458000Y-98365000D01*
X131318000Y-101025000D02*
X136458000Y-101025000D01*
X136458000Y-101025000D02*
X136458000Y-98365000D01*
%TO.C,J1*%
X123892000Y-51816000D02*
X123892000Y-50486000D01*
X123892000Y-53086000D02*
X126552000Y-53086000D01*
X123892000Y-58226000D02*
X126552000Y-58226000D01*
X126552000Y-53086000D02*
X126552000Y-58226000D01*
X123892000Y-53086000D02*
X123892000Y-58226000D01*
X123892000Y-50486000D02*
X125222000Y-50486000D01*
%TD*%
M02*
