M48
; DRILL file {KiCad (6.0.1)} date Tue Mar 29 06:33:36 2022
; FORMAT={-:-/ absolute / inch / decimal}
; #@! TF.CreationDate,2022-03-29T06:33:36-05:00
; #@! TF.GenerationSoftware,Kicad,Pcbnew,(6.0.1)
; #@! TF.FileFunction,Plated,1,2,PTH
FMAT,2
INCH
; #@! TA.AperFunction,Plated,PTH,ViaDrill
T1C0.0157
; #@! TA.AperFunction,Plated,PTH,ComponentDrill
T2C0.0256
; #@! TA.AperFunction,Plated,PTH,ComponentDrill
T3C0.0320
; #@! TA.AperFunction,Plated,PTH,ComponentDrill
T4C0.0394
%
G90
G05
T1
X5.475Y-3.135
X5.475Y-4.16
X5.55Y-3.405
X5.705Y-3.29
X5.81Y-3.215
X5.815Y-3.29
X5.82Y-2.94
X5.835Y-2.34
X5.915Y-4.16
X5.97Y-3.89
X5.9961Y-3.84
X6.0488Y-3.617
X6.06Y-2.23
X6.062Y-3.5799
X6.065Y-3.11
X6.1064Y-3.75
X6.1273Y-3.5873
X6.1552Y-3.6498
X6.165Y-3.75
X6.205Y-3.12
X6.275Y-3.615
X6.315Y-3.44
X6.4286Y-3.59
X6.465Y-3.555
X6.5152Y-3.5836
X6.5564Y-3.6136
X6.565Y-2.81
X6.58Y-4.505
X6.595Y-3.645
X6.625Y-4.535
X6.64Y-3.685
X6.65Y-2.73
X6.68Y-2.65
X6.68Y-3.5264
X6.6814Y-3.82
X6.6814Y-3.87
X6.685Y-3.02
X6.695Y-3.115
X6.715Y-2.76
X6.72Y-3.21
X6.795Y-3.4978
X6.795Y-4.445
X6.81Y-4.535
X6.83Y-3.755
X6.87Y-3.5264
X7.06Y-3.41
X7.09Y-4.6014
X7.105Y-3.31
X7.14Y-3.21
X7.14Y-4.63
X7.175Y-3.11
X7.2Y-4.665
X7.21Y-3.01
X7.3Y-4.665
X7.34Y-4.63
X7.4Y-4.6
T2
X5.945Y-4.025
X5.945Y-4.325
X6.545Y-4.025
X6.545Y-4.325
T3
X4.27Y-2.04
X4.27Y-2.14
X4.27Y-2.24
X4.27Y-2.34
X4.27Y-2.44
X4.27Y-2.54
X4.27Y-2.64
X4.27Y-2.74
X4.27Y-2.84
X4.27Y-2.94
X4.57Y-2.04
X4.57Y-2.14
X4.57Y-2.24
X4.57Y-2.34
X4.57Y-2.44
X4.57Y-2.54
X4.57Y-2.64
X4.57Y-2.74
X4.57Y-2.84
X4.57Y-2.94
X5.415Y-2.04
X5.415Y-2.14
X5.415Y-2.24
X5.415Y-2.34
X5.415Y-2.44
X5.415Y-2.54
X5.415Y-2.64
X5.415Y-2.74
X5.415Y-2.84
X5.415Y-2.94
X5.715Y-2.04
X5.715Y-2.14
X5.715Y-2.24
X5.715Y-2.34
X5.715Y-2.44
X5.715Y-2.54
X5.715Y-2.64
X5.715Y-2.74
X5.715Y-2.84
X5.715Y-2.94
T4
X4.795Y-2.48
X4.795Y-2.58
X4.795Y-2.68
X4.795Y-2.78
X4.93Y-2.04
X4.93Y-2.14
X4.93Y-2.24
X5.12Y-3.36
X5.12Y-3.63
X5.12Y-3.925
X5.22Y-3.36
X5.22Y-3.63
X5.22Y-3.925
X5.32Y-3.36
X5.32Y-3.63
X5.32Y-3.925
X5.965Y-2.375
X5.965Y-2.475
X5.965Y-2.575
X5.965Y-2.675
X6.815Y-2.41
X6.815Y-2.51
X6.815Y-2.61
X6.815Y-2.71
X6.815Y-2.81
X6.815Y-2.91
X6.815Y-3.01
X6.815Y-3.11
X6.815Y-3.21
X6.815Y-3.31
X6.815Y-3.41
X6.915Y-2.41
X6.915Y-2.51
X6.915Y-2.61
X6.915Y-2.71
X6.915Y-2.81
X6.915Y-2.91
X6.915Y-3.01
X6.915Y-3.11
X6.915Y-3.21
X6.915Y-3.31
X6.915Y-3.41
T0
M30
