%TF.GenerationSoftware,KiCad,Pcbnew,(6.0.1)*%
%TF.CreationDate,2022-03-29T06:33:39-05:00*%
%TF.ProjectId,microcontroller_board,6d696372-6f63-46f6-9e74-726f6c6c6572,rev?*%
%TF.SameCoordinates,Original*%
%TF.FileFunction,Copper,L2,Bot*%
%TF.FilePolarity,Positive*%
%FSLAX46Y46*%
G04 Gerber Fmt 4.6, Leading zero omitted, Abs format (unit mm)*
G04 Created by KiCad (PCBNEW (6.0.1)) date 2022-03-29 06:33:39*
%MOMM*%
%LPD*%
G01*
G04 APERTURE LIST*
%TA.AperFunction,ComponentPad*%
%ADD10R,1.700000X1.700000*%
%TD*%
%TA.AperFunction,ComponentPad*%
%ADD11O,1.700000X1.700000*%
%TD*%
%TA.AperFunction,ComponentPad*%
%ADD12C,1.158000*%
%TD*%
%TA.AperFunction,ComponentPad*%
%ADD13R,1.158000X1.158000*%
%TD*%
%TA.AperFunction,ComponentPad*%
%ADD14O,2.641600X1.320800*%
%TD*%
%TA.AperFunction,ViaPad*%
%ADD15C,0.800000*%
%TD*%
%TA.AperFunction,Conductor*%
%ADD16C,0.254000*%
%TD*%
G04 APERTURE END LIST*
D10*
%TO.P,J7,1,Pin_1*%
%TO.N,Net-(U1-Pad19)*%
X173101000Y-61214000D03*
D11*
%TO.P,J7,2,Pin_2*%
%TO.N,unconnected-(J7-Pad2)*%
X175641000Y-61214000D03*
%TO.P,J7,3,Pin_3*%
%TO.N,Net-(U1-Pad20)*%
X173101000Y-63754000D03*
%TO.P,J7,4,Pin_4*%
%TO.N,Net-(U1-Pad22)*%
X175641000Y-63754000D03*
%TO.P,J7,5,Pin_5*%
%TO.N,Net-(U1-Pad11)*%
X173101000Y-66294000D03*
%TO.P,J7,6,Pin_6*%
%TO.N,Net-(U1-Pad29)*%
X175641000Y-66294000D03*
%TO.P,J7,7,Pin_7*%
%TO.N,Net-(U1-Pad10)*%
X173101000Y-68834000D03*
%TO.P,J7,8,Pin_8*%
%TO.N,Net-(U1-Pad28)*%
X175641000Y-68834000D03*
%TO.P,J7,9,Pin_9*%
%TO.N,Net-(U1-Pad9)*%
X173101000Y-71374000D03*
%TO.P,J7,10,Pin_10*%
%TO.N,Net-(U1-Pad27)*%
X175641000Y-71374000D03*
%TO.P,J7,11,Pin_11*%
%TO.N,Net-(U1-Pad2)*%
X173101000Y-73914000D03*
%TO.P,J7,12,Pin_12*%
%TO.N,Net-(U1-Pad26)*%
X175641000Y-73914000D03*
%TO.P,J7,13,Pin_13*%
%TO.N,Net-(U1-Pad1)*%
X173101000Y-76454000D03*
%TO.P,J7,14,Pin_14*%
%TO.N,Net-(U1-Pad17)*%
X175641000Y-76454000D03*
%TO.P,J7,15,Pin_15*%
%TO.N,Net-(U1-Pad32)*%
X173101000Y-78994000D03*
%TO.P,J7,16,Pin_16*%
%TO.N,Net-(U1-Pad16)*%
X175641000Y-78994000D03*
%TO.P,J7,17,Pin_17*%
%TO.N,Net-(U1-Pad31)*%
X173101000Y-81534000D03*
%TO.P,J7,18,Pin_18*%
%TO.N,Net-(U1-Pad15)*%
X175641000Y-81534000D03*
%TO.P,J7,19,Pin_19*%
%TO.N,Net-(U1-Pad30)*%
X173101000Y-84074000D03*
%TO.P,J7,20,Pin_20*%
%TO.N,Net-(U1-Pad14)*%
X175641000Y-84074000D03*
%TO.P,J7,21,Pin_21*%
%TO.N,Net-(U1-Pad12)*%
X173101000Y-86614000D03*
%TO.P,J7,22,Pin_22*%
%TO.N,Net-(U1-Pad13)*%
X175641000Y-86614000D03*
%TD*%
%TO.P,J6,4,Pin_4*%
%TO.N,Net-(IC2-Pad1)*%
X151511000Y-60325000D03*
%TO.P,J6,3,Pin_3*%
%TO.N,Net-(IC2-Pad16)*%
X151511000Y-62865000D03*
%TO.P,J6,2,Pin_2*%
%TO.N,Net-(IC2-Pad14)*%
X151511000Y-65405000D03*
D10*
%TO.P,J6,1,Pin_1*%
%TO.N,Net-(IC2-Pad12)*%
X151511000Y-67945000D03*
%TD*%
%TO.P,J5,1,Pin_1*%
%TO.N,Net-(IC1-Pad12)*%
X121793000Y-70612000D03*
D11*
%TO.P,J5,2,Pin_2*%
%TO.N,Net-(IC1-Pad14)*%
X121793000Y-68072000D03*
%TO.P,J5,3,Pin_3*%
%TO.N,Net-(IC1-Pad16)*%
X121793000Y-65532000D03*
%TO.P,J5,4,Pin_4*%
%TO.N,Net-(IC1-Pad1)*%
X121793000Y-62992000D03*
%TD*%
%TO.P,J4,3,Pin_3*%
%TO.N,Net-(J4-Pad3)*%
X135128000Y-99695000D03*
%TO.P,J4,2,Pin_2*%
%TO.N,Net-(IC2-Pad19)*%
X132588000Y-99695000D03*
D10*
%TO.P,J4,1,Pin_1*%
%TO.N,Net-(IC1-Pad19)*%
X130048000Y-99695000D03*
%TD*%
%TO.P,J3,1,Pin_1*%
%TO.N,Net-(IC1-Pad19)*%
X130048000Y-92202000D03*
D11*
%TO.P,J3,2,Pin_2*%
%TO.N,Net-(IC2-Pad19)*%
X132588000Y-92202000D03*
%TO.P,J3,3,Pin_3*%
%TO.N,Net-(J3-Pad3)*%
X135128000Y-92202000D03*
%TD*%
D10*
%TO.P,J2,1,Pin_1*%
%TO.N,Net-(IC1-Pad19)*%
X130048000Y-85344000D03*
D11*
%TO.P,J2,2,Pin_2*%
%TO.N,Net-(IC2-Pad19)*%
X132588000Y-85344000D03*
%TO.P,J2,3,Pin_3*%
%TO.N,Net-(J2-Pad3)*%
X135128000Y-85344000D03*
%TD*%
D10*
%TO.P,J1,1,Pin_1*%
%TO.N,-5V*%
X125222000Y-51816000D03*
D11*
%TO.P,J1,2,Pin_2*%
%TO.N,GND*%
X125222000Y-54356000D03*
%TO.P,J1,3,Pin_3*%
%TO.N,+5V*%
X125222000Y-56896000D03*
%TD*%
D12*
%TO.P,Y1,14,+VDC*%
%TO.N,+5V*%
X151003000Y-102235000D03*
%TO.P,Y1,8,OUTPUT*%
%TO.N,Net-(C3-Pad2)*%
X166243000Y-102235000D03*
%TO.P,Y1,7,CASE_GND*%
%TO.N,Net-(C4-Pad1)*%
X166243000Y-109855000D03*
D13*
%TO.P,Y1,1*%
%TO.N,N/C*%
X151003000Y-109855000D03*
%TD*%
D14*
%TO.P,IC2,20,V-*%
%TO.N,-5V*%
X145161000Y-51816000D03*
%TO.P,IC2,19,OUT*%
%TO.N,Net-(IC2-Pad19)*%
X145161000Y-54356000D03*
%TO.P,IC2,18*%
%TO.N,GND*%
X145161000Y-56896000D03*
%TO.P,IC2,17,V+*%
%TO.N,+5V*%
X145161000Y-59436000D03*
%TO.P,IC2,16,DV+*%
%TO.N,Net-(IC2-Pad16)*%
X145161000Y-61976000D03*
%TO.P,IC2,15,DGND*%
%TO.N,GND*%
X145161000Y-64516000D03*
%TO.P,IC2,14,SYNC*%
%TO.N,Net-(IC2-Pad14)*%
X145161000Y-67056000D03*
%TO.P,IC2,13,PDI*%
%TO.N,GND*%
X145161000Y-69596000D03*
%TO.P,IC2,12,PDO*%
%TO.N,Net-(IC2-Pad12)*%
X145161000Y-72136000D03*
%TO.P,IC2,11*%
%TO.N,GND*%
X145161000Y-74676000D03*
%TO.P,IC2,10,IIN*%
%TO.N,Net-(IC2-Pad10)*%
X137541000Y-74676000D03*
%TO.P,IC2,9*%
%TO.N,GND*%
X137541000Y-72136000D03*
%TO.P,IC2,5,COSC*%
%TO.N,Net-(C2-Pad2)*%
X137541000Y-61976000D03*
%TO.P,IC2,6*%
%TO.N,GND*%
X137541000Y-64516000D03*
%TO.P,IC2,4,A1*%
%TO.N,+5V*%
X137541000Y-59436000D03*
%TO.P,IC2,3,A0*%
%TO.N,GND*%
X137541000Y-56896000D03*
%TO.P,IC2,8,FADJ*%
X137541000Y-69596000D03*
%TO.P,IC2,7,DADJ*%
X137541000Y-67056000D03*
%TO.P,IC2,2*%
X137541000Y-54356000D03*
%TO.P,IC2,1,REF*%
%TO.N,Net-(IC2-Pad1)*%
X137541000Y-51816000D03*
%TD*%
%TO.P,IC1,1,REF*%
%TO.N,Net-(IC1-Pad1)*%
X108458000Y-51816000D03*
%TO.P,IC1,2*%
%TO.N,GND*%
X108458000Y-54356000D03*
%TO.P,IC1,7,DADJ*%
X108458000Y-67056000D03*
%TO.P,IC1,8,FADJ*%
X108458000Y-69596000D03*
%TO.P,IC1,3,A0*%
X108458000Y-56896000D03*
%TO.P,IC1,4,A1*%
X108458000Y-59436000D03*
%TO.P,IC1,6*%
X108458000Y-64516000D03*
%TO.P,IC1,5,COSC*%
%TO.N,Net-(C1-Pad2)*%
X108458000Y-61976000D03*
%TO.P,IC1,9*%
%TO.N,GND*%
X108458000Y-72136000D03*
%TO.P,IC1,10,IIN*%
%TO.N,Net-(IC1-Pad10)*%
X108458000Y-74676000D03*
%TO.P,IC1,11*%
%TO.N,GND*%
X116078000Y-74676000D03*
%TO.P,IC1,12,PDO*%
%TO.N,Net-(IC1-Pad12)*%
X116078000Y-72136000D03*
%TO.P,IC1,13,PDI*%
%TO.N,GND*%
X116078000Y-69596000D03*
%TO.P,IC1,14,SYNC*%
%TO.N,Net-(IC1-Pad14)*%
X116078000Y-67056000D03*
%TO.P,IC1,15,DGND*%
%TO.N,GND*%
X116078000Y-64516000D03*
%TO.P,IC1,16,DV+*%
%TO.N,Net-(IC1-Pad16)*%
X116078000Y-61976000D03*
%TO.P,IC1,17,V+*%
%TO.N,+5V*%
X116078000Y-59436000D03*
%TO.P,IC1,18*%
%TO.N,GND*%
X116078000Y-56896000D03*
%TO.P,IC1,19,OUT*%
%TO.N,Net-(IC1-Pad19)*%
X116078000Y-54356000D03*
%TO.P,IC1,20,V-*%
%TO.N,-5V*%
X116078000Y-51816000D03*
%TD*%
D15*
%TO.N,GND*%
X153640191Y-91871524D03*
%TO.N,+5V*%
X139065000Y-79629000D03*
X139065000Y-105664000D03*
X150241000Y-105664000D03*
X153924000Y-56642000D03*
X159385000Y-91821000D03*
X155632786Y-91116786D03*
X153975000Y-90929766D03*
%TO.N,GND*%
X156342714Y-92704286D03*
X155102500Y-95250000D03*
X156591000Y-95250000D03*
%TO.N,+5V*%
X157607000Y-79248000D03*
X148209000Y-59436000D03*
%TO.N,GND*%
X154051000Y-78994000D03*
X147828000Y-74676000D03*
%TO.N,Net-(U1-Pad9)*%
X166751000Y-71374000D03*
X169707500Y-98298000D03*
%TO.N,Net-(U1-Pad10)*%
X170561000Y-70104000D03*
X160401000Y-87376000D03*
%TO.N,Net-(U1-Pad11)*%
X168910000Y-69342000D03*
X169707500Y-97028000D03*
%TO.N,Net-(U1-Pad12)*%
X163286500Y-91186000D03*
X173482000Y-95377000D03*
%TO.N,Net-(U1-Pad2)*%
X169799000Y-76708000D03*
X152301500Y-97536000D03*
%TO.N,Net-(U1-Pad1)*%
X170053000Y-79121000D03*
X151638000Y-98806000D03*
%TO.N,Net-(U1-Pad32)*%
X170688000Y-81534000D03*
X172593000Y-88844000D03*
X172593000Y-112903000D03*
X167132000Y-114427000D03*
%TO.N,Net-(U1-Pad31)*%
X174498000Y-89570500D03*
X169672000Y-89570500D03*
X172974000Y-115189000D03*
X168275000Y-115189000D03*
%TO.N,Net-(U1-Pad29)*%
X187960000Y-116840000D03*
X180086000Y-116875500D03*
%TO.N,Net-(U1-Pad28)*%
X186436000Y-117602000D03*
X181356000Y-117602000D03*
%TO.N,Net-(U1-Pad27)*%
X185420000Y-118491000D03*
X182880000Y-118491000D03*
%TO.N,Net-(U1-Pad17)*%
X183134000Y-76454000D03*
%TO.N,Net-(U1-Pad16)*%
X182245000Y-78994000D03*
%TO.N,Net-(U1-Pad15)*%
X181356000Y-81534000D03*
%TO.N,Net-(U1-Pad14)*%
X180467000Y-84074000D03*
%TO.N,Net-(U1-Pad13)*%
X179324000Y-86614000D03*
%TO.N,Net-(U1-Pad17)*%
X168656000Y-93599000D03*
%TO.N,Net-(U1-Pad16)*%
X167513000Y-92583000D03*
%TO.N,Net-(U1-Pad15)*%
X166532489Y-91785511D03*
%TO.N,Net-(U1-Pad14)*%
X165485983Y-91023500D03*
%TO.N,Net-(U1-Pad13)*%
X164211000Y-90297000D03*
%TO.N,Net-(U1-Pad19)*%
X169672000Y-67310000D03*
%TO.N,Net-(J3-Pad3)*%
X147574000Y-81661000D03*
X140970000Y-86487000D03*
%TO.N,Net-(J2-Pad3)*%
X147701000Y-83566000D03*
X144907000Y-83566000D03*
%TD*%
D16*
%TO.N,GND*%
X155303627Y-91871524D02*
X155331854Y-91843297D01*
X153640191Y-91871524D02*
X155303627Y-91871524D01*
X155331854Y-91843297D02*
X155481725Y-91843297D01*
X155481725Y-91843297D02*
X156342714Y-92704286D01*
%TO.N,+5V*%
X139065000Y-105664000D02*
X139065000Y-79629000D01*
X139065000Y-105664000D02*
X150241000Y-105664000D01*
X159766000Y-77089000D02*
X157607000Y-79248000D01*
X159893000Y-77089000D02*
X159766000Y-77089000D01*
X159893000Y-62611000D02*
X153924000Y-56642000D01*
X159893000Y-77089000D02*
X159893000Y-62611000D01*
X158680786Y-91116786D02*
X155632786Y-91116786D01*
X159385000Y-91821000D02*
X158680786Y-91116786D01*
X154162020Y-91116786D02*
X153975000Y-90929766D01*
X155632786Y-91116786D02*
X154162020Y-91116786D01*
%TO.N,GND*%
X156591000Y-95250000D02*
X155102500Y-95250000D01*
X152781000Y-78994000D02*
X154051000Y-78994000D01*
X152146000Y-78994000D02*
X152781000Y-78994000D01*
%TO.N,+5V*%
X148209000Y-66996022D02*
X148209000Y-59436000D01*
X154686000Y-73473022D02*
X148209000Y-66996022D01*
X154686000Y-75946000D02*
X154686000Y-73473022D01*
X157607000Y-79248000D02*
X157607000Y-78867000D01*
X157607000Y-78867000D02*
X154686000Y-75946000D01*
%TO.N,GND*%
X147828000Y-74676000D02*
X152146000Y-78994000D01*
%TO.N,Net-(U1-Pad9)*%
X166624000Y-71247000D02*
X166751000Y-71374000D01*
X166624000Y-54864000D02*
X166624000Y-71247000D01*
X179451000Y-54864000D02*
X166624000Y-54864000D01*
X189611000Y-65024000D02*
X179451000Y-54864000D01*
X189611000Y-91186000D02*
X189611000Y-65024000D01*
X182499000Y-98298000D02*
X189611000Y-91186000D01*
X169707500Y-98298000D02*
X182499000Y-98298000D01*
%TO.N,Net-(U1-Pad10)*%
X160401000Y-80264000D02*
X170561000Y-70104000D01*
X160401000Y-87376000D02*
X160401000Y-80264000D01*
%TO.N,Net-(U1-Pad11)*%
X167640000Y-68072000D02*
X168910000Y-69342000D01*
X167640000Y-56007000D02*
X167640000Y-68072000D01*
X167894000Y-55753000D02*
X167640000Y-56007000D01*
X178943000Y-55753000D02*
X167894000Y-55753000D01*
X188849000Y-65659000D02*
X178943000Y-55753000D01*
X188849000Y-90551000D02*
X188849000Y-65659000D01*
X169707500Y-97028000D02*
X182372000Y-97028000D01*
X182372000Y-97028000D02*
X188849000Y-90551000D01*
%TO.N,Net-(U1-Pad12)*%
X173482000Y-95377000D02*
X167477500Y-95377000D01*
X167477500Y-95377000D02*
X163286500Y-91186000D01*
%TO.N,Net-(U1-Pad1)*%
X170053000Y-79502000D02*
X170053000Y-79121000D01*
X162560000Y-86995000D02*
X170053000Y-79502000D01*
X158369000Y-98806000D02*
X162560000Y-94615000D01*
X151638000Y-98806000D02*
X158369000Y-98806000D01*
X162560000Y-94615000D02*
X162560000Y-86995000D01*
%TO.N,Net-(U1-Pad2)*%
X161544000Y-84963000D02*
X169799000Y-76708000D01*
X161544000Y-85725000D02*
X161544000Y-84963000D01*
X158115000Y-97536000D02*
X161544000Y-94107000D01*
X152301500Y-97536000D02*
X158115000Y-97536000D01*
X161544000Y-94107000D02*
X161544000Y-85725000D01*
%TO.N,Net-(U1-Pad32)*%
X170688000Y-88265000D02*
X170688000Y-81534000D01*
X172537000Y-88900000D02*
X171323000Y-88900000D01*
X172593000Y-88844000D02*
X172537000Y-88900000D01*
X171323000Y-88900000D02*
X170688000Y-88265000D01*
%TO.N,Net-(U1-Pad31)*%
X174498000Y-89570500D02*
X169672000Y-89570500D01*
%TO.N,Net-(U1-Pad32)*%
X171069000Y-114427000D02*
X172593000Y-112903000D01*
X167132000Y-114427000D02*
X171069000Y-114427000D01*
%TO.N,Net-(U1-Pad31)*%
X168275000Y-115189000D02*
X172974000Y-115189000D01*
%TO.N,Net-(U1-Pad29)*%
X187924500Y-116875500D02*
X187960000Y-116840000D01*
X180086000Y-116875500D02*
X187924500Y-116875500D01*
%TO.N,Net-(U1-Pad28)*%
X181356000Y-117602000D02*
X186436000Y-117602000D01*
%TO.N,Net-(U1-Pad27)*%
X182880000Y-118491000D02*
X185420000Y-118491000D01*
%TO.N,Net-(U1-Pad13)*%
X179324000Y-90297000D02*
X164211000Y-90297000D01*
%TO.N,Net-(U1-Pad17)*%
X183134000Y-76454000D02*
X183134000Y-93599000D01*
%TO.N,Net-(U1-Pad16)*%
X182245000Y-92583000D02*
X182245000Y-78994000D01*
%TO.N,Net-(U1-Pad15)*%
X181356000Y-81534000D02*
X181356000Y-91694000D01*
%TO.N,Net-(U1-Pad14)*%
X180467000Y-84074000D02*
X180467000Y-91059000D01*
%TO.N,Net-(U1-Pad13)*%
X179324000Y-86614000D02*
X179324000Y-90297000D01*
%TO.N,Net-(U1-Pad15)*%
X166532489Y-91785511D02*
X166405489Y-91785511D01*
X181264489Y-91785511D02*
X166532489Y-91785511D01*
X181356000Y-91694000D02*
X181264489Y-91785511D01*
%TO.N,Net-(U1-Pad14)*%
X165521483Y-91059000D02*
X165485983Y-91023500D01*
X180467000Y-91059000D02*
X165521483Y-91059000D01*
%TO.N,Net-(U1-Pad17)*%
X183134000Y-93599000D02*
X168656000Y-93599000D01*
%TO.N,Net-(U1-Pad16)*%
X167513000Y-92583000D02*
X167259000Y-92583000D01*
X182245000Y-92583000D02*
X167513000Y-92583000D01*
%TO.N,Net-(U1-Pad19)*%
X169672000Y-61214000D02*
X173101000Y-61214000D01*
X169672000Y-67310000D02*
X169672000Y-61214000D01*
%TO.N,Net-(J3-Pad3)*%
X141351000Y-81661000D02*
X147574000Y-81661000D01*
X140970000Y-82042000D02*
X141351000Y-81661000D01*
X140970000Y-86487000D02*
X140970000Y-82042000D01*
%TO.N,Net-(J2-Pad3)*%
X144907000Y-83566000D02*
X147701000Y-83566000D01*
%TD*%
%TA.AperFunction,Conductor*%
%TO.N,GND*%
G36*
X190374550Y-47751671D02*
G01*
X190442618Y-47771852D01*
X190488970Y-47825630D01*
X190500219Y-47877451D01*
X190625040Y-119399500D01*
X190626781Y-120397273D01*
X190606898Y-120465429D01*
X190553323Y-120512015D01*
X190501274Y-120523492D01*
X93472151Y-120903502D01*
X93403953Y-120883767D01*
X93357250Y-120830294D01*
X93345660Y-120776849D01*
X93365909Y-116875500D01*
X179172496Y-116875500D01*
X179173186Y-116882065D01*
X179189387Y-117036206D01*
X179192458Y-117065428D01*
X179251473Y-117247056D01*
X179346960Y-117412444D01*
X179474747Y-117554366D01*
X179629248Y-117666618D01*
X179635276Y-117669302D01*
X179635278Y-117669303D01*
X179787102Y-117736899D01*
X179803712Y-117744294D01*
X179897112Y-117764147D01*
X179984056Y-117782628D01*
X179984061Y-117782628D01*
X179990513Y-117784000D01*
X180181487Y-117784000D01*
X180187939Y-117782628D01*
X180187944Y-117782628D01*
X180330926Y-117752236D01*
X180401717Y-117757638D01*
X180458350Y-117800455D01*
X180476955Y-117836545D01*
X180521473Y-117973556D01*
X180616960Y-118138944D01*
X180744747Y-118280866D01*
X180899248Y-118393118D01*
X180905276Y-118395802D01*
X180905278Y-118395803D01*
X180967065Y-118423312D01*
X181073712Y-118470794D01*
X181167113Y-118490647D01*
X181254056Y-118509128D01*
X181254061Y-118509128D01*
X181260513Y-118510500D01*
X181451487Y-118510500D01*
X181457939Y-118509128D01*
X181457944Y-118509128D01*
X181544887Y-118490647D01*
X181638288Y-118470794D01*
X181791366Y-118402640D01*
X181861731Y-118393206D01*
X181926028Y-118423312D01*
X181963842Y-118483401D01*
X181967923Y-118504577D01*
X181986458Y-118680928D01*
X182045473Y-118862556D01*
X182140960Y-119027944D01*
X182268747Y-119169866D01*
X182423248Y-119282118D01*
X182429276Y-119284802D01*
X182429278Y-119284803D01*
X182591681Y-119357109D01*
X182597712Y-119359794D01*
X182691112Y-119379647D01*
X182778056Y-119398128D01*
X182778061Y-119398128D01*
X182784513Y-119399500D01*
X182975487Y-119399500D01*
X182981939Y-119398128D01*
X182981944Y-119398128D01*
X183068888Y-119379647D01*
X183162288Y-119359794D01*
X183168319Y-119357109D01*
X183330722Y-119284803D01*
X183330724Y-119284802D01*
X183336752Y-119282118D01*
X183491253Y-119169866D01*
X183495668Y-119164963D01*
X183500580Y-119160540D01*
X183502221Y-119162362D01*
X183553210Y-119130950D01*
X183586399Y-119126500D01*
X184713601Y-119126500D01*
X184781722Y-119146502D01*
X184798908Y-119161109D01*
X184799420Y-119160540D01*
X184804332Y-119164963D01*
X184808747Y-119169866D01*
X184963248Y-119282118D01*
X184969276Y-119284802D01*
X184969278Y-119284803D01*
X185131681Y-119357109D01*
X185137712Y-119359794D01*
X185231112Y-119379647D01*
X185318056Y-119398128D01*
X185318061Y-119398128D01*
X185324513Y-119399500D01*
X185515487Y-119399500D01*
X185521939Y-119398128D01*
X185521944Y-119398128D01*
X185608888Y-119379647D01*
X185702288Y-119359794D01*
X185708319Y-119357109D01*
X185870722Y-119284803D01*
X185870724Y-119284802D01*
X185876752Y-119282118D01*
X186031253Y-119169866D01*
X186159040Y-119027944D01*
X186254527Y-118862556D01*
X186313542Y-118680928D01*
X186319596Y-118623329D01*
X186346610Y-118557672D01*
X186404831Y-118517043D01*
X186444906Y-118510500D01*
X186531487Y-118510500D01*
X186537939Y-118509128D01*
X186537944Y-118509128D01*
X186624887Y-118490647D01*
X186718288Y-118470794D01*
X186824935Y-118423312D01*
X186886722Y-118395803D01*
X186886724Y-118395802D01*
X186892752Y-118393118D01*
X187047253Y-118280866D01*
X187175040Y-118138944D01*
X187270527Y-117973556D01*
X187329542Y-117791928D01*
X187330375Y-117784000D01*
X187335326Y-117736899D01*
X187362340Y-117671242D01*
X187420562Y-117630613D01*
X187491507Y-117627910D01*
X187511881Y-117634962D01*
X187677712Y-117708794D01*
X187771113Y-117728647D01*
X187858056Y-117747128D01*
X187858061Y-117747128D01*
X187864513Y-117748500D01*
X188055487Y-117748500D01*
X188061939Y-117747128D01*
X188061944Y-117747128D01*
X188148887Y-117728647D01*
X188242288Y-117708794D01*
X188330987Y-117669303D01*
X188410722Y-117633803D01*
X188410724Y-117633802D01*
X188416752Y-117631118D01*
X188571253Y-117518866D01*
X188699040Y-117376944D01*
X188794527Y-117211556D01*
X188853542Y-117029928D01*
X188873504Y-116840000D01*
X188857273Y-116685572D01*
X188854232Y-116656635D01*
X188854232Y-116656633D01*
X188853542Y-116650072D01*
X188794527Y-116468444D01*
X188699040Y-116303056D01*
X188638258Y-116235550D01*
X188575675Y-116166045D01*
X188575674Y-116166044D01*
X188571253Y-116161134D01*
X188430907Y-116059166D01*
X188422094Y-116052763D01*
X188422093Y-116052762D01*
X188416752Y-116048882D01*
X188410724Y-116046198D01*
X188410722Y-116046197D01*
X188248319Y-115973891D01*
X188248318Y-115973891D01*
X188242288Y-115971206D01*
X188148888Y-115951353D01*
X188061944Y-115932872D01*
X188061939Y-115932872D01*
X188055487Y-115931500D01*
X187864513Y-115931500D01*
X187858061Y-115932872D01*
X187858056Y-115932872D01*
X187771112Y-115951353D01*
X187677712Y-115971206D01*
X187671682Y-115973891D01*
X187671681Y-115973891D01*
X187509278Y-116046197D01*
X187509276Y-116046198D01*
X187503248Y-116048882D01*
X187497907Y-116052762D01*
X187497906Y-116052763D01*
X187489093Y-116059166D01*
X187348747Y-116161134D01*
X187315272Y-116198312D01*
X187254829Y-116235550D01*
X187221638Y-116240000D01*
X180792399Y-116240000D01*
X180724278Y-116219998D01*
X180707092Y-116205391D01*
X180706580Y-116205960D01*
X180701668Y-116201537D01*
X180697253Y-116196634D01*
X180643047Y-116157251D01*
X180548094Y-116088263D01*
X180548093Y-116088262D01*
X180542752Y-116084382D01*
X180536724Y-116081698D01*
X180536722Y-116081697D01*
X180374319Y-116009391D01*
X180374318Y-116009391D01*
X180368288Y-116006706D01*
X180255834Y-115982803D01*
X180187944Y-115968372D01*
X180187939Y-115968372D01*
X180181487Y-115967000D01*
X179990513Y-115967000D01*
X179984061Y-115968372D01*
X179984056Y-115968372D01*
X179916166Y-115982803D01*
X179803712Y-116006706D01*
X179797682Y-116009391D01*
X179797681Y-116009391D01*
X179635278Y-116081697D01*
X179635276Y-116081698D01*
X179629248Y-116084382D01*
X179623907Y-116088262D01*
X179623906Y-116088263D01*
X179573843Y-116124636D01*
X179474747Y-116196634D01*
X179346960Y-116338556D01*
X179251473Y-116503944D01*
X179192458Y-116685572D01*
X179172496Y-116875500D01*
X93365909Y-116875500D01*
X93378618Y-114427000D01*
X166218496Y-114427000D01*
X166219186Y-114433565D01*
X166231792Y-114553500D01*
X166238458Y-114616928D01*
X166297473Y-114798556D01*
X166392960Y-114963944D01*
X166397378Y-114968851D01*
X166397379Y-114968852D01*
X166424589Y-114999072D01*
X166520747Y-115105866D01*
X166619843Y-115177864D01*
X166644207Y-115195565D01*
X166675248Y-115218118D01*
X166681276Y-115220802D01*
X166681278Y-115220803D01*
X166843681Y-115293109D01*
X166849712Y-115295794D01*
X166943113Y-115315647D01*
X167030056Y-115334128D01*
X167030061Y-115334128D01*
X167036513Y-115335500D01*
X167227487Y-115335500D01*
X167236061Y-115333677D01*
X167247342Y-115331280D01*
X167318132Y-115336682D01*
X167374765Y-115379499D01*
X167393370Y-115415589D01*
X167440473Y-115560556D01*
X167535960Y-115725944D01*
X167663747Y-115867866D01*
X167751331Y-115931500D01*
X167805982Y-115971206D01*
X167818248Y-115980118D01*
X167824276Y-115982802D01*
X167824278Y-115982803D01*
X167972695Y-116048882D01*
X167992712Y-116057794D01*
X168086113Y-116077647D01*
X168173056Y-116096128D01*
X168173061Y-116096128D01*
X168179513Y-116097500D01*
X168370487Y-116097500D01*
X168376939Y-116096128D01*
X168376944Y-116096128D01*
X168463887Y-116077647D01*
X168557288Y-116057794D01*
X168577305Y-116048882D01*
X168725722Y-115982803D01*
X168725724Y-115982802D01*
X168731752Y-115980118D01*
X168744019Y-115971206D01*
X168864671Y-115883546D01*
X168886253Y-115867866D01*
X168890668Y-115862963D01*
X168895580Y-115858540D01*
X168897221Y-115860362D01*
X168948210Y-115828950D01*
X168981399Y-115824500D01*
X172267601Y-115824500D01*
X172335722Y-115844502D01*
X172352908Y-115859109D01*
X172353420Y-115858540D01*
X172358332Y-115862963D01*
X172362747Y-115867866D01*
X172384329Y-115883546D01*
X172504982Y-115971206D01*
X172517248Y-115980118D01*
X172523276Y-115982802D01*
X172523278Y-115982803D01*
X172671695Y-116048882D01*
X172691712Y-116057794D01*
X172785113Y-116077647D01*
X172872056Y-116096128D01*
X172872061Y-116096128D01*
X172878513Y-116097500D01*
X173069487Y-116097500D01*
X173075939Y-116096128D01*
X173075944Y-116096128D01*
X173162887Y-116077647D01*
X173256288Y-116057794D01*
X173276305Y-116048882D01*
X173424722Y-115982803D01*
X173424724Y-115982802D01*
X173430752Y-115980118D01*
X173443019Y-115971206D01*
X173497669Y-115931500D01*
X173585253Y-115867866D01*
X173713040Y-115725944D01*
X173808527Y-115560556D01*
X173867542Y-115378928D01*
X173872107Y-115335500D01*
X173886814Y-115195565D01*
X173887504Y-115189000D01*
X173886814Y-115182435D01*
X173868232Y-115005635D01*
X173868232Y-115005633D01*
X173867542Y-114999072D01*
X173808527Y-114817444D01*
X173713040Y-114652056D01*
X173687064Y-114623206D01*
X173589675Y-114515045D01*
X173589674Y-114515044D01*
X173585253Y-114510134D01*
X173470829Y-114427000D01*
X173436094Y-114401763D01*
X173436093Y-114401762D01*
X173430752Y-114397882D01*
X173424724Y-114395198D01*
X173424722Y-114395197D01*
X173262319Y-114322891D01*
X173262318Y-114322891D01*
X173256288Y-114320206D01*
X173162887Y-114300353D01*
X173075944Y-114281872D01*
X173075939Y-114281872D01*
X173069487Y-114280500D01*
X172878513Y-114280500D01*
X172872061Y-114281872D01*
X172872056Y-114281872D01*
X172785113Y-114300353D01*
X172691712Y-114320206D01*
X172685682Y-114322891D01*
X172685681Y-114322891D01*
X172523278Y-114395197D01*
X172523276Y-114395198D01*
X172517248Y-114397882D01*
X172511907Y-114401762D01*
X172511906Y-114401763D01*
X172468135Y-114433565D01*
X172362747Y-114510134D01*
X172358332Y-114515037D01*
X172353420Y-114519460D01*
X172351779Y-114517638D01*
X172300790Y-114549050D01*
X172267601Y-114553500D01*
X172145422Y-114553500D01*
X172077301Y-114533498D01*
X172030808Y-114479842D01*
X172020704Y-114409568D01*
X172050198Y-114344988D01*
X172056327Y-114338405D01*
X172546327Y-113848405D01*
X172608639Y-113814379D01*
X172635422Y-113811500D01*
X172688487Y-113811500D01*
X172694939Y-113810128D01*
X172694944Y-113810128D01*
X172782579Y-113791500D01*
X172875288Y-113771794D01*
X172913918Y-113754595D01*
X173043722Y-113696803D01*
X173043724Y-113696802D01*
X173049752Y-113694118D01*
X173204253Y-113581866D01*
X173332040Y-113439944D01*
X173427527Y-113274556D01*
X173486542Y-113092928D01*
X173506504Y-112903000D01*
X173486542Y-112713072D01*
X173427527Y-112531444D01*
X173332040Y-112366056D01*
X173204253Y-112224134D01*
X173049752Y-112111882D01*
X173043724Y-112109198D01*
X173043722Y-112109197D01*
X172881319Y-112036891D01*
X172881318Y-112036891D01*
X172875288Y-112034206D01*
X172781888Y-112014353D01*
X172694944Y-111995872D01*
X172694939Y-111995872D01*
X172688487Y-111994500D01*
X172497513Y-111994500D01*
X172491061Y-111995872D01*
X172491056Y-111995872D01*
X172404112Y-112014353D01*
X172310712Y-112034206D01*
X172304682Y-112036891D01*
X172304681Y-112036891D01*
X172142278Y-112109197D01*
X172142276Y-112109198D01*
X172136248Y-112111882D01*
X171981747Y-112224134D01*
X171853960Y-112366056D01*
X171758473Y-112531444D01*
X171699458Y-112713072D01*
X171698768Y-112719633D01*
X171698768Y-112719635D01*
X171682425Y-112875132D01*
X171655412Y-112940789D01*
X171646210Y-112951057D01*
X170842672Y-113754595D01*
X170780360Y-113788621D01*
X170753577Y-113791500D01*
X167838399Y-113791500D01*
X167770278Y-113771498D01*
X167753092Y-113756891D01*
X167752580Y-113757460D01*
X167747668Y-113753037D01*
X167743253Y-113748134D01*
X167588752Y-113635882D01*
X167582724Y-113633198D01*
X167582722Y-113633197D01*
X167420319Y-113560891D01*
X167420318Y-113560891D01*
X167414288Y-113558206D01*
X167320888Y-113538353D01*
X167233944Y-113519872D01*
X167233939Y-113519872D01*
X167227487Y-113518500D01*
X167036513Y-113518500D01*
X167030061Y-113519872D01*
X167030056Y-113519872D01*
X166943112Y-113538353D01*
X166849712Y-113558206D01*
X166843682Y-113560891D01*
X166843681Y-113560891D01*
X166681278Y-113633197D01*
X166681276Y-113633198D01*
X166675248Y-113635882D01*
X166520747Y-113748134D01*
X166392960Y-113890056D01*
X166297473Y-114055444D01*
X166238458Y-114237072D01*
X166237768Y-114243633D01*
X166237768Y-114243635D01*
X166229720Y-114320206D01*
X166218496Y-114427000D01*
X93378618Y-114427000D01*
X93399093Y-110482134D01*
X149915500Y-110482134D01*
X149922255Y-110544316D01*
X149973385Y-110680705D01*
X150060739Y-110797261D01*
X150177295Y-110884615D01*
X150313684Y-110935745D01*
X150375866Y-110942500D01*
X151630134Y-110942500D01*
X151692316Y-110935745D01*
X151828705Y-110884615D01*
X151945261Y-110797261D01*
X152032615Y-110680705D01*
X152083745Y-110544316D01*
X152090500Y-110482134D01*
X152090500Y-109826411D01*
X165151215Y-109826411D01*
X165164287Y-110025851D01*
X165165708Y-110031447D01*
X165165709Y-110031452D01*
X165212065Y-110213975D01*
X165213486Y-110219570D01*
X165297163Y-110401079D01*
X165300496Y-110405795D01*
X165409184Y-110559587D01*
X165409187Y-110559590D01*
X165412516Y-110564301D01*
X165555682Y-110703767D01*
X165560478Y-110706972D01*
X165560481Y-110706974D01*
X165626949Y-110751386D01*
X165721867Y-110814808D01*
X165727170Y-110817086D01*
X165727173Y-110817088D01*
X165798690Y-110847814D01*
X165905504Y-110893705D01*
X166100445Y-110937815D01*
X166106219Y-110938042D01*
X166106220Y-110938042D01*
X166144274Y-110939537D01*
X166300159Y-110945662D01*
X166497959Y-110916983D01*
X166562781Y-110894979D01*
X166681753Y-110854593D01*
X166687221Y-110852737D01*
X166861606Y-110755077D01*
X167015273Y-110627273D01*
X167143077Y-110473606D01*
X167240737Y-110299221D01*
X167304983Y-110109959D01*
X167333662Y-109912159D01*
X167335159Y-109855000D01*
X167316871Y-109655970D01*
X167262618Y-109463605D01*
X167252243Y-109442566D01*
X167176774Y-109289528D01*
X167176771Y-109289524D01*
X167174219Y-109284348D01*
X167080083Y-109158285D01*
X167058085Y-109128827D01*
X167054632Y-109124203D01*
X166951961Y-109029295D01*
X166912105Y-108992452D01*
X166912103Y-108992450D01*
X166907864Y-108988532D01*
X166876069Y-108968471D01*
X166743710Y-108884958D01*
X166743709Y-108884958D01*
X166738830Y-108881879D01*
X166733470Y-108879741D01*
X166733467Y-108879739D01*
X166558554Y-108809956D01*
X166553190Y-108807816D01*
X166547533Y-108806691D01*
X166547527Y-108806689D01*
X166362829Y-108769951D01*
X166362827Y-108769951D01*
X166357162Y-108768824D01*
X166351387Y-108768748D01*
X166351383Y-108768748D01*
X166251721Y-108767444D01*
X166157310Y-108766208D01*
X166151613Y-108767187D01*
X166151612Y-108767187D01*
X165966025Y-108799076D01*
X165966024Y-108799076D01*
X165960328Y-108800055D01*
X165772813Y-108869233D01*
X165767852Y-108872185D01*
X165767851Y-108872185D01*
X165699687Y-108912739D01*
X165601045Y-108971425D01*
X165450776Y-109103207D01*
X165447209Y-109107732D01*
X165447204Y-109107737D01*
X165349809Y-109231283D01*
X165327038Y-109260168D01*
X165233977Y-109437049D01*
X165174707Y-109627927D01*
X165151215Y-109826411D01*
X152090500Y-109826411D01*
X152090500Y-109227866D01*
X152083745Y-109165684D01*
X152032615Y-109029295D01*
X151945261Y-108912739D01*
X151828705Y-108825385D01*
X151692316Y-108774255D01*
X151630134Y-108767500D01*
X150375866Y-108767500D01*
X150313684Y-108774255D01*
X150177295Y-108825385D01*
X150060739Y-108912739D01*
X149973385Y-109029295D01*
X149922255Y-109165684D01*
X149915500Y-109227866D01*
X149915500Y-110482134D01*
X93399093Y-110482134D01*
X93424100Y-105664000D01*
X138151496Y-105664000D01*
X138171458Y-105853928D01*
X138230473Y-106035556D01*
X138325960Y-106200944D01*
X138453747Y-106342866D01*
X138608248Y-106455118D01*
X138614276Y-106457802D01*
X138614278Y-106457803D01*
X138776681Y-106530109D01*
X138782712Y-106532794D01*
X138876113Y-106552647D01*
X138963056Y-106571128D01*
X138963061Y-106571128D01*
X138969513Y-106572500D01*
X139160487Y-106572500D01*
X139166939Y-106571128D01*
X139166944Y-106571128D01*
X139253888Y-106552647D01*
X139347288Y-106532794D01*
X139353319Y-106530109D01*
X139515722Y-106457803D01*
X139515724Y-106457802D01*
X139521752Y-106455118D01*
X139676253Y-106342866D01*
X139680668Y-106337963D01*
X139685580Y-106333540D01*
X139687221Y-106335362D01*
X139738210Y-106303950D01*
X139771399Y-106299500D01*
X149534601Y-106299500D01*
X149602722Y-106319502D01*
X149619908Y-106334109D01*
X149620420Y-106333540D01*
X149625332Y-106337963D01*
X149629747Y-106342866D01*
X149784248Y-106455118D01*
X149790276Y-106457802D01*
X149790278Y-106457803D01*
X149952681Y-106530109D01*
X149958712Y-106532794D01*
X150052113Y-106552647D01*
X150139056Y-106571128D01*
X150139061Y-106571128D01*
X150145513Y-106572500D01*
X150336487Y-106572500D01*
X150342939Y-106571128D01*
X150342944Y-106571128D01*
X150429888Y-106552647D01*
X150523288Y-106532794D01*
X150529319Y-106530109D01*
X150691722Y-106457803D01*
X150691724Y-106457802D01*
X150697752Y-106455118D01*
X150852253Y-106342866D01*
X150980040Y-106200944D01*
X151075527Y-106035556D01*
X151134542Y-105853928D01*
X151154504Y-105664000D01*
X151134542Y-105474072D01*
X151075527Y-105292444D01*
X150980040Y-105127056D01*
X150894288Y-105031818D01*
X150856675Y-104990045D01*
X150856674Y-104990044D01*
X150852253Y-104985134D01*
X150697752Y-104872882D01*
X150691724Y-104870198D01*
X150691722Y-104870197D01*
X150529319Y-104797891D01*
X150529318Y-104797891D01*
X150523288Y-104795206D01*
X150429888Y-104775353D01*
X150342944Y-104756872D01*
X150342939Y-104756872D01*
X150336487Y-104755500D01*
X150145513Y-104755500D01*
X150139061Y-104756872D01*
X150139056Y-104756872D01*
X150052113Y-104775353D01*
X149958712Y-104795206D01*
X149952682Y-104797891D01*
X149952681Y-104797891D01*
X149790278Y-104870197D01*
X149790276Y-104870198D01*
X149784248Y-104872882D01*
X149629747Y-104985134D01*
X149625332Y-104990037D01*
X149620420Y-104994460D01*
X149618779Y-104992638D01*
X149567790Y-105024050D01*
X149534601Y-105028500D01*
X139826500Y-105028500D01*
X139758379Y-105008498D01*
X139711886Y-104954842D01*
X139700500Y-104902500D01*
X139700500Y-102206411D01*
X149911215Y-102206411D01*
X149924287Y-102405851D01*
X149925708Y-102411447D01*
X149925709Y-102411452D01*
X149972065Y-102593975D01*
X149973486Y-102599570D01*
X150057163Y-102781079D01*
X150060496Y-102785795D01*
X150169184Y-102939587D01*
X150169187Y-102939590D01*
X150172516Y-102944301D01*
X150315682Y-103083767D01*
X150320478Y-103086972D01*
X150320481Y-103086974D01*
X150386949Y-103131386D01*
X150481867Y-103194808D01*
X150487170Y-103197086D01*
X150487173Y-103197088D01*
X150558690Y-103227814D01*
X150665504Y-103273705D01*
X150860445Y-103317815D01*
X150866219Y-103318042D01*
X150866220Y-103318042D01*
X150904274Y-103319537D01*
X151060159Y-103325662D01*
X151257959Y-103296983D01*
X151322781Y-103274979D01*
X151441753Y-103234593D01*
X151447221Y-103232737D01*
X151621606Y-103135077D01*
X151775273Y-103007273D01*
X151903077Y-102853606D01*
X152000737Y-102679221D01*
X152064983Y-102489959D01*
X152093662Y-102292159D01*
X152095159Y-102235000D01*
X152092532Y-102206411D01*
X165151215Y-102206411D01*
X165164287Y-102405851D01*
X165165708Y-102411447D01*
X165165709Y-102411452D01*
X165212065Y-102593975D01*
X165213486Y-102599570D01*
X165297163Y-102781079D01*
X165300496Y-102785795D01*
X165409184Y-102939587D01*
X165409187Y-102939590D01*
X165412516Y-102944301D01*
X165555682Y-103083767D01*
X165560478Y-103086972D01*
X165560481Y-103086974D01*
X165626949Y-103131386D01*
X165721867Y-103194808D01*
X165727170Y-103197086D01*
X165727173Y-103197088D01*
X165798690Y-103227814D01*
X165905504Y-103273705D01*
X166100445Y-103317815D01*
X166106219Y-103318042D01*
X166106220Y-103318042D01*
X166144274Y-103319537D01*
X166300159Y-103325662D01*
X166497959Y-103296983D01*
X166562781Y-103274979D01*
X166681753Y-103234593D01*
X166687221Y-103232737D01*
X166861606Y-103135077D01*
X167015273Y-103007273D01*
X167143077Y-102853606D01*
X167240737Y-102679221D01*
X167304983Y-102489959D01*
X167333662Y-102292159D01*
X167335159Y-102235000D01*
X167316871Y-102035970D01*
X167262618Y-101843605D01*
X167252243Y-101822566D01*
X167176774Y-101669528D01*
X167176771Y-101669524D01*
X167174219Y-101664348D01*
X167054632Y-101504203D01*
X166907864Y-101368532D01*
X166738830Y-101261879D01*
X166733470Y-101259741D01*
X166733467Y-101259739D01*
X166558554Y-101189956D01*
X166553190Y-101187816D01*
X166547533Y-101186691D01*
X166547527Y-101186689D01*
X166362829Y-101149951D01*
X166362827Y-101149951D01*
X166357162Y-101148824D01*
X166351387Y-101148748D01*
X166351383Y-101148748D01*
X166251721Y-101147444D01*
X166157310Y-101146208D01*
X166151613Y-101147187D01*
X166151612Y-101147187D01*
X165966025Y-101179076D01*
X165966024Y-101179076D01*
X165960328Y-101180055D01*
X165772813Y-101249233D01*
X165601045Y-101351425D01*
X165450776Y-101483207D01*
X165447209Y-101487732D01*
X165447204Y-101487737D01*
X165330612Y-101635634D01*
X165327038Y-101640168D01*
X165233977Y-101817049D01*
X165174707Y-102007927D01*
X165151215Y-102206411D01*
X152092532Y-102206411D01*
X152076871Y-102035970D01*
X152022618Y-101843605D01*
X152012243Y-101822566D01*
X151936774Y-101669528D01*
X151936771Y-101669524D01*
X151934219Y-101664348D01*
X151814632Y-101504203D01*
X151667864Y-101368532D01*
X151498830Y-101261879D01*
X151493470Y-101259741D01*
X151493467Y-101259739D01*
X151318554Y-101189956D01*
X151313190Y-101187816D01*
X151307533Y-101186691D01*
X151307527Y-101186689D01*
X151122829Y-101149951D01*
X151122827Y-101149951D01*
X151117162Y-101148824D01*
X151111387Y-101148748D01*
X151111383Y-101148748D01*
X151011721Y-101147444D01*
X150917310Y-101146208D01*
X150911613Y-101147187D01*
X150911612Y-101147187D01*
X150726025Y-101179076D01*
X150726024Y-101179076D01*
X150720328Y-101180055D01*
X150532813Y-101249233D01*
X150361045Y-101351425D01*
X150210776Y-101483207D01*
X150207209Y-101487732D01*
X150207204Y-101487737D01*
X150090612Y-101635634D01*
X150087038Y-101640168D01*
X149993977Y-101817049D01*
X149934707Y-102007927D01*
X149911215Y-102206411D01*
X139700500Y-102206411D01*
X139700500Y-98806000D01*
X150724496Y-98806000D01*
X150725186Y-98812565D01*
X150742863Y-98980749D01*
X150744458Y-98995928D01*
X150803473Y-99177556D01*
X150806776Y-99183278D01*
X150806777Y-99183279D01*
X150820184Y-99206500D01*
X150898960Y-99342944D01*
X150903378Y-99347851D01*
X150903379Y-99347852D01*
X150987700Y-99441500D01*
X151026747Y-99484866D01*
X151181248Y-99597118D01*
X151187276Y-99599802D01*
X151187278Y-99599803D01*
X151349681Y-99672109D01*
X151355712Y-99674794D01*
X151434994Y-99691646D01*
X151536056Y-99713128D01*
X151536061Y-99713128D01*
X151542513Y-99714500D01*
X151733487Y-99714500D01*
X151739939Y-99713128D01*
X151739944Y-99713128D01*
X151841006Y-99691646D01*
X151920288Y-99674794D01*
X151926319Y-99672109D01*
X152088722Y-99599803D01*
X152088724Y-99599802D01*
X152094752Y-99597118D01*
X152249253Y-99484866D01*
X152253668Y-99479963D01*
X152258580Y-99475540D01*
X152260221Y-99477362D01*
X152311210Y-99445950D01*
X152344399Y-99441500D01*
X158289980Y-99441500D01*
X158301214Y-99442030D01*
X158308719Y-99443708D01*
X158377012Y-99441562D01*
X158380969Y-99441500D01*
X158408983Y-99441500D01*
X158412908Y-99441004D01*
X158412909Y-99441004D01*
X158413004Y-99440992D01*
X158424849Y-99440059D01*
X158454670Y-99439122D01*
X158461282Y-99438914D01*
X158461283Y-99438914D01*
X158469205Y-99438665D01*
X158488749Y-99432987D01*
X158508112Y-99428977D01*
X158520440Y-99427420D01*
X158520442Y-99427420D01*
X158528299Y-99426427D01*
X158535663Y-99423511D01*
X158535668Y-99423510D01*
X158569556Y-99410093D01*
X158580785Y-99406248D01*
X158597465Y-99401402D01*
X158623393Y-99393869D01*
X158630220Y-99389831D01*
X158630223Y-99389830D01*
X158640906Y-99383512D01*
X158658664Y-99374812D01*
X158670215Y-99370239D01*
X158670221Y-99370235D01*
X158677588Y-99367319D01*
X158713491Y-99341234D01*
X158723410Y-99334719D01*
X158754768Y-99316174D01*
X158754772Y-99316171D01*
X158761598Y-99312134D01*
X158775982Y-99297750D01*
X158791016Y-99284909D01*
X158801073Y-99277602D01*
X158807487Y-99272942D01*
X158835778Y-99238744D01*
X158843767Y-99229965D01*
X162953483Y-95120250D01*
X162961809Y-95112674D01*
X162968303Y-95108553D01*
X163015086Y-95058734D01*
X163017840Y-95055893D01*
X163037639Y-95036094D01*
X163040063Y-95032969D01*
X163040071Y-95032960D01*
X163040137Y-95032874D01*
X163047845Y-95023849D01*
X163065128Y-95005444D01*
X163078217Y-94991506D01*
X163088023Y-94973669D01*
X163098873Y-94957153D01*
X163111350Y-94941067D01*
X163128976Y-94900334D01*
X163134193Y-94889686D01*
X163151749Y-94857751D01*
X163155569Y-94850803D01*
X163157540Y-94843128D01*
X163157542Y-94843122D01*
X163160631Y-94831089D01*
X163167034Y-94812387D01*
X163175117Y-94793708D01*
X163182060Y-94749873D01*
X163184467Y-94738251D01*
X163195500Y-94695282D01*
X163195500Y-94674935D01*
X163197051Y-94655224D01*
X163198995Y-94642950D01*
X163200235Y-94635121D01*
X163196059Y-94590944D01*
X163195500Y-94579086D01*
X163195500Y-92297922D01*
X163215502Y-92229801D01*
X163269158Y-92183308D01*
X163339432Y-92173204D01*
X163404012Y-92202698D01*
X163410595Y-92208827D01*
X165218359Y-94016592D01*
X166972250Y-95770483D01*
X166979826Y-95778809D01*
X166983947Y-95785303D01*
X166989722Y-95790726D01*
X167033765Y-95832085D01*
X167036607Y-95834840D01*
X167056406Y-95854639D01*
X167059531Y-95857063D01*
X167059540Y-95857071D01*
X167059626Y-95857137D01*
X167068651Y-95864845D01*
X167100994Y-95895217D01*
X167107938Y-95899035D01*
X167107940Y-95899036D01*
X167118829Y-95905022D01*
X167135347Y-95915873D01*
X167151433Y-95928350D01*
X167192166Y-95945976D01*
X167202814Y-95951193D01*
X167241697Y-95972569D01*
X167249372Y-95974540D01*
X167249378Y-95974542D01*
X167261411Y-95977631D01*
X167280113Y-95984034D01*
X167298792Y-95992117D01*
X167332628Y-95997476D01*
X167342627Y-95999060D01*
X167354240Y-96001465D01*
X167397218Y-96012500D01*
X167417565Y-96012500D01*
X167437277Y-96014051D01*
X167457379Y-96017235D01*
X167465271Y-96016489D01*
X167501556Y-96013059D01*
X167513414Y-96012500D01*
X169171795Y-96012500D01*
X169239916Y-96032502D01*
X169286409Y-96086158D01*
X169296513Y-96156432D01*
X169267019Y-96221012D01*
X169245856Y-96240436D01*
X169187695Y-96282693D01*
X169096247Y-96349134D01*
X168968460Y-96491056D01*
X168872973Y-96656444D01*
X168813958Y-96838072D01*
X168813268Y-96844633D01*
X168813268Y-96844635D01*
X168797554Y-96994148D01*
X168793996Y-97028000D01*
X168813958Y-97217928D01*
X168872973Y-97399556D01*
X168968460Y-97564944D01*
X168980838Y-97578691D01*
X169011554Y-97642697D01*
X169002790Y-97713150D01*
X168980839Y-97747307D01*
X168968460Y-97761056D01*
X168872973Y-97926444D01*
X168813958Y-98108072D01*
X168813268Y-98114633D01*
X168813268Y-98114635D01*
X168811438Y-98132045D01*
X168793996Y-98298000D01*
X168813958Y-98487928D01*
X168872973Y-98669556D01*
X168876276Y-98675278D01*
X168876277Y-98675279D01*
X168900505Y-98717243D01*
X168968460Y-98834944D01*
X168972878Y-98839851D01*
X168972879Y-98839852D01*
X169057200Y-98933500D01*
X169096247Y-98976866D01*
X169250748Y-99089118D01*
X169256776Y-99091802D01*
X169256778Y-99091803D01*
X169419181Y-99164109D01*
X169425212Y-99166794D01*
X169518613Y-99186647D01*
X169605556Y-99205128D01*
X169605561Y-99205128D01*
X169612013Y-99206500D01*
X169802987Y-99206500D01*
X169809439Y-99205128D01*
X169809444Y-99205128D01*
X169896387Y-99186647D01*
X169989788Y-99166794D01*
X169995819Y-99164109D01*
X170158222Y-99091803D01*
X170158224Y-99091802D01*
X170164252Y-99089118D01*
X170222922Y-99046492D01*
X170301550Y-98989365D01*
X170318753Y-98976866D01*
X170323168Y-98971963D01*
X170328080Y-98967540D01*
X170329721Y-98969362D01*
X170380710Y-98937950D01*
X170413899Y-98933500D01*
X182419980Y-98933500D01*
X182431214Y-98934030D01*
X182438719Y-98935708D01*
X182507012Y-98933562D01*
X182510969Y-98933500D01*
X182538983Y-98933500D01*
X182542908Y-98933004D01*
X182542909Y-98933004D01*
X182543004Y-98932992D01*
X182554849Y-98932059D01*
X182584670Y-98931122D01*
X182591282Y-98930914D01*
X182591283Y-98930914D01*
X182599205Y-98930665D01*
X182618749Y-98924987D01*
X182638112Y-98920977D01*
X182650440Y-98919420D01*
X182650442Y-98919420D01*
X182658299Y-98918427D01*
X182665663Y-98915511D01*
X182665668Y-98915510D01*
X182699556Y-98902093D01*
X182710785Y-98898248D01*
X182727465Y-98893402D01*
X182753393Y-98885869D01*
X182760220Y-98881831D01*
X182760223Y-98881830D01*
X182770906Y-98875512D01*
X182788664Y-98866812D01*
X182800215Y-98862239D01*
X182800221Y-98862235D01*
X182807588Y-98859319D01*
X182843491Y-98833234D01*
X182853410Y-98826719D01*
X182884768Y-98808174D01*
X182884772Y-98808171D01*
X182891598Y-98804134D01*
X182905982Y-98789750D01*
X182921016Y-98776909D01*
X182931073Y-98769602D01*
X182937487Y-98764942D01*
X182965778Y-98730744D01*
X182973767Y-98721965D01*
X190004483Y-91691250D01*
X190012809Y-91683674D01*
X190019303Y-91679553D01*
X190066086Y-91629734D01*
X190068840Y-91626893D01*
X190088639Y-91607094D01*
X190091063Y-91603969D01*
X190091071Y-91603960D01*
X190091137Y-91603874D01*
X190098845Y-91594849D01*
X190123790Y-91568285D01*
X190129217Y-91562506D01*
X190139023Y-91544669D01*
X190149873Y-91528153D01*
X190162350Y-91512067D01*
X190179976Y-91471334D01*
X190185193Y-91460686D01*
X190194519Y-91443721D01*
X190206569Y-91421803D01*
X190208540Y-91414128D01*
X190208542Y-91414122D01*
X190211631Y-91402089D01*
X190218034Y-91383387D01*
X190226117Y-91364708D01*
X190233060Y-91320873D01*
X190235467Y-91309251D01*
X190246500Y-91266282D01*
X190246500Y-91245935D01*
X190248051Y-91226224D01*
X190249995Y-91213950D01*
X190251235Y-91206121D01*
X190247059Y-91161944D01*
X190246500Y-91150086D01*
X190246500Y-65103032D01*
X190247030Y-65091793D01*
X190248709Y-65084281D01*
X190246562Y-65015969D01*
X190246500Y-65012012D01*
X190246500Y-64984017D01*
X190245992Y-64979994D01*
X190245059Y-64968152D01*
X190244474Y-64949516D01*
X190243665Y-64923795D01*
X190237987Y-64904251D01*
X190233977Y-64884888D01*
X190232420Y-64872560D01*
X190232420Y-64872558D01*
X190231427Y-64864701D01*
X190228511Y-64857337D01*
X190228510Y-64857332D01*
X190215093Y-64823444D01*
X190211248Y-64812215D01*
X190201081Y-64777222D01*
X190198869Y-64769607D01*
X190193684Y-64760840D01*
X190188512Y-64752094D01*
X190179812Y-64734336D01*
X190175239Y-64722785D01*
X190175235Y-64722779D01*
X190172319Y-64715412D01*
X190158548Y-64696457D01*
X190146236Y-64679512D01*
X190139719Y-64669590D01*
X190121174Y-64638232D01*
X190121171Y-64638228D01*
X190117134Y-64631402D01*
X190102750Y-64617018D01*
X190089909Y-64601984D01*
X190082602Y-64591927D01*
X190077942Y-64585513D01*
X190043744Y-64557222D01*
X190034965Y-64549233D01*
X179956250Y-54470517D01*
X179948674Y-54462191D01*
X179944553Y-54455697D01*
X179894734Y-54408914D01*
X179891893Y-54406160D01*
X179872094Y-54386361D01*
X179868969Y-54383937D01*
X179868960Y-54383929D01*
X179868874Y-54383863D01*
X179859849Y-54376155D01*
X179833285Y-54351210D01*
X179827506Y-54345783D01*
X179809669Y-54335977D01*
X179793153Y-54325127D01*
X179777067Y-54312650D01*
X179736334Y-54295024D01*
X179725686Y-54289807D01*
X179711416Y-54281962D01*
X179686803Y-54268431D01*
X179679128Y-54266460D01*
X179679122Y-54266458D01*
X179667089Y-54263369D01*
X179648387Y-54256966D01*
X179629708Y-54248883D01*
X179589907Y-54242579D01*
X179585873Y-54241940D01*
X179574260Y-54239535D01*
X179531282Y-54228500D01*
X179510935Y-54228500D01*
X179491224Y-54226949D01*
X179478950Y-54225005D01*
X179471121Y-54223765D01*
X179463229Y-54224511D01*
X179426944Y-54227941D01*
X179415086Y-54228500D01*
X166695983Y-54228500D01*
X166672374Y-54226268D01*
X166672009Y-54226198D01*
X166672004Y-54226198D01*
X166664221Y-54224713D01*
X166607987Y-54228251D01*
X166600075Y-54228500D01*
X166584017Y-54228500D01*
X166580083Y-54228997D01*
X166580082Y-54228997D01*
X166568077Y-54230513D01*
X166560201Y-54231257D01*
X166511884Y-54234297D01*
X166511882Y-54234297D01*
X166503973Y-54234795D01*
X166496435Y-54237244D01*
X166496431Y-54237245D01*
X166496080Y-54237359D01*
X166472944Y-54242531D01*
X166472565Y-54242579D01*
X166472560Y-54242580D01*
X166464701Y-54243573D01*
X166457336Y-54246489D01*
X166457332Y-54246490D01*
X166412300Y-54264320D01*
X166404850Y-54267002D01*
X166358806Y-54281962D01*
X166358803Y-54281963D01*
X166351267Y-54284412D01*
X166344580Y-54288655D01*
X166344577Y-54288657D01*
X166344258Y-54288860D01*
X166323128Y-54299626D01*
X166315412Y-54302681D01*
X166308998Y-54307341D01*
X166269823Y-54335803D01*
X166263277Y-54340251D01*
X166222396Y-54366195D01*
X166222393Y-54366198D01*
X166215697Y-54370447D01*
X166210019Y-54376494D01*
X166192224Y-54392182D01*
X166185513Y-54397058D01*
X166175704Y-54408915D01*
X166149596Y-54440474D01*
X166144364Y-54446408D01*
X166129971Y-54461736D01*
X166105783Y-54487494D01*
X166101965Y-54494438D01*
X166101964Y-54494440D01*
X166101784Y-54494768D01*
X166088456Y-54514379D01*
X166088222Y-54514662D01*
X166088219Y-54514666D01*
X166083165Y-54520776D01*
X166079789Y-54527951D01*
X166059172Y-54571764D01*
X166055590Y-54578796D01*
X166028431Y-54628197D01*
X166026461Y-54635871D01*
X166026460Y-54635873D01*
X166026368Y-54636233D01*
X166018334Y-54658548D01*
X166018176Y-54658884D01*
X166014800Y-54666059D01*
X166013315Y-54673844D01*
X166013314Y-54673847D01*
X166004241Y-54721412D01*
X166002514Y-54729137D01*
X165988500Y-54783718D01*
X165988500Y-54792017D01*
X165986268Y-54815626D01*
X165986198Y-54815991D01*
X165986198Y-54815996D01*
X165984713Y-54823779D01*
X165987377Y-54866126D01*
X165988251Y-54880013D01*
X165988500Y-54887925D01*
X165988500Y-70843929D01*
X165971619Y-70906929D01*
X165923688Y-70989948D01*
X165916473Y-71002444D01*
X165857458Y-71184072D01*
X165856768Y-71190633D01*
X165856768Y-71190635D01*
X165849421Y-71260536D01*
X165837496Y-71374000D01*
X165838186Y-71380565D01*
X165844844Y-71443908D01*
X165857458Y-71563928D01*
X165916473Y-71745556D01*
X165919776Y-71751278D01*
X165919777Y-71751279D01*
X165940069Y-71786425D01*
X166011960Y-71910944D01*
X166016378Y-71915851D01*
X166016379Y-71915852D01*
X166116202Y-72026717D01*
X166139747Y-72052866D01*
X166294248Y-72165118D01*
X166300276Y-72167802D01*
X166300278Y-72167803D01*
X166462021Y-72239815D01*
X166468712Y-72242794D01*
X166555009Y-72261137D01*
X166649056Y-72281128D01*
X166649061Y-72281128D01*
X166655513Y-72282500D01*
X166846487Y-72282500D01*
X166852939Y-72281128D01*
X166852944Y-72281128D01*
X166946991Y-72261137D01*
X167033288Y-72242794D01*
X167039979Y-72239815D01*
X167201722Y-72167803D01*
X167201724Y-72167802D01*
X167207752Y-72165118D01*
X167351144Y-72060937D01*
X167385620Y-72048636D01*
X167390388Y-72026717D01*
X167407340Y-72002792D01*
X167485621Y-71915852D01*
X167485622Y-71915851D01*
X167490040Y-71910944D01*
X167561931Y-71786425D01*
X167582223Y-71751279D01*
X167582224Y-71751278D01*
X167585527Y-71745556D01*
X167644542Y-71563928D01*
X167657157Y-71443908D01*
X167663814Y-71380565D01*
X167664504Y-71374000D01*
X167652579Y-71260536D01*
X167645232Y-71190635D01*
X167645232Y-71190633D01*
X167644542Y-71184072D01*
X167585527Y-71002444D01*
X167578313Y-70989948D01*
X167493341Y-70842774D01*
X167490040Y-70837056D01*
X167476251Y-70821741D01*
X167366675Y-70700045D01*
X167366674Y-70700044D01*
X167362253Y-70695134D01*
X167311437Y-70658214D01*
X167268085Y-70601992D01*
X167259500Y-70556279D01*
X167259500Y-68894422D01*
X167279502Y-68826301D01*
X167333158Y-68779808D01*
X167403432Y-68769704D01*
X167468012Y-68799198D01*
X167474595Y-68805327D01*
X167963210Y-69293942D01*
X167997236Y-69356254D01*
X167999425Y-69369867D01*
X168015594Y-69523703D01*
X168016458Y-69531928D01*
X168075473Y-69713556D01*
X168170960Y-69878944D01*
X168175378Y-69883851D01*
X168175379Y-69883852D01*
X168294325Y-70015955D01*
X168298747Y-70020866D01*
X168397843Y-70092864D01*
X168422207Y-70110565D01*
X168453248Y-70133118D01*
X168459276Y-70135802D01*
X168459278Y-70135803D01*
X168572924Y-70186401D01*
X168627712Y-70210794D01*
X168688016Y-70223612D01*
X168808056Y-70249128D01*
X168808061Y-70249128D01*
X168814513Y-70250500D01*
X169005487Y-70250500D01*
X169011939Y-70249128D01*
X169011944Y-70249128D01*
X169131984Y-70223612D01*
X169192288Y-70210794D01*
X169198315Y-70208111D01*
X169198323Y-70208108D01*
X169225888Y-70195835D01*
X169296255Y-70186401D01*
X169360552Y-70216508D01*
X169398365Y-70276597D01*
X169397688Y-70347590D01*
X169366231Y-70400037D01*
X167590071Y-72176197D01*
X167538865Y-72204158D01*
X167524983Y-72239815D01*
X167514298Y-72251969D01*
X160007517Y-79758750D01*
X159999191Y-79766326D01*
X159992697Y-79770447D01*
X159945915Y-79820265D01*
X159943160Y-79823107D01*
X159923361Y-79842906D01*
X159920937Y-79846031D01*
X159920929Y-79846040D01*
X159920863Y-79846126D01*
X159913155Y-79855151D01*
X159882783Y-79887494D01*
X159878965Y-79894438D01*
X159878964Y-79894440D01*
X159872978Y-79905329D01*
X159862127Y-79921847D01*
X159849650Y-79937933D01*
X159832024Y-79978666D01*
X159826807Y-79989314D01*
X159805431Y-80028197D01*
X159803460Y-80035872D01*
X159803458Y-80035878D01*
X159800369Y-80047911D01*
X159793966Y-80066613D01*
X159785883Y-80085292D01*
X159781456Y-80113242D01*
X159778940Y-80129127D01*
X159776535Y-80140740D01*
X159765500Y-80183718D01*
X159765500Y-80204065D01*
X159763949Y-80223776D01*
X159760765Y-80243879D01*
X159761511Y-80251771D01*
X159764941Y-80288056D01*
X159765500Y-80299914D01*
X159765500Y-86675697D01*
X159745498Y-86743818D01*
X159733136Y-86760006D01*
X159661960Y-86839056D01*
X159566473Y-87004444D01*
X159507458Y-87186072D01*
X159506768Y-87192633D01*
X159506768Y-87192635D01*
X159488186Y-87369435D01*
X159487496Y-87376000D01*
X159488186Y-87382565D01*
X159489546Y-87395500D01*
X159507458Y-87565928D01*
X159566473Y-87747556D01*
X159661960Y-87912944D01*
X159666378Y-87917851D01*
X159666379Y-87917852D01*
X159775166Y-88038672D01*
X159789747Y-88054866D01*
X159944248Y-88167118D01*
X159950276Y-88169802D01*
X159950278Y-88169803D01*
X160080082Y-88227595D01*
X160118712Y-88244794D01*
X160211421Y-88264500D01*
X160299056Y-88283128D01*
X160299061Y-88283128D01*
X160305513Y-88284500D01*
X160496487Y-88284500D01*
X160502939Y-88283128D01*
X160502944Y-88283128D01*
X160590579Y-88264500D01*
X160683288Y-88244794D01*
X160689315Y-88242111D01*
X160689323Y-88242108D01*
X160731252Y-88223440D01*
X160801619Y-88214006D01*
X160865916Y-88244113D01*
X160903729Y-88304202D01*
X160908500Y-88338547D01*
X160908500Y-93791577D01*
X160888498Y-93859698D01*
X160871595Y-93880672D01*
X157888672Y-96863595D01*
X157826360Y-96897621D01*
X157799577Y-96900500D01*
X153007899Y-96900500D01*
X152939778Y-96880498D01*
X152922592Y-96865891D01*
X152922080Y-96866460D01*
X152917168Y-96862037D01*
X152912753Y-96857134D01*
X152758252Y-96744882D01*
X152752224Y-96742198D01*
X152752222Y-96742197D01*
X152589819Y-96669891D01*
X152589818Y-96669891D01*
X152583788Y-96667206D01*
X152490388Y-96647353D01*
X152403444Y-96628872D01*
X152403439Y-96628872D01*
X152396987Y-96627500D01*
X152206013Y-96627500D01*
X152199561Y-96628872D01*
X152199556Y-96628872D01*
X152112612Y-96647353D01*
X152019212Y-96667206D01*
X152013182Y-96669891D01*
X152013181Y-96669891D01*
X151850778Y-96742197D01*
X151850776Y-96742198D01*
X151844748Y-96744882D01*
X151690247Y-96857134D01*
X151562460Y-96999056D01*
X151466973Y-97164444D01*
X151407958Y-97346072D01*
X151387996Y-97536000D01*
X151407958Y-97725928D01*
X151409998Y-97732206D01*
X151426339Y-97782499D01*
X151428366Y-97853467D01*
X151391704Y-97914264D01*
X151355030Y-97935674D01*
X151355712Y-97937206D01*
X151187278Y-98012197D01*
X151187276Y-98012198D01*
X151181248Y-98014882D01*
X151026747Y-98127134D01*
X150898960Y-98269056D01*
X150882249Y-98298000D01*
X150823492Y-98399771D01*
X150803473Y-98434444D01*
X150744458Y-98616072D01*
X150743768Y-98622633D01*
X150743768Y-98622635D01*
X150731166Y-98742540D01*
X150724496Y-98806000D01*
X139700500Y-98806000D01*
X139700500Y-90929766D01*
X153061496Y-90929766D01*
X153062186Y-90936331D01*
X153079945Y-91105295D01*
X153081458Y-91119694D01*
X153140473Y-91301322D01*
X153143776Y-91307044D01*
X153143777Y-91307045D01*
X153151761Y-91320873D01*
X153235960Y-91466710D01*
X153240378Y-91471617D01*
X153240379Y-91471618D01*
X153287128Y-91523538D01*
X153363747Y-91608632D01*
X153518248Y-91720884D01*
X153524276Y-91723568D01*
X153524278Y-91723569D01*
X153669326Y-91788148D01*
X153692712Y-91798560D01*
X153767398Y-91814435D01*
X153873056Y-91836894D01*
X153873061Y-91836894D01*
X153879513Y-91838266D01*
X154070487Y-91838266D01*
X154076939Y-91836894D01*
X154076944Y-91836894D01*
X154215660Y-91807408D01*
X154257288Y-91798560D01*
X154263321Y-91795874D01*
X154263324Y-91795873D01*
X154336756Y-91763179D01*
X154388004Y-91752286D01*
X154926387Y-91752286D01*
X154994508Y-91772288D01*
X155011694Y-91786895D01*
X155012206Y-91786326D01*
X155017118Y-91790749D01*
X155021533Y-91795652D01*
X155026872Y-91799531D01*
X155117142Y-91865116D01*
X155176034Y-91907904D01*
X155182062Y-91910588D01*
X155182064Y-91910589D01*
X155344467Y-91982895D01*
X155350498Y-91985580D01*
X155438874Y-92004365D01*
X155530842Y-92023914D01*
X155530847Y-92023914D01*
X155537299Y-92025286D01*
X155728273Y-92025286D01*
X155734725Y-92023914D01*
X155734730Y-92023914D01*
X155826698Y-92004365D01*
X155915074Y-91985580D01*
X155921105Y-91982895D01*
X156083508Y-91910589D01*
X156083510Y-91910588D01*
X156089538Y-91907904D01*
X156148431Y-91865116D01*
X156238700Y-91799531D01*
X156244039Y-91795652D01*
X156248454Y-91790749D01*
X156253366Y-91786326D01*
X156255007Y-91788148D01*
X156305996Y-91756736D01*
X156339185Y-91752286D01*
X158350823Y-91752286D01*
X158418944Y-91772288D01*
X158465437Y-91825944D01*
X158476133Y-91865114D01*
X158491458Y-92010928D01*
X158550473Y-92192556D01*
X158553776Y-92198278D01*
X158553777Y-92198279D01*
X158556328Y-92202698D01*
X158645960Y-92357944D01*
X158650378Y-92362851D01*
X158650379Y-92362852D01*
X158745289Y-92468260D01*
X158773747Y-92499866D01*
X158928248Y-92612118D01*
X158934276Y-92614802D01*
X158934278Y-92614803D01*
X159096681Y-92687109D01*
X159102712Y-92689794D01*
X159190495Y-92708453D01*
X159283056Y-92728128D01*
X159283061Y-92728128D01*
X159289513Y-92729500D01*
X159480487Y-92729500D01*
X159486939Y-92728128D01*
X159486944Y-92728128D01*
X159579505Y-92708453D01*
X159667288Y-92689794D01*
X159673319Y-92687109D01*
X159835722Y-92614803D01*
X159835724Y-92614802D01*
X159841752Y-92612118D01*
X159996253Y-92499866D01*
X160024711Y-92468260D01*
X160119621Y-92362852D01*
X160119622Y-92362851D01*
X160124040Y-92357944D01*
X160213672Y-92202698D01*
X160216223Y-92198279D01*
X160216224Y-92198278D01*
X160219527Y-92192556D01*
X160278542Y-92010928D01*
X160281318Y-91984522D01*
X160297814Y-91827565D01*
X160298504Y-91821000D01*
X160296248Y-91799531D01*
X160279232Y-91637635D01*
X160279232Y-91637633D01*
X160278542Y-91631072D01*
X160219527Y-91449444D01*
X160203569Y-91421803D01*
X160181384Y-91383378D01*
X160124040Y-91284056D01*
X160108741Y-91267064D01*
X160000675Y-91147045D01*
X160000674Y-91147044D01*
X159996253Y-91142134D01*
X159841752Y-91029882D01*
X159835724Y-91027198D01*
X159835722Y-91027197D01*
X159673319Y-90954891D01*
X159673318Y-90954891D01*
X159667288Y-90952206D01*
X159561717Y-90929766D01*
X159486944Y-90913872D01*
X159486939Y-90913872D01*
X159480487Y-90912500D01*
X159427423Y-90912500D01*
X159359302Y-90892498D01*
X159338328Y-90875595D01*
X159186036Y-90723303D01*
X159178460Y-90714977D01*
X159174339Y-90708483D01*
X159124520Y-90661700D01*
X159121679Y-90658946D01*
X159101880Y-90639147D01*
X159098755Y-90636723D01*
X159098746Y-90636715D01*
X159098660Y-90636649D01*
X159089635Y-90628941D01*
X159063071Y-90603996D01*
X159057292Y-90598569D01*
X159039455Y-90588763D01*
X159022939Y-90577913D01*
X159006853Y-90565436D01*
X158966120Y-90547810D01*
X158955472Y-90542593D01*
X158943844Y-90536201D01*
X158916589Y-90521217D01*
X158908914Y-90519246D01*
X158908908Y-90519244D01*
X158896875Y-90516155D01*
X158878173Y-90509752D01*
X158859494Y-90501669D01*
X158825658Y-90496310D01*
X158815659Y-90494726D01*
X158804046Y-90492321D01*
X158761068Y-90481286D01*
X158740721Y-90481286D01*
X158721010Y-90479735D01*
X158708736Y-90477791D01*
X158700907Y-90476551D01*
X158693015Y-90477297D01*
X158656730Y-90480727D01*
X158644872Y-90481286D01*
X156339185Y-90481286D01*
X156271064Y-90461284D01*
X156253878Y-90446677D01*
X156253366Y-90447246D01*
X156248454Y-90442823D01*
X156244039Y-90437920D01*
X156089538Y-90325668D01*
X156083510Y-90322984D01*
X156083508Y-90322983D01*
X155921105Y-90250677D01*
X155921104Y-90250677D01*
X155915074Y-90247992D01*
X155821674Y-90228139D01*
X155734730Y-90209658D01*
X155734725Y-90209658D01*
X155728273Y-90208286D01*
X155537299Y-90208286D01*
X155530847Y-90209658D01*
X155530842Y-90209658D01*
X155443899Y-90228139D01*
X155350498Y-90247992D01*
X155344468Y-90250677D01*
X155344467Y-90250677D01*
X155182064Y-90322983D01*
X155182062Y-90322984D01*
X155176034Y-90325668D01*
X155021533Y-90437920D01*
X155017118Y-90442823D01*
X155012206Y-90447246D01*
X155010565Y-90445424D01*
X154959576Y-90476836D01*
X154926387Y-90481286D01*
X154837861Y-90481286D01*
X154769740Y-90461284D01*
X154728742Y-90418287D01*
X154717341Y-90398540D01*
X154714040Y-90392822D01*
X154633793Y-90303698D01*
X154590675Y-90255811D01*
X154590674Y-90255810D01*
X154586253Y-90250900D01*
X154431752Y-90138648D01*
X154425724Y-90135964D01*
X154425722Y-90135963D01*
X154263319Y-90063657D01*
X154263318Y-90063657D01*
X154257288Y-90060972D01*
X154163888Y-90041119D01*
X154076944Y-90022638D01*
X154076939Y-90022638D01*
X154070487Y-90021266D01*
X153879513Y-90021266D01*
X153873061Y-90022638D01*
X153873056Y-90022638D01*
X153786112Y-90041119D01*
X153692712Y-90060972D01*
X153686682Y-90063657D01*
X153686681Y-90063657D01*
X153524278Y-90135963D01*
X153524276Y-90135964D01*
X153518248Y-90138648D01*
X153363747Y-90250900D01*
X153359326Y-90255810D01*
X153359325Y-90255811D01*
X153316208Y-90303698D01*
X153235960Y-90392822D01*
X153232659Y-90398540D01*
X153164754Y-90516155D01*
X153140473Y-90558210D01*
X153081458Y-90739838D01*
X153080768Y-90746399D01*
X153080768Y-90746401D01*
X153062186Y-90923201D01*
X153061496Y-90929766D01*
X139700500Y-90929766D01*
X139700500Y-86487000D01*
X140056496Y-86487000D01*
X140057186Y-86493565D01*
X140069914Y-86614661D01*
X140076458Y-86676928D01*
X140135473Y-86858556D01*
X140230960Y-87023944D01*
X140358747Y-87165866D01*
X140513248Y-87278118D01*
X140519276Y-87280802D01*
X140519278Y-87280803D01*
X140681681Y-87353109D01*
X140687712Y-87355794D01*
X140751888Y-87369435D01*
X140868056Y-87394128D01*
X140868061Y-87394128D01*
X140874513Y-87395500D01*
X141065487Y-87395500D01*
X141071939Y-87394128D01*
X141071944Y-87394128D01*
X141188112Y-87369435D01*
X141252288Y-87355794D01*
X141258319Y-87353109D01*
X141420722Y-87280803D01*
X141420724Y-87280802D01*
X141426752Y-87278118D01*
X141581253Y-87165866D01*
X141709040Y-87023944D01*
X141804527Y-86858556D01*
X141863542Y-86676928D01*
X141870087Y-86614661D01*
X141882814Y-86493565D01*
X141883504Y-86487000D01*
X141876230Y-86417794D01*
X141864232Y-86303635D01*
X141864232Y-86303633D01*
X141863542Y-86297072D01*
X141804527Y-86115444D01*
X141709040Y-85950056D01*
X141673923Y-85911054D01*
X141637864Y-85871007D01*
X141607146Y-85807000D01*
X141605500Y-85786697D01*
X141605500Y-82422500D01*
X141625502Y-82354379D01*
X141679158Y-82307886D01*
X141731500Y-82296500D01*
X146867601Y-82296500D01*
X146935722Y-82316502D01*
X146952908Y-82331109D01*
X146953420Y-82330540D01*
X146958332Y-82334963D01*
X146962747Y-82339866D01*
X147117248Y-82452118D01*
X147123276Y-82454802D01*
X147123278Y-82454803D01*
X147284684Y-82526665D01*
X147338780Y-82572645D01*
X147359429Y-82640572D01*
X147340077Y-82708880D01*
X147284683Y-82756879D01*
X147250281Y-82772195D01*
X147250274Y-82772199D01*
X147244248Y-82774882D01*
X147238907Y-82778762D01*
X147238906Y-82778763D01*
X147201697Y-82805797D01*
X147089747Y-82887134D01*
X147085332Y-82892037D01*
X147080420Y-82896460D01*
X147078779Y-82894638D01*
X147027790Y-82926050D01*
X146994601Y-82930500D01*
X145613399Y-82930500D01*
X145545278Y-82910498D01*
X145528092Y-82895891D01*
X145527580Y-82896460D01*
X145522668Y-82892037D01*
X145518253Y-82887134D01*
X145406303Y-82805797D01*
X145369094Y-82778763D01*
X145369093Y-82778762D01*
X145363752Y-82774882D01*
X145357724Y-82772198D01*
X145357722Y-82772197D01*
X145195319Y-82699891D01*
X145195318Y-82699891D01*
X145189288Y-82697206D01*
X145095888Y-82677353D01*
X145008944Y-82658872D01*
X145008939Y-82658872D01*
X145002487Y-82657500D01*
X144811513Y-82657500D01*
X144805061Y-82658872D01*
X144805056Y-82658872D01*
X144718112Y-82677353D01*
X144624712Y-82697206D01*
X144618682Y-82699891D01*
X144618681Y-82699891D01*
X144456278Y-82772197D01*
X144456276Y-82772198D01*
X144450248Y-82774882D01*
X144444907Y-82778762D01*
X144444906Y-82778763D01*
X144407697Y-82805797D01*
X144295747Y-82887134D01*
X144291326Y-82892044D01*
X144291325Y-82892045D01*
X144246526Y-82941800D01*
X144167960Y-83029056D01*
X144164659Y-83034774D01*
X144093455Y-83158103D01*
X144072473Y-83194444D01*
X144013458Y-83376072D01*
X144012768Y-83382633D01*
X144012768Y-83382635D01*
X143997054Y-83532148D01*
X143993496Y-83566000D01*
X143994186Y-83572565D01*
X143997942Y-83608297D01*
X144013458Y-83755928D01*
X144072473Y-83937556D01*
X144075776Y-83943278D01*
X144075777Y-83943279D01*
X144100367Y-83985869D01*
X144167960Y-84102944D01*
X144172378Y-84107851D01*
X144172379Y-84107852D01*
X144204844Y-84143908D01*
X144295747Y-84244866D01*
X144339378Y-84276566D01*
X144430935Y-84343086D01*
X144450248Y-84357118D01*
X144456276Y-84359802D01*
X144456278Y-84359803D01*
X144566921Y-84409064D01*
X144624712Y-84434794D01*
X144718112Y-84454647D01*
X144805056Y-84473128D01*
X144805061Y-84473128D01*
X144811513Y-84474500D01*
X145002487Y-84474500D01*
X145008939Y-84473128D01*
X145008944Y-84473128D01*
X145095888Y-84454647D01*
X145189288Y-84434794D01*
X145247079Y-84409064D01*
X145357722Y-84359803D01*
X145357724Y-84359802D01*
X145363752Y-84357118D01*
X145383066Y-84343086D01*
X145503337Y-84255703D01*
X145518253Y-84244866D01*
X145522668Y-84239963D01*
X145527580Y-84235540D01*
X145529221Y-84237362D01*
X145580210Y-84205950D01*
X145613399Y-84201500D01*
X146994601Y-84201500D01*
X147062722Y-84221502D01*
X147079908Y-84236109D01*
X147080420Y-84235540D01*
X147085332Y-84239963D01*
X147089747Y-84244866D01*
X147104663Y-84255703D01*
X147224935Y-84343086D01*
X147244248Y-84357118D01*
X147250276Y-84359802D01*
X147250278Y-84359803D01*
X147360921Y-84409064D01*
X147418712Y-84434794D01*
X147512112Y-84454647D01*
X147599056Y-84473128D01*
X147599061Y-84473128D01*
X147605513Y-84474500D01*
X147796487Y-84474500D01*
X147802939Y-84473128D01*
X147802944Y-84473128D01*
X147889888Y-84454647D01*
X147983288Y-84434794D01*
X148041079Y-84409064D01*
X148151722Y-84359803D01*
X148151724Y-84359802D01*
X148157752Y-84357118D01*
X148177066Y-84343086D01*
X148268622Y-84276566D01*
X148312253Y-84244866D01*
X148403156Y-84143908D01*
X148435621Y-84107852D01*
X148435622Y-84107851D01*
X148440040Y-84102944D01*
X148507633Y-83985869D01*
X148532223Y-83943279D01*
X148532224Y-83943278D01*
X148535527Y-83937556D01*
X148594542Y-83755928D01*
X148610059Y-83608297D01*
X148613814Y-83572565D01*
X148614504Y-83566000D01*
X148610946Y-83532148D01*
X148595232Y-83382635D01*
X148595232Y-83382633D01*
X148594542Y-83376072D01*
X148535527Y-83194444D01*
X148514546Y-83158103D01*
X148443341Y-83034774D01*
X148440040Y-83029056D01*
X148361475Y-82941800D01*
X148316675Y-82892045D01*
X148316674Y-82892044D01*
X148312253Y-82887134D01*
X148200303Y-82805797D01*
X148163094Y-82778763D01*
X148163093Y-82778762D01*
X148157752Y-82774882D01*
X148151724Y-82772198D01*
X148151722Y-82772197D01*
X147990316Y-82700335D01*
X147936220Y-82654355D01*
X147915571Y-82586428D01*
X147934923Y-82518120D01*
X147990317Y-82470121D01*
X148024719Y-82454805D01*
X148024726Y-82454801D01*
X148030752Y-82452118D01*
X148185253Y-82339866D01*
X148189675Y-82334955D01*
X148308621Y-82202852D01*
X148308622Y-82202851D01*
X148313040Y-82197944D01*
X148371314Y-82097010D01*
X148405223Y-82038279D01*
X148405224Y-82038278D01*
X148408527Y-82032556D01*
X148467542Y-81850928D01*
X148470055Y-81827023D01*
X148486814Y-81667565D01*
X148487504Y-81661000D01*
X148482995Y-81618100D01*
X148468232Y-81477635D01*
X148468232Y-81477633D01*
X148467542Y-81471072D01*
X148408527Y-81289444D01*
X148313040Y-81124056D01*
X148295291Y-81104343D01*
X148189675Y-80987045D01*
X148189674Y-80987044D01*
X148185253Y-80982134D01*
X148030752Y-80869882D01*
X148024724Y-80867198D01*
X148024722Y-80867197D01*
X147862319Y-80794891D01*
X147862318Y-80794891D01*
X147856288Y-80792206D01*
X147762888Y-80772353D01*
X147675944Y-80753872D01*
X147675939Y-80753872D01*
X147669487Y-80752500D01*
X147478513Y-80752500D01*
X147472061Y-80753872D01*
X147472056Y-80753872D01*
X147385112Y-80772353D01*
X147291712Y-80792206D01*
X147285682Y-80794891D01*
X147285681Y-80794891D01*
X147123278Y-80867197D01*
X147123276Y-80867198D01*
X147117248Y-80869882D01*
X146962747Y-80982134D01*
X146958332Y-80987037D01*
X146953420Y-80991460D01*
X146951779Y-80989638D01*
X146900790Y-81021050D01*
X146867601Y-81025500D01*
X141430020Y-81025500D01*
X141418791Y-81024971D01*
X141411281Y-81023292D01*
X141403355Y-81023541D01*
X141403354Y-81023541D01*
X141343002Y-81025438D01*
X141339044Y-81025500D01*
X141311017Y-81025500D01*
X141306971Y-81026011D01*
X141295143Y-81026942D01*
X141250795Y-81028336D01*
X141243177Y-81030549D01*
X141243178Y-81030549D01*
X141231254Y-81034013D01*
X141211894Y-81038022D01*
X141199566Y-81039579D01*
X141199563Y-81039580D01*
X141191701Y-81040573D01*
X141184335Y-81043490D01*
X141184329Y-81043491D01*
X141150439Y-81056909D01*
X141139212Y-81060753D01*
X141096607Y-81073131D01*
X141089788Y-81077164D01*
X141089783Y-81077166D01*
X141079091Y-81083490D01*
X141061341Y-81092187D01*
X141042412Y-81099681D01*
X141035996Y-81104342D01*
X141035995Y-81104343D01*
X141006519Y-81125759D01*
X140996595Y-81132278D01*
X140965224Y-81150830D01*
X140965219Y-81150834D01*
X140958401Y-81154866D01*
X140944014Y-81169253D01*
X140928980Y-81182094D01*
X140912513Y-81194058D01*
X140907460Y-81200166D01*
X140884228Y-81228249D01*
X140876238Y-81237029D01*
X140576517Y-81536750D01*
X140568191Y-81544326D01*
X140561697Y-81548447D01*
X140556274Y-81554222D01*
X140514915Y-81598265D01*
X140512160Y-81601107D01*
X140492361Y-81620906D01*
X140489937Y-81624031D01*
X140489929Y-81624040D01*
X140489863Y-81624126D01*
X140482155Y-81633151D01*
X140451783Y-81665494D01*
X140447965Y-81672438D01*
X140447964Y-81672440D01*
X140441978Y-81683329D01*
X140431127Y-81699847D01*
X140418650Y-81715933D01*
X140401024Y-81756666D01*
X140395807Y-81767314D01*
X140374431Y-81806197D01*
X140372460Y-81813872D01*
X140372458Y-81813878D01*
X140369369Y-81825911D01*
X140362966Y-81844613D01*
X140354883Y-81863292D01*
X140353644Y-81871117D01*
X140347940Y-81907127D01*
X140345535Y-81918740D01*
X140334500Y-81961718D01*
X140334500Y-81982065D01*
X140332949Y-82001776D01*
X140329765Y-82021879D01*
X140330511Y-82029771D01*
X140333941Y-82066056D01*
X140334500Y-82077914D01*
X140334500Y-85786697D01*
X140314498Y-85854818D01*
X140302136Y-85871007D01*
X140266078Y-85911054D01*
X140230960Y-85950056D01*
X140135473Y-86115444D01*
X140076458Y-86297072D01*
X140075768Y-86303633D01*
X140075768Y-86303635D01*
X140063770Y-86417794D01*
X140056496Y-86487000D01*
X139700500Y-86487000D01*
X139700500Y-80329303D01*
X139720502Y-80261182D01*
X139732864Y-80244993D01*
X139799621Y-80170852D01*
X139799622Y-80170851D01*
X139804040Y-80165944D01*
X139881645Y-80031529D01*
X139896223Y-80006279D01*
X139896224Y-80006278D01*
X139899527Y-80000556D01*
X139958542Y-79818928D01*
X139960138Y-79803749D01*
X139977814Y-79635565D01*
X139978504Y-79629000D01*
X139964765Y-79498279D01*
X139959232Y-79445635D01*
X139959232Y-79445633D01*
X139958542Y-79439072D01*
X139899527Y-79257444D01*
X139894075Y-79248000D01*
X139820751Y-79121000D01*
X139804040Y-79092056D01*
X139778696Y-79063908D01*
X139680675Y-78955045D01*
X139680674Y-78955044D01*
X139676253Y-78950134D01*
X139521752Y-78837882D01*
X139515724Y-78835198D01*
X139515722Y-78835197D01*
X139353319Y-78762891D01*
X139353318Y-78762891D01*
X139347288Y-78760206D01*
X139245499Y-78738570D01*
X139166944Y-78721872D01*
X139166939Y-78721872D01*
X139160487Y-78720500D01*
X138969513Y-78720500D01*
X138963061Y-78721872D01*
X138963056Y-78721872D01*
X138884501Y-78738570D01*
X138782712Y-78760206D01*
X138776682Y-78762891D01*
X138776681Y-78762891D01*
X138614278Y-78835197D01*
X138614276Y-78835198D01*
X138608248Y-78837882D01*
X138453747Y-78950134D01*
X138449326Y-78955044D01*
X138449325Y-78955045D01*
X138351305Y-79063908D01*
X138325960Y-79092056D01*
X138309249Y-79121000D01*
X138235926Y-79248000D01*
X138230473Y-79257444D01*
X138171458Y-79439072D01*
X138170768Y-79445633D01*
X138170768Y-79445635D01*
X138165235Y-79498279D01*
X138151496Y-79629000D01*
X138152186Y-79635565D01*
X138169863Y-79803749D01*
X138171458Y-79818928D01*
X138230473Y-80000556D01*
X138233776Y-80006278D01*
X138233777Y-80006279D01*
X138248355Y-80031529D01*
X138325960Y-80165944D01*
X138330378Y-80170851D01*
X138330379Y-80170852D01*
X138397136Y-80244993D01*
X138427854Y-80309000D01*
X138429500Y-80329303D01*
X138429500Y-104963697D01*
X138409498Y-105031818D01*
X138397136Y-105048006D01*
X138325960Y-105127056D01*
X138230473Y-105292444D01*
X138171458Y-105474072D01*
X138151496Y-105664000D01*
X93424100Y-105664000D01*
X93450419Y-100593134D01*
X128689500Y-100593134D01*
X128696255Y-100655316D01*
X128747385Y-100791705D01*
X128834739Y-100908261D01*
X128951295Y-100995615D01*
X129087684Y-101046745D01*
X129149866Y-101053500D01*
X130946134Y-101053500D01*
X131008316Y-101046745D01*
X131144705Y-100995615D01*
X131261261Y-100908261D01*
X131348615Y-100791705D01*
X131370799Y-100732529D01*
X131392598Y-100674382D01*
X131435240Y-100617618D01*
X131501802Y-100592918D01*
X131571150Y-100608126D01*
X131605817Y-100636114D01*
X131634250Y-100668938D01*
X131806126Y-100811632D01*
X131999000Y-100924338D01*
X132207692Y-101004030D01*
X132212760Y-101005061D01*
X132212763Y-101005062D01*
X132320017Y-101026883D01*
X132426597Y-101048567D01*
X132431772Y-101048757D01*
X132431774Y-101048757D01*
X132644673Y-101056564D01*
X132644677Y-101056564D01*
X132649837Y-101056753D01*
X132654957Y-101056097D01*
X132654959Y-101056097D01*
X132866288Y-101029025D01*
X132866289Y-101029025D01*
X132871416Y-101028368D01*
X132876366Y-101026883D01*
X133080429Y-100965661D01*
X133080434Y-100965659D01*
X133085384Y-100964174D01*
X133285994Y-100865896D01*
X133467860Y-100736173D01*
X133626096Y-100578489D01*
X133756453Y-100397077D01*
X133757776Y-100398028D01*
X133804645Y-100354857D01*
X133874580Y-100342625D01*
X133940026Y-100370144D01*
X133967875Y-100401994D01*
X134027987Y-100500088D01*
X134174250Y-100668938D01*
X134346126Y-100811632D01*
X134539000Y-100924338D01*
X134747692Y-101004030D01*
X134752760Y-101005061D01*
X134752763Y-101005062D01*
X134860017Y-101026883D01*
X134966597Y-101048567D01*
X134971772Y-101048757D01*
X134971774Y-101048757D01*
X135184673Y-101056564D01*
X135184677Y-101056564D01*
X135189837Y-101056753D01*
X135194957Y-101056097D01*
X135194959Y-101056097D01*
X135406288Y-101029025D01*
X135406289Y-101029025D01*
X135411416Y-101028368D01*
X135416366Y-101026883D01*
X135620429Y-100965661D01*
X135620434Y-100965659D01*
X135625384Y-100964174D01*
X135825994Y-100865896D01*
X136007860Y-100736173D01*
X136166096Y-100578489D01*
X136296453Y-100397077D01*
X136317320Y-100354857D01*
X136393136Y-100201453D01*
X136393137Y-100201451D01*
X136395430Y-100196811D01*
X136460370Y-99983069D01*
X136489529Y-99761590D01*
X136491156Y-99695000D01*
X136472852Y-99472361D01*
X136418431Y-99255702D01*
X136329354Y-99050840D01*
X136284010Y-98980749D01*
X136210822Y-98867617D01*
X136210820Y-98867614D01*
X136208014Y-98863277D01*
X136057670Y-98698051D01*
X136053619Y-98694852D01*
X136053615Y-98694848D01*
X135886414Y-98562800D01*
X135886410Y-98562798D01*
X135882359Y-98559598D01*
X135686789Y-98451638D01*
X135681920Y-98449914D01*
X135681916Y-98449912D01*
X135481087Y-98378795D01*
X135481083Y-98378794D01*
X135476212Y-98377069D01*
X135471119Y-98376162D01*
X135471116Y-98376161D01*
X135261373Y-98338800D01*
X135261367Y-98338799D01*
X135256284Y-98337894D01*
X135182452Y-98336992D01*
X135038081Y-98335228D01*
X135038079Y-98335228D01*
X135032911Y-98335165D01*
X134812091Y-98368955D01*
X134599756Y-98438357D01*
X134401607Y-98541507D01*
X134397474Y-98544610D01*
X134397471Y-98544612D01*
X134293554Y-98622635D01*
X134222965Y-98675635D01*
X134219393Y-98679373D01*
X134078586Y-98826719D01*
X134068629Y-98837138D01*
X133961201Y-98994621D01*
X133906293Y-99039621D01*
X133835768Y-99047792D01*
X133772021Y-99016538D01*
X133751324Y-98992054D01*
X133670822Y-98867617D01*
X133670820Y-98867614D01*
X133668014Y-98863277D01*
X133517670Y-98698051D01*
X133513619Y-98694852D01*
X133513615Y-98694848D01*
X133346414Y-98562800D01*
X133346410Y-98562798D01*
X133342359Y-98559598D01*
X133146789Y-98451638D01*
X133141920Y-98449914D01*
X133141916Y-98449912D01*
X132941087Y-98378795D01*
X132941083Y-98378794D01*
X132936212Y-98377069D01*
X132931119Y-98376162D01*
X132931116Y-98376161D01*
X132721373Y-98338800D01*
X132721367Y-98338799D01*
X132716284Y-98337894D01*
X132642452Y-98336992D01*
X132498081Y-98335228D01*
X132498079Y-98335228D01*
X132492911Y-98335165D01*
X132272091Y-98368955D01*
X132059756Y-98438357D01*
X131861607Y-98541507D01*
X131857474Y-98544610D01*
X131857471Y-98544612D01*
X131753554Y-98622635D01*
X131682965Y-98675635D01*
X131626537Y-98734684D01*
X131602283Y-98760064D01*
X131540759Y-98795494D01*
X131469846Y-98792037D01*
X131412060Y-98750791D01*
X131393207Y-98717243D01*
X131351767Y-98606703D01*
X131348615Y-98598295D01*
X131261261Y-98481739D01*
X131144705Y-98394385D01*
X131008316Y-98343255D01*
X130946134Y-98336500D01*
X129149866Y-98336500D01*
X129087684Y-98343255D01*
X128951295Y-98394385D01*
X128834739Y-98481739D01*
X128747385Y-98598295D01*
X128696255Y-98734684D01*
X128689500Y-98796866D01*
X128689500Y-100593134D01*
X93450419Y-100593134D01*
X93489310Y-93100134D01*
X128689500Y-93100134D01*
X128696255Y-93162316D01*
X128747385Y-93298705D01*
X128834739Y-93415261D01*
X128951295Y-93502615D01*
X129087684Y-93553745D01*
X129149866Y-93560500D01*
X130946134Y-93560500D01*
X131008316Y-93553745D01*
X131144705Y-93502615D01*
X131261261Y-93415261D01*
X131348615Y-93298705D01*
X131362425Y-93261866D01*
X131392598Y-93181382D01*
X131435240Y-93124618D01*
X131501802Y-93099918D01*
X131571150Y-93115126D01*
X131605817Y-93143114D01*
X131634250Y-93175938D01*
X131806126Y-93318632D01*
X131999000Y-93431338D01*
X132207692Y-93511030D01*
X132212760Y-93512061D01*
X132212763Y-93512062D01*
X132320017Y-93533883D01*
X132426597Y-93555567D01*
X132431772Y-93555757D01*
X132431774Y-93555757D01*
X132644673Y-93563564D01*
X132644677Y-93563564D01*
X132649837Y-93563753D01*
X132654957Y-93563097D01*
X132654959Y-93563097D01*
X132866288Y-93536025D01*
X132866289Y-93536025D01*
X132871416Y-93535368D01*
X132876366Y-93533883D01*
X133080429Y-93472661D01*
X133080434Y-93472659D01*
X133085384Y-93471174D01*
X133285994Y-93372896D01*
X133467860Y-93243173D01*
X133626096Y-93085489D01*
X133756453Y-92904077D01*
X133757776Y-92905028D01*
X133804645Y-92861857D01*
X133874580Y-92849625D01*
X133940026Y-92877144D01*
X133967875Y-92908994D01*
X134027987Y-93007088D01*
X134174250Y-93175938D01*
X134346126Y-93318632D01*
X134539000Y-93431338D01*
X134747692Y-93511030D01*
X134752760Y-93512061D01*
X134752763Y-93512062D01*
X134860017Y-93533883D01*
X134966597Y-93555567D01*
X134971772Y-93555757D01*
X134971774Y-93555757D01*
X135184673Y-93563564D01*
X135184677Y-93563564D01*
X135189837Y-93563753D01*
X135194957Y-93563097D01*
X135194959Y-93563097D01*
X135406288Y-93536025D01*
X135406289Y-93536025D01*
X135411416Y-93535368D01*
X135416366Y-93533883D01*
X135620429Y-93472661D01*
X135620434Y-93472659D01*
X135625384Y-93471174D01*
X135825994Y-93372896D01*
X136007860Y-93243173D01*
X136166096Y-93085489D01*
X136296453Y-92904077D01*
X136317320Y-92861857D01*
X136393136Y-92708453D01*
X136393137Y-92708451D01*
X136395430Y-92703811D01*
X136456214Y-92503749D01*
X136458865Y-92495023D01*
X136458865Y-92495021D01*
X136460370Y-92490069D01*
X136489529Y-92268590D01*
X136491156Y-92202000D01*
X136472852Y-91979361D01*
X136418431Y-91762702D01*
X136329354Y-91557840D01*
X136289906Y-91496862D01*
X136210822Y-91374617D01*
X136210820Y-91374614D01*
X136208014Y-91370277D01*
X136057670Y-91205051D01*
X136053619Y-91201852D01*
X136053615Y-91201848D01*
X135886414Y-91069800D01*
X135886410Y-91069798D01*
X135882359Y-91066598D01*
X135686789Y-90958638D01*
X135681920Y-90956914D01*
X135681916Y-90956912D01*
X135481087Y-90885795D01*
X135481083Y-90885794D01*
X135476212Y-90884069D01*
X135471119Y-90883162D01*
X135471116Y-90883161D01*
X135261373Y-90845800D01*
X135261367Y-90845799D01*
X135256284Y-90844894D01*
X135182452Y-90843992D01*
X135038081Y-90842228D01*
X135038079Y-90842228D01*
X135032911Y-90842165D01*
X134812091Y-90875955D01*
X134599756Y-90945357D01*
X134401607Y-91048507D01*
X134397474Y-91051610D01*
X134397471Y-91051612D01*
X134233018Y-91175087D01*
X134222965Y-91182635D01*
X134193040Y-91213950D01*
X134090862Y-91320873D01*
X134068629Y-91344138D01*
X133961201Y-91501621D01*
X133906293Y-91546621D01*
X133835768Y-91554792D01*
X133772021Y-91523538D01*
X133751324Y-91499054D01*
X133670822Y-91374617D01*
X133670820Y-91374614D01*
X133668014Y-91370277D01*
X133517670Y-91205051D01*
X133513619Y-91201852D01*
X133513615Y-91201848D01*
X133346414Y-91069800D01*
X133346410Y-91069798D01*
X133342359Y-91066598D01*
X133146789Y-90958638D01*
X133141920Y-90956914D01*
X133141916Y-90956912D01*
X132941087Y-90885795D01*
X132941083Y-90885794D01*
X132936212Y-90884069D01*
X132931119Y-90883162D01*
X132931116Y-90883161D01*
X132721373Y-90845800D01*
X132721367Y-90845799D01*
X132716284Y-90844894D01*
X132642452Y-90843992D01*
X132498081Y-90842228D01*
X132498079Y-90842228D01*
X132492911Y-90842165D01*
X132272091Y-90875955D01*
X132059756Y-90945357D01*
X131861607Y-91048507D01*
X131857474Y-91051610D01*
X131857471Y-91051612D01*
X131693018Y-91175087D01*
X131682965Y-91182635D01*
X131610606Y-91258355D01*
X131602283Y-91267064D01*
X131540759Y-91302494D01*
X131469846Y-91299037D01*
X131412060Y-91257791D01*
X131393207Y-91224243D01*
X131351767Y-91113703D01*
X131348615Y-91105295D01*
X131261261Y-90988739D01*
X131144705Y-90901385D01*
X131008316Y-90850255D01*
X130946134Y-90843500D01*
X129149866Y-90843500D01*
X129087684Y-90850255D01*
X128951295Y-90901385D01*
X128834739Y-90988739D01*
X128747385Y-91105295D01*
X128696255Y-91241684D01*
X128689500Y-91303866D01*
X128689500Y-93100134D01*
X93489310Y-93100134D01*
X93524905Y-86242134D01*
X128689500Y-86242134D01*
X128696255Y-86304316D01*
X128747385Y-86440705D01*
X128834739Y-86557261D01*
X128951295Y-86644615D01*
X129087684Y-86695745D01*
X129149866Y-86702500D01*
X130946134Y-86702500D01*
X131008316Y-86695745D01*
X131144705Y-86644615D01*
X131261261Y-86557261D01*
X131348615Y-86440705D01*
X131357204Y-86417794D01*
X131392598Y-86323382D01*
X131435240Y-86266618D01*
X131501802Y-86241918D01*
X131571150Y-86257126D01*
X131605817Y-86285114D01*
X131634250Y-86317938D01*
X131806126Y-86460632D01*
X131999000Y-86573338D01*
X132207692Y-86653030D01*
X132212760Y-86654061D01*
X132212763Y-86654062D01*
X132319103Y-86675697D01*
X132426597Y-86697567D01*
X132431772Y-86697757D01*
X132431774Y-86697757D01*
X132644673Y-86705564D01*
X132644677Y-86705564D01*
X132649837Y-86705753D01*
X132654957Y-86705097D01*
X132654959Y-86705097D01*
X132866288Y-86678025D01*
X132866289Y-86678025D01*
X132871416Y-86677368D01*
X132894758Y-86670365D01*
X133080429Y-86614661D01*
X133080434Y-86614659D01*
X133085384Y-86613174D01*
X133285994Y-86514896D01*
X133467860Y-86385173D01*
X133626096Y-86227489D01*
X133756453Y-86046077D01*
X133757776Y-86047028D01*
X133804645Y-86003857D01*
X133874580Y-85991625D01*
X133940026Y-86019144D01*
X133967875Y-86050994D01*
X134027987Y-86149088D01*
X134174250Y-86317938D01*
X134346126Y-86460632D01*
X134539000Y-86573338D01*
X134747692Y-86653030D01*
X134752760Y-86654061D01*
X134752763Y-86654062D01*
X134859103Y-86675697D01*
X134966597Y-86697567D01*
X134971772Y-86697757D01*
X134971774Y-86697757D01*
X135184673Y-86705564D01*
X135184677Y-86705564D01*
X135189837Y-86705753D01*
X135194957Y-86705097D01*
X135194959Y-86705097D01*
X135406288Y-86678025D01*
X135406289Y-86678025D01*
X135411416Y-86677368D01*
X135434758Y-86670365D01*
X135620429Y-86614661D01*
X135620434Y-86614659D01*
X135625384Y-86613174D01*
X135825994Y-86514896D01*
X136007860Y-86385173D01*
X136166096Y-86227489D01*
X136296453Y-86046077D01*
X136317320Y-86003857D01*
X136393136Y-85850453D01*
X136393137Y-85850451D01*
X136395430Y-85845811D01*
X136460370Y-85632069D01*
X136489529Y-85410590D01*
X136491156Y-85344000D01*
X136472852Y-85121361D01*
X136418431Y-84904702D01*
X136329354Y-84699840D01*
X136271845Y-84610944D01*
X136210822Y-84516617D01*
X136210820Y-84516614D01*
X136208014Y-84512277D01*
X136057670Y-84347051D01*
X136053619Y-84343852D01*
X136053615Y-84343848D01*
X135886414Y-84211800D01*
X135886410Y-84211798D01*
X135882359Y-84208598D01*
X135686789Y-84100638D01*
X135681920Y-84098914D01*
X135681916Y-84098912D01*
X135481087Y-84027795D01*
X135481083Y-84027794D01*
X135476212Y-84026069D01*
X135471119Y-84025162D01*
X135471116Y-84025161D01*
X135261373Y-83987800D01*
X135261367Y-83987799D01*
X135256284Y-83986894D01*
X135182452Y-83985992D01*
X135038081Y-83984228D01*
X135038079Y-83984228D01*
X135032911Y-83984165D01*
X134812091Y-84017955D01*
X134599756Y-84087357D01*
X134569814Y-84102944D01*
X134497497Y-84140590D01*
X134401607Y-84190507D01*
X134397474Y-84193610D01*
X134397471Y-84193612D01*
X134286987Y-84276566D01*
X134222965Y-84324635D01*
X134189358Y-84359803D01*
X134077748Y-84476596D01*
X134068629Y-84486138D01*
X133961201Y-84643621D01*
X133906293Y-84688621D01*
X133835768Y-84696792D01*
X133772021Y-84665538D01*
X133751324Y-84641054D01*
X133670822Y-84516617D01*
X133670820Y-84516614D01*
X133668014Y-84512277D01*
X133517670Y-84347051D01*
X133513619Y-84343852D01*
X133513615Y-84343848D01*
X133346414Y-84211800D01*
X133346410Y-84211798D01*
X133342359Y-84208598D01*
X133146789Y-84100638D01*
X133141920Y-84098914D01*
X133141916Y-84098912D01*
X132941087Y-84027795D01*
X132941083Y-84027794D01*
X132936212Y-84026069D01*
X132931119Y-84025162D01*
X132931116Y-84025161D01*
X132721373Y-83987800D01*
X132721367Y-83987799D01*
X132716284Y-83986894D01*
X132642452Y-83985992D01*
X132498081Y-83984228D01*
X132498079Y-83984228D01*
X132492911Y-83984165D01*
X132272091Y-84017955D01*
X132059756Y-84087357D01*
X132029814Y-84102944D01*
X131957497Y-84140590D01*
X131861607Y-84190507D01*
X131857474Y-84193610D01*
X131857471Y-84193612D01*
X131746987Y-84276566D01*
X131682965Y-84324635D01*
X131626537Y-84383684D01*
X131602283Y-84409064D01*
X131540759Y-84444494D01*
X131469846Y-84441037D01*
X131412060Y-84399791D01*
X131393207Y-84366243D01*
X131351767Y-84255703D01*
X131348615Y-84247295D01*
X131261261Y-84130739D01*
X131144705Y-84043385D01*
X131008316Y-83992255D01*
X130946134Y-83985500D01*
X129149866Y-83985500D01*
X129087684Y-83992255D01*
X128951295Y-84043385D01*
X128834739Y-84130739D01*
X128747385Y-84247295D01*
X128696255Y-84383684D01*
X128689500Y-84445866D01*
X128689500Y-86242134D01*
X93524905Y-86242134D01*
X93584459Y-74768104D01*
X106627311Y-74768104D01*
X106628290Y-74773801D01*
X106628290Y-74773802D01*
X106655130Y-74930000D01*
X106663692Y-74979830D01*
X106738048Y-75181380D01*
X106847888Y-75366006D01*
X106851694Y-75370346D01*
X106851697Y-75370350D01*
X106985409Y-75522818D01*
X106989535Y-75527523D01*
X107158244Y-75660522D01*
X107163355Y-75663211D01*
X107163358Y-75663213D01*
X107259928Y-75714021D01*
X107348365Y-75760550D01*
X107553531Y-75824255D01*
X107559268Y-75824934D01*
X107724269Y-75844464D01*
X107724276Y-75844464D01*
X107727956Y-75844900D01*
X109172902Y-75844900D01*
X109332328Y-75830251D01*
X109337890Y-75828682D01*
X109337892Y-75828682D01*
X109404700Y-75809840D01*
X109539091Y-75771938D01*
X109544268Y-75769385D01*
X109544273Y-75769383D01*
X109726586Y-75679475D01*
X109731765Y-75676921D01*
X109903898Y-75548384D01*
X109923182Y-75527523D01*
X110045805Y-75394870D01*
X110045807Y-75394867D01*
X110049724Y-75390630D01*
X110164360Y-75208943D01*
X110243966Y-75009408D01*
X110249850Y-74979830D01*
X110256038Y-74948722D01*
X114278854Y-74948722D01*
X114283198Y-74974003D01*
X114286178Y-74985123D01*
X114356503Y-75175748D01*
X114361453Y-75186126D01*
X114465339Y-75360743D01*
X114472105Y-75370055D01*
X114606074Y-75522818D01*
X114614417Y-75530735D01*
X114773978Y-75656523D01*
X114783635Y-75662794D01*
X114963440Y-75757394D01*
X114974074Y-75761799D01*
X115168118Y-75822051D01*
X115179372Y-75824443D01*
X115344298Y-75843964D01*
X115351701Y-75844400D01*
X115805885Y-75844400D01*
X115821124Y-75839925D01*
X115822329Y-75838535D01*
X115824000Y-75830852D01*
X115824000Y-75826285D01*
X116332000Y-75826285D01*
X116336475Y-75841524D01*
X116337865Y-75842729D01*
X116345548Y-75844400D01*
X116789981Y-75844400D01*
X116795770Y-75844134D01*
X116946479Y-75830286D01*
X116957800Y-75828188D01*
X117153347Y-75773038D01*
X117164094Y-75768913D01*
X117346322Y-75679048D01*
X117356130Y-75673038D01*
X117518938Y-75551464D01*
X117527478Y-75543775D01*
X117665407Y-75394564D01*
X117672408Y-75385439D01*
X117780831Y-75213599D01*
X117786052Y-75203351D01*
X117861343Y-75014633D01*
X117864612Y-75003597D01*
X117875717Y-74947770D01*
X117874565Y-74934894D01*
X117859409Y-74930000D01*
X116350115Y-74930000D01*
X116334876Y-74934475D01*
X116333671Y-74935865D01*
X116332000Y-74943548D01*
X116332000Y-75826285D01*
X115824000Y-75826285D01*
X115824000Y-74948115D01*
X115819525Y-74932876D01*
X115818135Y-74931671D01*
X115810452Y-74930000D01*
X114293752Y-74930000D01*
X114280790Y-74933806D01*
X114278854Y-74948722D01*
X110256038Y-74948722D01*
X110284750Y-74804374D01*
X110284750Y-74804371D01*
X110285877Y-74798707D01*
X110286278Y-74768104D01*
X135710311Y-74768104D01*
X135711290Y-74773801D01*
X135711290Y-74773802D01*
X135738130Y-74930000D01*
X135746692Y-74979830D01*
X135821048Y-75181380D01*
X135930888Y-75366006D01*
X135934694Y-75370346D01*
X135934697Y-75370350D01*
X136068409Y-75522818D01*
X136072535Y-75527523D01*
X136241244Y-75660522D01*
X136246355Y-75663211D01*
X136246358Y-75663213D01*
X136342928Y-75714021D01*
X136431365Y-75760550D01*
X136636531Y-75824255D01*
X136642268Y-75824934D01*
X136807269Y-75844464D01*
X136807276Y-75844464D01*
X136810956Y-75844900D01*
X138255902Y-75844900D01*
X138415328Y-75830251D01*
X138420890Y-75828682D01*
X138420892Y-75828682D01*
X138487700Y-75809840D01*
X138622091Y-75771938D01*
X138627268Y-75769385D01*
X138627273Y-75769383D01*
X138809586Y-75679475D01*
X138814765Y-75676921D01*
X138986898Y-75548384D01*
X139006182Y-75527523D01*
X139128805Y-75394870D01*
X139128807Y-75394867D01*
X139132724Y-75390630D01*
X139247360Y-75208943D01*
X139326966Y-75009408D01*
X139332850Y-74979830D01*
X139339038Y-74948722D01*
X143361854Y-74948722D01*
X143366198Y-74974003D01*
X143369178Y-74985123D01*
X143439503Y-75175748D01*
X143444453Y-75186126D01*
X143548339Y-75360743D01*
X143555105Y-75370055D01*
X143689074Y-75522818D01*
X143697417Y-75530735D01*
X143856978Y-75656523D01*
X143866635Y-75662794D01*
X144046440Y-75757394D01*
X144057074Y-75761799D01*
X144251118Y-75822051D01*
X144262372Y-75824443D01*
X144427298Y-75843964D01*
X144434701Y-75844400D01*
X144888885Y-75844400D01*
X144904124Y-75839925D01*
X144905329Y-75838535D01*
X144907000Y-75830852D01*
X144907000Y-75826285D01*
X145415000Y-75826285D01*
X145419475Y-75841524D01*
X145420865Y-75842729D01*
X145428548Y-75844400D01*
X145872981Y-75844400D01*
X145878770Y-75844134D01*
X146029479Y-75830286D01*
X146040800Y-75828188D01*
X146236347Y-75773038D01*
X146247094Y-75768913D01*
X146429322Y-75679048D01*
X146439130Y-75673038D01*
X146601938Y-75551464D01*
X146610478Y-75543775D01*
X146748407Y-75394564D01*
X146755408Y-75385439D01*
X146863831Y-75213599D01*
X146869052Y-75203351D01*
X146944343Y-75014633D01*
X146947612Y-75003597D01*
X146958717Y-74947770D01*
X146957565Y-74934894D01*
X146942409Y-74930000D01*
X145433115Y-74930000D01*
X145417876Y-74934475D01*
X145416671Y-74935865D01*
X145415000Y-74943548D01*
X145415000Y-75826285D01*
X144907000Y-75826285D01*
X144907000Y-74948115D01*
X144902525Y-74932876D01*
X144901135Y-74931671D01*
X144893452Y-74930000D01*
X143376752Y-74930000D01*
X143363790Y-74933806D01*
X143361854Y-74948722D01*
X139339038Y-74948722D01*
X139367750Y-74804374D01*
X139367750Y-74804371D01*
X139368877Y-74798707D01*
X139369354Y-74762322D01*
X139371613Y-74589678D01*
X139371689Y-74583896D01*
X139367424Y-74559072D01*
X139336287Y-74377867D01*
X139336287Y-74377866D01*
X139335308Y-74372170D01*
X139260952Y-74170620D01*
X139151112Y-73985994D01*
X139147306Y-73981654D01*
X139147303Y-73981650D01*
X139013272Y-73828818D01*
X139009465Y-73824477D01*
X138840756Y-73691478D01*
X138835645Y-73688789D01*
X138835642Y-73688787D01*
X138739072Y-73637979D01*
X138650635Y-73591450D01*
X138445469Y-73527745D01*
X138443744Y-73527541D01*
X138382423Y-73494432D01*
X138348104Y-73432282D01*
X138352835Y-73361443D01*
X138395112Y-73304407D01*
X138436896Y-73283648D01*
X138616347Y-73233038D01*
X138627094Y-73228913D01*
X138809322Y-73139048D01*
X138819130Y-73133038D01*
X138981938Y-73011464D01*
X138990478Y-73003775D01*
X139128407Y-72854564D01*
X139135408Y-72845439D01*
X139243831Y-72673599D01*
X139249052Y-72663351D01*
X139324343Y-72474633D01*
X139327612Y-72463597D01*
X139338717Y-72407770D01*
X139337565Y-72394894D01*
X139322409Y-72390000D01*
X135756752Y-72390000D01*
X135743790Y-72393806D01*
X135741854Y-72408722D01*
X135746198Y-72434003D01*
X135749178Y-72445123D01*
X135819503Y-72635748D01*
X135824453Y-72646126D01*
X135928339Y-72820743D01*
X135935105Y-72830055D01*
X136069074Y-72982818D01*
X136077417Y-72990735D01*
X136236978Y-73116523D01*
X136246635Y-73122794D01*
X136426440Y-73217394D01*
X136437074Y-73221799D01*
X136631123Y-73282053D01*
X136637090Y-73283321D01*
X136699563Y-73317051D01*
X136733882Y-73379201D01*
X136729153Y-73450040D01*
X136686876Y-73507077D01*
X136645094Y-73527835D01*
X136459909Y-73580062D01*
X136454732Y-73582615D01*
X136454727Y-73582617D01*
X136310814Y-73653588D01*
X136267235Y-73675079D01*
X136095102Y-73803616D01*
X136091188Y-73807850D01*
X136091186Y-73807852D01*
X135989954Y-73917365D01*
X135949276Y-73961370D01*
X135834640Y-74143057D01*
X135755034Y-74342592D01*
X135753908Y-74348252D01*
X135753907Y-74348256D01*
X135714250Y-74547626D01*
X135713123Y-74553293D01*
X135713047Y-74559068D01*
X135713047Y-74559072D01*
X135712362Y-74611438D01*
X135710311Y-74768104D01*
X110286278Y-74768104D01*
X110286354Y-74762322D01*
X110288613Y-74589678D01*
X110288689Y-74583896D01*
X110284424Y-74559072D01*
X110253287Y-74377867D01*
X110253287Y-74377866D01*
X110252308Y-74372170D01*
X110177952Y-74170620D01*
X110068112Y-73985994D01*
X110064306Y-73981654D01*
X110064303Y-73981650D01*
X109930272Y-73828818D01*
X109926465Y-73824477D01*
X109757756Y-73691478D01*
X109752645Y-73688789D01*
X109752642Y-73688787D01*
X109656072Y-73637979D01*
X109567635Y-73591450D01*
X109362469Y-73527745D01*
X109360744Y-73527541D01*
X109299423Y-73494432D01*
X109265104Y-73432282D01*
X109269835Y-73361443D01*
X109312112Y-73304407D01*
X109353896Y-73283648D01*
X109533347Y-73233038D01*
X109544094Y-73228913D01*
X109726322Y-73139048D01*
X109736130Y-73133038D01*
X109898938Y-73011464D01*
X109907478Y-73003775D01*
X110045407Y-72854564D01*
X110052408Y-72845439D01*
X110160831Y-72673599D01*
X110166052Y-72663351D01*
X110241343Y-72474633D01*
X110244612Y-72463597D01*
X110255717Y-72407770D01*
X110254565Y-72394894D01*
X110239409Y-72390000D01*
X106673752Y-72390000D01*
X106660790Y-72393806D01*
X106658854Y-72408722D01*
X106663198Y-72434003D01*
X106666178Y-72445123D01*
X106736503Y-72635748D01*
X106741453Y-72646126D01*
X106845339Y-72820743D01*
X106852105Y-72830055D01*
X106986074Y-72982818D01*
X106994417Y-72990735D01*
X107153978Y-73116523D01*
X107163635Y-73122794D01*
X107343440Y-73217394D01*
X107354074Y-73221799D01*
X107548123Y-73282053D01*
X107554090Y-73283321D01*
X107616563Y-73317051D01*
X107650882Y-73379201D01*
X107646153Y-73450040D01*
X107603876Y-73507077D01*
X107562094Y-73527835D01*
X107376909Y-73580062D01*
X107371732Y-73582615D01*
X107371727Y-73582617D01*
X107227814Y-73653588D01*
X107184235Y-73675079D01*
X107012102Y-73803616D01*
X107008188Y-73807850D01*
X107008186Y-73807852D01*
X106906954Y-73917365D01*
X106866276Y-73961370D01*
X106751640Y-74143057D01*
X106672034Y-74342592D01*
X106670908Y-74348252D01*
X106670907Y-74348256D01*
X106631250Y-74547626D01*
X106630123Y-74553293D01*
X106630047Y-74559068D01*
X106630047Y-74559072D01*
X106629362Y-74611438D01*
X106627311Y-74768104D01*
X93584459Y-74768104D01*
X93597643Y-72228104D01*
X114247311Y-72228104D01*
X114248290Y-72233801D01*
X114248290Y-72233802D01*
X114275130Y-72390000D01*
X114283692Y-72439830D01*
X114358048Y-72641380D01*
X114467888Y-72826006D01*
X114471694Y-72830346D01*
X114471697Y-72830350D01*
X114605409Y-72982818D01*
X114609535Y-72987523D01*
X114778244Y-73120522D01*
X114783355Y-73123211D01*
X114783358Y-73123213D01*
X114875713Y-73171803D01*
X114968365Y-73220550D01*
X115173531Y-73284255D01*
X115175256Y-73284459D01*
X115236577Y-73317568D01*
X115270896Y-73379718D01*
X115266165Y-73450557D01*
X115223888Y-73507593D01*
X115182104Y-73528352D01*
X115002653Y-73578962D01*
X114991906Y-73583087D01*
X114809678Y-73672952D01*
X114799870Y-73678962D01*
X114637062Y-73800536D01*
X114628522Y-73808225D01*
X114490593Y-73957436D01*
X114483592Y-73966561D01*
X114375169Y-74138401D01*
X114369948Y-74148649D01*
X114294657Y-74337367D01*
X114291388Y-74348403D01*
X114280283Y-74404230D01*
X114281435Y-74417106D01*
X114296591Y-74422000D01*
X117862248Y-74422000D01*
X117875210Y-74418194D01*
X117877146Y-74403278D01*
X117872802Y-74377997D01*
X117869822Y-74366877D01*
X117799497Y-74176252D01*
X117794547Y-74165874D01*
X117690661Y-73991257D01*
X117683895Y-73981945D01*
X117549926Y-73829182D01*
X117541583Y-73821265D01*
X117382022Y-73695477D01*
X117372365Y-73689206D01*
X117192560Y-73594606D01*
X117181926Y-73590201D01*
X116987877Y-73529947D01*
X116981910Y-73528679D01*
X116919437Y-73494949D01*
X116885118Y-73432799D01*
X116889847Y-73361960D01*
X116932124Y-73304923D01*
X116973906Y-73284165D01*
X117159091Y-73231938D01*
X117164268Y-73229385D01*
X117164273Y-73229383D01*
X117346586Y-73139475D01*
X117351765Y-73136921D01*
X117523898Y-73008384D01*
X117543182Y-72987523D01*
X117665805Y-72854870D01*
X117665807Y-72854867D01*
X117669724Y-72850630D01*
X117784360Y-72668943D01*
X117863966Y-72469408D01*
X117869850Y-72439830D01*
X117904750Y-72264374D01*
X117904750Y-72264371D01*
X117905877Y-72258707D01*
X117905966Y-72251969D01*
X117906278Y-72228104D01*
X143330311Y-72228104D01*
X143331290Y-72233801D01*
X143331290Y-72233802D01*
X143358130Y-72390000D01*
X143366692Y-72439830D01*
X143441048Y-72641380D01*
X143550888Y-72826006D01*
X143554694Y-72830346D01*
X143554697Y-72830350D01*
X143688409Y-72982818D01*
X143692535Y-72987523D01*
X143861244Y-73120522D01*
X143866355Y-73123211D01*
X143866358Y-73123213D01*
X143958713Y-73171803D01*
X144051365Y-73220550D01*
X144256531Y-73284255D01*
X144258256Y-73284459D01*
X144319577Y-73317568D01*
X144353896Y-73379718D01*
X144349165Y-73450557D01*
X144306888Y-73507593D01*
X144265104Y-73528352D01*
X144085653Y-73578962D01*
X144074906Y-73583087D01*
X143892678Y-73672952D01*
X143882870Y-73678962D01*
X143720062Y-73800536D01*
X143711522Y-73808225D01*
X143573593Y-73957436D01*
X143566592Y-73966561D01*
X143458169Y-74138401D01*
X143452948Y-74148649D01*
X143377657Y-74337367D01*
X143374388Y-74348403D01*
X143363283Y-74404230D01*
X143364435Y-74417106D01*
X143379591Y-74422000D01*
X146945248Y-74422000D01*
X146958210Y-74418194D01*
X146960146Y-74403278D01*
X146955802Y-74377997D01*
X146952822Y-74366877D01*
X146882497Y-74176252D01*
X146877547Y-74165874D01*
X146773661Y-73991257D01*
X146766895Y-73981945D01*
X146632926Y-73829182D01*
X146624583Y-73821265D01*
X146465022Y-73695477D01*
X146455365Y-73689206D01*
X146275560Y-73594606D01*
X146264926Y-73590201D01*
X146070877Y-73529947D01*
X146064910Y-73528679D01*
X146002437Y-73494949D01*
X145968118Y-73432799D01*
X145972847Y-73361960D01*
X146015124Y-73304923D01*
X146056906Y-73284165D01*
X146242091Y-73231938D01*
X146247268Y-73229385D01*
X146247273Y-73229383D01*
X146429586Y-73139475D01*
X146434765Y-73136921D01*
X146606898Y-73008384D01*
X146626182Y-72987523D01*
X146748805Y-72854870D01*
X146748807Y-72854867D01*
X146752724Y-72850630D01*
X146867360Y-72668943D01*
X146946966Y-72469408D01*
X146952850Y-72439830D01*
X146987750Y-72264374D01*
X146987750Y-72264371D01*
X146988877Y-72258707D01*
X146988966Y-72251969D01*
X146991466Y-72060938D01*
X146991689Y-72043896D01*
X146987424Y-72019072D01*
X146956287Y-71837867D01*
X146956287Y-71837866D01*
X146955308Y-71832170D01*
X146880952Y-71630620D01*
X146771112Y-71445994D01*
X146767306Y-71441654D01*
X146767303Y-71441650D01*
X146633272Y-71288818D01*
X146629465Y-71284477D01*
X146460756Y-71151478D01*
X146455645Y-71148789D01*
X146455642Y-71148787D01*
X146359072Y-71097979D01*
X146270635Y-71051450D01*
X146065469Y-70987745D01*
X146063744Y-70987541D01*
X146002423Y-70954432D01*
X145968104Y-70892282D01*
X145972835Y-70821443D01*
X146015112Y-70764407D01*
X146056896Y-70743648D01*
X146236347Y-70693038D01*
X146247094Y-70688913D01*
X146429322Y-70599048D01*
X146439130Y-70593038D01*
X146601938Y-70471464D01*
X146610478Y-70463775D01*
X146748407Y-70314564D01*
X146755408Y-70305439D01*
X146863831Y-70133599D01*
X146869052Y-70123351D01*
X146944343Y-69934633D01*
X146947612Y-69923597D01*
X146958717Y-69867770D01*
X146957565Y-69854894D01*
X146942409Y-69850000D01*
X143376752Y-69850000D01*
X143363790Y-69853806D01*
X143361854Y-69868722D01*
X143366198Y-69894003D01*
X143369178Y-69905123D01*
X143439503Y-70095748D01*
X143444453Y-70106126D01*
X143548339Y-70280743D01*
X143555105Y-70290055D01*
X143689074Y-70442818D01*
X143697417Y-70450735D01*
X143856978Y-70576523D01*
X143866635Y-70582794D01*
X144046440Y-70677394D01*
X144057074Y-70681799D01*
X144251123Y-70742053D01*
X144257090Y-70743321D01*
X144319563Y-70777051D01*
X144353882Y-70839201D01*
X144349153Y-70910040D01*
X144306876Y-70967077D01*
X144265094Y-70987835D01*
X144079909Y-71040062D01*
X144074732Y-71042615D01*
X144074727Y-71042617D01*
X143930814Y-71113588D01*
X143887235Y-71135079D01*
X143715102Y-71263616D01*
X143711188Y-71267850D01*
X143711186Y-71267852D01*
X143606996Y-71380565D01*
X143569276Y-71421370D01*
X143454640Y-71603057D01*
X143375034Y-71802592D01*
X143373908Y-71808252D01*
X143373907Y-71808256D01*
X143335212Y-72002792D01*
X143333123Y-72013293D01*
X143333047Y-72019068D01*
X143333047Y-72019072D01*
X143332605Y-72052866D01*
X143330311Y-72228104D01*
X117906278Y-72228104D01*
X117908466Y-72060938D01*
X117908689Y-72043896D01*
X117904424Y-72019072D01*
X117873287Y-71837867D01*
X117873287Y-71837866D01*
X117872308Y-71832170D01*
X117797952Y-71630620D01*
X117688112Y-71445994D01*
X117684306Y-71441654D01*
X117684303Y-71441650D01*
X117550272Y-71288818D01*
X117546465Y-71284477D01*
X117377756Y-71151478D01*
X117372645Y-71148789D01*
X117372642Y-71148787D01*
X117276072Y-71097979D01*
X117187635Y-71051450D01*
X116982469Y-70987745D01*
X116980744Y-70987541D01*
X116919423Y-70954432D01*
X116885104Y-70892282D01*
X116889835Y-70821443D01*
X116932112Y-70764407D01*
X116973896Y-70743648D01*
X117153347Y-70693038D01*
X117164094Y-70688913D01*
X117346322Y-70599048D01*
X117356130Y-70593038D01*
X117518938Y-70471464D01*
X117527478Y-70463775D01*
X117665407Y-70314564D01*
X117672408Y-70305439D01*
X117780831Y-70133599D01*
X117786052Y-70123351D01*
X117861343Y-69934633D01*
X117864612Y-69923597D01*
X117875717Y-69867770D01*
X117874565Y-69854894D01*
X117859409Y-69850000D01*
X114293752Y-69850000D01*
X114280790Y-69853806D01*
X114278854Y-69868722D01*
X114283198Y-69894003D01*
X114286178Y-69905123D01*
X114356503Y-70095748D01*
X114361453Y-70106126D01*
X114465339Y-70280743D01*
X114472105Y-70290055D01*
X114606074Y-70442818D01*
X114614417Y-70450735D01*
X114773978Y-70576523D01*
X114783635Y-70582794D01*
X114963440Y-70677394D01*
X114974074Y-70681799D01*
X115168123Y-70742053D01*
X115174090Y-70743321D01*
X115236563Y-70777051D01*
X115270882Y-70839201D01*
X115266153Y-70910040D01*
X115223876Y-70967077D01*
X115182094Y-70987835D01*
X114996909Y-71040062D01*
X114991732Y-71042615D01*
X114991727Y-71042617D01*
X114847814Y-71113588D01*
X114804235Y-71135079D01*
X114632102Y-71263616D01*
X114628188Y-71267850D01*
X114628186Y-71267852D01*
X114523996Y-71380565D01*
X114486276Y-71421370D01*
X114371640Y-71603057D01*
X114292034Y-71802592D01*
X114290908Y-71808252D01*
X114290907Y-71808256D01*
X114252212Y-72002792D01*
X114250123Y-72013293D01*
X114250047Y-72019068D01*
X114250047Y-72019072D01*
X114249605Y-72052866D01*
X114247311Y-72228104D01*
X93597643Y-72228104D01*
X93609889Y-69868722D01*
X106658854Y-69868722D01*
X106663198Y-69894003D01*
X106666178Y-69905123D01*
X106736503Y-70095748D01*
X106741453Y-70106126D01*
X106845339Y-70280743D01*
X106852105Y-70290055D01*
X106986074Y-70442818D01*
X106994417Y-70450735D01*
X107153978Y-70576523D01*
X107163635Y-70582794D01*
X107343440Y-70677394D01*
X107354074Y-70681799D01*
X107548120Y-70742052D01*
X107555137Y-70743543D01*
X107617611Y-70777271D01*
X107651932Y-70839420D01*
X107647205Y-70910259D01*
X107604930Y-70967297D01*
X107563142Y-70988059D01*
X107382653Y-71038962D01*
X107371906Y-71043087D01*
X107189678Y-71132952D01*
X107179870Y-71138962D01*
X107017062Y-71260536D01*
X107008522Y-71268225D01*
X106870593Y-71417436D01*
X106863592Y-71426561D01*
X106755169Y-71598401D01*
X106749948Y-71608649D01*
X106674657Y-71797367D01*
X106671388Y-71808403D01*
X106660283Y-71864230D01*
X106661435Y-71877106D01*
X106676591Y-71882000D01*
X110242248Y-71882000D01*
X110255210Y-71878194D01*
X110257146Y-71863278D01*
X110252802Y-71837997D01*
X110249822Y-71826877D01*
X110179497Y-71636252D01*
X110174547Y-71625874D01*
X110070661Y-71451257D01*
X110063895Y-71441945D01*
X109929926Y-71289182D01*
X109921583Y-71281265D01*
X109762022Y-71155477D01*
X109752365Y-71149206D01*
X109572560Y-71054606D01*
X109561926Y-71050201D01*
X109367880Y-70989948D01*
X109360863Y-70988457D01*
X109298389Y-70954729D01*
X109264068Y-70892580D01*
X109268795Y-70821741D01*
X109311070Y-70764703D01*
X109352858Y-70743941D01*
X109533347Y-70693038D01*
X109544094Y-70688913D01*
X109726322Y-70599048D01*
X109736130Y-70593038D01*
X109898938Y-70471464D01*
X109907478Y-70463775D01*
X110045407Y-70314564D01*
X110052408Y-70305439D01*
X110160831Y-70133599D01*
X110166052Y-70123351D01*
X110241343Y-69934633D01*
X110244612Y-69923597D01*
X110255717Y-69867770D01*
X110254565Y-69854894D01*
X110239409Y-69850000D01*
X106673752Y-69850000D01*
X106660790Y-69853806D01*
X106658854Y-69868722D01*
X93609889Y-69868722D01*
X93623072Y-67328722D01*
X106658854Y-67328722D01*
X106663198Y-67354003D01*
X106666178Y-67365123D01*
X106736503Y-67555748D01*
X106741453Y-67566126D01*
X106845339Y-67740743D01*
X106852105Y-67750055D01*
X106986074Y-67902818D01*
X106994417Y-67910735D01*
X107153978Y-68036523D01*
X107163635Y-68042794D01*
X107343440Y-68137394D01*
X107354074Y-68141799D01*
X107548120Y-68202052D01*
X107555137Y-68203543D01*
X107617611Y-68237271D01*
X107651932Y-68299420D01*
X107647205Y-68370259D01*
X107604930Y-68427297D01*
X107563142Y-68448059D01*
X107382653Y-68498962D01*
X107371906Y-68503087D01*
X107189678Y-68592952D01*
X107179870Y-68598962D01*
X107017062Y-68720536D01*
X107008522Y-68728225D01*
X106870593Y-68877436D01*
X106863592Y-68886561D01*
X106755169Y-69058401D01*
X106749948Y-69068649D01*
X106674657Y-69257367D01*
X106671388Y-69268403D01*
X106660283Y-69324230D01*
X106661435Y-69337106D01*
X106676591Y-69342000D01*
X110242248Y-69342000D01*
X110255210Y-69338194D01*
X110257146Y-69323278D01*
X110252802Y-69297997D01*
X110249822Y-69286877D01*
X110179497Y-69096252D01*
X110174547Y-69085874D01*
X110070661Y-68911257D01*
X110063895Y-68901945D01*
X109929926Y-68749182D01*
X109921583Y-68741265D01*
X109762022Y-68615477D01*
X109752365Y-68609206D01*
X109572560Y-68514606D01*
X109561926Y-68510201D01*
X109367880Y-68449948D01*
X109360863Y-68448457D01*
X109298389Y-68414729D01*
X109264068Y-68352580D01*
X109268795Y-68281741D01*
X109311070Y-68224703D01*
X109352858Y-68203941D01*
X109533347Y-68153038D01*
X109544094Y-68148913D01*
X109726322Y-68059048D01*
X109736130Y-68053038D01*
X109898938Y-67931464D01*
X109907478Y-67923775D01*
X110045407Y-67774564D01*
X110052408Y-67765439D01*
X110160831Y-67593599D01*
X110166052Y-67583351D01*
X110241343Y-67394633D01*
X110244612Y-67383597D01*
X110255717Y-67327770D01*
X110254565Y-67314894D01*
X110239409Y-67310000D01*
X106673752Y-67310000D01*
X106660790Y-67313806D01*
X106658854Y-67328722D01*
X93623072Y-67328722D01*
X93624009Y-67148104D01*
X114247311Y-67148104D01*
X114248290Y-67153801D01*
X114248290Y-67153802D01*
X114275130Y-67310000D01*
X114283692Y-67359830D01*
X114358048Y-67561380D01*
X114467888Y-67746006D01*
X114471694Y-67750346D01*
X114471697Y-67750350D01*
X114563054Y-67854522D01*
X114609535Y-67907523D01*
X114778244Y-68040522D01*
X114783355Y-68043211D01*
X114783358Y-68043213D01*
X114844469Y-68075365D01*
X114968365Y-68140550D01*
X115173531Y-68204255D01*
X115175256Y-68204459D01*
X115236577Y-68237568D01*
X115270896Y-68299718D01*
X115266165Y-68370557D01*
X115223888Y-68427593D01*
X115182104Y-68448352D01*
X115002653Y-68498962D01*
X114991906Y-68503087D01*
X114809678Y-68592952D01*
X114799870Y-68598962D01*
X114637062Y-68720536D01*
X114628522Y-68728225D01*
X114490593Y-68877436D01*
X114483592Y-68886561D01*
X114375169Y-69058401D01*
X114369948Y-69068649D01*
X114294657Y-69257367D01*
X114291388Y-69268403D01*
X114280283Y-69324230D01*
X114281435Y-69337106D01*
X114296591Y-69342000D01*
X117862248Y-69342000D01*
X117875210Y-69338194D01*
X117877146Y-69323278D01*
X117872802Y-69297997D01*
X117869822Y-69286877D01*
X117799497Y-69096252D01*
X117794547Y-69085874D01*
X117690661Y-68911257D01*
X117683895Y-68901945D01*
X117549926Y-68749182D01*
X117541583Y-68741265D01*
X117382022Y-68615477D01*
X117372365Y-68609206D01*
X117192560Y-68514606D01*
X117181926Y-68510201D01*
X116987877Y-68449947D01*
X116981910Y-68448679D01*
X116919437Y-68414949D01*
X116885118Y-68352799D01*
X116889847Y-68281960D01*
X116932124Y-68224923D01*
X116973906Y-68204165D01*
X117159091Y-68151938D01*
X117164268Y-68149385D01*
X117164273Y-68149383D01*
X117346586Y-68059475D01*
X117351765Y-68056921D01*
X117376173Y-68038695D01*
X120430251Y-68038695D01*
X120430548Y-68043848D01*
X120430548Y-68043851D01*
X120436606Y-68148913D01*
X120443110Y-68261715D01*
X120444247Y-68266761D01*
X120444248Y-68266767D01*
X120465275Y-68360069D01*
X120492222Y-68479639D01*
X120576266Y-68686616D01*
X120578965Y-68691020D01*
X120674262Y-68846531D01*
X120692987Y-68877088D01*
X120839250Y-69045938D01*
X120843230Y-69049242D01*
X120847981Y-69053187D01*
X120887616Y-69112090D01*
X120889113Y-69183071D01*
X120851997Y-69243593D01*
X120811725Y-69268112D01*
X120717328Y-69303500D01*
X120696295Y-69311385D01*
X120579739Y-69398739D01*
X120492385Y-69515295D01*
X120441255Y-69651684D01*
X120434500Y-69713866D01*
X120434500Y-71510134D01*
X120441255Y-71572316D01*
X120492385Y-71708705D01*
X120579739Y-71825261D01*
X120696295Y-71912615D01*
X120832684Y-71963745D01*
X120894866Y-71970500D01*
X122691134Y-71970500D01*
X122753316Y-71963745D01*
X122889705Y-71912615D01*
X123006261Y-71825261D01*
X123093615Y-71708705D01*
X123144745Y-71572316D01*
X123151500Y-71510134D01*
X123151500Y-69868722D01*
X135741854Y-69868722D01*
X135746198Y-69894003D01*
X135749178Y-69905123D01*
X135819503Y-70095748D01*
X135824453Y-70106126D01*
X135928339Y-70280743D01*
X135935105Y-70290055D01*
X136069074Y-70442818D01*
X136077417Y-70450735D01*
X136236978Y-70576523D01*
X136246635Y-70582794D01*
X136426440Y-70677394D01*
X136437074Y-70681799D01*
X136631120Y-70742052D01*
X136638137Y-70743543D01*
X136700611Y-70777271D01*
X136734932Y-70839420D01*
X136730205Y-70910259D01*
X136687930Y-70967297D01*
X136646142Y-70988059D01*
X136465653Y-71038962D01*
X136454906Y-71043087D01*
X136272678Y-71132952D01*
X136262870Y-71138962D01*
X136100062Y-71260536D01*
X136091522Y-71268225D01*
X135953593Y-71417436D01*
X135946592Y-71426561D01*
X135838169Y-71598401D01*
X135832948Y-71608649D01*
X135757657Y-71797367D01*
X135754388Y-71808403D01*
X135743283Y-71864230D01*
X135744435Y-71877106D01*
X135759591Y-71882000D01*
X139325248Y-71882000D01*
X139338210Y-71878194D01*
X139340146Y-71863278D01*
X139335802Y-71837997D01*
X139332822Y-71826877D01*
X139262497Y-71636252D01*
X139257547Y-71625874D01*
X139153661Y-71451257D01*
X139146895Y-71441945D01*
X139012926Y-71289182D01*
X139004583Y-71281265D01*
X138845022Y-71155477D01*
X138835365Y-71149206D01*
X138655560Y-71054606D01*
X138644926Y-71050201D01*
X138450880Y-70989948D01*
X138443863Y-70988457D01*
X138381389Y-70954729D01*
X138347068Y-70892580D01*
X138351795Y-70821741D01*
X138394070Y-70764703D01*
X138435858Y-70743941D01*
X138616347Y-70693038D01*
X138627094Y-70688913D01*
X138809322Y-70599048D01*
X138819130Y-70593038D01*
X138981938Y-70471464D01*
X138990478Y-70463775D01*
X139128407Y-70314564D01*
X139135408Y-70305439D01*
X139243831Y-70133599D01*
X139249052Y-70123351D01*
X139324343Y-69934633D01*
X139327612Y-69923597D01*
X139338717Y-69867770D01*
X139337565Y-69854894D01*
X139322409Y-69850000D01*
X135756752Y-69850000D01*
X135743790Y-69853806D01*
X135741854Y-69868722D01*
X123151500Y-69868722D01*
X123151500Y-69713866D01*
X123144745Y-69651684D01*
X123093615Y-69515295D01*
X123006261Y-69398739D01*
X122889705Y-69311385D01*
X122868672Y-69303500D01*
X122771203Y-69266960D01*
X122714439Y-69224318D01*
X122689739Y-69157756D01*
X122704947Y-69088408D01*
X122726493Y-69059727D01*
X122744578Y-69041705D01*
X122831096Y-68955489D01*
X122868161Y-68903908D01*
X122958435Y-68778277D01*
X122961453Y-68774077D01*
X122984115Y-68728225D01*
X123058136Y-68578453D01*
X123058137Y-68578451D01*
X123060430Y-68573811D01*
X123098516Y-68448457D01*
X123123865Y-68365023D01*
X123123865Y-68365021D01*
X123125370Y-68360069D01*
X123154529Y-68138590D01*
X123154611Y-68135240D01*
X123156074Y-68075365D01*
X123156074Y-68075361D01*
X123156156Y-68072000D01*
X123137852Y-67849361D01*
X123083431Y-67632702D01*
X122994354Y-67427840D01*
X122946587Y-67354003D01*
X122930232Y-67328722D01*
X135741854Y-67328722D01*
X135746198Y-67354003D01*
X135749178Y-67365123D01*
X135819503Y-67555748D01*
X135824453Y-67566126D01*
X135928339Y-67740743D01*
X135935105Y-67750055D01*
X136069074Y-67902818D01*
X136077417Y-67910735D01*
X136236978Y-68036523D01*
X136246635Y-68042794D01*
X136426440Y-68137394D01*
X136437074Y-68141799D01*
X136631120Y-68202052D01*
X136638137Y-68203543D01*
X136700611Y-68237271D01*
X136734932Y-68299420D01*
X136730205Y-68370259D01*
X136687930Y-68427297D01*
X136646142Y-68448059D01*
X136465653Y-68498962D01*
X136454906Y-68503087D01*
X136272678Y-68592952D01*
X136262870Y-68598962D01*
X136100062Y-68720536D01*
X136091522Y-68728225D01*
X135953593Y-68877436D01*
X135946592Y-68886561D01*
X135838169Y-69058401D01*
X135832948Y-69068649D01*
X135757657Y-69257367D01*
X135754388Y-69268403D01*
X135743283Y-69324230D01*
X135744435Y-69337106D01*
X135759591Y-69342000D01*
X139325248Y-69342000D01*
X139338210Y-69338194D01*
X139340146Y-69323278D01*
X139335802Y-69297997D01*
X139332822Y-69286877D01*
X139262497Y-69096252D01*
X139257547Y-69085874D01*
X139153661Y-68911257D01*
X139146895Y-68901945D01*
X139012926Y-68749182D01*
X139004583Y-68741265D01*
X138845022Y-68615477D01*
X138835365Y-68609206D01*
X138655560Y-68514606D01*
X138644926Y-68510201D01*
X138450880Y-68449948D01*
X138443863Y-68448457D01*
X138381389Y-68414729D01*
X138347068Y-68352580D01*
X138351795Y-68281741D01*
X138394070Y-68224703D01*
X138435858Y-68203941D01*
X138616347Y-68153038D01*
X138627094Y-68148913D01*
X138809322Y-68059048D01*
X138819130Y-68053038D01*
X138981938Y-67931464D01*
X138990478Y-67923775D01*
X139128407Y-67774564D01*
X139135408Y-67765439D01*
X139243831Y-67593599D01*
X139249052Y-67583351D01*
X139324343Y-67394633D01*
X139327612Y-67383597D01*
X139338717Y-67327770D01*
X139337565Y-67314894D01*
X139322409Y-67310000D01*
X135756752Y-67310000D01*
X135743790Y-67313806D01*
X135741854Y-67328722D01*
X122930232Y-67328722D01*
X122875822Y-67244617D01*
X122875820Y-67244614D01*
X122873014Y-67240277D01*
X122789143Y-67148104D01*
X143330311Y-67148104D01*
X143331290Y-67153801D01*
X143331290Y-67153802D01*
X143358130Y-67310000D01*
X143366692Y-67359830D01*
X143441048Y-67561380D01*
X143550888Y-67746006D01*
X143554694Y-67750346D01*
X143554697Y-67750350D01*
X143646054Y-67854522D01*
X143692535Y-67907523D01*
X143861244Y-68040522D01*
X143866355Y-68043211D01*
X143866358Y-68043213D01*
X143927469Y-68075365D01*
X144051365Y-68140550D01*
X144256531Y-68204255D01*
X144258256Y-68204459D01*
X144319577Y-68237568D01*
X144353896Y-68299718D01*
X144349165Y-68370557D01*
X144306888Y-68427593D01*
X144265104Y-68448352D01*
X144085653Y-68498962D01*
X144074906Y-68503087D01*
X143892678Y-68592952D01*
X143882870Y-68598962D01*
X143720062Y-68720536D01*
X143711522Y-68728225D01*
X143573593Y-68877436D01*
X143566592Y-68886561D01*
X143458169Y-69058401D01*
X143452948Y-69068649D01*
X143377657Y-69257367D01*
X143374388Y-69268403D01*
X143363283Y-69324230D01*
X143364435Y-69337106D01*
X143379591Y-69342000D01*
X146945248Y-69342000D01*
X146958210Y-69338194D01*
X146960146Y-69323278D01*
X146955802Y-69297997D01*
X146952822Y-69286877D01*
X146882497Y-69096252D01*
X146877547Y-69085874D01*
X146773661Y-68911257D01*
X146766895Y-68901945D01*
X146632926Y-68749182D01*
X146624583Y-68741265D01*
X146465022Y-68615477D01*
X146455365Y-68609206D01*
X146275560Y-68514606D01*
X146264926Y-68510201D01*
X146070877Y-68449947D01*
X146064910Y-68448679D01*
X146002437Y-68414949D01*
X145968118Y-68352799D01*
X145972847Y-68281960D01*
X146015124Y-68224923D01*
X146056906Y-68204165D01*
X146242091Y-68151938D01*
X146247268Y-68149385D01*
X146247273Y-68149383D01*
X146429586Y-68059475D01*
X146434765Y-68056921D01*
X146606898Y-67928384D01*
X146626182Y-67907523D01*
X146748805Y-67774870D01*
X146748807Y-67774867D01*
X146752724Y-67770630D01*
X146867360Y-67588943D01*
X146946966Y-67389408D01*
X146948482Y-67381790D01*
X146987750Y-67184374D01*
X146987750Y-67184371D01*
X146988877Y-67178707D01*
X146989354Y-67142322D01*
X146991138Y-67006007D01*
X146991689Y-66963896D01*
X146987424Y-66939072D01*
X146956287Y-66757867D01*
X146956287Y-66757866D01*
X146955308Y-66752170D01*
X146880952Y-66550620D01*
X146771112Y-66365994D01*
X146767306Y-66361654D01*
X146767303Y-66361650D01*
X146633272Y-66208818D01*
X146629465Y-66204477D01*
X146460756Y-66071478D01*
X146455645Y-66068789D01*
X146455642Y-66068787D01*
X146359072Y-66017979D01*
X146270635Y-65971450D01*
X146065469Y-65907745D01*
X146063744Y-65907541D01*
X146002423Y-65874432D01*
X145968104Y-65812282D01*
X145972835Y-65741443D01*
X146015112Y-65684407D01*
X146056896Y-65663648D01*
X146236347Y-65613038D01*
X146247094Y-65608913D01*
X146429322Y-65519048D01*
X146439130Y-65513038D01*
X146601938Y-65391464D01*
X146610478Y-65383775D01*
X146748407Y-65234564D01*
X146755408Y-65225439D01*
X146863831Y-65053599D01*
X146869052Y-65043351D01*
X146944343Y-64854633D01*
X146947612Y-64843597D01*
X146958717Y-64787770D01*
X146957565Y-64774894D01*
X146942409Y-64770000D01*
X143376752Y-64770000D01*
X143363790Y-64773806D01*
X143361854Y-64788722D01*
X143366198Y-64814003D01*
X143369178Y-64825123D01*
X143439503Y-65015748D01*
X143444453Y-65026126D01*
X143548339Y-65200743D01*
X143555105Y-65210055D01*
X143689074Y-65362818D01*
X143697417Y-65370735D01*
X143856978Y-65496523D01*
X143866635Y-65502794D01*
X144046440Y-65597394D01*
X144057074Y-65601799D01*
X144251123Y-65662053D01*
X144257090Y-65663321D01*
X144319563Y-65697051D01*
X144353882Y-65759201D01*
X144349153Y-65830040D01*
X144306876Y-65887077D01*
X144265094Y-65907835D01*
X144079909Y-65960062D01*
X144074732Y-65962615D01*
X144074727Y-65962617D01*
X143930814Y-66033588D01*
X143887235Y-66055079D01*
X143715102Y-66183616D01*
X143711188Y-66187850D01*
X143711186Y-66187852D01*
X143577301Y-66332689D01*
X143569276Y-66341370D01*
X143454640Y-66523057D01*
X143375034Y-66722592D01*
X143373908Y-66728252D01*
X143373907Y-66728256D01*
X143337001Y-66913797D01*
X143333123Y-66933293D01*
X143333047Y-66939068D01*
X143333047Y-66939072D01*
X143332547Y-66977285D01*
X143330311Y-67148104D01*
X122789143Y-67148104D01*
X122722670Y-67075051D01*
X122718619Y-67071852D01*
X122718615Y-67071848D01*
X122551414Y-66939800D01*
X122551410Y-66939798D01*
X122547359Y-66936598D01*
X122506053Y-66913796D01*
X122456084Y-66863364D01*
X122441312Y-66793921D01*
X122466428Y-66727516D01*
X122493780Y-66700909D01*
X122553848Y-66658063D01*
X122672860Y-66573173D01*
X122723152Y-66523057D01*
X122767817Y-66478547D01*
X122831096Y-66415489D01*
X122857361Y-66378938D01*
X122958435Y-66238277D01*
X122961453Y-66234077D01*
X122977850Y-66200901D01*
X123058136Y-66038453D01*
X123058137Y-66038451D01*
X123060430Y-66033811D01*
X123125370Y-65820069D01*
X123154529Y-65598590D01*
X123154624Y-65594715D01*
X123156074Y-65535365D01*
X123156074Y-65535361D01*
X123156156Y-65532000D01*
X123137852Y-65309361D01*
X123083431Y-65092702D01*
X122994354Y-64887840D01*
X122945430Y-64812215D01*
X122930232Y-64788722D01*
X135741854Y-64788722D01*
X135746198Y-64814003D01*
X135749178Y-64825123D01*
X135819503Y-65015748D01*
X135824453Y-65026126D01*
X135928339Y-65200743D01*
X135935105Y-65210055D01*
X136069074Y-65362818D01*
X136077417Y-65370735D01*
X136236978Y-65496523D01*
X136246635Y-65502794D01*
X136426440Y-65597394D01*
X136437074Y-65601799D01*
X136631120Y-65662052D01*
X136638137Y-65663543D01*
X136700611Y-65697271D01*
X136734932Y-65759420D01*
X136730205Y-65830259D01*
X136687930Y-65887297D01*
X136646142Y-65908059D01*
X136465653Y-65958962D01*
X136454906Y-65963087D01*
X136272678Y-66052952D01*
X136262870Y-66058962D01*
X136100062Y-66180536D01*
X136091522Y-66188225D01*
X135953593Y-66337436D01*
X135946592Y-66346561D01*
X135838169Y-66518401D01*
X135832948Y-66528649D01*
X135757657Y-66717367D01*
X135754388Y-66728403D01*
X135743283Y-66784230D01*
X135744435Y-66797106D01*
X135759591Y-66802000D01*
X139325248Y-66802000D01*
X139338210Y-66798194D01*
X139340146Y-66783278D01*
X139335802Y-66757997D01*
X139332822Y-66746877D01*
X139262497Y-66556252D01*
X139257547Y-66545874D01*
X139153661Y-66371257D01*
X139146895Y-66361945D01*
X139012926Y-66209182D01*
X139004583Y-66201265D01*
X138845022Y-66075477D01*
X138835365Y-66069206D01*
X138655560Y-65974606D01*
X138644926Y-65970201D01*
X138450880Y-65909948D01*
X138443863Y-65908457D01*
X138381389Y-65874729D01*
X138347068Y-65812580D01*
X138351795Y-65741741D01*
X138394070Y-65684703D01*
X138435858Y-65663941D01*
X138616347Y-65613038D01*
X138627094Y-65608913D01*
X138809322Y-65519048D01*
X138819130Y-65513038D01*
X138981938Y-65391464D01*
X138990478Y-65383775D01*
X139128407Y-65234564D01*
X139135408Y-65225439D01*
X139243831Y-65053599D01*
X139249052Y-65043351D01*
X139324343Y-64854633D01*
X139327612Y-64843597D01*
X139338717Y-64787770D01*
X139337565Y-64774894D01*
X139322409Y-64770000D01*
X135756752Y-64770000D01*
X135743790Y-64773806D01*
X135741854Y-64788722D01*
X122930232Y-64788722D01*
X122875822Y-64704617D01*
X122875820Y-64704614D01*
X122873014Y-64700277D01*
X122722670Y-64535051D01*
X122718619Y-64531852D01*
X122718615Y-64531848D01*
X122551414Y-64399800D01*
X122551410Y-64399798D01*
X122547359Y-64396598D01*
X122506053Y-64373796D01*
X122456084Y-64323364D01*
X122441312Y-64253921D01*
X122466428Y-64187516D01*
X122493780Y-64160909D01*
X122541429Y-64126921D01*
X122672860Y-64033173D01*
X122681588Y-64024476D01*
X122797296Y-63909171D01*
X122831096Y-63875489D01*
X122857361Y-63838938D01*
X122958435Y-63698277D01*
X122961453Y-63694077D01*
X122984115Y-63648225D01*
X123058136Y-63498453D01*
X123058137Y-63498451D01*
X123060430Y-63493811D01*
X123098448Y-63368679D01*
X123123865Y-63285023D01*
X123123865Y-63285021D01*
X123125370Y-63280069D01*
X123154529Y-63058590D01*
X123154624Y-63054715D01*
X123156074Y-62995365D01*
X123156074Y-62995361D01*
X123156156Y-62992000D01*
X123137852Y-62769361D01*
X123083431Y-62552702D01*
X122994354Y-62347840D01*
X122938630Y-62261704D01*
X122875822Y-62164617D01*
X122875820Y-62164614D01*
X122873014Y-62160277D01*
X122789143Y-62068104D01*
X135710311Y-62068104D01*
X135711290Y-62073801D01*
X135711290Y-62073802D01*
X135745713Y-62274133D01*
X135746692Y-62279830D01*
X135821048Y-62481380D01*
X135930888Y-62666006D01*
X135934694Y-62670346D01*
X135934697Y-62670350D01*
X136021528Y-62769361D01*
X136072535Y-62827523D01*
X136077070Y-62831098D01*
X136077071Y-62831099D01*
X136084973Y-62837328D01*
X136241244Y-62960522D01*
X136246355Y-62963211D01*
X136246358Y-62963213D01*
X136307469Y-62995365D01*
X136431365Y-63060550D01*
X136636531Y-63124255D01*
X136638256Y-63124459D01*
X136699577Y-63157568D01*
X136733896Y-63219718D01*
X136729165Y-63290557D01*
X136686888Y-63347593D01*
X136645104Y-63368352D01*
X136465653Y-63418962D01*
X136454906Y-63423087D01*
X136272678Y-63512952D01*
X136262870Y-63518962D01*
X136100062Y-63640536D01*
X136091522Y-63648225D01*
X135953593Y-63797436D01*
X135946592Y-63806561D01*
X135838169Y-63978401D01*
X135832948Y-63988649D01*
X135757657Y-64177367D01*
X135754388Y-64188403D01*
X135743283Y-64244230D01*
X135744435Y-64257106D01*
X135759591Y-64262000D01*
X139325248Y-64262000D01*
X139338210Y-64258194D01*
X139340146Y-64243278D01*
X139335802Y-64217997D01*
X139332822Y-64206877D01*
X139262497Y-64016252D01*
X139257547Y-64005874D01*
X139153661Y-63831257D01*
X139146895Y-63821945D01*
X139012926Y-63669182D01*
X139004583Y-63661265D01*
X138845022Y-63535477D01*
X138835365Y-63529206D01*
X138655560Y-63434606D01*
X138644926Y-63430201D01*
X138450877Y-63369947D01*
X138444910Y-63368679D01*
X138382437Y-63334949D01*
X138348118Y-63272799D01*
X138352847Y-63201960D01*
X138395124Y-63144923D01*
X138436906Y-63124165D01*
X138622091Y-63071938D01*
X138627268Y-63069385D01*
X138627273Y-63069383D01*
X138809586Y-62979475D01*
X138814765Y-62976921D01*
X138986898Y-62848384D01*
X139007070Y-62826562D01*
X139128805Y-62694870D01*
X139128807Y-62694867D01*
X139132724Y-62690630D01*
X139247360Y-62508943D01*
X139326966Y-62309408D01*
X139328381Y-62302297D01*
X139367750Y-62104374D01*
X139367750Y-62104371D01*
X139368877Y-62098707D01*
X139369278Y-62068104D01*
X143330311Y-62068104D01*
X143331290Y-62073801D01*
X143331290Y-62073802D01*
X143365713Y-62274133D01*
X143366692Y-62279830D01*
X143441048Y-62481380D01*
X143550888Y-62666006D01*
X143554694Y-62670346D01*
X143554697Y-62670350D01*
X143641528Y-62769361D01*
X143692535Y-62827523D01*
X143697070Y-62831098D01*
X143697071Y-62831099D01*
X143704973Y-62837328D01*
X143861244Y-62960522D01*
X143866355Y-62963211D01*
X143866358Y-62963213D01*
X143927469Y-62995365D01*
X144051365Y-63060550D01*
X144256531Y-63124255D01*
X144258256Y-63124459D01*
X144319577Y-63157568D01*
X144353896Y-63219718D01*
X144349165Y-63290557D01*
X144306888Y-63347593D01*
X144265104Y-63368352D01*
X144085653Y-63418962D01*
X144074906Y-63423087D01*
X143892678Y-63512952D01*
X143882870Y-63518962D01*
X143720062Y-63640536D01*
X143711522Y-63648225D01*
X143573593Y-63797436D01*
X143566592Y-63806561D01*
X143458169Y-63978401D01*
X143452948Y-63988649D01*
X143377657Y-64177367D01*
X143374388Y-64188403D01*
X143363283Y-64244230D01*
X143364435Y-64257106D01*
X143379591Y-64262000D01*
X146945248Y-64262000D01*
X146958210Y-64258194D01*
X146960146Y-64243278D01*
X146955802Y-64217997D01*
X146952822Y-64206877D01*
X146882497Y-64016252D01*
X146877547Y-64005874D01*
X146773661Y-63831257D01*
X146766895Y-63821945D01*
X146632926Y-63669182D01*
X146624583Y-63661265D01*
X146465022Y-63535477D01*
X146455365Y-63529206D01*
X146275560Y-63434606D01*
X146264926Y-63430201D01*
X146070877Y-63369947D01*
X146064910Y-63368679D01*
X146002437Y-63334949D01*
X145968118Y-63272799D01*
X145972847Y-63201960D01*
X146015124Y-63144923D01*
X146056906Y-63124165D01*
X146242091Y-63071938D01*
X146247268Y-63069385D01*
X146247273Y-63069383D01*
X146429586Y-62979475D01*
X146434765Y-62976921D01*
X146606898Y-62848384D01*
X146627070Y-62826562D01*
X146748805Y-62694870D01*
X146748807Y-62694867D01*
X146752724Y-62690630D01*
X146867360Y-62508943D01*
X146946966Y-62309408D01*
X146948381Y-62302297D01*
X146987750Y-62104374D01*
X146987750Y-62104371D01*
X146988877Y-62098707D01*
X146989354Y-62062322D01*
X146991328Y-61911438D01*
X146991689Y-61883896D01*
X146987424Y-61859072D01*
X146956287Y-61677867D01*
X146956287Y-61677866D01*
X146955308Y-61672170D01*
X146880952Y-61470620D01*
X146771112Y-61285994D01*
X146767306Y-61281654D01*
X146767303Y-61281650D01*
X146633272Y-61128818D01*
X146629465Y-61124477D01*
X146460756Y-60991478D01*
X146455645Y-60988789D01*
X146455642Y-60988787D01*
X146359072Y-60937979D01*
X146270635Y-60891450D01*
X146065469Y-60827745D01*
X146064563Y-60827638D01*
X146003479Y-60794661D01*
X145969157Y-60732512D01*
X145973883Y-60661673D01*
X146016158Y-60604635D01*
X146057946Y-60583872D01*
X146242091Y-60531938D01*
X146247268Y-60529385D01*
X146247273Y-60529383D01*
X146429586Y-60439475D01*
X146434765Y-60436921D01*
X146589138Y-60321646D01*
X146602274Y-60311837D01*
X146602275Y-60311836D01*
X146606898Y-60308384D01*
X146627070Y-60286562D01*
X146748805Y-60154870D01*
X146748807Y-60154867D01*
X146752724Y-60150630D01*
X146867360Y-59968943D01*
X146946966Y-59769408D01*
X146952850Y-59739830D01*
X146987750Y-59564374D01*
X146987750Y-59564371D01*
X146988877Y-59558707D01*
X146989354Y-59522322D01*
X146990484Y-59436000D01*
X147295496Y-59436000D01*
X147315458Y-59625928D01*
X147374473Y-59807556D01*
X147377776Y-59813278D01*
X147377777Y-59813279D01*
X147402367Y-59855869D01*
X147469960Y-59972944D01*
X147474378Y-59977851D01*
X147474379Y-59977852D01*
X147541136Y-60051993D01*
X147571854Y-60116000D01*
X147573500Y-60136303D01*
X147573500Y-66917002D01*
X147572970Y-66928236D01*
X147571292Y-66935741D01*
X147572830Y-66984684D01*
X147573438Y-67004034D01*
X147573500Y-67007991D01*
X147573500Y-67036005D01*
X147573996Y-67039930D01*
X147573996Y-67039931D01*
X147574008Y-67040026D01*
X147574941Y-67051871D01*
X147576335Y-67096227D01*
X147578547Y-67103839D01*
X147582013Y-67115770D01*
X147586023Y-67135134D01*
X147588573Y-67155321D01*
X147591489Y-67162685D01*
X147591490Y-67162690D01*
X147604907Y-67196578D01*
X147608752Y-67207807D01*
X147611833Y-67218411D01*
X147621131Y-67250415D01*
X147625169Y-67257242D01*
X147625170Y-67257245D01*
X147631488Y-67267928D01*
X147640188Y-67285686D01*
X147644761Y-67297237D01*
X147644765Y-67297243D01*
X147647681Y-67304610D01*
X147672065Y-67338171D01*
X147673764Y-67340510D01*
X147680281Y-67350432D01*
X147698826Y-67381790D01*
X147698829Y-67381794D01*
X147702866Y-67388620D01*
X147717250Y-67403004D01*
X147730091Y-67418038D01*
X147742058Y-67434509D01*
X147748166Y-67439562D01*
X147776255Y-67462799D01*
X147785035Y-67470789D01*
X154013595Y-73699349D01*
X154047621Y-73761661D01*
X154050500Y-73788444D01*
X154050500Y-75866980D01*
X154049970Y-75878214D01*
X154048292Y-75885719D01*
X154049187Y-75914197D01*
X154050438Y-75954012D01*
X154050500Y-75957969D01*
X154050500Y-75985983D01*
X154050996Y-75989908D01*
X154050996Y-75989909D01*
X154051008Y-75990004D01*
X154051941Y-76001849D01*
X154053335Y-76046205D01*
X154055547Y-76053817D01*
X154059013Y-76065748D01*
X154063023Y-76085112D01*
X154065573Y-76105299D01*
X154068489Y-76112663D01*
X154068490Y-76112668D01*
X154081907Y-76146556D01*
X154085752Y-76157785D01*
X154098131Y-76200393D01*
X154102169Y-76207220D01*
X154102170Y-76207223D01*
X154108488Y-76217906D01*
X154117188Y-76235664D01*
X154121761Y-76247215D01*
X154121765Y-76247221D01*
X154124681Y-76254588D01*
X154129339Y-76260999D01*
X154129340Y-76261001D01*
X154150764Y-76290488D01*
X154157281Y-76300410D01*
X154175826Y-76331768D01*
X154175829Y-76331772D01*
X154179866Y-76338598D01*
X154194250Y-76352982D01*
X154207091Y-76368016D01*
X154219058Y-76384487D01*
X154225166Y-76389540D01*
X154253255Y-76412777D01*
X154262035Y-76420767D01*
X156704445Y-78863178D01*
X156738471Y-78925490D01*
X156735183Y-78991209D01*
X156713458Y-79058072D01*
X156712768Y-79064633D01*
X156712768Y-79064635D01*
X156700230Y-79183928D01*
X156693496Y-79248000D01*
X156713458Y-79437928D01*
X156772473Y-79619556D01*
X156775776Y-79625278D01*
X156775777Y-79625279D01*
X156787704Y-79645937D01*
X156867960Y-79784944D01*
X156872378Y-79789851D01*
X156872379Y-79789852D01*
X156984175Y-79914014D01*
X156995747Y-79926866D01*
X157067023Y-79978651D01*
X157139803Y-80031529D01*
X157150248Y-80039118D01*
X157156276Y-80041802D01*
X157156278Y-80041803D01*
X157316734Y-80113242D01*
X157324712Y-80116794D01*
X157410303Y-80134987D01*
X157505056Y-80155128D01*
X157505061Y-80155128D01*
X157511513Y-80156500D01*
X157702487Y-80156500D01*
X157708939Y-80155128D01*
X157708944Y-80155128D01*
X157803697Y-80134987D01*
X157889288Y-80116794D01*
X157897266Y-80113242D01*
X158057722Y-80041803D01*
X158057724Y-80041802D01*
X158063752Y-80039118D01*
X158074198Y-80031529D01*
X158146977Y-79978651D01*
X158218253Y-79926866D01*
X158229825Y-79914014D01*
X158341621Y-79789852D01*
X158341622Y-79789851D01*
X158346040Y-79784944D01*
X158426296Y-79645937D01*
X158438223Y-79625279D01*
X158438224Y-79625278D01*
X158441527Y-79619556D01*
X158500542Y-79437928D01*
X158517575Y-79275867D01*
X158544588Y-79210210D01*
X158553790Y-79199942D01*
X160020615Y-77733118D01*
X160063325Y-77705062D01*
X160104700Y-77688680D01*
X160112150Y-77685998D01*
X160158194Y-77671038D01*
X160158197Y-77671037D01*
X160165733Y-77668588D01*
X160172420Y-77664345D01*
X160172423Y-77664343D01*
X160172742Y-77664140D01*
X160193872Y-77653374D01*
X160201588Y-77650319D01*
X160247179Y-77617196D01*
X160253723Y-77612749D01*
X160294604Y-77586805D01*
X160294607Y-77586802D01*
X160301303Y-77582553D01*
X160306983Y-77576504D01*
X160324776Y-77560818D01*
X160325073Y-77560602D01*
X160331487Y-77555942D01*
X160367406Y-77512523D01*
X160372636Y-77506592D01*
X160405791Y-77471284D01*
X160411217Y-77465506D01*
X160415216Y-77458232D01*
X160428544Y-77438621D01*
X160428778Y-77438338D01*
X160428781Y-77438334D01*
X160433835Y-77432224D01*
X160457828Y-77381236D01*
X160461410Y-77374204D01*
X160488569Y-77324803D01*
X160490633Y-77316765D01*
X160498666Y-77294452D01*
X160498824Y-77294116D01*
X160498825Y-77294113D01*
X160502200Y-77286941D01*
X160508353Y-77254688D01*
X160512759Y-77231588D01*
X160514486Y-77223863D01*
X160526528Y-77176961D01*
X160528500Y-77169282D01*
X160528500Y-77160983D01*
X160530732Y-77137374D01*
X160530802Y-77137009D01*
X160530802Y-77137004D01*
X160532287Y-77129221D01*
X160528749Y-77072986D01*
X160528500Y-77065075D01*
X160528500Y-62690032D01*
X160529030Y-62678793D01*
X160530709Y-62671281D01*
X160528562Y-62602969D01*
X160528500Y-62599012D01*
X160528500Y-62571017D01*
X160527992Y-62566994D01*
X160527059Y-62555152D01*
X160526752Y-62545364D01*
X160525665Y-62510795D01*
X160519987Y-62491251D01*
X160515977Y-62471888D01*
X160514420Y-62459560D01*
X160514420Y-62459558D01*
X160513427Y-62451701D01*
X160510511Y-62444337D01*
X160510510Y-62444332D01*
X160497093Y-62410444D01*
X160493248Y-62399215D01*
X160483081Y-62364222D01*
X160480869Y-62356607D01*
X160475684Y-62347840D01*
X160470512Y-62339094D01*
X160461812Y-62321336D01*
X160457239Y-62309785D01*
X160457235Y-62309779D01*
X160454319Y-62302412D01*
X160428234Y-62266509D01*
X160421719Y-62256590D01*
X160403174Y-62225232D01*
X160403171Y-62225228D01*
X160399134Y-62218402D01*
X160384750Y-62204018D01*
X160371909Y-62188984D01*
X160364602Y-62178927D01*
X160359942Y-62172513D01*
X160325744Y-62144222D01*
X160316965Y-62136233D01*
X154870790Y-56690057D01*
X154836764Y-56627745D01*
X154834575Y-56614132D01*
X154818232Y-56458635D01*
X154818232Y-56458633D01*
X154817542Y-56452072D01*
X154758527Y-56270444D01*
X154750529Y-56256590D01*
X154666341Y-56110774D01*
X154663040Y-56105056D01*
X154626323Y-56064277D01*
X154539675Y-55968045D01*
X154539674Y-55968044D01*
X154535253Y-55963134D01*
X154380752Y-55850882D01*
X154374724Y-55848198D01*
X154374722Y-55848197D01*
X154212319Y-55775891D01*
X154212318Y-55775891D01*
X154206288Y-55773206D01*
X154112887Y-55753353D01*
X154025944Y-55734872D01*
X154025939Y-55734872D01*
X154019487Y-55733500D01*
X153828513Y-55733500D01*
X153822061Y-55734872D01*
X153822056Y-55734872D01*
X153735113Y-55753353D01*
X153641712Y-55773206D01*
X153635682Y-55775891D01*
X153635681Y-55775891D01*
X153473278Y-55848197D01*
X153473276Y-55848198D01*
X153467248Y-55850882D01*
X153312747Y-55963134D01*
X153308326Y-55968044D01*
X153308325Y-55968045D01*
X153221678Y-56064277D01*
X153184960Y-56105056D01*
X153181659Y-56110774D01*
X153097472Y-56256590D01*
X153089473Y-56270444D01*
X153030458Y-56452072D01*
X153029768Y-56458633D01*
X153029768Y-56458635D01*
X153019391Y-56557367D01*
X153010496Y-56642000D01*
X153030458Y-56831928D01*
X153089473Y-57013556D01*
X153184960Y-57178944D01*
X153189378Y-57183851D01*
X153189379Y-57183852D01*
X153292695Y-57298596D01*
X153312747Y-57320866D01*
X153467248Y-57433118D01*
X153473276Y-57435802D01*
X153473278Y-57435803D01*
X153630560Y-57505829D01*
X153641712Y-57510794D01*
X153735112Y-57530647D01*
X153822056Y-57549128D01*
X153822061Y-57549128D01*
X153828513Y-57550500D01*
X153881578Y-57550500D01*
X153949699Y-57570502D01*
X153970673Y-57587405D01*
X159220595Y-62837328D01*
X159254621Y-62899640D01*
X159257500Y-62926423D01*
X159257500Y-76646578D01*
X159237498Y-76714699D01*
X159220595Y-76735673D01*
X157886595Y-78069673D01*
X157824283Y-78103699D01*
X157753468Y-78098634D01*
X157708405Y-78069673D01*
X156542939Y-76904206D01*
X155358405Y-75719672D01*
X155324379Y-75657360D01*
X155321500Y-75630577D01*
X155321500Y-73552042D01*
X155322030Y-73540808D01*
X155323708Y-73533303D01*
X155321562Y-73465010D01*
X155321500Y-73461053D01*
X155321500Y-73433039D01*
X155320992Y-73429018D01*
X155320058Y-73417166D01*
X155318914Y-73380740D01*
X155318914Y-73380739D01*
X155318665Y-73372817D01*
X155312987Y-73353273D01*
X155308977Y-73333910D01*
X155307420Y-73321582D01*
X155307420Y-73321580D01*
X155306427Y-73313723D01*
X155303511Y-73306359D01*
X155303510Y-73306354D01*
X155290093Y-73272466D01*
X155286248Y-73261237D01*
X155278055Y-73233038D01*
X155273869Y-73218629D01*
X155263510Y-73201113D01*
X155254813Y-73183363D01*
X155247319Y-73164434D01*
X155221240Y-73128539D01*
X155214722Y-73118617D01*
X155196170Y-73087246D01*
X155196166Y-73087241D01*
X155192134Y-73080423D01*
X155177747Y-73066036D01*
X155164906Y-73051002D01*
X155157602Y-73040949D01*
X155152942Y-73034535D01*
X155118750Y-73006249D01*
X155109971Y-72998260D01*
X151630306Y-69518595D01*
X151596280Y-69456283D01*
X151601345Y-69385468D01*
X151643892Y-69328632D01*
X151710412Y-69303821D01*
X151719401Y-69303500D01*
X152409134Y-69303500D01*
X152471316Y-69296745D01*
X152607705Y-69245615D01*
X152724261Y-69158261D01*
X152811615Y-69041705D01*
X152862745Y-68905316D01*
X152869500Y-68843134D01*
X152869500Y-67046866D01*
X152862745Y-66984684D01*
X152811615Y-66848295D01*
X152724261Y-66731739D01*
X152607705Y-66644385D01*
X152569333Y-66630000D01*
X152489203Y-66599960D01*
X152432439Y-66557318D01*
X152407739Y-66490756D01*
X152422947Y-66421408D01*
X152444493Y-66392727D01*
X152475679Y-66361650D01*
X152549096Y-66288489D01*
X152608594Y-66205689D01*
X152676435Y-66111277D01*
X152679453Y-66107077D01*
X152699586Y-66066342D01*
X152776136Y-65911453D01*
X152776137Y-65911451D01*
X152778430Y-65906811D01*
X152823211Y-65759420D01*
X152841865Y-65698023D01*
X152841865Y-65698021D01*
X152843370Y-65693069D01*
X152872529Y-65471590D01*
X152874156Y-65405000D01*
X152855852Y-65182361D01*
X152801431Y-64965702D01*
X152712354Y-64760840D01*
X152632555Y-64637489D01*
X152593822Y-64577617D01*
X152593820Y-64577614D01*
X152591014Y-64573277D01*
X152440670Y-64408051D01*
X152436619Y-64404852D01*
X152436615Y-64404848D01*
X152269414Y-64272800D01*
X152269410Y-64272798D01*
X152265359Y-64269598D01*
X152224053Y-64246796D01*
X152174084Y-64196364D01*
X152159312Y-64126921D01*
X152184428Y-64060516D01*
X152211780Y-64033909D01*
X152275232Y-63988649D01*
X152390860Y-63906173D01*
X152421652Y-63875489D01*
X152540189Y-63757365D01*
X152549096Y-63748489D01*
X152608594Y-63665689D01*
X152676435Y-63571277D01*
X152679453Y-63567077D01*
X152699586Y-63526342D01*
X152776136Y-63371453D01*
X152776137Y-63371451D01*
X152778430Y-63366811D01*
X152843370Y-63153069D01*
X152872529Y-62931590D01*
X152873487Y-62892401D01*
X152874074Y-62868365D01*
X152874074Y-62868361D01*
X152874156Y-62865000D01*
X152855852Y-62642361D01*
X152801431Y-62425702D01*
X152712354Y-62220840D01*
X152632555Y-62097489D01*
X152593822Y-62037617D01*
X152593820Y-62037614D01*
X152591014Y-62033277D01*
X152440670Y-61868051D01*
X152436619Y-61864852D01*
X152436615Y-61864848D01*
X152269414Y-61732800D01*
X152269410Y-61732798D01*
X152265359Y-61729598D01*
X152224053Y-61706796D01*
X152174084Y-61656364D01*
X152159312Y-61586921D01*
X152184428Y-61520516D01*
X152211780Y-61493909D01*
X152275552Y-61448421D01*
X152390860Y-61366173D01*
X152549096Y-61208489D01*
X152597130Y-61141643D01*
X152676435Y-61031277D01*
X152679453Y-61027077D01*
X152684899Y-61016059D01*
X152776136Y-60831453D01*
X152776137Y-60831451D01*
X152778430Y-60826811D01*
X152823190Y-60679488D01*
X152841865Y-60618023D01*
X152841865Y-60618021D01*
X152843370Y-60613069D01*
X152872529Y-60391590D01*
X152874156Y-60325000D01*
X152855852Y-60102361D01*
X152801431Y-59885702D01*
X152712354Y-59680840D01*
X152591014Y-59493277D01*
X152440670Y-59328051D01*
X152436619Y-59324852D01*
X152436615Y-59324848D01*
X152269414Y-59192800D01*
X152269410Y-59192798D01*
X152265359Y-59189598D01*
X152069789Y-59081638D01*
X152064920Y-59079914D01*
X152064916Y-59079912D01*
X151864087Y-59008795D01*
X151864083Y-59008794D01*
X151859212Y-59007069D01*
X151854119Y-59006162D01*
X151854116Y-59006161D01*
X151644373Y-58968800D01*
X151644367Y-58968799D01*
X151639284Y-58967894D01*
X151565452Y-58966992D01*
X151421081Y-58965228D01*
X151421079Y-58965228D01*
X151415911Y-58965165D01*
X151195091Y-58998955D01*
X150982756Y-59068357D01*
X150952443Y-59084137D01*
X150860173Y-59132170D01*
X150784607Y-59171507D01*
X150780474Y-59174610D01*
X150780471Y-59174612D01*
X150676554Y-59252635D01*
X150605965Y-59305635D01*
X150540346Y-59374301D01*
X150475112Y-59442565D01*
X150451629Y-59467138D01*
X150325743Y-59651680D01*
X150310003Y-59685590D01*
X150250732Y-59813279D01*
X150231688Y-59854305D01*
X150171989Y-60069570D01*
X150148251Y-60291695D01*
X150148548Y-60296848D01*
X150148548Y-60296851D01*
X150156747Y-60439048D01*
X150161110Y-60514715D01*
X150162247Y-60519761D01*
X150162248Y-60519767D01*
X150178882Y-60593573D01*
X150210222Y-60732639D01*
X150294266Y-60939616D01*
X150318116Y-60978535D01*
X150407549Y-61124477D01*
X150410987Y-61130088D01*
X150557250Y-61298938D01*
X150729126Y-61441632D01*
X150740744Y-61448421D01*
X150802445Y-61484476D01*
X150851169Y-61536114D01*
X150864240Y-61605897D01*
X150837509Y-61671669D01*
X150797055Y-61705027D01*
X150784607Y-61711507D01*
X150780474Y-61714610D01*
X150780471Y-61714612D01*
X150611323Y-61841612D01*
X150605965Y-61845635D01*
X150546961Y-61907379D01*
X150463180Y-61995051D01*
X150451629Y-62007138D01*
X150448715Y-62011410D01*
X150448714Y-62011411D01*
X150380153Y-62111918D01*
X150325743Y-62191680D01*
X150310169Y-62225232D01*
X150255275Y-62343492D01*
X150231688Y-62394305D01*
X150171989Y-62609570D01*
X150148251Y-62831695D01*
X150148548Y-62836848D01*
X150148548Y-62836851D01*
X150157494Y-62992000D01*
X150161110Y-63054715D01*
X150162247Y-63059761D01*
X150162248Y-63059767D01*
X150182119Y-63147939D01*
X150210222Y-63272639D01*
X150294266Y-63479616D01*
X150296965Y-63484020D01*
X150392878Y-63640536D01*
X150410987Y-63670088D01*
X150557250Y-63838938D01*
X150729126Y-63981632D01*
X150788371Y-64016252D01*
X150802445Y-64024476D01*
X150851169Y-64076114D01*
X150864240Y-64145897D01*
X150837509Y-64211669D01*
X150797055Y-64245027D01*
X150784607Y-64251507D01*
X150780474Y-64254610D01*
X150780471Y-64254612D01*
X150611323Y-64381612D01*
X150605965Y-64385635D01*
X150602393Y-64389373D01*
X150463180Y-64535051D01*
X150451629Y-64547138D01*
X150448715Y-64551410D01*
X150448714Y-64551411D01*
X150436404Y-64569457D01*
X150325743Y-64731680D01*
X150283148Y-64823444D01*
X150236567Y-64923795D01*
X150231688Y-64934305D01*
X150171989Y-65149570D01*
X150148251Y-65371695D01*
X150148548Y-65376848D01*
X150148548Y-65376851D01*
X150157494Y-65532000D01*
X150161110Y-65594715D01*
X150162247Y-65599761D01*
X150162248Y-65599767D01*
X150176285Y-65662052D01*
X150210222Y-65812639D01*
X150294266Y-66019616D01*
X150296965Y-66024020D01*
X150407549Y-66204477D01*
X150410987Y-66210088D01*
X150557250Y-66378938D01*
X150561230Y-66382242D01*
X150565981Y-66386187D01*
X150605616Y-66445090D01*
X150607113Y-66516071D01*
X150569997Y-66576593D01*
X150529724Y-66601112D01*
X150414295Y-66644385D01*
X150297739Y-66731739D01*
X150210385Y-66848295D01*
X150159255Y-66984684D01*
X150152500Y-67046866D01*
X150152500Y-67736599D01*
X150132498Y-67804720D01*
X150078842Y-67851213D01*
X150008568Y-67861317D01*
X149943988Y-67831823D01*
X149937405Y-67825694D01*
X148881405Y-66769694D01*
X148847379Y-66707382D01*
X148844500Y-66680599D01*
X148844500Y-60136303D01*
X148864502Y-60068182D01*
X148876864Y-60051993D01*
X148943621Y-59977852D01*
X148943622Y-59977851D01*
X148948040Y-59972944D01*
X149015633Y-59855869D01*
X149040223Y-59813279D01*
X149040224Y-59813278D01*
X149043527Y-59807556D01*
X149102542Y-59625928D01*
X149122504Y-59436000D01*
X149102542Y-59246072D01*
X149043527Y-59064444D01*
X148948040Y-58899056D01*
X148820253Y-58757134D01*
X148665752Y-58644882D01*
X148659724Y-58642198D01*
X148659722Y-58642197D01*
X148497319Y-58569891D01*
X148497318Y-58569891D01*
X148491288Y-58567206D01*
X148397888Y-58547353D01*
X148310944Y-58528872D01*
X148310939Y-58528872D01*
X148304487Y-58527500D01*
X148113513Y-58527500D01*
X148107061Y-58528872D01*
X148107056Y-58528872D01*
X148020112Y-58547353D01*
X147926712Y-58567206D01*
X147920682Y-58569891D01*
X147920681Y-58569891D01*
X147758278Y-58642197D01*
X147758276Y-58642198D01*
X147752248Y-58644882D01*
X147597747Y-58757134D01*
X147469960Y-58899056D01*
X147374473Y-59064444D01*
X147315458Y-59246072D01*
X147295496Y-59436000D01*
X146990484Y-59436000D01*
X146991613Y-59349678D01*
X146991689Y-59343896D01*
X146987424Y-59319072D01*
X146956287Y-59137867D01*
X146956287Y-59137866D01*
X146955308Y-59132170D01*
X146880952Y-58930620D01*
X146771112Y-58745994D01*
X146767306Y-58741654D01*
X146767303Y-58741650D01*
X146633272Y-58588818D01*
X146629465Y-58584477D01*
X146460756Y-58451478D01*
X146455645Y-58448789D01*
X146455642Y-58448787D01*
X146359072Y-58397979D01*
X146270635Y-58351450D01*
X146065469Y-58287745D01*
X146063744Y-58287541D01*
X146002423Y-58254432D01*
X145968104Y-58192282D01*
X145972835Y-58121443D01*
X146015112Y-58064407D01*
X146056896Y-58043648D01*
X146236347Y-57993038D01*
X146247094Y-57988913D01*
X146429322Y-57899048D01*
X146439130Y-57893038D01*
X146601938Y-57771464D01*
X146610478Y-57763775D01*
X146748407Y-57614564D01*
X146755408Y-57605439D01*
X146863831Y-57433599D01*
X146869052Y-57423351D01*
X146944343Y-57234633D01*
X146947612Y-57223597D01*
X146958717Y-57167770D01*
X146957565Y-57154894D01*
X146942409Y-57150000D01*
X143376752Y-57150000D01*
X143363790Y-57153806D01*
X143361854Y-57168722D01*
X143366198Y-57194003D01*
X143369178Y-57205123D01*
X143439503Y-57395748D01*
X143444453Y-57406126D01*
X143548339Y-57580743D01*
X143555105Y-57590055D01*
X143689074Y-57742818D01*
X143697417Y-57750735D01*
X143856978Y-57876523D01*
X143866635Y-57882794D01*
X144046440Y-57977394D01*
X144057074Y-57981799D01*
X144251123Y-58042053D01*
X144257090Y-58043321D01*
X144319563Y-58077051D01*
X144353882Y-58139201D01*
X144349153Y-58210040D01*
X144306876Y-58267077D01*
X144265094Y-58287835D01*
X144079909Y-58340062D01*
X144074732Y-58342615D01*
X144074727Y-58342617D01*
X143899085Y-58429235D01*
X143887235Y-58435079D01*
X143715102Y-58563616D01*
X143711188Y-58567850D01*
X143711186Y-58567852D01*
X143639981Y-58644882D01*
X143569276Y-58721370D01*
X143454640Y-58903057D01*
X143375034Y-59102592D01*
X143373908Y-59108252D01*
X143373907Y-59108256D01*
X143335264Y-59302530D01*
X143333123Y-59313293D01*
X143333047Y-59319068D01*
X143333047Y-59319072D01*
X143331638Y-59426745D01*
X143330311Y-59528104D01*
X143331290Y-59533801D01*
X143331290Y-59533802D01*
X143336543Y-59564374D01*
X143366692Y-59739830D01*
X143441048Y-59941380D01*
X143550888Y-60126006D01*
X143554694Y-60130346D01*
X143554697Y-60130350D01*
X143656370Y-60246285D01*
X143692535Y-60287523D01*
X143697070Y-60291098D01*
X143697071Y-60291099D01*
X143735820Y-60321646D01*
X143861244Y-60420522D01*
X143866355Y-60423211D01*
X143866358Y-60423213D01*
X143922024Y-60452500D01*
X144051365Y-60520550D01*
X144196104Y-60565492D01*
X144246876Y-60581257D01*
X144256531Y-60584255D01*
X144257437Y-60584362D01*
X144318521Y-60617339D01*
X144352843Y-60679488D01*
X144348117Y-60750327D01*
X144305842Y-60807365D01*
X144264054Y-60828128D01*
X144079909Y-60880062D01*
X144074732Y-60882615D01*
X144074727Y-60882617D01*
X143981044Y-60928817D01*
X143887235Y-60975079D01*
X143882607Y-60978535D01*
X143747884Y-61079137D01*
X143715102Y-61103616D01*
X143711188Y-61107850D01*
X143711186Y-61107852D01*
X143609954Y-61217365D01*
X143569276Y-61261370D01*
X143454640Y-61443057D01*
X143375034Y-61642592D01*
X143373908Y-61648252D01*
X143373907Y-61648256D01*
X143354283Y-61746912D01*
X143333123Y-61853293D01*
X143333047Y-61859068D01*
X143333047Y-61859072D01*
X143332415Y-61907379D01*
X143330311Y-62068104D01*
X139369278Y-62068104D01*
X139369354Y-62062322D01*
X139371328Y-61911438D01*
X139371689Y-61883896D01*
X139367424Y-61859072D01*
X139336287Y-61677867D01*
X139336287Y-61677866D01*
X139335308Y-61672170D01*
X139260952Y-61470620D01*
X139151112Y-61285994D01*
X139147306Y-61281654D01*
X139147303Y-61281650D01*
X139013272Y-61128818D01*
X139009465Y-61124477D01*
X138840756Y-60991478D01*
X138835645Y-60988789D01*
X138835642Y-60988787D01*
X138739072Y-60937979D01*
X138650635Y-60891450D01*
X138445469Y-60827745D01*
X138444563Y-60827638D01*
X138383479Y-60794661D01*
X138349157Y-60732512D01*
X138353883Y-60661673D01*
X138396158Y-60604635D01*
X138437946Y-60583872D01*
X138622091Y-60531938D01*
X138627268Y-60529385D01*
X138627273Y-60529383D01*
X138809586Y-60439475D01*
X138814765Y-60436921D01*
X138969138Y-60321646D01*
X138982274Y-60311837D01*
X138982275Y-60311836D01*
X138986898Y-60308384D01*
X139007070Y-60286562D01*
X139128805Y-60154870D01*
X139128807Y-60154867D01*
X139132724Y-60150630D01*
X139247360Y-59968943D01*
X139326966Y-59769408D01*
X139332850Y-59739830D01*
X139367750Y-59564374D01*
X139367750Y-59564371D01*
X139368877Y-59558707D01*
X139369354Y-59522322D01*
X139371613Y-59349678D01*
X139371689Y-59343896D01*
X139367424Y-59319072D01*
X139336287Y-59137867D01*
X139336287Y-59137866D01*
X139335308Y-59132170D01*
X139260952Y-58930620D01*
X139151112Y-58745994D01*
X139147306Y-58741654D01*
X139147303Y-58741650D01*
X139013272Y-58588818D01*
X139009465Y-58584477D01*
X138840756Y-58451478D01*
X138835645Y-58448789D01*
X138835642Y-58448787D01*
X138739072Y-58397979D01*
X138650635Y-58351450D01*
X138445469Y-58287745D01*
X138443744Y-58287541D01*
X138382423Y-58254432D01*
X138348104Y-58192282D01*
X138352835Y-58121443D01*
X138395112Y-58064407D01*
X138436896Y-58043648D01*
X138616347Y-57993038D01*
X138627094Y-57988913D01*
X138809322Y-57899048D01*
X138819130Y-57893038D01*
X138981938Y-57771464D01*
X138990478Y-57763775D01*
X139128407Y-57614564D01*
X139135408Y-57605439D01*
X139243831Y-57433599D01*
X139249052Y-57423351D01*
X139324343Y-57234633D01*
X139327612Y-57223597D01*
X139338717Y-57167770D01*
X139337565Y-57154894D01*
X139322409Y-57150000D01*
X135756752Y-57150000D01*
X135743790Y-57153806D01*
X135741854Y-57168722D01*
X135746198Y-57194003D01*
X135749178Y-57205123D01*
X135819503Y-57395748D01*
X135824453Y-57406126D01*
X135928339Y-57580743D01*
X135935105Y-57590055D01*
X136069074Y-57742818D01*
X136077417Y-57750735D01*
X136236978Y-57876523D01*
X136246635Y-57882794D01*
X136426440Y-57977394D01*
X136437074Y-57981799D01*
X136631123Y-58042053D01*
X136637090Y-58043321D01*
X136699563Y-58077051D01*
X136733882Y-58139201D01*
X136729153Y-58210040D01*
X136686876Y-58267077D01*
X136645094Y-58287835D01*
X136459909Y-58340062D01*
X136454732Y-58342615D01*
X136454727Y-58342617D01*
X136279085Y-58429235D01*
X136267235Y-58435079D01*
X136095102Y-58563616D01*
X136091188Y-58567850D01*
X136091186Y-58567852D01*
X136019981Y-58644882D01*
X135949276Y-58721370D01*
X135834640Y-58903057D01*
X135755034Y-59102592D01*
X135753908Y-59108252D01*
X135753907Y-59108256D01*
X135715264Y-59302530D01*
X135713123Y-59313293D01*
X135713047Y-59319068D01*
X135713047Y-59319072D01*
X135711638Y-59426745D01*
X135710311Y-59528104D01*
X135711290Y-59533801D01*
X135711290Y-59533802D01*
X135716543Y-59564374D01*
X135746692Y-59739830D01*
X135821048Y-59941380D01*
X135930888Y-60126006D01*
X135934694Y-60130346D01*
X135934697Y-60130350D01*
X136036370Y-60246285D01*
X136072535Y-60287523D01*
X136077070Y-60291098D01*
X136077071Y-60291099D01*
X136115820Y-60321646D01*
X136241244Y-60420522D01*
X136246355Y-60423211D01*
X136246358Y-60423213D01*
X136302024Y-60452500D01*
X136431365Y-60520550D01*
X136576104Y-60565492D01*
X136626876Y-60581257D01*
X136636531Y-60584255D01*
X136637437Y-60584362D01*
X136698521Y-60617339D01*
X136732843Y-60679488D01*
X136728117Y-60750327D01*
X136685842Y-60807365D01*
X136644054Y-60828128D01*
X136459909Y-60880062D01*
X136454732Y-60882615D01*
X136454727Y-60882617D01*
X136361044Y-60928817D01*
X136267235Y-60975079D01*
X136262607Y-60978535D01*
X136127884Y-61079137D01*
X136095102Y-61103616D01*
X136091188Y-61107850D01*
X136091186Y-61107852D01*
X135989954Y-61217365D01*
X135949276Y-61261370D01*
X135834640Y-61443057D01*
X135755034Y-61642592D01*
X135753908Y-61648252D01*
X135753907Y-61648256D01*
X135734283Y-61746912D01*
X135713123Y-61853293D01*
X135713047Y-61859068D01*
X135713047Y-61859072D01*
X135712415Y-61907379D01*
X135710311Y-62068104D01*
X122789143Y-62068104D01*
X122722670Y-61995051D01*
X122718619Y-61991852D01*
X122718615Y-61991848D01*
X122551414Y-61859800D01*
X122551410Y-61859798D01*
X122547359Y-61856598D01*
X122527500Y-61845635D01*
X122495136Y-61827769D01*
X122351789Y-61748638D01*
X122346920Y-61746914D01*
X122346916Y-61746912D01*
X122146087Y-61675795D01*
X122146083Y-61675794D01*
X122141212Y-61674069D01*
X122136119Y-61673162D01*
X122136116Y-61673161D01*
X121926373Y-61635800D01*
X121926367Y-61635799D01*
X121921284Y-61634894D01*
X121847452Y-61633992D01*
X121703081Y-61632228D01*
X121703079Y-61632228D01*
X121697911Y-61632165D01*
X121477091Y-61665955D01*
X121264756Y-61735357D01*
X121066607Y-61838507D01*
X121062474Y-61841610D01*
X121062471Y-61841612D01*
X120963293Y-61916077D01*
X120887965Y-61972635D01*
X120884393Y-61976373D01*
X120754657Y-62112134D01*
X120733629Y-62134138D01*
X120730715Y-62138410D01*
X120730714Y-62138411D01*
X120693215Y-62193382D01*
X120607743Y-62318680D01*
X120565579Y-62409516D01*
X120517160Y-62513826D01*
X120513688Y-62521305D01*
X120453989Y-62736570D01*
X120430251Y-62958695D01*
X120430548Y-62963848D01*
X120430548Y-62963851D01*
X120441458Y-63153069D01*
X120443110Y-63181715D01*
X120444247Y-63186761D01*
X120444248Y-63186767D01*
X120465275Y-63280069D01*
X120492222Y-63399639D01*
X120576266Y-63606616D01*
X120578965Y-63611020D01*
X120663206Y-63748489D01*
X120692987Y-63797088D01*
X120839250Y-63965938D01*
X121011126Y-64108632D01*
X121042424Y-64126921D01*
X121084445Y-64151476D01*
X121133169Y-64203114D01*
X121146240Y-64272897D01*
X121119509Y-64338669D01*
X121079055Y-64372027D01*
X121066607Y-64378507D01*
X121062474Y-64381610D01*
X121062471Y-64381612D01*
X120957699Y-64460277D01*
X120887965Y-64512635D01*
X120884393Y-64516373D01*
X120765166Y-64641137D01*
X120733629Y-64674138D01*
X120730715Y-64678410D01*
X120730714Y-64678411D01*
X120655465Y-64788722D01*
X120607743Y-64858680D01*
X120592003Y-64892590D01*
X120531402Y-65023144D01*
X120513688Y-65061305D01*
X120453989Y-65276570D01*
X120430251Y-65498695D01*
X120430548Y-65503848D01*
X120430548Y-65503851D01*
X120441458Y-65693069D01*
X120443110Y-65721715D01*
X120444247Y-65726761D01*
X120444248Y-65726767D01*
X120465275Y-65820069D01*
X120492222Y-65939639D01*
X120576266Y-66146616D01*
X120578965Y-66151020D01*
X120663206Y-66288489D01*
X120692987Y-66337088D01*
X120839250Y-66505938D01*
X121011126Y-66648632D01*
X121061072Y-66677818D01*
X121084445Y-66691476D01*
X121133169Y-66743114D01*
X121146240Y-66812897D01*
X121119509Y-66878669D01*
X121079055Y-66912027D01*
X121066607Y-66918507D01*
X121062474Y-66921610D01*
X121062471Y-66921612D01*
X120892100Y-67049530D01*
X120887965Y-67052635D01*
X120843573Y-67099088D01*
X120765166Y-67181137D01*
X120733629Y-67214138D01*
X120730715Y-67218410D01*
X120730714Y-67218411D01*
X120655465Y-67328722D01*
X120607743Y-67398680D01*
X120594089Y-67428095D01*
X120517160Y-67593826D01*
X120513688Y-67601305D01*
X120453989Y-67816570D01*
X120430251Y-68038695D01*
X117376173Y-68038695D01*
X117523898Y-67928384D01*
X117543182Y-67907523D01*
X117665805Y-67774870D01*
X117665807Y-67774867D01*
X117669724Y-67770630D01*
X117784360Y-67588943D01*
X117863966Y-67389408D01*
X117865482Y-67381790D01*
X117904750Y-67184374D01*
X117904750Y-67184371D01*
X117905877Y-67178707D01*
X117906354Y-67142322D01*
X117908138Y-67006007D01*
X117908689Y-66963896D01*
X117904424Y-66939072D01*
X117873287Y-66757867D01*
X117873287Y-66757866D01*
X117872308Y-66752170D01*
X117797952Y-66550620D01*
X117688112Y-66365994D01*
X117684306Y-66361654D01*
X117684303Y-66361650D01*
X117550272Y-66208818D01*
X117546465Y-66204477D01*
X117377756Y-66071478D01*
X117372645Y-66068789D01*
X117372642Y-66068787D01*
X117276072Y-66017979D01*
X117187635Y-65971450D01*
X116982469Y-65907745D01*
X116980744Y-65907541D01*
X116919423Y-65874432D01*
X116885104Y-65812282D01*
X116889835Y-65741443D01*
X116932112Y-65684407D01*
X116973896Y-65663648D01*
X117153347Y-65613038D01*
X117164094Y-65608913D01*
X117346322Y-65519048D01*
X117356130Y-65513038D01*
X117518938Y-65391464D01*
X117527478Y-65383775D01*
X117665407Y-65234564D01*
X117672408Y-65225439D01*
X117780831Y-65053599D01*
X117786052Y-65043351D01*
X117861343Y-64854633D01*
X117864612Y-64843597D01*
X117875717Y-64787770D01*
X117874565Y-64774894D01*
X117859409Y-64770000D01*
X114293752Y-64770000D01*
X114280790Y-64773806D01*
X114278854Y-64788722D01*
X114283198Y-64814003D01*
X114286178Y-64825123D01*
X114356503Y-65015748D01*
X114361453Y-65026126D01*
X114465339Y-65200743D01*
X114472105Y-65210055D01*
X114606074Y-65362818D01*
X114614417Y-65370735D01*
X114773978Y-65496523D01*
X114783635Y-65502794D01*
X114963440Y-65597394D01*
X114974074Y-65601799D01*
X115168123Y-65662053D01*
X115174090Y-65663321D01*
X115236563Y-65697051D01*
X115270882Y-65759201D01*
X115266153Y-65830040D01*
X115223876Y-65887077D01*
X115182094Y-65907835D01*
X114996909Y-65960062D01*
X114991732Y-65962615D01*
X114991727Y-65962617D01*
X114847814Y-66033588D01*
X114804235Y-66055079D01*
X114632102Y-66183616D01*
X114628188Y-66187850D01*
X114628186Y-66187852D01*
X114494301Y-66332689D01*
X114486276Y-66341370D01*
X114371640Y-66523057D01*
X114292034Y-66722592D01*
X114290908Y-66728252D01*
X114290907Y-66728256D01*
X114254001Y-66913797D01*
X114250123Y-66933293D01*
X114250047Y-66939068D01*
X114250047Y-66939072D01*
X114249547Y-66977285D01*
X114247311Y-67148104D01*
X93624009Y-67148104D01*
X93636255Y-64788722D01*
X106658854Y-64788722D01*
X106663198Y-64814003D01*
X106666178Y-64825123D01*
X106736503Y-65015748D01*
X106741453Y-65026126D01*
X106845339Y-65200743D01*
X106852105Y-65210055D01*
X106986074Y-65362818D01*
X106994417Y-65370735D01*
X107153978Y-65496523D01*
X107163635Y-65502794D01*
X107343440Y-65597394D01*
X107354074Y-65601799D01*
X107548120Y-65662052D01*
X107555137Y-65663543D01*
X107617611Y-65697271D01*
X107651932Y-65759420D01*
X107647205Y-65830259D01*
X107604930Y-65887297D01*
X107563142Y-65908059D01*
X107382653Y-65958962D01*
X107371906Y-65963087D01*
X107189678Y-66052952D01*
X107179870Y-66058962D01*
X107017062Y-66180536D01*
X107008522Y-66188225D01*
X106870593Y-66337436D01*
X106863592Y-66346561D01*
X106755169Y-66518401D01*
X106749948Y-66528649D01*
X106674657Y-66717367D01*
X106671388Y-66728403D01*
X106660283Y-66784230D01*
X106661435Y-66797106D01*
X106676591Y-66802000D01*
X110242248Y-66802000D01*
X110255210Y-66798194D01*
X110257146Y-66783278D01*
X110252802Y-66757997D01*
X110249822Y-66746877D01*
X110179497Y-66556252D01*
X110174547Y-66545874D01*
X110070661Y-66371257D01*
X110063895Y-66361945D01*
X109929926Y-66209182D01*
X109921583Y-66201265D01*
X109762022Y-66075477D01*
X109752365Y-66069206D01*
X109572560Y-65974606D01*
X109561926Y-65970201D01*
X109367880Y-65909948D01*
X109360863Y-65908457D01*
X109298389Y-65874729D01*
X109264068Y-65812580D01*
X109268795Y-65741741D01*
X109311070Y-65684703D01*
X109352858Y-65663941D01*
X109533347Y-65613038D01*
X109544094Y-65608913D01*
X109726322Y-65519048D01*
X109736130Y-65513038D01*
X109898938Y-65391464D01*
X109907478Y-65383775D01*
X110045407Y-65234564D01*
X110052408Y-65225439D01*
X110160831Y-65053599D01*
X110166052Y-65043351D01*
X110241343Y-64854633D01*
X110244612Y-64843597D01*
X110255717Y-64787770D01*
X110254565Y-64774894D01*
X110239409Y-64770000D01*
X106673752Y-64770000D01*
X106660790Y-64773806D01*
X106658854Y-64788722D01*
X93636255Y-64788722D01*
X93650376Y-62068104D01*
X106627311Y-62068104D01*
X106628290Y-62073801D01*
X106628290Y-62073802D01*
X106662713Y-62274133D01*
X106663692Y-62279830D01*
X106738048Y-62481380D01*
X106847888Y-62666006D01*
X106851694Y-62670346D01*
X106851697Y-62670350D01*
X106938528Y-62769361D01*
X106989535Y-62827523D01*
X106994070Y-62831098D01*
X106994071Y-62831099D01*
X107001973Y-62837328D01*
X107158244Y-62960522D01*
X107163355Y-62963211D01*
X107163358Y-62963213D01*
X107224469Y-62995365D01*
X107348365Y-63060550D01*
X107553531Y-63124255D01*
X107555256Y-63124459D01*
X107616577Y-63157568D01*
X107650896Y-63219718D01*
X107646165Y-63290557D01*
X107603888Y-63347593D01*
X107562104Y-63368352D01*
X107382653Y-63418962D01*
X107371906Y-63423087D01*
X107189678Y-63512952D01*
X107179870Y-63518962D01*
X107017062Y-63640536D01*
X107008522Y-63648225D01*
X106870593Y-63797436D01*
X106863592Y-63806561D01*
X106755169Y-63978401D01*
X106749948Y-63988649D01*
X106674657Y-64177367D01*
X106671388Y-64188403D01*
X106660283Y-64244230D01*
X106661435Y-64257106D01*
X106676591Y-64262000D01*
X110242248Y-64262000D01*
X110255210Y-64258194D01*
X110257146Y-64243278D01*
X110252802Y-64217997D01*
X110249822Y-64206877D01*
X110179497Y-64016252D01*
X110174547Y-64005874D01*
X110070661Y-63831257D01*
X110063895Y-63821945D01*
X109929926Y-63669182D01*
X109921583Y-63661265D01*
X109762022Y-63535477D01*
X109752365Y-63529206D01*
X109572560Y-63434606D01*
X109561926Y-63430201D01*
X109367877Y-63369947D01*
X109361910Y-63368679D01*
X109299437Y-63334949D01*
X109265118Y-63272799D01*
X109269847Y-63201960D01*
X109312124Y-63144923D01*
X109353906Y-63124165D01*
X109539091Y-63071938D01*
X109544268Y-63069385D01*
X109544273Y-63069383D01*
X109726586Y-62979475D01*
X109731765Y-62976921D01*
X109903898Y-62848384D01*
X109924070Y-62826562D01*
X110045805Y-62694870D01*
X110045807Y-62694867D01*
X110049724Y-62690630D01*
X110164360Y-62508943D01*
X110243966Y-62309408D01*
X110245381Y-62302297D01*
X110284750Y-62104374D01*
X110284750Y-62104371D01*
X110285877Y-62098707D01*
X110286278Y-62068104D01*
X114247311Y-62068104D01*
X114248290Y-62073801D01*
X114248290Y-62073802D01*
X114282713Y-62274133D01*
X114283692Y-62279830D01*
X114358048Y-62481380D01*
X114467888Y-62666006D01*
X114471694Y-62670346D01*
X114471697Y-62670350D01*
X114558528Y-62769361D01*
X114609535Y-62827523D01*
X114614070Y-62831098D01*
X114614071Y-62831099D01*
X114621973Y-62837328D01*
X114778244Y-62960522D01*
X114783355Y-62963211D01*
X114783358Y-62963213D01*
X114844469Y-62995365D01*
X114968365Y-63060550D01*
X115173531Y-63124255D01*
X115175256Y-63124459D01*
X115236577Y-63157568D01*
X115270896Y-63219718D01*
X115266165Y-63290557D01*
X115223888Y-63347593D01*
X115182104Y-63368352D01*
X115002653Y-63418962D01*
X114991906Y-63423087D01*
X114809678Y-63512952D01*
X114799870Y-63518962D01*
X114637062Y-63640536D01*
X114628522Y-63648225D01*
X114490593Y-63797436D01*
X114483592Y-63806561D01*
X114375169Y-63978401D01*
X114369948Y-63988649D01*
X114294657Y-64177367D01*
X114291388Y-64188403D01*
X114280283Y-64244230D01*
X114281435Y-64257106D01*
X114296591Y-64262000D01*
X117862248Y-64262000D01*
X117875210Y-64258194D01*
X117877146Y-64243278D01*
X117872802Y-64217997D01*
X117869822Y-64206877D01*
X117799497Y-64016252D01*
X117794547Y-64005874D01*
X117690661Y-63831257D01*
X117683895Y-63821945D01*
X117549926Y-63669182D01*
X117541583Y-63661265D01*
X117382022Y-63535477D01*
X117372365Y-63529206D01*
X117192560Y-63434606D01*
X117181926Y-63430201D01*
X116987877Y-63369947D01*
X116981910Y-63368679D01*
X116919437Y-63334949D01*
X116885118Y-63272799D01*
X116889847Y-63201960D01*
X116932124Y-63144923D01*
X116973906Y-63124165D01*
X117159091Y-63071938D01*
X117164268Y-63069385D01*
X117164273Y-63069383D01*
X117346586Y-62979475D01*
X117351765Y-62976921D01*
X117523898Y-62848384D01*
X117544070Y-62826562D01*
X117665805Y-62694870D01*
X117665807Y-62694867D01*
X117669724Y-62690630D01*
X117784360Y-62508943D01*
X117863966Y-62309408D01*
X117865381Y-62302297D01*
X117904750Y-62104374D01*
X117904750Y-62104371D01*
X117905877Y-62098707D01*
X117906354Y-62062322D01*
X117908328Y-61911438D01*
X117908689Y-61883896D01*
X117904424Y-61859072D01*
X117873287Y-61677867D01*
X117873287Y-61677866D01*
X117872308Y-61672170D01*
X117797952Y-61470620D01*
X117688112Y-61285994D01*
X117684306Y-61281654D01*
X117684303Y-61281650D01*
X117550272Y-61128818D01*
X117546465Y-61124477D01*
X117377756Y-60991478D01*
X117372645Y-60988789D01*
X117372642Y-60988787D01*
X117276072Y-60937979D01*
X117187635Y-60891450D01*
X116982469Y-60827745D01*
X116981563Y-60827638D01*
X116920479Y-60794661D01*
X116886157Y-60732512D01*
X116890883Y-60661673D01*
X116933158Y-60604635D01*
X116974946Y-60583872D01*
X117159091Y-60531938D01*
X117164268Y-60529385D01*
X117164273Y-60529383D01*
X117346586Y-60439475D01*
X117351765Y-60436921D01*
X117506138Y-60321646D01*
X117519274Y-60311837D01*
X117519275Y-60311836D01*
X117523898Y-60308384D01*
X117544070Y-60286562D01*
X117665805Y-60154870D01*
X117665807Y-60154867D01*
X117669724Y-60150630D01*
X117784360Y-59968943D01*
X117863966Y-59769408D01*
X117869850Y-59739830D01*
X117904750Y-59564374D01*
X117904750Y-59564371D01*
X117905877Y-59558707D01*
X117906354Y-59522322D01*
X117908613Y-59349678D01*
X117908689Y-59343896D01*
X117904424Y-59319072D01*
X117873287Y-59137867D01*
X117873287Y-59137866D01*
X117872308Y-59132170D01*
X117797952Y-58930620D01*
X117688112Y-58745994D01*
X117684306Y-58741654D01*
X117684303Y-58741650D01*
X117550272Y-58588818D01*
X117546465Y-58584477D01*
X117377756Y-58451478D01*
X117372645Y-58448789D01*
X117372642Y-58448787D01*
X117276072Y-58397979D01*
X117187635Y-58351450D01*
X116982469Y-58287745D01*
X116980744Y-58287541D01*
X116919423Y-58254432D01*
X116885104Y-58192282D01*
X116889835Y-58121443D01*
X116932112Y-58064407D01*
X116973896Y-58043648D01*
X117153347Y-57993038D01*
X117164094Y-57988913D01*
X117346322Y-57899048D01*
X117356130Y-57893038D01*
X117518938Y-57771464D01*
X117527478Y-57763775D01*
X117665407Y-57614564D01*
X117672408Y-57605439D01*
X117780831Y-57433599D01*
X117786052Y-57423351D01*
X117861343Y-57234633D01*
X117864612Y-57223597D01*
X117875717Y-57167770D01*
X117874565Y-57154894D01*
X117859409Y-57150000D01*
X114293752Y-57150000D01*
X114280790Y-57153806D01*
X114278854Y-57168722D01*
X114283198Y-57194003D01*
X114286178Y-57205123D01*
X114356503Y-57395748D01*
X114361453Y-57406126D01*
X114465339Y-57580743D01*
X114472105Y-57590055D01*
X114606074Y-57742818D01*
X114614417Y-57750735D01*
X114773978Y-57876523D01*
X114783635Y-57882794D01*
X114963440Y-57977394D01*
X114974074Y-57981799D01*
X115168123Y-58042053D01*
X115174090Y-58043321D01*
X115236563Y-58077051D01*
X115270882Y-58139201D01*
X115266153Y-58210040D01*
X115223876Y-58267077D01*
X115182094Y-58287835D01*
X114996909Y-58340062D01*
X114991732Y-58342615D01*
X114991727Y-58342617D01*
X114816085Y-58429235D01*
X114804235Y-58435079D01*
X114632102Y-58563616D01*
X114628188Y-58567850D01*
X114628186Y-58567852D01*
X114556981Y-58644882D01*
X114486276Y-58721370D01*
X114371640Y-58903057D01*
X114292034Y-59102592D01*
X114290908Y-59108252D01*
X114290907Y-59108256D01*
X114252264Y-59302530D01*
X114250123Y-59313293D01*
X114250047Y-59319068D01*
X114250047Y-59319072D01*
X114248638Y-59426745D01*
X114247311Y-59528104D01*
X114248290Y-59533801D01*
X114248290Y-59533802D01*
X114253543Y-59564374D01*
X114283692Y-59739830D01*
X114358048Y-59941380D01*
X114467888Y-60126006D01*
X114471694Y-60130346D01*
X114471697Y-60130350D01*
X114573370Y-60246285D01*
X114609535Y-60287523D01*
X114614070Y-60291098D01*
X114614071Y-60291099D01*
X114652820Y-60321646D01*
X114778244Y-60420522D01*
X114783355Y-60423211D01*
X114783358Y-60423213D01*
X114839024Y-60452500D01*
X114968365Y-60520550D01*
X115113104Y-60565492D01*
X115163876Y-60581257D01*
X115173531Y-60584255D01*
X115174437Y-60584362D01*
X115235521Y-60617339D01*
X115269843Y-60679488D01*
X115265117Y-60750327D01*
X115222842Y-60807365D01*
X115181054Y-60828128D01*
X114996909Y-60880062D01*
X114991732Y-60882615D01*
X114991727Y-60882617D01*
X114898044Y-60928817D01*
X114804235Y-60975079D01*
X114799607Y-60978535D01*
X114664884Y-61079137D01*
X114632102Y-61103616D01*
X114628188Y-61107850D01*
X114628186Y-61107852D01*
X114526954Y-61217365D01*
X114486276Y-61261370D01*
X114371640Y-61443057D01*
X114292034Y-61642592D01*
X114290908Y-61648252D01*
X114290907Y-61648256D01*
X114271283Y-61746912D01*
X114250123Y-61853293D01*
X114250047Y-61859068D01*
X114250047Y-61859072D01*
X114249415Y-61907379D01*
X114247311Y-62068104D01*
X110286278Y-62068104D01*
X110286354Y-62062322D01*
X110288328Y-61911438D01*
X110288689Y-61883896D01*
X110284424Y-61859072D01*
X110253287Y-61677867D01*
X110253287Y-61677866D01*
X110252308Y-61672170D01*
X110177952Y-61470620D01*
X110068112Y-61285994D01*
X110064306Y-61281654D01*
X110064303Y-61281650D01*
X109930272Y-61128818D01*
X109926465Y-61124477D01*
X109757756Y-60991478D01*
X109752645Y-60988789D01*
X109752642Y-60988787D01*
X109656072Y-60937979D01*
X109567635Y-60891450D01*
X109362469Y-60827745D01*
X109360744Y-60827541D01*
X109299423Y-60794432D01*
X109265104Y-60732282D01*
X109269835Y-60661443D01*
X109312112Y-60604407D01*
X109353896Y-60583648D01*
X109533347Y-60533038D01*
X109544094Y-60528913D01*
X109726322Y-60439048D01*
X109736130Y-60433038D01*
X109898938Y-60311464D01*
X109907478Y-60303775D01*
X110045407Y-60154564D01*
X110052408Y-60145439D01*
X110160831Y-59973599D01*
X110166052Y-59963351D01*
X110241343Y-59774633D01*
X110244612Y-59763597D01*
X110255717Y-59707770D01*
X110254565Y-59694894D01*
X110239409Y-59690000D01*
X106673752Y-59690000D01*
X106660790Y-59693806D01*
X106658854Y-59708722D01*
X106663198Y-59734003D01*
X106666178Y-59745123D01*
X106736503Y-59935748D01*
X106741453Y-59946126D01*
X106845339Y-60120743D01*
X106852105Y-60130055D01*
X106986074Y-60282818D01*
X106994417Y-60290735D01*
X107153978Y-60416523D01*
X107163635Y-60422794D01*
X107343440Y-60517394D01*
X107354074Y-60521799D01*
X107548123Y-60582053D01*
X107554090Y-60583321D01*
X107616563Y-60617051D01*
X107650882Y-60679201D01*
X107646153Y-60750040D01*
X107603876Y-60807077D01*
X107562094Y-60827835D01*
X107376909Y-60880062D01*
X107371732Y-60882615D01*
X107371727Y-60882617D01*
X107278044Y-60928817D01*
X107184235Y-60975079D01*
X107179607Y-60978535D01*
X107044884Y-61079137D01*
X107012102Y-61103616D01*
X107008188Y-61107850D01*
X107008186Y-61107852D01*
X106906954Y-61217365D01*
X106866276Y-61261370D01*
X106751640Y-61443057D01*
X106672034Y-61642592D01*
X106670908Y-61648252D01*
X106670907Y-61648256D01*
X106651283Y-61746912D01*
X106630123Y-61853293D01*
X106630047Y-61859068D01*
X106630047Y-61859072D01*
X106629415Y-61907379D01*
X106627311Y-62068104D01*
X93650376Y-62068104D01*
X93675806Y-57168722D01*
X106658854Y-57168722D01*
X106663198Y-57194003D01*
X106666178Y-57205123D01*
X106736503Y-57395748D01*
X106741453Y-57406126D01*
X106845339Y-57580743D01*
X106852105Y-57590055D01*
X106986074Y-57742818D01*
X106994417Y-57750735D01*
X107153978Y-57876523D01*
X107163635Y-57882794D01*
X107343440Y-57977394D01*
X107354074Y-57981799D01*
X107548120Y-58042052D01*
X107555137Y-58043543D01*
X107617611Y-58077271D01*
X107651932Y-58139420D01*
X107647205Y-58210259D01*
X107604930Y-58267297D01*
X107563142Y-58288059D01*
X107382653Y-58338962D01*
X107371906Y-58343087D01*
X107189678Y-58432952D01*
X107179870Y-58438962D01*
X107017062Y-58560536D01*
X107008522Y-58568225D01*
X106870593Y-58717436D01*
X106863592Y-58726561D01*
X106755169Y-58898401D01*
X106749948Y-58908649D01*
X106674657Y-59097367D01*
X106671388Y-59108403D01*
X106660283Y-59164230D01*
X106661435Y-59177106D01*
X106676591Y-59182000D01*
X110242248Y-59182000D01*
X110255210Y-59178194D01*
X110257146Y-59163278D01*
X110252802Y-59137997D01*
X110249822Y-59126877D01*
X110179497Y-58936252D01*
X110174547Y-58925874D01*
X110070661Y-58751257D01*
X110063895Y-58741945D01*
X109929926Y-58589182D01*
X109921583Y-58581265D01*
X109762022Y-58455477D01*
X109752365Y-58449206D01*
X109572560Y-58354606D01*
X109561926Y-58350201D01*
X109367880Y-58289948D01*
X109360863Y-58288457D01*
X109298389Y-58254729D01*
X109264068Y-58192580D01*
X109268795Y-58121741D01*
X109311070Y-58064703D01*
X109352858Y-58043941D01*
X109533347Y-57993038D01*
X109544094Y-57988913D01*
X109726322Y-57899048D01*
X109736130Y-57893038D01*
X109898938Y-57771464D01*
X109907478Y-57763775D01*
X110045407Y-57614564D01*
X110052408Y-57605439D01*
X110160831Y-57433599D01*
X110166052Y-57423351D01*
X110241343Y-57234633D01*
X110244612Y-57223597D01*
X110255717Y-57167770D01*
X110254565Y-57154894D01*
X110239409Y-57150000D01*
X106673752Y-57150000D01*
X106660790Y-57153806D01*
X106658854Y-57168722D01*
X93675806Y-57168722D01*
X93677394Y-56862695D01*
X123859251Y-56862695D01*
X123859548Y-56867848D01*
X123859548Y-56867851D01*
X123865011Y-56962590D01*
X123872110Y-57085715D01*
X123873247Y-57090761D01*
X123873248Y-57090767D01*
X123886597Y-57150000D01*
X123921222Y-57303639D01*
X124005266Y-57510616D01*
X124121987Y-57701088D01*
X124268250Y-57869938D01*
X124440126Y-58012632D01*
X124633000Y-58125338D01*
X124841692Y-58205030D01*
X124846760Y-58206061D01*
X124846763Y-58206062D01*
X124954017Y-58227883D01*
X125060597Y-58249567D01*
X125065772Y-58249757D01*
X125065774Y-58249757D01*
X125278673Y-58257564D01*
X125278677Y-58257564D01*
X125283837Y-58257753D01*
X125288957Y-58257097D01*
X125288959Y-58257097D01*
X125500288Y-58230025D01*
X125500289Y-58230025D01*
X125505416Y-58229368D01*
X125510366Y-58227883D01*
X125714429Y-58166661D01*
X125714434Y-58166659D01*
X125719384Y-58165174D01*
X125919994Y-58066896D01*
X126101860Y-57937173D01*
X126140119Y-57899048D01*
X126256435Y-57783137D01*
X126260096Y-57779489D01*
X126319594Y-57696689D01*
X126387435Y-57602277D01*
X126390453Y-57598077D01*
X126395728Y-57587405D01*
X126487136Y-57402453D01*
X126487137Y-57402451D01*
X126489430Y-57397811D01*
X126521900Y-57290940D01*
X126552865Y-57189023D01*
X126552865Y-57189021D01*
X126554370Y-57184069D01*
X126583529Y-56962590D01*
X126585156Y-56896000D01*
X126566852Y-56673361D01*
X126512431Y-56456702D01*
X126423354Y-56251840D01*
X126302014Y-56064277D01*
X126151670Y-55899051D01*
X126147619Y-55895852D01*
X126147615Y-55895848D01*
X125980414Y-55763800D01*
X125980410Y-55763798D01*
X125976359Y-55760598D01*
X125957067Y-55749948D01*
X125934569Y-55737529D01*
X125884598Y-55687097D01*
X125869826Y-55617654D01*
X125894942Y-55551248D01*
X125922294Y-55524641D01*
X126097328Y-55399792D01*
X126105200Y-55393139D01*
X126256052Y-55242812D01*
X126262730Y-55234965D01*
X126387003Y-55062020D01*
X126392313Y-55053183D01*
X126486670Y-54862267D01*
X126490469Y-54852672D01*
X126552377Y-54648910D01*
X126554555Y-54638837D01*
X126555886Y-54628722D01*
X135741854Y-54628722D01*
X135746198Y-54654003D01*
X135749178Y-54665123D01*
X135819503Y-54855748D01*
X135824453Y-54866126D01*
X135928339Y-55040743D01*
X135935105Y-55050055D01*
X136069074Y-55202818D01*
X136077417Y-55210735D01*
X136236978Y-55336523D01*
X136246635Y-55342794D01*
X136426440Y-55437394D01*
X136437074Y-55441799D01*
X136631120Y-55502052D01*
X136638137Y-55503543D01*
X136700611Y-55537271D01*
X136734932Y-55599420D01*
X136730205Y-55670259D01*
X136687930Y-55727297D01*
X136646142Y-55748059D01*
X136465653Y-55798962D01*
X136454906Y-55803087D01*
X136272678Y-55892952D01*
X136262870Y-55898962D01*
X136100062Y-56020536D01*
X136091522Y-56028225D01*
X135953593Y-56177436D01*
X135946592Y-56186561D01*
X135838169Y-56358401D01*
X135832948Y-56368649D01*
X135757657Y-56557367D01*
X135754388Y-56568403D01*
X135743283Y-56624230D01*
X135744435Y-56637106D01*
X135759591Y-56642000D01*
X139325248Y-56642000D01*
X139338210Y-56638194D01*
X139340146Y-56623278D01*
X139335802Y-56597997D01*
X139332822Y-56586877D01*
X139262497Y-56396252D01*
X139257547Y-56385874D01*
X139153661Y-56211257D01*
X139146895Y-56201945D01*
X139012926Y-56049182D01*
X139004583Y-56041265D01*
X138845022Y-55915477D01*
X138835365Y-55909206D01*
X138655560Y-55814606D01*
X138644926Y-55810201D01*
X138450880Y-55749948D01*
X138443863Y-55748457D01*
X138381389Y-55714729D01*
X138347068Y-55652580D01*
X138351795Y-55581741D01*
X138394070Y-55524703D01*
X138435858Y-55503941D01*
X138616347Y-55453038D01*
X138627094Y-55448913D01*
X138809322Y-55359048D01*
X138819130Y-55353038D01*
X138981938Y-55231464D01*
X138990478Y-55223775D01*
X139128407Y-55074564D01*
X139135408Y-55065439D01*
X139243831Y-54893599D01*
X139249052Y-54883351D01*
X139324343Y-54694633D01*
X139327612Y-54683597D01*
X139338717Y-54627770D01*
X139337565Y-54614894D01*
X139322409Y-54610000D01*
X135756752Y-54610000D01*
X135743790Y-54613806D01*
X135741854Y-54628722D01*
X126555886Y-54628722D01*
X126555986Y-54627962D01*
X126553775Y-54613778D01*
X126540617Y-54610000D01*
X123905225Y-54610000D01*
X123891694Y-54613973D01*
X123890257Y-54623966D01*
X123920565Y-54758446D01*
X123923645Y-54768275D01*
X124003770Y-54965603D01*
X124008413Y-54974794D01*
X124119694Y-55156388D01*
X124125777Y-55164699D01*
X124265213Y-55325667D01*
X124272580Y-55332883D01*
X124436434Y-55468916D01*
X124444881Y-55474831D01*
X124513969Y-55515203D01*
X124562693Y-55566842D01*
X124575764Y-55636625D01*
X124549033Y-55702396D01*
X124508584Y-55735752D01*
X124495607Y-55742507D01*
X124491474Y-55745610D01*
X124491471Y-55745612D01*
X124321100Y-55873530D01*
X124316965Y-55876635D01*
X124162629Y-56038138D01*
X124036743Y-56222680D01*
X123989715Y-56323993D01*
X123950488Y-56408502D01*
X123942688Y-56425305D01*
X123882989Y-56640570D01*
X123859251Y-56862695D01*
X93677394Y-56862695D01*
X93688989Y-54628722D01*
X106658854Y-54628722D01*
X106663198Y-54654003D01*
X106666178Y-54665123D01*
X106736503Y-54855748D01*
X106741453Y-54866126D01*
X106845339Y-55040743D01*
X106852105Y-55050055D01*
X106986074Y-55202818D01*
X106994417Y-55210735D01*
X107153978Y-55336523D01*
X107163635Y-55342794D01*
X107343440Y-55437394D01*
X107354074Y-55441799D01*
X107548120Y-55502052D01*
X107555137Y-55503543D01*
X107617611Y-55537271D01*
X107651932Y-55599420D01*
X107647205Y-55670259D01*
X107604930Y-55727297D01*
X107563142Y-55748059D01*
X107382653Y-55798962D01*
X107371906Y-55803087D01*
X107189678Y-55892952D01*
X107179870Y-55898962D01*
X107017062Y-56020536D01*
X107008522Y-56028225D01*
X106870593Y-56177436D01*
X106863592Y-56186561D01*
X106755169Y-56358401D01*
X106749948Y-56368649D01*
X106674657Y-56557367D01*
X106671388Y-56568403D01*
X106660283Y-56624230D01*
X106661435Y-56637106D01*
X106676591Y-56642000D01*
X110242248Y-56642000D01*
X110255210Y-56638194D01*
X110257146Y-56623278D01*
X110252802Y-56597997D01*
X110249822Y-56586877D01*
X110179497Y-56396252D01*
X110174547Y-56385874D01*
X110070661Y-56211257D01*
X110063895Y-56201945D01*
X109929926Y-56049182D01*
X109921583Y-56041265D01*
X109762022Y-55915477D01*
X109752365Y-55909206D01*
X109572560Y-55814606D01*
X109561926Y-55810201D01*
X109367880Y-55749948D01*
X109360863Y-55748457D01*
X109298389Y-55714729D01*
X109264068Y-55652580D01*
X109268795Y-55581741D01*
X109311070Y-55524703D01*
X109352858Y-55503941D01*
X109533347Y-55453038D01*
X109544094Y-55448913D01*
X109726322Y-55359048D01*
X109736130Y-55353038D01*
X109898938Y-55231464D01*
X109907478Y-55223775D01*
X110045407Y-55074564D01*
X110052408Y-55065439D01*
X110160831Y-54893599D01*
X110166052Y-54883351D01*
X110241343Y-54694633D01*
X110244612Y-54683597D01*
X110255717Y-54627770D01*
X110254565Y-54614894D01*
X110239409Y-54610000D01*
X106673752Y-54610000D01*
X106660790Y-54613806D01*
X106658854Y-54628722D01*
X93688989Y-54628722D01*
X93689926Y-54448104D01*
X114247311Y-54448104D01*
X114248290Y-54453801D01*
X114248290Y-54453802D01*
X114269771Y-54578817D01*
X114283692Y-54659830D01*
X114358048Y-54861380D01*
X114467888Y-55046006D01*
X114471694Y-55050346D01*
X114471697Y-55050350D01*
X114571979Y-55164699D01*
X114609535Y-55207523D01*
X114778244Y-55340522D01*
X114783355Y-55343211D01*
X114783358Y-55343213D01*
X114878252Y-55393139D01*
X114968365Y-55440550D01*
X115173531Y-55504255D01*
X115175256Y-55504459D01*
X115236577Y-55537568D01*
X115270896Y-55599718D01*
X115266165Y-55670557D01*
X115223888Y-55727593D01*
X115182104Y-55748352D01*
X115002653Y-55798962D01*
X114991906Y-55803087D01*
X114809678Y-55892952D01*
X114799870Y-55898962D01*
X114637062Y-56020536D01*
X114628522Y-56028225D01*
X114490593Y-56177436D01*
X114483592Y-56186561D01*
X114375169Y-56358401D01*
X114369948Y-56368649D01*
X114294657Y-56557367D01*
X114291388Y-56568403D01*
X114280283Y-56624230D01*
X114281435Y-56637106D01*
X114296591Y-56642000D01*
X117862248Y-56642000D01*
X117875210Y-56638194D01*
X117877146Y-56623278D01*
X117872802Y-56597997D01*
X117869822Y-56586877D01*
X117799497Y-56396252D01*
X117794547Y-56385874D01*
X117690661Y-56211257D01*
X117683895Y-56201945D01*
X117549926Y-56049182D01*
X117541583Y-56041265D01*
X117382022Y-55915477D01*
X117372365Y-55909206D01*
X117192560Y-55814606D01*
X117181926Y-55810201D01*
X116987877Y-55749947D01*
X116981910Y-55748679D01*
X116919437Y-55714949D01*
X116885118Y-55652799D01*
X116889847Y-55581960D01*
X116932124Y-55524923D01*
X116973906Y-55504165D01*
X117159091Y-55451938D01*
X117164268Y-55449385D01*
X117164273Y-55449383D01*
X117346586Y-55359475D01*
X117351765Y-55356921D01*
X117442140Y-55289436D01*
X117519274Y-55231837D01*
X117519275Y-55231836D01*
X117523898Y-55228384D01*
X117543182Y-55207523D01*
X117665805Y-55074870D01*
X117665807Y-55074867D01*
X117669724Y-55070630D01*
X117784360Y-54888943D01*
X117863966Y-54689408D01*
X117867062Y-54673847D01*
X117904750Y-54484374D01*
X117904750Y-54484371D01*
X117905877Y-54478707D01*
X117905985Y-54470517D01*
X117906278Y-54448104D01*
X143330311Y-54448104D01*
X143331290Y-54453801D01*
X143331290Y-54453802D01*
X143352771Y-54578817D01*
X143366692Y-54659830D01*
X143441048Y-54861380D01*
X143550888Y-55046006D01*
X143554694Y-55050346D01*
X143554697Y-55050350D01*
X143654979Y-55164699D01*
X143692535Y-55207523D01*
X143861244Y-55340522D01*
X143866355Y-55343211D01*
X143866358Y-55343213D01*
X143961252Y-55393139D01*
X144051365Y-55440550D01*
X144256531Y-55504255D01*
X144258256Y-55504459D01*
X144319577Y-55537568D01*
X144353896Y-55599718D01*
X144349165Y-55670557D01*
X144306888Y-55727593D01*
X144265104Y-55748352D01*
X144085653Y-55798962D01*
X144074906Y-55803087D01*
X143892678Y-55892952D01*
X143882870Y-55898962D01*
X143720062Y-56020536D01*
X143711522Y-56028225D01*
X143573593Y-56177436D01*
X143566592Y-56186561D01*
X143458169Y-56358401D01*
X143452948Y-56368649D01*
X143377657Y-56557367D01*
X143374388Y-56568403D01*
X143363283Y-56624230D01*
X143364435Y-56637106D01*
X143379591Y-56642000D01*
X146945248Y-56642000D01*
X146958210Y-56638194D01*
X146960146Y-56623278D01*
X146955802Y-56597997D01*
X146952822Y-56586877D01*
X146882497Y-56396252D01*
X146877547Y-56385874D01*
X146773661Y-56211257D01*
X146766895Y-56201945D01*
X146632926Y-56049182D01*
X146624583Y-56041265D01*
X146465022Y-55915477D01*
X146455365Y-55909206D01*
X146275560Y-55814606D01*
X146264926Y-55810201D01*
X146070877Y-55749947D01*
X146064910Y-55748679D01*
X146002437Y-55714949D01*
X145968118Y-55652799D01*
X145972847Y-55581960D01*
X146015124Y-55524923D01*
X146056906Y-55504165D01*
X146242091Y-55451938D01*
X146247268Y-55449385D01*
X146247273Y-55449383D01*
X146429586Y-55359475D01*
X146434765Y-55356921D01*
X146525140Y-55289436D01*
X146602274Y-55231837D01*
X146602275Y-55231836D01*
X146606898Y-55228384D01*
X146626182Y-55207523D01*
X146748805Y-55074870D01*
X146748807Y-55074867D01*
X146752724Y-55070630D01*
X146867360Y-54888943D01*
X146946966Y-54689408D01*
X146950062Y-54673847D01*
X146987750Y-54484374D01*
X146987750Y-54484371D01*
X146988877Y-54478707D01*
X146988985Y-54470517D01*
X146990808Y-54331203D01*
X146991689Y-54263896D01*
X146987424Y-54239072D01*
X146956287Y-54057867D01*
X146956287Y-54057866D01*
X146955308Y-54052170D01*
X146880952Y-53850620D01*
X146771112Y-53665994D01*
X146767306Y-53661654D01*
X146767303Y-53661650D01*
X146633272Y-53508818D01*
X146629465Y-53504477D01*
X146617085Y-53494717D01*
X146582838Y-53467720D01*
X146460756Y-53371478D01*
X146455645Y-53368789D01*
X146455642Y-53368787D01*
X146322677Y-53298831D01*
X146270635Y-53271450D01*
X146065469Y-53207745D01*
X146064563Y-53207638D01*
X146003479Y-53174661D01*
X145969157Y-53112512D01*
X145973883Y-53041673D01*
X146016158Y-52984635D01*
X146057946Y-52963872D01*
X146058868Y-52963612D01*
X146242091Y-52911938D01*
X146247268Y-52909385D01*
X146247273Y-52909383D01*
X146429586Y-52819475D01*
X146434765Y-52816921D01*
X146606898Y-52688384D01*
X146626182Y-52667523D01*
X146748805Y-52534870D01*
X146748807Y-52534867D01*
X146752724Y-52530630D01*
X146867360Y-52348943D01*
X146946966Y-52149408D01*
X146952850Y-52119830D01*
X146987750Y-51944374D01*
X146987750Y-51944371D01*
X146988877Y-51938707D01*
X146989354Y-51902322D01*
X146991613Y-51729678D01*
X146991689Y-51723896D01*
X146987424Y-51699072D01*
X146956287Y-51517867D01*
X146956287Y-51517866D01*
X146955308Y-51512170D01*
X146880952Y-51310620D01*
X146771112Y-51125994D01*
X146767306Y-51121654D01*
X146767303Y-51121650D01*
X146633272Y-50968818D01*
X146629465Y-50964477D01*
X146460756Y-50831478D01*
X146455645Y-50828789D01*
X146455642Y-50828787D01*
X146359072Y-50777979D01*
X146270635Y-50731450D01*
X146065469Y-50667745D01*
X146046926Y-50665550D01*
X145894731Y-50647536D01*
X145894724Y-50647536D01*
X145891044Y-50647100D01*
X144446098Y-50647100D01*
X144286672Y-50661749D01*
X144281110Y-50663318D01*
X144281108Y-50663318D01*
X144223156Y-50679662D01*
X144079909Y-50720062D01*
X144074732Y-50722615D01*
X144074727Y-50722617D01*
X143899085Y-50809235D01*
X143887235Y-50815079D01*
X143715102Y-50943616D01*
X143711188Y-50947850D01*
X143711186Y-50947852D01*
X143691806Y-50968818D01*
X143569276Y-51101370D01*
X143454640Y-51283057D01*
X143375034Y-51482592D01*
X143373908Y-51488252D01*
X143373907Y-51488256D01*
X143368017Y-51517867D01*
X143333123Y-51693293D01*
X143333047Y-51699068D01*
X143333047Y-51699072D01*
X143331638Y-51806745D01*
X143330311Y-51908104D01*
X143331290Y-51913801D01*
X143331290Y-51913802D01*
X143336543Y-51944374D01*
X143366692Y-52119830D01*
X143441048Y-52321380D01*
X143550888Y-52506006D01*
X143554694Y-52510346D01*
X143554697Y-52510350D01*
X143576201Y-52534870D01*
X143692535Y-52667523D01*
X143861244Y-52800522D01*
X143866355Y-52803211D01*
X143866358Y-52803213D01*
X143962928Y-52854021D01*
X144051365Y-52900550D01*
X144256531Y-52964255D01*
X144257437Y-52964362D01*
X144318521Y-52997339D01*
X144352843Y-53059488D01*
X144348117Y-53130327D01*
X144305842Y-53187365D01*
X144264054Y-53208128D01*
X144079909Y-53260062D01*
X144074732Y-53262615D01*
X144074727Y-53262617D01*
X143919276Y-53339278D01*
X143887235Y-53355079D01*
X143715102Y-53483616D01*
X143711188Y-53487850D01*
X143711186Y-53487852D01*
X143691806Y-53508818D01*
X143569276Y-53641370D01*
X143454640Y-53823057D01*
X143375034Y-54022592D01*
X143373908Y-54028252D01*
X143373907Y-54028256D01*
X143334534Y-54226198D01*
X143333123Y-54233293D01*
X143333047Y-54239068D01*
X143333047Y-54239072D01*
X143331921Y-54325122D01*
X143330311Y-54448104D01*
X117906278Y-54448104D01*
X117907808Y-54331203D01*
X117908689Y-54263896D01*
X117904424Y-54239072D01*
X117873287Y-54057867D01*
X117873287Y-54057866D01*
X117872308Y-54052170D01*
X117797952Y-53850620D01*
X117688112Y-53665994D01*
X117684306Y-53661654D01*
X117684303Y-53661650D01*
X117550272Y-53508818D01*
X117546465Y-53504477D01*
X117534085Y-53494717D01*
X117499838Y-53467720D01*
X117377756Y-53371478D01*
X117372645Y-53368789D01*
X117372642Y-53368787D01*
X117239677Y-53298831D01*
X117187635Y-53271450D01*
X116982469Y-53207745D01*
X116981563Y-53207638D01*
X116920479Y-53174661D01*
X116886157Y-53112512D01*
X116890883Y-53041673D01*
X116933158Y-52984635D01*
X116974946Y-52963872D01*
X116975868Y-52963612D01*
X117159091Y-52911938D01*
X117164268Y-52909385D01*
X117164273Y-52909383D01*
X117346586Y-52819475D01*
X117351765Y-52816921D01*
X117489414Y-52714134D01*
X123863500Y-52714134D01*
X123870255Y-52776316D01*
X123921385Y-52912705D01*
X124008739Y-53029261D01*
X124125295Y-53116615D01*
X124133704Y-53119767D01*
X124133705Y-53119768D01*
X124242960Y-53160726D01*
X124299725Y-53203367D01*
X124324425Y-53269929D01*
X124309218Y-53339278D01*
X124289825Y-53365759D01*
X124166590Y-53494717D01*
X124160104Y-53502727D01*
X124040098Y-53678649D01*
X124035000Y-53687623D01*
X123945338Y-53880783D01*
X123941775Y-53890470D01*
X123886389Y-54090183D01*
X123887912Y-54098607D01*
X123900292Y-54102000D01*
X126540344Y-54102000D01*
X126553875Y-54098027D01*
X126555180Y-54088947D01*
X126513214Y-53921875D01*
X126509894Y-53912124D01*
X126424972Y-53716814D01*
X126420105Y-53707739D01*
X126304426Y-53528926D01*
X126298136Y-53520757D01*
X126154293Y-53362677D01*
X126123241Y-53298831D01*
X126131635Y-53228333D01*
X126176812Y-53173564D01*
X126203256Y-53159895D01*
X126310297Y-53119767D01*
X126318705Y-53116615D01*
X126435261Y-53029261D01*
X126522615Y-52912705D01*
X126573745Y-52776316D01*
X126580500Y-52714134D01*
X126580500Y-51908104D01*
X135710311Y-51908104D01*
X135711290Y-51913801D01*
X135711290Y-51913802D01*
X135716543Y-51944374D01*
X135746692Y-52119830D01*
X135821048Y-52321380D01*
X135930888Y-52506006D01*
X135934694Y-52510346D01*
X135934697Y-52510350D01*
X135956201Y-52534870D01*
X136072535Y-52667523D01*
X136241244Y-52800522D01*
X136246355Y-52803211D01*
X136246358Y-52803213D01*
X136342928Y-52854021D01*
X136431365Y-52900550D01*
X136636531Y-52964255D01*
X136638256Y-52964459D01*
X136699577Y-52997568D01*
X136733896Y-53059718D01*
X136729165Y-53130557D01*
X136686888Y-53187593D01*
X136645104Y-53208352D01*
X136465653Y-53258962D01*
X136454906Y-53263087D01*
X136272678Y-53352952D01*
X136262870Y-53358962D01*
X136100062Y-53480536D01*
X136091522Y-53488225D01*
X135953593Y-53637436D01*
X135946592Y-53646561D01*
X135838169Y-53818401D01*
X135832948Y-53828649D01*
X135757657Y-54017367D01*
X135754388Y-54028403D01*
X135743283Y-54084230D01*
X135744435Y-54097106D01*
X135759591Y-54102000D01*
X139325248Y-54102000D01*
X139338210Y-54098194D01*
X139340146Y-54083278D01*
X139335802Y-54057997D01*
X139332822Y-54046877D01*
X139262497Y-53856252D01*
X139257547Y-53845874D01*
X139153661Y-53671257D01*
X139146895Y-53661945D01*
X139012926Y-53509182D01*
X139004583Y-53501265D01*
X138845022Y-53375477D01*
X138835365Y-53369206D01*
X138655560Y-53274606D01*
X138644926Y-53270201D01*
X138450877Y-53209947D01*
X138444910Y-53208679D01*
X138382437Y-53174949D01*
X138348118Y-53112799D01*
X138352847Y-53041960D01*
X138395124Y-52984923D01*
X138436906Y-52964165D01*
X138622091Y-52911938D01*
X138627268Y-52909385D01*
X138627273Y-52909383D01*
X138809586Y-52819475D01*
X138814765Y-52816921D01*
X138986898Y-52688384D01*
X139006182Y-52667523D01*
X139128805Y-52534870D01*
X139128807Y-52534867D01*
X139132724Y-52530630D01*
X139247360Y-52348943D01*
X139326966Y-52149408D01*
X139332850Y-52119830D01*
X139367750Y-51944374D01*
X139367750Y-51944371D01*
X139368877Y-51938707D01*
X139369354Y-51902322D01*
X139371613Y-51729678D01*
X139371689Y-51723896D01*
X139367424Y-51699072D01*
X139336287Y-51517867D01*
X139336287Y-51517866D01*
X139335308Y-51512170D01*
X139260952Y-51310620D01*
X139151112Y-51125994D01*
X139147306Y-51121654D01*
X139147303Y-51121650D01*
X139013272Y-50968818D01*
X139009465Y-50964477D01*
X138840756Y-50831478D01*
X138835645Y-50828789D01*
X138835642Y-50828787D01*
X138739072Y-50777979D01*
X138650635Y-50731450D01*
X138445469Y-50667745D01*
X138426926Y-50665550D01*
X138274731Y-50647536D01*
X138274724Y-50647536D01*
X138271044Y-50647100D01*
X136826098Y-50647100D01*
X136666672Y-50661749D01*
X136661110Y-50663318D01*
X136661108Y-50663318D01*
X136603156Y-50679662D01*
X136459909Y-50720062D01*
X136454732Y-50722615D01*
X136454727Y-50722617D01*
X136279085Y-50809235D01*
X136267235Y-50815079D01*
X136095102Y-50943616D01*
X136091188Y-50947850D01*
X136091186Y-50947852D01*
X136071806Y-50968818D01*
X135949276Y-51101370D01*
X135834640Y-51283057D01*
X135755034Y-51482592D01*
X135753908Y-51488252D01*
X135753907Y-51488256D01*
X135748017Y-51517867D01*
X135713123Y-51693293D01*
X135713047Y-51699068D01*
X135713047Y-51699072D01*
X135711638Y-51806745D01*
X135710311Y-51908104D01*
X126580500Y-51908104D01*
X126580500Y-50917866D01*
X126573745Y-50855684D01*
X126522615Y-50719295D01*
X126435261Y-50602739D01*
X126318705Y-50515385D01*
X126182316Y-50464255D01*
X126120134Y-50457500D01*
X124323866Y-50457500D01*
X124261684Y-50464255D01*
X124125295Y-50515385D01*
X124008739Y-50602739D01*
X123921385Y-50719295D01*
X123870255Y-50855684D01*
X123863500Y-50917866D01*
X123863500Y-52714134D01*
X117489414Y-52714134D01*
X117523898Y-52688384D01*
X117543182Y-52667523D01*
X117665805Y-52534870D01*
X117665807Y-52534867D01*
X117669724Y-52530630D01*
X117784360Y-52348943D01*
X117863966Y-52149408D01*
X117869850Y-52119830D01*
X117904750Y-51944374D01*
X117904750Y-51944371D01*
X117905877Y-51938707D01*
X117906354Y-51902322D01*
X117908613Y-51729678D01*
X117908689Y-51723896D01*
X117904424Y-51699072D01*
X117873287Y-51517867D01*
X117873287Y-51517866D01*
X117872308Y-51512170D01*
X117797952Y-51310620D01*
X117688112Y-51125994D01*
X117684306Y-51121654D01*
X117684303Y-51121650D01*
X117550272Y-50968818D01*
X117546465Y-50964477D01*
X117377756Y-50831478D01*
X117372645Y-50828789D01*
X117372642Y-50828787D01*
X117276072Y-50777979D01*
X117187635Y-50731450D01*
X116982469Y-50667745D01*
X116963926Y-50665550D01*
X116811731Y-50647536D01*
X116811724Y-50647536D01*
X116808044Y-50647100D01*
X115363098Y-50647100D01*
X115203672Y-50661749D01*
X115198110Y-50663318D01*
X115198108Y-50663318D01*
X115140156Y-50679662D01*
X114996909Y-50720062D01*
X114991732Y-50722615D01*
X114991727Y-50722617D01*
X114816085Y-50809235D01*
X114804235Y-50815079D01*
X114632102Y-50943616D01*
X114628188Y-50947850D01*
X114628186Y-50947852D01*
X114608806Y-50968818D01*
X114486276Y-51101370D01*
X114371640Y-51283057D01*
X114292034Y-51482592D01*
X114290908Y-51488252D01*
X114290907Y-51488256D01*
X114285017Y-51517867D01*
X114250123Y-51693293D01*
X114250047Y-51699068D01*
X114250047Y-51699072D01*
X114248638Y-51806745D01*
X114247311Y-51908104D01*
X114248290Y-51913801D01*
X114248290Y-51913802D01*
X114253543Y-51944374D01*
X114283692Y-52119830D01*
X114358048Y-52321380D01*
X114467888Y-52506006D01*
X114471694Y-52510346D01*
X114471697Y-52510350D01*
X114493201Y-52534870D01*
X114609535Y-52667523D01*
X114778244Y-52800522D01*
X114783355Y-52803211D01*
X114783358Y-52803213D01*
X114879928Y-52854021D01*
X114968365Y-52900550D01*
X115173531Y-52964255D01*
X115174437Y-52964362D01*
X115235521Y-52997339D01*
X115269843Y-53059488D01*
X115265117Y-53130327D01*
X115222842Y-53187365D01*
X115181054Y-53208128D01*
X114996909Y-53260062D01*
X114991732Y-53262615D01*
X114991727Y-53262617D01*
X114836276Y-53339278D01*
X114804235Y-53355079D01*
X114632102Y-53483616D01*
X114628188Y-53487850D01*
X114628186Y-53487852D01*
X114608806Y-53508818D01*
X114486276Y-53641370D01*
X114371640Y-53823057D01*
X114292034Y-54022592D01*
X114290908Y-54028252D01*
X114290907Y-54028256D01*
X114251534Y-54226198D01*
X114250123Y-54233293D01*
X114250047Y-54239068D01*
X114250047Y-54239072D01*
X114248921Y-54325122D01*
X114247311Y-54448104D01*
X93689926Y-54448104D01*
X93703110Y-51908104D01*
X106627311Y-51908104D01*
X106628290Y-51913801D01*
X106628290Y-51913802D01*
X106633543Y-51944374D01*
X106663692Y-52119830D01*
X106738048Y-52321380D01*
X106847888Y-52506006D01*
X106851694Y-52510346D01*
X106851697Y-52510350D01*
X106873201Y-52534870D01*
X106989535Y-52667523D01*
X107158244Y-52800522D01*
X107163355Y-52803211D01*
X107163358Y-52803213D01*
X107259928Y-52854021D01*
X107348365Y-52900550D01*
X107553531Y-52964255D01*
X107555256Y-52964459D01*
X107616577Y-52997568D01*
X107650896Y-53059718D01*
X107646165Y-53130557D01*
X107603888Y-53187593D01*
X107562104Y-53208352D01*
X107382653Y-53258962D01*
X107371906Y-53263087D01*
X107189678Y-53352952D01*
X107179870Y-53358962D01*
X107017062Y-53480536D01*
X107008522Y-53488225D01*
X106870593Y-53637436D01*
X106863592Y-53646561D01*
X106755169Y-53818401D01*
X106749948Y-53828649D01*
X106674657Y-54017367D01*
X106671388Y-54028403D01*
X106660283Y-54084230D01*
X106661435Y-54097106D01*
X106676591Y-54102000D01*
X110242248Y-54102000D01*
X110255210Y-54098194D01*
X110257146Y-54083278D01*
X110252802Y-54057997D01*
X110249822Y-54046877D01*
X110179497Y-53856252D01*
X110174547Y-53845874D01*
X110070661Y-53671257D01*
X110063895Y-53661945D01*
X109929926Y-53509182D01*
X109921583Y-53501265D01*
X109762022Y-53375477D01*
X109752365Y-53369206D01*
X109572560Y-53274606D01*
X109561926Y-53270201D01*
X109367877Y-53209947D01*
X109361910Y-53208679D01*
X109299437Y-53174949D01*
X109265118Y-53112799D01*
X109269847Y-53041960D01*
X109312124Y-52984923D01*
X109353906Y-52964165D01*
X109539091Y-52911938D01*
X109544268Y-52909385D01*
X109544273Y-52909383D01*
X109726586Y-52819475D01*
X109731765Y-52816921D01*
X109903898Y-52688384D01*
X109923182Y-52667523D01*
X110045805Y-52534870D01*
X110045807Y-52534867D01*
X110049724Y-52530630D01*
X110164360Y-52348943D01*
X110243966Y-52149408D01*
X110249850Y-52119830D01*
X110284750Y-51944374D01*
X110284750Y-51944371D01*
X110285877Y-51938707D01*
X110286354Y-51902322D01*
X110288613Y-51729678D01*
X110288689Y-51723896D01*
X110284424Y-51699072D01*
X110253287Y-51517867D01*
X110253287Y-51517866D01*
X110252308Y-51512170D01*
X110177952Y-51310620D01*
X110068112Y-51125994D01*
X110064306Y-51121654D01*
X110064303Y-51121650D01*
X109930272Y-50968818D01*
X109926465Y-50964477D01*
X109757756Y-50831478D01*
X109752645Y-50828789D01*
X109752642Y-50828787D01*
X109656072Y-50777979D01*
X109567635Y-50731450D01*
X109362469Y-50667745D01*
X109343926Y-50665550D01*
X109191731Y-50647536D01*
X109191724Y-50647536D01*
X109188044Y-50647100D01*
X107743098Y-50647100D01*
X107583672Y-50661749D01*
X107578110Y-50663318D01*
X107578108Y-50663318D01*
X107520156Y-50679662D01*
X107376909Y-50720062D01*
X107371732Y-50722615D01*
X107371727Y-50722617D01*
X107196085Y-50809235D01*
X107184235Y-50815079D01*
X107012102Y-50943616D01*
X107008188Y-50947850D01*
X107008186Y-50947852D01*
X106988806Y-50968818D01*
X106866276Y-51101370D01*
X106751640Y-51283057D01*
X106672034Y-51482592D01*
X106670908Y-51488252D01*
X106670907Y-51488256D01*
X106665017Y-51517867D01*
X106630123Y-51693293D01*
X106630047Y-51699068D01*
X106630047Y-51699072D01*
X106628638Y-51806745D01*
X106627311Y-51908104D01*
X93703110Y-51908104D01*
X93725348Y-47623676D01*
X93745703Y-47555660D01*
X93799599Y-47509446D01*
X93851677Y-47498330D01*
X190374550Y-47751671D01*
G37*
%TD.AperFunction*%
%TD*%
M02*
