%TF.GenerationSoftware,KiCad,Pcbnew,(6.0.1)*%
%TF.CreationDate,2022-03-29T06:33:39-05:00*%
%TF.ProjectId,microcontroller_board,6d696372-6f63-46f6-9e74-726f6c6c6572,rev?*%
%TF.SameCoordinates,Original*%
%TF.FileFunction,Paste,Top*%
%TF.FilePolarity,Positive*%
%FSLAX46Y46*%
G04 Gerber Fmt 4.6, Leading zero omitted, Abs format (unit mm)*
G04 Created by KiCad (PCBNEW (6.0.1)) date 2022-03-29 06:33:39*
%MOMM*%
%LPD*%
G01*
G04 APERTURE LIST*
G04 Aperture macros list*
%AMRoundRect*
0 Rectangle with rounded corners*
0 $1 Rounding radius*
0 $2 $3 $4 $5 $6 $7 $8 $9 X,Y pos of 4 corners*
0 Add a 4 corners polygon primitive as box body*
4,1,4,$2,$3,$4,$5,$6,$7,$8,$9,$2,$3,0*
0 Add four circle primitives for the rounded corners*
1,1,$1+$1,$2,$3*
1,1,$1+$1,$4,$5*
1,1,$1+$1,$6,$7*
1,1,$1+$1,$8,$9*
0 Add four rect primitives between the rounded corners*
20,1,$1+$1,$2,$3,$4,$5,0*
20,1,$1+$1,$4,$5,$6,$7,0*
20,1,$1+$1,$6,$7,$8,$9,0*
20,1,$1+$1,$8,$9,$2,$3,0*%
G04 Aperture macros list end*
%ADD10R,0.550000X1.600000*%
%ADD11R,1.600000X0.550000*%
%ADD12RoundRect,0.250000X-0.350000X-0.450000X0.350000X-0.450000X0.350000X0.450000X-0.350000X0.450000X0*%
%ADD13RoundRect,0.250000X-0.475000X0.337500X-0.475000X-0.337500X0.475000X-0.337500X0.475000X0.337500X0*%
%ADD14RoundRect,0.250000X0.475000X-0.337500X0.475000X0.337500X-0.475000X0.337500X-0.475000X-0.337500X0*%
%ADD15RoundRect,0.250000X-0.337500X-0.475000X0.337500X-0.475000X0.337500X0.475000X-0.337500X0.475000X0*%
G04 APERTURE END LIST*
D10*
%TO.C,U1*%
X151575000Y-89662000D03*
X152375000Y-89662000D03*
X153175000Y-89662000D03*
X153975000Y-89662000D03*
X154775000Y-89662000D03*
X155575000Y-89662000D03*
X156375000Y-89662000D03*
X157175000Y-89662000D03*
D11*
X158625000Y-88212000D03*
X158625000Y-87412000D03*
X158625000Y-86612000D03*
X158625000Y-85812000D03*
X158625000Y-85012000D03*
X158625000Y-84212000D03*
X158625000Y-83412000D03*
X158625000Y-82612000D03*
D10*
X157175000Y-81162000D03*
X156375000Y-81162000D03*
X155575000Y-81162000D03*
X154775000Y-81162000D03*
X153975000Y-81162000D03*
X153175000Y-81162000D03*
X152375000Y-81162000D03*
X151575000Y-81162000D03*
D11*
X150125000Y-82612000D03*
X150125000Y-83412000D03*
X150125000Y-84212000D03*
X150125000Y-85012000D03*
X150125000Y-85812000D03*
X150125000Y-86612000D03*
X150125000Y-87412000D03*
X150125000Y-88212000D03*
%TD*%
D12*
%TO.C,R2*%
X131350000Y-70104000D03*
X133350000Y-70104000D03*
%TD*%
%TO.C,R1*%
X101330000Y-67945000D03*
X99330000Y-67945000D03*
%TD*%
D13*
%TO.C,C4*%
X153924000Y-93218000D03*
X153924000Y-95293000D03*
%TD*%
D14*
%TO.C,C3*%
X157861000Y-95293000D03*
X157861000Y-93218000D03*
%TD*%
D15*
%TO.C,C2*%
X131402000Y-64389000D03*
X133477000Y-64389000D03*
%TD*%
%TO.C,C1*%
X99419500Y-60706000D03*
X101494500Y-60706000D03*
%TD*%
M02*
