M48
; DRILL file {KiCad (6.0.1)} date Wed Apr 20 22:23:34 2022
; FORMAT={-:-/ absolute / inch / decimal}
; #@! TF.CreationDate,2022-04-20T22:23:34-05:00
; #@! TF.GenerationSoftware,Kicad,Pcbnew,(6.0.1)
; #@! TF.FileFunction,Plated,1,2,PTH
FMAT,2
INCH
; #@! TA.AperFunction,Plated,PTH,ViaDrill
T1C0.0157
; #@! TA.AperFunction,Plated,PTH,ComponentDrill
T2C0.0307
; #@! TA.AperFunction,Plated,PTH,ComponentDrill
T3C0.0469
; #@! TA.AperFunction,Plated,PTH,ComponentDrill
T4C0.0551
%
G90
G05
T1
X3.88Y-2.82
X4.105Y-2.82
X4.81Y-2.825
X5.71Y-2.73
T2
X3.5637Y-2.345
X3.5637Y-2.445
X3.5637Y-2.545
X3.5637Y-2.645
X3.8763Y-2.345
X3.8763Y-2.445
X3.8763Y-2.545
X3.8763Y-2.645
X5.0087Y-2.325
X5.0087Y-2.425
X5.0087Y-2.525
X5.0087Y-2.625
X5.3213Y-2.325
X5.3213Y-2.425
X5.3213Y-2.525
X5.3213Y-2.625
X5.6537Y-4.26
X5.6537Y-4.36
X5.6537Y-4.46
X5.6537Y-4.56
X5.9663Y-4.26
X5.9663Y-4.36
X5.9663Y-4.46
X5.9663Y-4.56
T3
X3.01Y-4.0158
X3.11Y-4.0158
X3.375Y-4.6058
X3.475Y-4.6058
X3.575Y-4.6058
X3.675Y-4.6058
X3.705Y-3.9808
X3.805Y-3.9808
X3.925Y-2.0092
X4.025Y-2.0092
X4.125Y-2.0092
X4.435Y-4.005
X4.535Y-4.005
X5.7Y-2.0008
X5.7Y-2.4558
X5.8Y-2.0008
X5.8Y-2.4558
X5.9Y-2.0008
X5.9Y-2.4558
T4
X2.685Y-3.75
X2.685Y-4.35
X2.71Y-2.995
X2.71Y-3.41
X2.72Y-2.65
X2.725Y-2.31
X3.31Y-2.995
X3.31Y-3.41
X3.32Y-2.65
X3.325Y-2.31
X3.4Y-3.74
X3.4Y-4.34
X3.74Y-2.96
X3.74Y-3.56
X4.135Y-2.31
X4.135Y-2.645
X4.135Y-3.015
X4.15Y-3.395
X4.165Y-3.725
X4.165Y-4.325
X4.735Y-2.31
X4.735Y-2.645
X4.735Y-3.015
X4.75Y-3.395
X4.835Y-3.75
X4.835Y-4.04
X4.835Y-4.335
X4.835Y-4.63
X5.15Y-2.92
X5.15Y-3.52
X5.435Y-3.75
X5.435Y-4.04
X5.435Y-4.335
X5.435Y-4.63
T0
M30
