%TF.GenerationSoftware,KiCad,Pcbnew,(6.0.1)*%
%TF.CreationDate,2022-03-08T01:46:33-06:00*%
%TF.ProjectId,senior_design,73656e69-6f72-45f6-9465-7369676e2e6b,rev?*%
%TF.SameCoordinates,Original*%
%TF.FileFunction,Copper,L1,Top*%
%TF.FilePolarity,Positive*%
%FSLAX46Y46*%
G04 Gerber Fmt 4.6, Leading zero omitted, Abs format (unit mm)*
G04 Created by KiCad (PCBNEW (6.0.1)) date 2022-03-08 01:46:33*
%MOMM*%
%LPD*%
G01*
G04 APERTURE LIST*
G04 Aperture macros list*
%AMRoundRect*
0 Rectangle with rounded corners*
0 $1 Rounding radius*
0 $2 $3 $4 $5 $6 $7 $8 $9 X,Y pos of 4 corners*
0 Add a 4 corners polygon primitive as box body*
4,1,4,$2,$3,$4,$5,$6,$7,$8,$9,$2,$3,0*
0 Add four circle primitives for the rounded corners*
1,1,$1+$1,$2,$3*
1,1,$1+$1,$4,$5*
1,1,$1+$1,$6,$7*
1,1,$1+$1,$8,$9*
0 Add four rect primitives between the rounded corners*
20,1,$1+$1,$2,$3,$4,$5,0*
20,1,$1+$1,$4,$5,$6,$7,0*
20,1,$1+$1,$6,$7,$8,$9,0*
20,1,$1+$1,$8,$9,$2,$3,0*%
G04 Aperture macros list end*
%TA.AperFunction,ComponentPad*%
%ADD10R,1.130000X1.130000*%
%TD*%
%TA.AperFunction,ComponentPad*%
%ADD11C,1.130000*%
%TD*%
%TA.AperFunction,SMDPad,CuDef*%
%ADD12RoundRect,0.150000X-0.875000X-0.150000X0.875000X-0.150000X0.875000X0.150000X-0.875000X0.150000X0*%
%TD*%
%TA.AperFunction,ComponentPad*%
%ADD13O,1.320800X2.641600*%
%TD*%
%TA.AperFunction,SMDPad,CuDef*%
%ADD14RoundRect,0.250000X0.350000X0.450000X-0.350000X0.450000X-0.350000X-0.450000X0.350000X-0.450000X0*%
%TD*%
%TA.AperFunction,SMDPad,CuDef*%
%ADD15RoundRect,0.250000X-0.350000X-0.450000X0.350000X-0.450000X0.350000X0.450000X-0.350000X0.450000X0*%
%TD*%
%TA.AperFunction,SMDPad,CuDef*%
%ADD16RoundRect,0.250000X0.450000X-0.350000X0.450000X0.350000X-0.450000X0.350000X-0.450000X-0.350000X0*%
%TD*%
%TA.AperFunction,ComponentPad*%
%ADD17RoundRect,0.250000X-0.620000X-0.845000X0.620000X-0.845000X0.620000X0.845000X-0.620000X0.845000X0*%
%TD*%
%TA.AperFunction,ComponentPad*%
%ADD18O,1.740000X2.190000*%
%TD*%
%TA.AperFunction,SMDPad,CuDef*%
%ADD19RoundRect,0.250000X-0.337500X-0.475000X0.337500X-0.475000X0.337500X0.475000X-0.337500X0.475000X0*%
%TD*%
%TA.AperFunction,SMDPad,CuDef*%
%ADD20RoundRect,0.250000X0.337500X0.475000X-0.337500X0.475000X-0.337500X-0.475000X0.337500X-0.475000X0*%
%TD*%
%TA.AperFunction,ViaPad*%
%ADD21C,0.800000*%
%TD*%
%TA.AperFunction,Conductor*%
%ADD22C,0.508000*%
%TD*%
%TA.AperFunction,Conductor*%
%ADD23C,0.250000*%
%TD*%
%TA.AperFunction,Conductor*%
%ADD24C,0.254000*%
%TD*%
G04 APERTURE END LIST*
D10*
%TO.P,U11,1,OFFSET_N1*%
%TO.N,unconnected-(U11-Pad1)*%
X141731995Y-73787000D03*
D11*
%TO.P,U11,2,IN-*%
%TO.N,Net-(R26-Pad2)*%
X141731995Y-76327000D03*
%TO.P,U11,3,IN+*%
%TO.N,Net-(R22-Pad1)*%
X141731995Y-78867000D03*
%TO.P,U11,4,VCC-*%
%TO.N,GND*%
X141731995Y-81407000D03*
%TO.P,U11,5,OFFSET_N2*%
%TO.N,unconnected-(U11-Pad5)*%
X149671995Y-81407000D03*
%TO.P,U11,6,OUT*%
%TO.N,Net-(J1-Pad2)*%
X149671995Y-78867000D03*
%TO.P,U11,7,VCC+*%
%TO.N,+5V*%
X149671995Y-76327000D03*
%TO.P,U11,8*%
%TO.N,N/C*%
X149671995Y-73787000D03*
%TD*%
D10*
%TO.P,U7,1,OFFSET_N1*%
%TO.N,unconnected-(U7-Pad1)*%
X129126000Y-91313000D03*
D11*
%TO.P,U7,2,IN-*%
%TO.N,Net-(C5-Pad2)*%
X129126000Y-93853000D03*
%TO.P,U7,3,IN+*%
%TO.N,unconnected-(U7-Pad3)*%
X129126000Y-96393000D03*
%TO.P,U7,4,VCC-*%
%TO.N,GND*%
X129126000Y-98933000D03*
%TO.P,U7,5,OFFSET_N2*%
%TO.N,unconnected-(U7-Pad5)*%
X137066000Y-98933000D03*
%TO.P,U7,6,OUT*%
%TO.N,GND*%
X137066000Y-96393000D03*
%TO.P,U7,7,VCC+*%
%TO.N,+5V*%
X137066000Y-93853000D03*
%TO.P,U7,8*%
%TO.N,N/C*%
X137066000Y-91313000D03*
%TD*%
D12*
%TO.P,U4,20,CHA-*%
%TO.N,Net-(U4-Pad15)*%
X103583000Y-79375000D03*
%TO.P,U4,19,CHB-*%
X103583000Y-80645000D03*
%TO.P,U4,18,CHB+*%
%TO.N,unconnected-(U4-Pad18)*%
X103583000Y-81915000D03*
%TO.P,U4,17,RinB*%
%TO.N,GND*%
X103583000Y-83185000D03*
%TO.P,U4,16,RA*%
%TO.N,unconnected-(U4-Pad16)*%
X103583000Y-84455000D03*
%TO.P,U4,15,RF*%
%TO.N,Net-(U4-Pad15)*%
X103583000Y-85725000D03*
%TO.P,U4,14,RB*%
%TO.N,GND*%
X103583000Y-86995000D03*
%TO.P,U4,13,Vout*%
%TO.N,Net-(R11-Pad2)*%
X103583000Y-88265000D03*
%TO.P,U4,12,COMP*%
X103583000Y-89535000D03*
%TO.P,U4,11,VS+*%
%TO.N,+5V*%
X103583000Y-90805000D03*
%TO.P,U4,10,SEL_A*%
%TO.N,Net-(U4-Pad10)*%
X94283000Y-90805000D03*
%TO.P,U4,9,SEL_B*%
%TO.N,GND*%
X94283000Y-89535000D03*
%TO.P,U4,8,VS-*%
X94283000Y-88265000D03*
%TO.P,U4,7,B/~{A}*%
%TO.N,unconnected-(U4-Pad7)*%
X94283000Y-86995000D03*
%TO.P,U4,6,CM_OFF_ADJ2*%
%TO.N,unconnected-(U4-Pad6)*%
X94283000Y-85725000D03*
%TO.P,U4,5,CM_OFF_ADJ1*%
%TO.N,unconnected-(U4-Pad5)*%
X94283000Y-84455000D03*
%TO.P,U4,4,DIFF_OFF_ADJ2*%
%TO.N,unconnected-(U4-Pad4)*%
X94283000Y-83185000D03*
%TO.P,U4,3,DIFF_OFF_ADJ1*%
%TO.N,unconnected-(U4-Pad3)*%
X94283000Y-81915000D03*
%TO.P,U4,2,CHA+*%
%TO.N,unconnected-(U4-Pad2)*%
X94283000Y-80645000D03*
%TO.P,U4,1,RinA*%
%TO.N,Net-(U4-Pad1)*%
X94283000Y-79375000D03*
%TD*%
D13*
%TO.P,U3,1,Rg*%
%TO.N,Net-(R5-Pad1)*%
X99822000Y-72009000D03*
%TO.P,U3,2,-*%
%TO.N,Net-(R2-Pad1)*%
X102362000Y-72009000D03*
%TO.P,U3,7,Vs+*%
%TO.N,+5V*%
X102362000Y-64389000D03*
%TO.P,U3,8,Rg*%
%TO.N,Net-(R5-Pad2)*%
X99822000Y-64389000D03*
%TO.P,U3,3,+*%
%TO.N,Net-(R1-Pad1)*%
X104902000Y-72009000D03*
%TO.P,U3,4,Vs-*%
%TO.N,GND*%
X107442000Y-72009000D03*
%TO.P,U3,6*%
%TO.N,Net-(U4-Pad1)*%
X104902000Y-64389000D03*
%TO.P,U3,5,Ref*%
%TO.N,GND*%
X107442000Y-64389000D03*
%TD*%
D14*
%TO.P,R30,1*%
%TO.N,Net-(J1-Pad2)*%
X151892000Y-87122000D03*
%TO.P,R30,2*%
%TO.N,Net-(R26-Pad2)*%
X149892000Y-87122000D03*
%TD*%
D15*
%TO.P,R26,1*%
%TO.N,GND*%
X131826000Y-72898000D03*
%TO.P,R26,2*%
%TO.N,Net-(R26-Pad2)*%
X133826000Y-72898000D03*
%TD*%
%TO.P,R22,1*%
%TO.N,Net-(R22-Pad1)*%
X142399000Y-87122000D03*
%TO.P,R22,2*%
%TO.N,GND*%
X144399000Y-87122000D03*
%TD*%
%TO.P,R19,1*%
%TO.N,GND*%
X131731000Y-79629000D03*
%TO.P,R19,2*%
%TO.N,Net-(C5-Pad2)*%
X133731000Y-79629000D03*
%TD*%
D14*
%TO.P,R14,1*%
%TO.N,Net-(C5-Pad2)*%
X122174000Y-89916000D03*
%TO.P,R14,2*%
%TO.N,Net-(C2-Pad2)*%
X120174000Y-89916000D03*
%TD*%
%TO.P,R11,1*%
%TO.N,Net-(C2-Pad2)*%
X114173000Y-96520000D03*
%TO.P,R11,2*%
%TO.N,Net-(R11-Pad2)*%
X112173000Y-96520000D03*
%TD*%
D16*
%TO.P,R5,1*%
%TO.N,Net-(R5-Pad1)*%
X93980000Y-68072000D03*
%TO.P,R5,2*%
%TO.N,Net-(R5-Pad2)*%
X93980000Y-66072000D03*
%TD*%
D15*
%TO.P,R2,1*%
%TO.N,Net-(R2-Pad1)*%
X117380000Y-74803000D03*
%TO.P,R2,2*%
%TO.N,GND*%
X119380000Y-74803000D03*
%TD*%
%TO.P,R1,1*%
%TO.N,Net-(R1-Pad1)*%
X117491000Y-69723000D03*
%TO.P,R1,2*%
%TO.N,GND*%
X119491000Y-69723000D03*
%TD*%
D17*
%TO.P,J1,1,Pin_1*%
%TO.N,Net-(U4-Pad10)*%
X114427000Y-81788000D03*
D18*
%TO.P,J1,2,Pin_2*%
%TO.N,Net-(J1-Pad2)*%
X116967000Y-81788000D03*
%TO.P,J1,3,Pin_3*%
%TO.N,Net-(R1-Pad1)*%
X119507000Y-81788000D03*
%TO.P,J1,4,Pin_4*%
%TO.N,Net-(R2-Pad1)*%
X122047000Y-81788000D03*
%TD*%
D19*
%TO.P,C5,1*%
%TO.N,GND*%
X131699000Y-85344000D03*
%TO.P,C5,2*%
%TO.N,Net-(C5-Pad2)*%
X133774000Y-85344000D03*
%TD*%
D20*
%TO.P,C2,1*%
%TO.N,GND*%
X122598000Y-96520000D03*
%TO.P,C2,2*%
%TO.N,Net-(C2-Pad2)*%
X120523000Y-96520000D03*
%TD*%
D21*
%TO.N,+5V*%
X103632000Y-93726000D03*
%TO.N,Net-(R1-Pad1)*%
X114244500Y-72969500D03*
X114427000Y-76708000D03*
%TO.N,Net-(R11-Pad2)*%
X112141000Y-94869000D03*
X106172000Y-88900000D03*
%TD*%
D22*
%TO.N,+5V*%
X103583000Y-93677000D02*
X103632000Y-93726000D01*
X103583000Y-90805000D02*
X103583000Y-93677000D01*
D23*
%TO.N,Net-(R1-Pad1)*%
X114244500Y-72969500D02*
X117491000Y-69723000D01*
D24*
X119507000Y-81788000D02*
X114427000Y-76708000D01*
D23*
%TO.N,Net-(R2-Pad1)*%
X122047000Y-79470000D02*
X122047000Y-81788000D01*
X117380000Y-74803000D02*
X122047000Y-79470000D01*
D24*
%TO.N,Net-(J1-Pad2)*%
X116967000Y-87376000D02*
X123698000Y-87376000D01*
X123698000Y-87376000D02*
X128651000Y-82423000D01*
X116967000Y-81788000D02*
X116967000Y-87376000D01*
X128651000Y-82423000D02*
X128651000Y-77724000D01*
%TO.N,Net-(R22-Pad1)*%
X139573000Y-81025995D02*
X141731995Y-78867000D01*
X139573000Y-84328000D02*
X139573000Y-81025995D01*
X139605000Y-84328000D02*
X139573000Y-84328000D01*
X142399000Y-87122000D02*
X139605000Y-84328000D01*
D23*
%TO.N,Net-(R26-Pad2)*%
X149860000Y-87122000D02*
X149892000Y-87122000D01*
X142621000Y-91313000D02*
X145669000Y-91313000D01*
X145669000Y-91313000D02*
X149860000Y-87122000D01*
X140081000Y-76327000D02*
X137414000Y-78994000D01*
X137414000Y-78994000D02*
X137414000Y-86106000D01*
X137414000Y-86106000D02*
X142621000Y-91313000D01*
X141731995Y-76327000D02*
X140081000Y-76327000D01*
%TO.N,Net-(J1-Pad2)*%
X153924000Y-76835000D02*
X151892000Y-78867000D01*
X128651000Y-65151000D02*
X153924000Y-65151000D01*
X128651000Y-77724000D02*
X128651000Y-65151000D01*
X153924000Y-65151000D02*
X153924000Y-76835000D01*
X151892000Y-87122000D02*
X151892000Y-78867000D01*
X151892000Y-78867000D02*
X149671995Y-78867000D01*
%TO.N,Net-(R26-Pad2)*%
X138302995Y-72898000D02*
X133826000Y-72898000D01*
X141731995Y-76327000D02*
X138302995Y-72898000D01*
%TO.N,Net-(C5-Pad2)*%
X133774000Y-79672000D02*
X133731000Y-79629000D01*
X133774000Y-85344000D02*
X133774000Y-79672000D01*
X133858000Y-85428000D02*
X133774000Y-85344000D01*
X133858000Y-88900000D02*
X133858000Y-85428000D01*
X127127000Y-88900000D02*
X133858000Y-88900000D01*
X127000000Y-93853000D02*
X127000000Y-89027000D01*
X127000000Y-89027000D02*
X127127000Y-88900000D01*
X127000000Y-93853000D02*
X126111000Y-93853000D01*
X129126000Y-93853000D02*
X127000000Y-93853000D01*
X126111000Y-93853000D02*
X122174000Y-89916000D01*
%TO.N,Net-(C2-Pad2)*%
X120142000Y-89948000D02*
X120174000Y-89916000D01*
X120142000Y-93091000D02*
X120142000Y-89948000D01*
X120523000Y-93472000D02*
X120142000Y-93091000D01*
X120523000Y-96520000D02*
X120523000Y-93472000D01*
X120523000Y-90265000D02*
X120174000Y-89916000D01*
X114173000Y-96520000D02*
X120523000Y-96520000D01*
%TO.N,Net-(R11-Pad2)*%
X112141000Y-96488000D02*
X112173000Y-96520000D01*
X112141000Y-94869000D02*
X112141000Y-96488000D01*
X106172000Y-88900000D02*
X106172000Y-89535000D01*
X106172000Y-89535000D02*
X103583000Y-89535000D01*
X106172000Y-88265000D02*
X106172000Y-88900000D01*
X103583000Y-88265000D02*
X106172000Y-88265000D01*
%TO.N,Net-(U4-Pad10)*%
X114427000Y-87122000D02*
X114427000Y-81788000D01*
X103808000Y-97741000D02*
X114427000Y-87122000D01*
X94283000Y-90805000D02*
X94283000Y-97741000D01*
X94283000Y-97741000D02*
X103808000Y-97741000D01*
%TO.N,Net-(R1-Pad1)*%
X113173000Y-74041000D02*
X114244500Y-72969500D01*
X104902000Y-72009000D02*
X104902000Y-74041000D01*
X104902000Y-74041000D02*
X113173000Y-74041000D01*
%TO.N,Net-(R2-Pad1)*%
X117253000Y-74930000D02*
X117380000Y-74803000D01*
X102362000Y-74930000D02*
X117253000Y-74930000D01*
X102362000Y-72009000D02*
X102362000Y-74930000D01*
%TO.N,Net-(U4-Pad1)*%
X104902000Y-64389000D02*
X104902000Y-61468000D01*
X104902000Y-61468000D02*
X87630000Y-61468000D01*
X87630000Y-61468000D02*
X87630000Y-79375000D01*
X87630000Y-79375000D02*
X94283000Y-79375000D01*
%TO.N,Net-(R5-Pad1)*%
X97917000Y-72009000D02*
X93980000Y-68072000D01*
X99822000Y-72009000D02*
X97917000Y-72009000D01*
%TO.N,Net-(R5-Pad2)*%
X95663000Y-64389000D02*
X93980000Y-66072000D01*
X99822000Y-64389000D02*
X95663000Y-64389000D01*
%TD*%
%TA.AperFunction,Conductor*%
%TO.N,GND*%
G36*
X154814768Y-60959245D02*
G01*
X154882765Y-60979657D01*
X154928934Y-61033592D01*
X154940007Y-61085236D01*
X154941073Y-79482080D01*
X154942263Y-100009395D01*
X154942421Y-102743998D01*
X154922423Y-102812120D01*
X154868770Y-102858616D01*
X154816421Y-102870005D01*
X122555305Y-102870002D01*
X90296000Y-102870000D01*
X90227879Y-102849998D01*
X90181386Y-102796342D01*
X90170000Y-102744000D01*
X90170000Y-100330000D01*
X90164495Y-99849059D01*
X128574302Y-99849059D01*
X128584184Y-99861548D01*
X128607009Y-99876799D01*
X128617123Y-99882291D01*
X128787697Y-99955576D01*
X128798640Y-99959131D01*
X128979708Y-100000103D01*
X128991118Y-100001605D01*
X129176629Y-100008893D01*
X129188111Y-100008291D01*
X129371846Y-99981652D01*
X129383029Y-99978967D01*
X129558826Y-99919292D01*
X129569339Y-99914611D01*
X129668313Y-99859182D01*
X129678178Y-99849104D01*
X129675222Y-99841432D01*
X129138812Y-99305022D01*
X129124868Y-99297408D01*
X129123035Y-99297539D01*
X129116420Y-99301790D01*
X128580498Y-99837712D01*
X128574302Y-99849059D01*
X90164495Y-99849059D01*
X90153754Y-98910558D01*
X128049150Y-98910558D01*
X128061292Y-99095805D01*
X128063093Y-99107175D01*
X128108789Y-99287107D01*
X128112631Y-99297956D01*
X128190358Y-99466557D01*
X128196105Y-99476511D01*
X128196902Y-99477640D01*
X128207490Y-99486027D01*
X128220791Y-99478999D01*
X128753978Y-98945812D01*
X128760356Y-98934132D01*
X129490408Y-98934132D01*
X129490539Y-98935965D01*
X129494790Y-98942580D01*
X130030518Y-99478308D01*
X130042898Y-99485068D01*
X130049478Y-99480142D01*
X130107611Y-99376339D01*
X130112292Y-99365826D01*
X130171967Y-99190029D01*
X130174652Y-99178846D01*
X130201587Y-98993071D01*
X130202217Y-98985689D01*
X130203500Y-98936704D01*
X130203257Y-98929305D01*
X130201004Y-98904779D01*
X135988270Y-98904779D01*
X136001174Y-99101652D01*
X136049739Y-99292877D01*
X136132339Y-99472049D01*
X136246207Y-99633169D01*
X136387530Y-99770840D01*
X136392326Y-99774045D01*
X136392329Y-99774047D01*
X136457809Y-99817799D01*
X136551576Y-99880452D01*
X136556879Y-99882730D01*
X136556882Y-99882732D01*
X136726432Y-99955576D01*
X136732849Y-99958333D01*
X136824038Y-99978967D01*
X136919644Y-100000601D01*
X136919647Y-100000601D01*
X136925280Y-100001876D01*
X136931051Y-100002103D01*
X136931053Y-100002103D01*
X136990054Y-100004421D01*
X137122423Y-100009622D01*
X137237789Y-99992894D01*
X137311955Y-99982141D01*
X137311959Y-99982140D01*
X137317677Y-99981311D01*
X137323149Y-99979453D01*
X137323151Y-99979453D01*
X137499038Y-99919747D01*
X137499040Y-99919746D01*
X137504502Y-99917892D01*
X137627333Y-99849104D01*
X137671605Y-99824311D01*
X137671606Y-99824310D01*
X137676642Y-99821490D01*
X137828331Y-99695331D01*
X137954490Y-99543642D01*
X138050892Y-99371502D01*
X138079541Y-99287107D01*
X138112453Y-99190151D01*
X138112453Y-99190149D01*
X138114311Y-99184677D01*
X138115157Y-99178846D01*
X138142089Y-98993096D01*
X138142622Y-98989423D01*
X138144099Y-98933000D01*
X138126046Y-98736532D01*
X138119887Y-98714692D01*
X138074060Y-98552203D01*
X138074059Y-98552201D01*
X138072492Y-98546644D01*
X138062381Y-98526139D01*
X137987786Y-98374876D01*
X137985231Y-98369695D01*
X137967407Y-98345825D01*
X137870637Y-98216235D01*
X137870636Y-98216234D01*
X137867184Y-98211611D01*
X137844764Y-98190886D01*
X137726546Y-98081607D01*
X137726544Y-98081605D01*
X137722305Y-98077687D01*
X137555447Y-97972407D01*
X137372197Y-97899297D01*
X137366529Y-97898170D01*
X137366527Y-97898169D01*
X137184360Y-97861934D01*
X137184356Y-97861934D01*
X137178692Y-97860807D01*
X137172917Y-97860731D01*
X137172913Y-97860731D01*
X137074267Y-97859440D01*
X136981413Y-97858224D01*
X136975716Y-97859203D01*
X136975715Y-97859203D01*
X136792664Y-97890657D01*
X136786967Y-97891636D01*
X136601866Y-97959924D01*
X136596905Y-97962876D01*
X136596904Y-97962876D01*
X136437277Y-98057844D01*
X136437274Y-98057846D01*
X136432309Y-98060800D01*
X136427969Y-98064606D01*
X136427965Y-98064609D01*
X136305060Y-98172395D01*
X136283975Y-98190886D01*
X136280399Y-98195422D01*
X136271688Y-98206472D01*
X136161830Y-98345825D01*
X136159141Y-98350936D01*
X136159139Y-98350939D01*
X136112732Y-98439144D01*
X136069966Y-98520429D01*
X136011460Y-98708851D01*
X135988270Y-98904779D01*
X130201004Y-98904779D01*
X130186082Y-98742378D01*
X130183985Y-98731064D01*
X130133591Y-98552383D01*
X130129469Y-98541644D01*
X130053954Y-98388515D01*
X130044407Y-98378138D01*
X130037974Y-98380236D01*
X129498022Y-98920188D01*
X129490408Y-98934132D01*
X128760356Y-98934132D01*
X128761592Y-98931868D01*
X128761461Y-98930035D01*
X128757210Y-98923420D01*
X128220459Y-98386669D01*
X128208079Y-98379909D01*
X128202113Y-98384375D01*
X128133122Y-98515505D01*
X128128717Y-98526139D01*
X128073664Y-98703438D01*
X128071272Y-98714692D01*
X128049451Y-98899057D01*
X128049150Y-98910558D01*
X90153754Y-98910558D01*
X90093242Y-93623334D01*
X90034959Y-88530871D01*
X92756456Y-88530871D01*
X92797107Y-88670790D01*
X92803352Y-88685221D01*
X92879912Y-88814678D01*
X92886189Y-88822770D01*
X92912139Y-88888854D01*
X92898241Y-88958477D01*
X92886189Y-88977230D01*
X92879912Y-88985322D01*
X92803352Y-89114779D01*
X92797107Y-89129210D01*
X92758061Y-89263605D01*
X92758101Y-89277706D01*
X92765370Y-89281000D01*
X94010885Y-89281000D01*
X94026124Y-89276525D01*
X94027329Y-89275135D01*
X94029000Y-89267452D01*
X94029000Y-89262885D01*
X94537000Y-89262885D01*
X94541475Y-89278124D01*
X94542865Y-89279329D01*
X94550548Y-89281000D01*
X95794878Y-89281000D01*
X95808409Y-89277027D01*
X95809544Y-89269129D01*
X95768893Y-89129210D01*
X95762648Y-89114779D01*
X95686088Y-88985322D01*
X95679811Y-88977230D01*
X95653861Y-88911146D01*
X95667759Y-88841523D01*
X95679811Y-88822770D01*
X95686088Y-88814678D01*
X95762648Y-88685221D01*
X95768893Y-88670790D01*
X95807939Y-88536395D01*
X95807899Y-88522294D01*
X95800630Y-88519000D01*
X94555115Y-88519000D01*
X94539876Y-88523475D01*
X94538671Y-88524865D01*
X94537000Y-88532548D01*
X94537000Y-89262885D01*
X94029000Y-89262885D01*
X94029000Y-88537115D01*
X94024525Y-88521876D01*
X94023135Y-88520671D01*
X94015452Y-88519000D01*
X92771122Y-88519000D01*
X92757591Y-88522973D01*
X92756456Y-88530871D01*
X90034959Y-88530871D01*
X89938880Y-80135942D01*
X89958101Y-80067597D01*
X90011221Y-80020493D01*
X90064872Y-80008500D01*
X92709776Y-80008500D01*
X92777897Y-80028502D01*
X92824390Y-80082158D01*
X92834494Y-80152432D01*
X92818231Y-80198636D01*
X92798855Y-80231399D01*
X92796644Y-80239010D01*
X92796643Y-80239012D01*
X92793863Y-80248581D01*
X92752438Y-80391169D01*
X92751934Y-80397574D01*
X92751933Y-80397579D01*
X92749693Y-80426042D01*
X92749500Y-80428498D01*
X92749500Y-80861502D01*
X92749693Y-80863950D01*
X92749693Y-80863958D01*
X92751756Y-80890163D01*
X92752438Y-80898831D01*
X92776861Y-80982895D01*
X92789443Y-81026203D01*
X92798855Y-81058601D01*
X92883547Y-81201807D01*
X92886229Y-81204489D01*
X92911502Y-81268861D01*
X92897600Y-81338484D01*
X92887428Y-81354312D01*
X92883547Y-81358193D01*
X92798855Y-81501399D01*
X92752438Y-81661169D01*
X92749500Y-81698498D01*
X92749500Y-82131502D01*
X92749693Y-82133950D01*
X92749693Y-82133958D01*
X92751725Y-82159768D01*
X92752438Y-82168831D01*
X92798855Y-82328601D01*
X92883547Y-82471807D01*
X92886229Y-82474489D01*
X92911502Y-82538861D01*
X92897600Y-82608484D01*
X92887428Y-82624312D01*
X92883547Y-82628193D01*
X92798855Y-82771399D01*
X92796644Y-82779010D01*
X92796643Y-82779012D01*
X92794072Y-82787861D01*
X92752438Y-82931169D01*
X92749500Y-82968498D01*
X92749500Y-83401502D01*
X92752438Y-83438831D01*
X92772804Y-83508931D01*
X92796586Y-83590790D01*
X92798855Y-83598601D01*
X92883547Y-83741807D01*
X92886229Y-83744489D01*
X92911502Y-83808861D01*
X92897600Y-83878484D01*
X92887428Y-83894312D01*
X92883547Y-83898193D01*
X92798855Y-84041399D01*
X92752438Y-84201169D01*
X92749500Y-84238498D01*
X92749500Y-84671502D01*
X92752438Y-84708831D01*
X92770656Y-84771537D01*
X92790776Y-84840791D01*
X92798855Y-84868601D01*
X92883547Y-85011807D01*
X92886229Y-85014489D01*
X92911502Y-85078861D01*
X92897600Y-85148484D01*
X92887428Y-85164312D01*
X92883547Y-85168193D01*
X92798855Y-85311399D01*
X92752438Y-85471169D01*
X92749500Y-85508498D01*
X92749500Y-85941502D01*
X92749693Y-85943950D01*
X92749693Y-85943958D01*
X92751602Y-85968206D01*
X92752438Y-85978831D01*
X92766500Y-86027233D01*
X92792277Y-86115958D01*
X92798855Y-86138601D01*
X92883547Y-86281807D01*
X92886229Y-86284489D01*
X92911502Y-86348861D01*
X92897600Y-86418484D01*
X92887428Y-86434312D01*
X92883547Y-86438193D01*
X92798855Y-86581399D01*
X92796644Y-86589010D01*
X92796643Y-86589012D01*
X92789238Y-86614500D01*
X92752438Y-86741169D01*
X92749500Y-86778498D01*
X92749500Y-87211502D01*
X92752438Y-87248831D01*
X92778780Y-87339501D01*
X92796586Y-87400790D01*
X92798855Y-87408601D01*
X92883547Y-87551807D01*
X92886487Y-87554747D01*
X92911820Y-87619266D01*
X92897921Y-87688889D01*
X92885874Y-87707636D01*
X92879910Y-87715324D01*
X92803352Y-87844779D01*
X92797107Y-87859210D01*
X92758061Y-87993605D01*
X92758101Y-88007706D01*
X92765370Y-88011000D01*
X95794878Y-88011000D01*
X95808409Y-88007027D01*
X95809544Y-87999129D01*
X95768893Y-87859210D01*
X95762648Y-87844779D01*
X95686089Y-87715323D01*
X95680129Y-87707640D01*
X95654180Y-87641556D01*
X95668078Y-87571933D01*
X95678421Y-87555839D01*
X95682453Y-87551807D01*
X95767145Y-87408601D01*
X95769415Y-87400790D01*
X95787220Y-87339501D01*
X95813562Y-87248831D01*
X95816500Y-87211502D01*
X95816500Y-86778498D01*
X95813562Y-86741169D01*
X95776762Y-86614500D01*
X95769357Y-86589012D01*
X95769356Y-86589010D01*
X95767145Y-86581399D01*
X95682453Y-86438193D01*
X95679771Y-86435511D01*
X95654498Y-86371139D01*
X95668400Y-86301516D01*
X95678572Y-86285688D01*
X95682453Y-86281807D01*
X95767145Y-86138601D01*
X95773724Y-86115958D01*
X95799500Y-86027233D01*
X95813562Y-85978831D01*
X95814399Y-85968206D01*
X95816307Y-85943958D01*
X95816307Y-85943950D01*
X95816500Y-85941502D01*
X102049500Y-85941502D01*
X102049693Y-85943950D01*
X102049693Y-85943958D01*
X102051602Y-85968206D01*
X102052438Y-85978831D01*
X102066500Y-86027233D01*
X102092277Y-86115958D01*
X102098855Y-86138601D01*
X102183547Y-86281807D01*
X102186487Y-86284747D01*
X102211820Y-86349266D01*
X102197921Y-86418889D01*
X102185874Y-86437636D01*
X102179910Y-86445324D01*
X102103352Y-86574779D01*
X102097107Y-86589210D01*
X102058061Y-86723605D01*
X102058101Y-86737706D01*
X102065370Y-86741000D01*
X105094878Y-86741000D01*
X105108409Y-86737027D01*
X105109544Y-86729129D01*
X105068893Y-86589210D01*
X105062648Y-86574779D01*
X104986089Y-86445323D01*
X104980129Y-86437640D01*
X104954180Y-86371556D01*
X104968078Y-86301933D01*
X104978421Y-86285839D01*
X104982453Y-86281807D01*
X105067145Y-86138601D01*
X105073724Y-86115958D01*
X105099500Y-86027233D01*
X105113562Y-85978831D01*
X105114399Y-85968206D01*
X105116307Y-85943958D01*
X105116307Y-85943950D01*
X105116500Y-85941502D01*
X105116500Y-85508498D01*
X105113562Y-85471169D01*
X105067145Y-85311399D01*
X104982453Y-85168193D01*
X104979771Y-85165511D01*
X104954498Y-85101139D01*
X104968400Y-85031516D01*
X104978572Y-85015688D01*
X104982453Y-85011807D01*
X105067145Y-84868601D01*
X105075225Y-84840791D01*
X105095344Y-84771537D01*
X105113562Y-84708831D01*
X105116500Y-84671502D01*
X105116500Y-84238498D01*
X105113562Y-84201169D01*
X105067145Y-84041399D01*
X104982453Y-83898193D01*
X104979513Y-83895253D01*
X104954180Y-83830734D01*
X104968079Y-83761111D01*
X104980126Y-83742364D01*
X104986090Y-83734676D01*
X105062648Y-83605221D01*
X105068893Y-83590790D01*
X105107939Y-83456395D01*
X105107899Y-83442294D01*
X105100630Y-83439000D01*
X102071122Y-83439000D01*
X102057591Y-83442973D01*
X102056456Y-83450871D01*
X102097107Y-83590790D01*
X102103352Y-83605221D01*
X102179911Y-83734677D01*
X102185871Y-83742360D01*
X102211820Y-83808444D01*
X102197922Y-83878067D01*
X102187579Y-83894161D01*
X102183547Y-83898193D01*
X102098855Y-84041399D01*
X102052438Y-84201169D01*
X102049500Y-84238498D01*
X102049500Y-84671502D01*
X102052438Y-84708831D01*
X102070656Y-84771537D01*
X102090776Y-84840791D01*
X102098855Y-84868601D01*
X102183547Y-85011807D01*
X102186229Y-85014489D01*
X102211502Y-85078861D01*
X102197600Y-85148484D01*
X102187428Y-85164312D01*
X102183547Y-85168193D01*
X102098855Y-85311399D01*
X102052438Y-85471169D01*
X102049500Y-85508498D01*
X102049500Y-85941502D01*
X95816500Y-85941502D01*
X95816500Y-85508498D01*
X95813562Y-85471169D01*
X95767145Y-85311399D01*
X95682453Y-85168193D01*
X95679771Y-85165511D01*
X95654498Y-85101139D01*
X95668400Y-85031516D01*
X95678572Y-85015688D01*
X95682453Y-85011807D01*
X95767145Y-84868601D01*
X95775225Y-84840791D01*
X95795344Y-84771537D01*
X95813562Y-84708831D01*
X95816500Y-84671502D01*
X95816500Y-84238498D01*
X95813562Y-84201169D01*
X95767145Y-84041399D01*
X95682453Y-83898193D01*
X95679771Y-83895511D01*
X95654498Y-83831139D01*
X95668400Y-83761516D01*
X95678572Y-83745688D01*
X95682453Y-83741807D01*
X95767145Y-83598601D01*
X95769415Y-83590790D01*
X95793196Y-83508931D01*
X95813562Y-83438831D01*
X95816500Y-83401502D01*
X95816500Y-82968498D01*
X95813562Y-82931169D01*
X95771928Y-82787861D01*
X95769357Y-82779012D01*
X95769356Y-82779010D01*
X95767145Y-82771399D01*
X95682453Y-82628193D01*
X95679771Y-82625511D01*
X95654498Y-82561139D01*
X95668400Y-82491516D01*
X95678572Y-82475688D01*
X95682453Y-82471807D01*
X95767145Y-82328601D01*
X95813562Y-82168831D01*
X95814276Y-82159768D01*
X95816307Y-82133958D01*
X95816307Y-82133950D01*
X95816500Y-82131502D01*
X102049500Y-82131502D01*
X102049693Y-82133950D01*
X102049693Y-82133958D01*
X102051725Y-82159768D01*
X102052438Y-82168831D01*
X102098855Y-82328601D01*
X102183547Y-82471807D01*
X102186487Y-82474747D01*
X102211820Y-82539266D01*
X102197921Y-82608889D01*
X102185874Y-82627636D01*
X102179910Y-82635324D01*
X102103352Y-82764779D01*
X102097107Y-82779210D01*
X102058061Y-82913605D01*
X102058101Y-82927706D01*
X102065370Y-82931000D01*
X105094878Y-82931000D01*
X105108409Y-82927027D01*
X105109544Y-82919129D01*
X105068893Y-82779210D01*
X105062648Y-82764779D01*
X104986089Y-82635323D01*
X104980129Y-82627640D01*
X104954180Y-82561556D01*
X104968078Y-82491933D01*
X104978421Y-82475839D01*
X104982453Y-82471807D01*
X105067145Y-82328601D01*
X105113562Y-82168831D01*
X105114276Y-82159768D01*
X105116307Y-82133958D01*
X105116307Y-82133950D01*
X105116500Y-82131502D01*
X105116500Y-81698498D01*
X105113562Y-81661169D01*
X105067145Y-81501399D01*
X104982453Y-81358193D01*
X104979771Y-81355511D01*
X104954498Y-81291139D01*
X104968400Y-81221516D01*
X104978572Y-81205688D01*
X104982453Y-81201807D01*
X105067145Y-81058601D01*
X105076558Y-81026203D01*
X105089139Y-80982895D01*
X105113562Y-80898831D01*
X105114245Y-80890163D01*
X105116307Y-80863958D01*
X105116307Y-80863950D01*
X105116500Y-80861502D01*
X105116500Y-80428498D01*
X105116307Y-80426042D01*
X105114067Y-80397579D01*
X105114066Y-80397574D01*
X105113562Y-80391169D01*
X105072137Y-80248581D01*
X105069357Y-80239012D01*
X105069356Y-80239010D01*
X105067145Y-80231399D01*
X104982453Y-80088193D01*
X104979771Y-80085511D01*
X104954498Y-80021139D01*
X104968400Y-79951516D01*
X104978572Y-79935688D01*
X104982453Y-79931807D01*
X105067145Y-79788601D01*
X105113562Y-79628831D01*
X105116500Y-79591502D01*
X105116500Y-79158498D01*
X105114404Y-79131866D01*
X105114067Y-79127579D01*
X105114066Y-79127574D01*
X105113562Y-79121169D01*
X105073082Y-78981835D01*
X105069357Y-78969012D01*
X105069356Y-78969010D01*
X105067145Y-78961399D01*
X105042493Y-78919715D01*
X104986491Y-78825020D01*
X104986489Y-78825017D01*
X104982453Y-78818193D01*
X104864807Y-78700547D01*
X104857983Y-78696511D01*
X104857980Y-78696509D01*
X104728427Y-78619892D01*
X104728428Y-78619892D01*
X104721601Y-78615855D01*
X104713990Y-78613644D01*
X104713988Y-78613643D01*
X104661769Y-78598472D01*
X104561831Y-78569438D01*
X104555426Y-78568934D01*
X104555421Y-78568933D01*
X104526958Y-78566693D01*
X104526950Y-78566693D01*
X104524502Y-78566500D01*
X102641498Y-78566500D01*
X102639050Y-78566693D01*
X102639042Y-78566693D01*
X102610579Y-78568933D01*
X102610574Y-78568934D01*
X102604169Y-78569438D01*
X102504231Y-78598472D01*
X102452012Y-78613643D01*
X102452010Y-78613644D01*
X102444399Y-78615855D01*
X102437572Y-78619892D01*
X102437573Y-78619892D01*
X102308020Y-78696509D01*
X102308017Y-78696511D01*
X102301193Y-78700547D01*
X102183547Y-78818193D01*
X102179511Y-78825017D01*
X102179509Y-78825020D01*
X102123507Y-78919715D01*
X102098855Y-78961399D01*
X102096644Y-78969010D01*
X102096643Y-78969012D01*
X102092918Y-78981835D01*
X102052438Y-79121169D01*
X102051934Y-79127574D01*
X102051933Y-79127579D01*
X102051596Y-79131866D01*
X102049500Y-79158498D01*
X102049500Y-79591502D01*
X102052438Y-79628831D01*
X102098855Y-79788601D01*
X102183547Y-79931807D01*
X102186229Y-79934489D01*
X102211502Y-79998861D01*
X102197600Y-80068484D01*
X102187428Y-80084312D01*
X102183547Y-80088193D01*
X102098855Y-80231399D01*
X102096644Y-80239010D01*
X102096643Y-80239012D01*
X102093863Y-80248581D01*
X102052438Y-80391169D01*
X102051934Y-80397574D01*
X102051933Y-80397579D01*
X102049693Y-80426042D01*
X102049500Y-80428498D01*
X102049500Y-80861502D01*
X102049693Y-80863950D01*
X102049693Y-80863958D01*
X102051756Y-80890163D01*
X102052438Y-80898831D01*
X102076861Y-80982895D01*
X102089443Y-81026203D01*
X102098855Y-81058601D01*
X102183547Y-81201807D01*
X102186229Y-81204489D01*
X102211502Y-81268861D01*
X102197600Y-81338484D01*
X102187428Y-81354312D01*
X102183547Y-81358193D01*
X102098855Y-81501399D01*
X102052438Y-81661169D01*
X102049500Y-81698498D01*
X102049500Y-82131502D01*
X95816500Y-82131502D01*
X95816500Y-81698498D01*
X95813562Y-81661169D01*
X95767145Y-81501399D01*
X95682453Y-81358193D01*
X95679771Y-81355511D01*
X95654498Y-81291139D01*
X95668400Y-81221516D01*
X95678572Y-81205688D01*
X95682453Y-81201807D01*
X95767145Y-81058601D01*
X95776558Y-81026203D01*
X95789139Y-80982895D01*
X95813562Y-80898831D01*
X95814245Y-80890163D01*
X95816307Y-80863958D01*
X95816307Y-80863950D01*
X95816500Y-80861502D01*
X95816500Y-80428498D01*
X95816307Y-80426042D01*
X95814067Y-80397579D01*
X95814066Y-80397574D01*
X95813562Y-80391169D01*
X95772137Y-80248581D01*
X95769357Y-80239012D01*
X95769356Y-80239010D01*
X95767145Y-80231399D01*
X95682453Y-80088193D01*
X95679771Y-80085511D01*
X95654498Y-80021139D01*
X95668400Y-79951516D01*
X95678572Y-79935688D01*
X95682453Y-79931807D01*
X95767145Y-79788601D01*
X95813562Y-79628831D01*
X95816500Y-79591502D01*
X95816500Y-79158498D01*
X95814404Y-79131866D01*
X95814067Y-79127579D01*
X95814066Y-79127574D01*
X95813562Y-79121169D01*
X95773082Y-78981835D01*
X95769357Y-78969012D01*
X95769356Y-78969010D01*
X95767145Y-78961399D01*
X95742493Y-78919715D01*
X95686491Y-78825020D01*
X95686489Y-78825017D01*
X95682453Y-78818193D01*
X95564807Y-78700547D01*
X95557983Y-78696511D01*
X95557980Y-78696509D01*
X95428427Y-78619892D01*
X95428428Y-78619892D01*
X95421601Y-78615855D01*
X95413990Y-78613644D01*
X95413988Y-78613643D01*
X95361769Y-78598472D01*
X95261831Y-78569438D01*
X95255426Y-78568934D01*
X95255421Y-78568933D01*
X95226958Y-78566693D01*
X95226950Y-78566693D01*
X95224502Y-78566500D01*
X93341498Y-78566500D01*
X93339050Y-78566693D01*
X93339042Y-78566693D01*
X93310579Y-78568933D01*
X93310574Y-78568934D01*
X93304169Y-78569438D01*
X93204231Y-78598472D01*
X93152012Y-78613643D01*
X93152010Y-78613644D01*
X93144399Y-78615855D01*
X93137572Y-78619892D01*
X93137573Y-78619892D01*
X93008020Y-78696509D01*
X93008017Y-78696511D01*
X93001193Y-78700547D01*
X92995585Y-78706155D01*
X92989325Y-78711011D01*
X92988156Y-78709504D01*
X92934833Y-78738621D01*
X92908050Y-78741500D01*
X90047486Y-78741500D01*
X89979365Y-78721498D01*
X89932872Y-78667842D01*
X89921494Y-78616942D01*
X89921457Y-78613643D01*
X89807650Y-68669854D01*
X89733934Y-62228942D01*
X89753155Y-62160597D01*
X89806275Y-62113493D01*
X89859926Y-62101500D01*
X104142500Y-62101500D01*
X104210621Y-62121502D01*
X104257114Y-62175158D01*
X104268500Y-62227500D01*
X104268500Y-62674287D01*
X104248498Y-62742408D01*
X104216671Y-62776106D01*
X104211994Y-62778888D01*
X104207660Y-62782689D01*
X104207657Y-62782691D01*
X104186104Y-62801593D01*
X104050477Y-62920535D01*
X104046902Y-62925070D01*
X104046901Y-62925071D01*
X104013720Y-62967162D01*
X103917478Y-63089244D01*
X103914789Y-63094355D01*
X103914787Y-63094358D01*
X103863979Y-63190928D01*
X103817450Y-63279365D01*
X103753745Y-63484531D01*
X103753638Y-63485437D01*
X103720661Y-63546521D01*
X103658512Y-63580843D01*
X103587673Y-63576117D01*
X103530635Y-63533842D01*
X103509872Y-63492054D01*
X103506194Y-63479014D01*
X103457938Y-63307909D01*
X103362921Y-63115235D01*
X103234384Y-62943102D01*
X103230148Y-62939186D01*
X103080870Y-62801195D01*
X103080867Y-62801193D01*
X103076630Y-62797276D01*
X102894943Y-62682640D01*
X102695408Y-62603034D01*
X102689748Y-62601908D01*
X102689744Y-62601907D01*
X102490374Y-62562250D01*
X102490371Y-62562250D01*
X102484707Y-62561123D01*
X102478932Y-62561047D01*
X102478928Y-62561047D01*
X102371255Y-62559638D01*
X102269896Y-62558311D01*
X102264199Y-62559290D01*
X102264198Y-62559290D01*
X102071305Y-62592435D01*
X102058170Y-62594692D01*
X101856620Y-62669048D01*
X101671994Y-62778888D01*
X101667658Y-62782691D01*
X101667650Y-62782697D01*
X101514818Y-62916728D01*
X101510477Y-62920535D01*
X101506902Y-62925070D01*
X101506901Y-62925071D01*
X101473720Y-62967162D01*
X101377478Y-63089244D01*
X101374789Y-63094355D01*
X101374787Y-63094358D01*
X101323979Y-63190928D01*
X101277450Y-63279365D01*
X101213745Y-63484531D01*
X101213638Y-63485437D01*
X101180661Y-63546521D01*
X101118512Y-63580843D01*
X101047673Y-63576117D01*
X100990635Y-63533842D01*
X100969872Y-63492054D01*
X100966194Y-63479014D01*
X100917938Y-63307909D01*
X100822921Y-63115235D01*
X100694384Y-62943102D01*
X100690148Y-62939186D01*
X100540870Y-62801195D01*
X100540867Y-62801193D01*
X100536630Y-62797276D01*
X100354943Y-62682640D01*
X100155408Y-62603034D01*
X100149748Y-62601908D01*
X100149744Y-62601907D01*
X99950374Y-62562250D01*
X99950371Y-62562250D01*
X99944707Y-62561123D01*
X99938932Y-62561047D01*
X99938928Y-62561047D01*
X99831255Y-62559638D01*
X99729896Y-62558311D01*
X99724199Y-62559290D01*
X99724198Y-62559290D01*
X99531305Y-62592435D01*
X99518170Y-62594692D01*
X99316620Y-62669048D01*
X99131994Y-62778888D01*
X99127658Y-62782691D01*
X99127650Y-62782697D01*
X98974818Y-62916728D01*
X98970477Y-62920535D01*
X98966902Y-62925070D01*
X98966901Y-62925071D01*
X98933720Y-62967162D01*
X98837478Y-63089244D01*
X98834789Y-63094355D01*
X98834787Y-63094358D01*
X98783979Y-63190928D01*
X98737450Y-63279365D01*
X98673745Y-63484531D01*
X98662346Y-63580843D01*
X98654834Y-63644310D01*
X98626964Y-63709607D01*
X98568215Y-63749471D01*
X98529707Y-63755500D01*
X95741763Y-63755500D01*
X95730579Y-63754973D01*
X95723091Y-63753299D01*
X95715168Y-63753548D01*
X95655033Y-63755438D01*
X95651075Y-63755500D01*
X95623144Y-63755500D01*
X95619229Y-63755995D01*
X95619225Y-63755995D01*
X95619167Y-63756003D01*
X95619138Y-63756006D01*
X95607296Y-63756939D01*
X95563110Y-63758327D01*
X95545744Y-63763372D01*
X95543658Y-63763978D01*
X95524306Y-63767986D01*
X95512068Y-63769532D01*
X95512066Y-63769533D01*
X95504203Y-63770526D01*
X95463086Y-63786806D01*
X95451885Y-63790641D01*
X95409406Y-63802982D01*
X95402587Y-63807015D01*
X95402582Y-63807017D01*
X95391971Y-63813293D01*
X95374221Y-63821990D01*
X95355383Y-63829448D01*
X95348967Y-63834109D01*
X95348966Y-63834110D01*
X95319625Y-63855428D01*
X95309701Y-63861947D01*
X95278460Y-63880422D01*
X95278455Y-63880426D01*
X95271637Y-63884458D01*
X95257313Y-63898782D01*
X95242281Y-63911621D01*
X95225893Y-63923528D01*
X95197712Y-63957593D01*
X95189722Y-63966373D01*
X94229500Y-64926595D01*
X94167188Y-64960621D01*
X94140405Y-64963500D01*
X93479600Y-64963500D01*
X93476354Y-64963837D01*
X93476350Y-64963837D01*
X93380692Y-64973762D01*
X93380688Y-64973763D01*
X93373834Y-64974474D01*
X93367298Y-64976655D01*
X93367296Y-64976655D01*
X93296217Y-65000369D01*
X93206054Y-65030450D01*
X93055652Y-65123522D01*
X92930695Y-65248697D01*
X92926855Y-65254927D01*
X92926854Y-65254928D01*
X92908382Y-65284896D01*
X92837885Y-65399262D01*
X92782203Y-65567139D01*
X92771500Y-65671600D01*
X92771500Y-66472400D01*
X92782474Y-66578166D01*
X92838450Y-66745946D01*
X92931522Y-66896348D01*
X92936704Y-66901521D01*
X93018109Y-66982784D01*
X93052188Y-67045066D01*
X93047185Y-67115886D01*
X93018264Y-67160975D01*
X92942940Y-67236431D01*
X92930695Y-67248697D01*
X92837885Y-67399262D01*
X92782203Y-67567139D01*
X92771500Y-67671600D01*
X92771500Y-68472400D01*
X92771837Y-68475646D01*
X92771837Y-68475650D01*
X92777800Y-68533116D01*
X92782474Y-68578166D01*
X92838450Y-68745946D01*
X92931522Y-68896348D01*
X93056697Y-69021305D01*
X93207262Y-69114115D01*
X93287005Y-69140564D01*
X93368611Y-69167632D01*
X93368613Y-69167632D01*
X93375139Y-69169797D01*
X93381975Y-69170497D01*
X93381978Y-69170498D01*
X93425031Y-69174909D01*
X93479600Y-69180500D01*
X94140406Y-69180500D01*
X94208527Y-69200502D01*
X94229501Y-69217405D01*
X97413348Y-72401253D01*
X97420888Y-72409539D01*
X97425000Y-72416018D01*
X97430777Y-72421443D01*
X97474651Y-72462643D01*
X97477493Y-72465398D01*
X97497230Y-72485135D01*
X97500427Y-72487615D01*
X97509447Y-72495318D01*
X97541679Y-72525586D01*
X97548625Y-72529405D01*
X97548628Y-72529407D01*
X97559434Y-72535348D01*
X97575953Y-72546199D01*
X97591959Y-72558614D01*
X97599228Y-72561759D01*
X97599232Y-72561762D01*
X97632537Y-72576174D01*
X97643187Y-72581391D01*
X97681940Y-72602695D01*
X97689615Y-72604666D01*
X97689616Y-72604666D01*
X97701562Y-72607733D01*
X97720267Y-72614137D01*
X97738855Y-72622181D01*
X97746678Y-72623420D01*
X97746688Y-72623423D01*
X97782524Y-72629099D01*
X97794144Y-72631505D01*
X97829289Y-72640528D01*
X97836970Y-72642500D01*
X97857224Y-72642500D01*
X97876934Y-72644051D01*
X97896943Y-72647220D01*
X97904835Y-72646474D01*
X97940961Y-72643059D01*
X97952819Y-72642500D01*
X98530668Y-72642500D01*
X98598789Y-72662502D01*
X98645282Y-72716158D01*
X98656138Y-72756969D01*
X98667749Y-72883328D01*
X98669318Y-72888890D01*
X98669318Y-72888892D01*
X98676386Y-72913953D01*
X98726062Y-73090091D01*
X98728615Y-73095268D01*
X98728617Y-73095273D01*
X98791949Y-73223695D01*
X98821079Y-73282765D01*
X98949616Y-73454898D01*
X98953850Y-73458812D01*
X98953852Y-73458814D01*
X99102987Y-73596672D01*
X99107370Y-73600724D01*
X99289057Y-73715360D01*
X99488592Y-73794966D01*
X99494252Y-73796092D01*
X99494256Y-73796093D01*
X99693626Y-73835750D01*
X99693629Y-73835750D01*
X99699293Y-73836877D01*
X99705068Y-73836953D01*
X99705072Y-73836953D01*
X99812745Y-73838362D01*
X99914104Y-73839689D01*
X99919801Y-73838710D01*
X99919802Y-73838710D01*
X100120133Y-73804287D01*
X100120134Y-73804287D01*
X100125830Y-73803308D01*
X100327380Y-73728952D01*
X100512006Y-73619112D01*
X100516346Y-73615306D01*
X100516350Y-73615303D01*
X100669182Y-73481272D01*
X100673523Y-73477465D01*
X100806522Y-73308756D01*
X100822922Y-73277586D01*
X100879465Y-73170115D01*
X100906550Y-73118635D01*
X100970255Y-72913469D01*
X100970362Y-72912563D01*
X101003339Y-72851479D01*
X101065488Y-72817157D01*
X101136327Y-72821883D01*
X101193365Y-72864158D01*
X101214128Y-72905946D01*
X101266062Y-73090091D01*
X101268615Y-73095268D01*
X101268617Y-73095273D01*
X101331949Y-73223695D01*
X101361079Y-73282765D01*
X101489616Y-73454898D01*
X101493850Y-73458812D01*
X101493852Y-73458814D01*
X101642987Y-73596672D01*
X101647370Y-73600724D01*
X101652251Y-73603804D01*
X101652254Y-73603806D01*
X101669735Y-73614835D01*
X101716673Y-73668101D01*
X101728500Y-73721397D01*
X101728500Y-74858207D01*
X101726268Y-74881816D01*
X101724725Y-74889906D01*
X101725223Y-74897817D01*
X101728251Y-74945951D01*
X101728500Y-74953862D01*
X101728500Y-74969856D01*
X101730506Y-74985730D01*
X101731248Y-74993590D01*
X101734775Y-75049650D01*
X101737225Y-75057191D01*
X101737321Y-75057487D01*
X101742494Y-75080631D01*
X101742532Y-75080935D01*
X101742533Y-75080940D01*
X101743526Y-75088797D01*
X101746442Y-75096162D01*
X101746443Y-75096166D01*
X101764199Y-75141011D01*
X101766871Y-75148430D01*
X101784236Y-75201875D01*
X101788486Y-75208571D01*
X101788486Y-75208572D01*
X101788650Y-75208831D01*
X101799415Y-75229958D01*
X101799529Y-75230246D01*
X101799532Y-75230251D01*
X101802448Y-75237617D01*
X101807104Y-75244025D01*
X101807107Y-75244031D01*
X101835458Y-75283052D01*
X101839901Y-75289589D01*
X101870000Y-75337018D01*
X101875778Y-75342444D01*
X101875779Y-75342445D01*
X101876007Y-75342659D01*
X101891688Y-75360446D01*
X101896528Y-75367107D01*
X101902637Y-75372161D01*
X101902638Y-75372162D01*
X101939796Y-75402903D01*
X101945730Y-75408134D01*
X101980898Y-75441158D01*
X101980901Y-75441160D01*
X101986679Y-75446586D01*
X101993903Y-75450558D01*
X102013506Y-75463881D01*
X102013746Y-75464080D01*
X102013753Y-75464084D01*
X102019856Y-75469133D01*
X102059400Y-75487741D01*
X102070676Y-75493047D01*
X102077708Y-75496629D01*
X102126940Y-75523695D01*
X102134615Y-75525665D01*
X102134621Y-75525668D01*
X102134919Y-75525744D01*
X102157228Y-75533776D01*
X102157503Y-75533906D01*
X102157511Y-75533909D01*
X102164682Y-75537283D01*
X102219849Y-75547806D01*
X102227558Y-75549529D01*
X102252133Y-75555839D01*
X102274293Y-75561529D01*
X102274294Y-75561529D01*
X102281970Y-75563500D01*
X102290207Y-75563500D01*
X102313816Y-75565732D01*
X102314119Y-75565790D01*
X102314123Y-75565790D01*
X102321906Y-75567275D01*
X102377951Y-75563749D01*
X102385862Y-75563500D01*
X114242994Y-75563500D01*
X114311115Y-75583502D01*
X114357608Y-75637158D01*
X114367712Y-75707432D01*
X114338218Y-75772012D01*
X114278492Y-75810396D01*
X114269190Y-75812747D01*
X114144712Y-75839206D01*
X114138682Y-75841891D01*
X114138681Y-75841891D01*
X113976278Y-75914197D01*
X113976276Y-75914198D01*
X113970248Y-75916882D01*
X113964907Y-75920762D01*
X113964906Y-75920763D01*
X113936674Y-75941275D01*
X113815747Y-76029134D01*
X113811326Y-76034044D01*
X113811325Y-76034045D01*
X113754340Y-76097334D01*
X113687960Y-76171056D01*
X113684659Y-76176774D01*
X113597926Y-76327000D01*
X113592473Y-76336444D01*
X113533458Y-76518072D01*
X113532768Y-76524633D01*
X113532768Y-76524635D01*
X113516425Y-76680132D01*
X113513496Y-76708000D01*
X113514186Y-76714565D01*
X113528123Y-76847165D01*
X113533458Y-76897928D01*
X113592473Y-77079556D01*
X113595776Y-77085278D01*
X113595777Y-77085279D01*
X113600245Y-77093017D01*
X113687960Y-77244944D01*
X113692378Y-77249851D01*
X113692379Y-77249852D01*
X113745702Y-77309073D01*
X113815747Y-77386866D01*
X113970248Y-77499118D01*
X113976276Y-77501802D01*
X113976278Y-77501803D01*
X114138681Y-77574109D01*
X114144712Y-77576794D01*
X114238113Y-77596647D01*
X114325056Y-77615128D01*
X114325061Y-77615128D01*
X114331513Y-77616500D01*
X114384578Y-77616500D01*
X114452699Y-77636502D01*
X114473673Y-77653405D01*
X116808774Y-79988506D01*
X116842800Y-80050818D01*
X116837735Y-80121633D01*
X116795188Y-80178469D01*
X116745554Y-80200915D01*
X116649411Y-80221089D01*
X116574668Y-80236771D01*
X116574665Y-80236772D01*
X116569441Y-80237868D01*
X116351854Y-80323797D01*
X116335528Y-80333704D01*
X116156417Y-80442391D01*
X116156414Y-80442393D01*
X116151856Y-80445159D01*
X115975166Y-80598483D01*
X115957309Y-80620262D01*
X115944593Y-80635770D01*
X115885933Y-80675764D01*
X115814962Y-80677695D01*
X115754214Y-80640950D01*
X115739267Y-80618610D01*
X115738550Y-80619054D01*
X115649332Y-80474880D01*
X115645478Y-80468652D01*
X115520303Y-80343695D01*
X115508522Y-80336433D01*
X115375968Y-80254725D01*
X115375966Y-80254724D01*
X115369738Y-80250885D01*
X115249756Y-80211089D01*
X115208389Y-80197368D01*
X115208387Y-80197368D01*
X115201861Y-80195203D01*
X115195025Y-80194503D01*
X115195022Y-80194502D01*
X115147449Y-80189628D01*
X115097400Y-80184500D01*
X113756600Y-80184500D01*
X113753354Y-80184837D01*
X113753350Y-80184837D01*
X113657692Y-80194762D01*
X113657688Y-80194763D01*
X113650834Y-80195474D01*
X113644298Y-80197655D01*
X113644296Y-80197655D01*
X113543154Y-80231399D01*
X113483054Y-80251450D01*
X113332652Y-80344522D01*
X113207695Y-80469697D01*
X113203855Y-80475927D01*
X113203854Y-80475928D01*
X113124354Y-80604901D01*
X113114885Y-80620262D01*
X113097757Y-80671901D01*
X113064237Y-80772963D01*
X113059203Y-80788139D01*
X113058503Y-80794975D01*
X113058502Y-80794978D01*
X113054368Y-80835328D01*
X113048500Y-80892600D01*
X113048500Y-82683400D01*
X113048837Y-82686646D01*
X113048837Y-82686650D01*
X113057631Y-82771399D01*
X113059474Y-82789166D01*
X113061655Y-82795702D01*
X113061655Y-82795704D01*
X113084405Y-82863893D01*
X113115450Y-82956946D01*
X113208522Y-83107348D01*
X113333697Y-83232305D01*
X113339927Y-83236145D01*
X113339928Y-83236146D01*
X113477090Y-83320694D01*
X113484262Y-83325115D01*
X113526815Y-83339229D01*
X113645611Y-83378632D01*
X113645613Y-83378632D01*
X113652139Y-83380797D01*
X113658975Y-83381497D01*
X113658978Y-83381498D01*
X113680344Y-83383687D01*
X113746071Y-83410529D01*
X113786852Y-83468644D01*
X113793500Y-83509031D01*
X113793500Y-86807406D01*
X113773498Y-86875527D01*
X113756595Y-86896501D01*
X103582500Y-97070595D01*
X103520188Y-97104621D01*
X103493405Y-97107500D01*
X95042500Y-97107500D01*
X94974379Y-97087498D01*
X94927886Y-97033842D01*
X94916500Y-96981500D01*
X94916500Y-91739500D01*
X94936502Y-91671379D01*
X94990158Y-91624886D01*
X95042500Y-91613500D01*
X95224502Y-91613500D01*
X95226950Y-91613307D01*
X95226958Y-91613307D01*
X95255421Y-91611067D01*
X95255426Y-91611066D01*
X95261831Y-91610562D01*
X95361769Y-91581528D01*
X95413988Y-91566357D01*
X95413990Y-91566356D01*
X95421601Y-91564145D01*
X95450411Y-91547107D01*
X95557980Y-91483491D01*
X95557983Y-91483489D01*
X95564807Y-91479453D01*
X95682453Y-91361807D01*
X95686489Y-91354983D01*
X95686491Y-91354980D01*
X95763108Y-91225427D01*
X95767145Y-91218601D01*
X95813562Y-91058831D01*
X95816500Y-91021502D01*
X102049500Y-91021502D01*
X102052438Y-91058831D01*
X102098855Y-91218601D01*
X102102892Y-91225427D01*
X102179509Y-91354980D01*
X102179511Y-91354983D01*
X102183547Y-91361807D01*
X102301193Y-91479453D01*
X102308017Y-91483489D01*
X102308020Y-91483491D01*
X102415589Y-91547107D01*
X102444399Y-91564145D01*
X102452010Y-91566356D01*
X102452012Y-91566357D01*
X102504231Y-91581528D01*
X102604169Y-91610562D01*
X102610574Y-91611066D01*
X102610579Y-91611067D01*
X102639042Y-91613307D01*
X102639050Y-91613307D01*
X102641498Y-91613500D01*
X102694500Y-91613500D01*
X102762621Y-91633502D01*
X102809114Y-91687158D01*
X102820500Y-91739500D01*
X102820500Y-93280799D01*
X102803620Y-93343798D01*
X102797473Y-93354444D01*
X102738458Y-93536072D01*
X102737768Y-93542633D01*
X102737768Y-93542635D01*
X102721492Y-93697499D01*
X102718496Y-93726000D01*
X102719186Y-93732565D01*
X102737385Y-93905715D01*
X102738458Y-93915928D01*
X102797473Y-94097556D01*
X102892960Y-94262944D01*
X102897378Y-94267851D01*
X102897379Y-94267852D01*
X103013453Y-94396765D01*
X103020747Y-94404866D01*
X103085254Y-94451733D01*
X103156820Y-94503729D01*
X103175248Y-94517118D01*
X103181276Y-94519802D01*
X103181278Y-94519803D01*
X103245630Y-94548454D01*
X103349712Y-94594794D01*
X103425480Y-94610899D01*
X103530056Y-94633128D01*
X103530061Y-94633128D01*
X103536513Y-94634500D01*
X103727487Y-94634500D01*
X103733939Y-94633128D01*
X103733944Y-94633128D01*
X103838520Y-94610899D01*
X103914288Y-94594794D01*
X104018370Y-94548454D01*
X104082722Y-94519803D01*
X104082724Y-94519802D01*
X104088752Y-94517118D01*
X104107181Y-94503729D01*
X104178746Y-94451733D01*
X104243253Y-94404866D01*
X104250547Y-94396765D01*
X104366621Y-94267852D01*
X104366622Y-94267851D01*
X104371040Y-94262944D01*
X104466527Y-94097556D01*
X104525542Y-93915928D01*
X104526616Y-93905715D01*
X104544814Y-93732565D01*
X104545504Y-93726000D01*
X104542508Y-93697499D01*
X104526232Y-93542635D01*
X104526232Y-93542633D01*
X104525542Y-93536072D01*
X104466527Y-93354444D01*
X104371040Y-93189056D01*
X104369102Y-93186903D01*
X104345706Y-93121332D01*
X104345500Y-93114138D01*
X104345500Y-91739500D01*
X104365502Y-91671379D01*
X104419158Y-91624886D01*
X104471500Y-91613500D01*
X104524502Y-91613500D01*
X104526950Y-91613307D01*
X104526958Y-91613307D01*
X104555421Y-91611067D01*
X104555426Y-91611066D01*
X104561831Y-91610562D01*
X104661769Y-91581528D01*
X104713988Y-91566357D01*
X104713990Y-91566356D01*
X104721601Y-91564145D01*
X104750411Y-91547107D01*
X104857980Y-91483491D01*
X104857983Y-91483489D01*
X104864807Y-91479453D01*
X104982453Y-91361807D01*
X104986489Y-91354983D01*
X104986491Y-91354980D01*
X105063108Y-91225427D01*
X105067145Y-91218601D01*
X105113562Y-91058831D01*
X105116500Y-91021502D01*
X105116500Y-90588498D01*
X105115114Y-90570886D01*
X105114067Y-90557579D01*
X105114066Y-90557574D01*
X105113562Y-90551169D01*
X105075353Y-90419650D01*
X105069357Y-90399012D01*
X105069356Y-90399010D01*
X105067145Y-90391399D01*
X105047769Y-90358637D01*
X105030311Y-90289822D01*
X105052828Y-90222491D01*
X105108173Y-90178022D01*
X105156224Y-90168500D01*
X106100207Y-90168500D01*
X106123816Y-90170732D01*
X106124119Y-90170790D01*
X106124123Y-90170790D01*
X106131906Y-90172275D01*
X106187951Y-90168749D01*
X106195862Y-90168500D01*
X106211856Y-90168500D01*
X106227730Y-90166494D01*
X106235590Y-90165752D01*
X106263049Y-90164024D01*
X106283737Y-90162723D01*
X106283738Y-90162723D01*
X106291650Y-90162225D01*
X106299191Y-90159775D01*
X106299487Y-90159679D01*
X106322631Y-90154506D01*
X106322935Y-90154468D01*
X106322940Y-90154467D01*
X106330797Y-90153474D01*
X106338162Y-90150558D01*
X106338166Y-90150557D01*
X106383011Y-90132801D01*
X106390430Y-90130129D01*
X106443875Y-90112764D01*
X106450572Y-90108514D01*
X106450831Y-90108350D01*
X106471958Y-90097585D01*
X106472246Y-90097471D01*
X106472251Y-90097468D01*
X106479617Y-90094552D01*
X106486025Y-90089896D01*
X106486031Y-90089893D01*
X106525052Y-90061542D01*
X106531589Y-90057099D01*
X106579018Y-90027000D01*
X106584659Y-90020993D01*
X106602446Y-90005312D01*
X106602691Y-90005134D01*
X106602693Y-90005132D01*
X106609107Y-90000472D01*
X106614162Y-89994362D01*
X106644903Y-89957204D01*
X106650134Y-89951270D01*
X106683158Y-89916102D01*
X106683160Y-89916099D01*
X106688586Y-89910321D01*
X106692558Y-89903097D01*
X106705881Y-89883494D01*
X106706080Y-89883254D01*
X106706084Y-89883247D01*
X106711133Y-89877144D01*
X106735047Y-89826324D01*
X106738629Y-89819292D01*
X106765695Y-89770060D01*
X106767665Y-89762385D01*
X106767668Y-89762379D01*
X106767744Y-89762081D01*
X106775776Y-89739772D01*
X106775906Y-89739497D01*
X106775909Y-89739489D01*
X106779283Y-89732318D01*
X106789806Y-89677151D01*
X106791532Y-89669429D01*
X106803529Y-89622707D01*
X106803529Y-89622706D01*
X106805500Y-89615030D01*
X106805500Y-89606793D01*
X106807731Y-89583186D01*
X106808765Y-89577768D01*
X106838897Y-89517067D01*
X106906621Y-89441852D01*
X106906622Y-89441851D01*
X106911040Y-89436944D01*
X107001016Y-89281102D01*
X107003223Y-89277279D01*
X107003224Y-89277278D01*
X107006527Y-89271556D01*
X107065542Y-89089928D01*
X107073435Y-89014835D01*
X107084814Y-88906565D01*
X107085504Y-88900000D01*
X107078175Y-88830266D01*
X107066232Y-88716635D01*
X107066232Y-88716633D01*
X107065542Y-88710072D01*
X107006527Y-88528444D01*
X107001075Y-88519000D01*
X106914341Y-88368774D01*
X106911040Y-88363056D01*
X106834961Y-88278562D01*
X106803608Y-88210164D01*
X106803511Y-88209402D01*
X106802751Y-88201402D01*
X106799723Y-88153263D01*
X106799723Y-88153262D01*
X106799225Y-88145350D01*
X106796679Y-88137513D01*
X106791506Y-88114369D01*
X106791468Y-88114065D01*
X106791467Y-88114060D01*
X106790474Y-88106203D01*
X106787558Y-88098838D01*
X106787557Y-88098834D01*
X106769801Y-88053989D01*
X106767129Y-88046570D01*
X106749764Y-87993125D01*
X106745514Y-87986428D01*
X106745350Y-87986169D01*
X106734585Y-87965042D01*
X106734471Y-87964754D01*
X106734468Y-87964749D01*
X106731552Y-87957383D01*
X106726896Y-87950975D01*
X106726893Y-87950969D01*
X106698542Y-87911948D01*
X106694092Y-87905401D01*
X106664000Y-87857982D01*
X106657993Y-87852341D01*
X106642312Y-87834554D01*
X106642134Y-87834309D01*
X106642132Y-87834307D01*
X106637472Y-87827893D01*
X106627372Y-87819537D01*
X106594204Y-87792097D01*
X106588270Y-87786866D01*
X106553102Y-87753842D01*
X106553099Y-87753840D01*
X106547321Y-87748414D01*
X106540097Y-87744442D01*
X106520494Y-87731119D01*
X106520254Y-87730920D01*
X106520247Y-87730916D01*
X106514144Y-87725867D01*
X106463324Y-87701953D01*
X106456292Y-87698371D01*
X106407060Y-87671305D01*
X106399385Y-87669335D01*
X106399379Y-87669332D01*
X106399081Y-87669256D01*
X106376772Y-87661224D01*
X106376497Y-87661094D01*
X106376489Y-87661091D01*
X106369318Y-87657717D01*
X106314151Y-87647194D01*
X106306442Y-87645471D01*
X106272449Y-87636743D01*
X106259707Y-87633471D01*
X106259706Y-87633471D01*
X106252030Y-87631500D01*
X106243793Y-87631500D01*
X106220184Y-87629268D01*
X106219881Y-87629210D01*
X106219877Y-87629210D01*
X106212094Y-87627725D01*
X106156049Y-87631251D01*
X106148138Y-87631500D01*
X105155643Y-87631500D01*
X105087522Y-87611498D01*
X105041029Y-87557842D01*
X105030925Y-87487568D01*
X105047189Y-87441361D01*
X105062648Y-87415221D01*
X105068893Y-87400790D01*
X105107939Y-87266395D01*
X105107899Y-87252294D01*
X105100630Y-87249000D01*
X102071122Y-87249000D01*
X102057591Y-87252973D01*
X102056456Y-87260871D01*
X102097107Y-87400790D01*
X102103352Y-87415221D01*
X102179911Y-87544677D01*
X102185871Y-87552360D01*
X102211820Y-87618444D01*
X102197922Y-87688067D01*
X102187579Y-87704161D01*
X102183547Y-87708193D01*
X102098855Y-87851399D01*
X102096644Y-87859010D01*
X102096643Y-87859012D01*
X102083364Y-87904719D01*
X102052438Y-88011169D01*
X102049500Y-88048498D01*
X102049500Y-88481502D01*
X102052438Y-88518831D01*
X102072386Y-88587494D01*
X102096586Y-88670790D01*
X102098855Y-88678601D01*
X102183547Y-88821807D01*
X102186229Y-88824489D01*
X102211502Y-88888861D01*
X102197600Y-88958484D01*
X102187428Y-88974312D01*
X102183547Y-88978193D01*
X102098855Y-89121399D01*
X102096644Y-89129010D01*
X102096643Y-89129012D01*
X102094886Y-89135060D01*
X102052438Y-89281169D01*
X102049500Y-89318498D01*
X102049500Y-89751502D01*
X102049693Y-89753950D01*
X102049693Y-89753958D01*
X102050961Y-89770060D01*
X102052438Y-89788831D01*
X102054233Y-89795008D01*
X102096586Y-89940790D01*
X102098855Y-89948601D01*
X102183547Y-90091807D01*
X102186229Y-90094489D01*
X102211502Y-90158861D01*
X102197600Y-90228484D01*
X102187428Y-90244312D01*
X102183547Y-90248193D01*
X102098855Y-90391399D01*
X102096644Y-90399010D01*
X102096643Y-90399012D01*
X102090647Y-90419650D01*
X102052438Y-90551169D01*
X102051934Y-90557574D01*
X102051933Y-90557579D01*
X102050886Y-90570886D01*
X102049500Y-90588498D01*
X102049500Y-91021502D01*
X95816500Y-91021502D01*
X95816500Y-90588498D01*
X95815114Y-90570886D01*
X95814067Y-90557579D01*
X95814066Y-90557574D01*
X95813562Y-90551169D01*
X95775353Y-90419650D01*
X95769357Y-90399012D01*
X95769356Y-90399010D01*
X95767145Y-90391399D01*
X95682453Y-90248193D01*
X95679513Y-90245253D01*
X95654180Y-90180734D01*
X95668079Y-90111111D01*
X95680126Y-90092364D01*
X95686090Y-90084676D01*
X95762648Y-89955221D01*
X95768893Y-89940790D01*
X95807939Y-89806395D01*
X95807899Y-89792294D01*
X95800630Y-89789000D01*
X92771122Y-89789000D01*
X92757591Y-89792973D01*
X92756456Y-89800871D01*
X92797107Y-89940790D01*
X92803352Y-89955221D01*
X92879911Y-90084677D01*
X92885871Y-90092360D01*
X92911820Y-90158444D01*
X92897922Y-90228067D01*
X92887579Y-90244161D01*
X92883547Y-90248193D01*
X92798855Y-90391399D01*
X92796644Y-90399010D01*
X92796643Y-90399012D01*
X92790647Y-90419650D01*
X92752438Y-90551169D01*
X92751934Y-90557574D01*
X92751933Y-90557579D01*
X92750886Y-90570886D01*
X92749500Y-90588498D01*
X92749500Y-91021502D01*
X92752438Y-91058831D01*
X92798855Y-91218601D01*
X92802892Y-91225427D01*
X92879509Y-91354980D01*
X92879511Y-91354983D01*
X92883547Y-91361807D01*
X93001193Y-91479453D01*
X93008017Y-91483489D01*
X93008020Y-91483491D01*
X93115589Y-91547107D01*
X93144399Y-91564145D01*
X93152010Y-91566356D01*
X93152012Y-91566357D01*
X93204231Y-91581528D01*
X93304169Y-91610562D01*
X93310574Y-91611066D01*
X93310579Y-91611067D01*
X93339042Y-91613307D01*
X93339050Y-91613307D01*
X93341498Y-91613500D01*
X93523500Y-91613500D01*
X93591621Y-91633502D01*
X93638114Y-91687158D01*
X93649500Y-91739500D01*
X93649500Y-97669207D01*
X93647268Y-97692816D01*
X93645725Y-97700906D01*
X93648357Y-97742743D01*
X93649251Y-97756951D01*
X93649500Y-97764862D01*
X93649500Y-97780856D01*
X93651506Y-97796730D01*
X93652248Y-97804590D01*
X93655775Y-97860650D01*
X93658225Y-97868191D01*
X93658321Y-97868487D01*
X93663494Y-97891631D01*
X93663532Y-97891935D01*
X93663533Y-97891940D01*
X93664526Y-97899797D01*
X93667442Y-97907162D01*
X93667443Y-97907166D01*
X93685199Y-97952011D01*
X93687871Y-97959430D01*
X93705236Y-98012875D01*
X93709486Y-98019571D01*
X93709486Y-98019572D01*
X93709650Y-98019831D01*
X93720415Y-98040958D01*
X93720529Y-98041246D01*
X93720532Y-98041251D01*
X93723448Y-98048617D01*
X93728104Y-98055025D01*
X93728107Y-98055031D01*
X93756458Y-98094052D01*
X93760901Y-98100589D01*
X93791000Y-98148018D01*
X93796778Y-98153444D01*
X93796779Y-98153445D01*
X93797007Y-98153659D01*
X93812688Y-98171446D01*
X93817528Y-98178107D01*
X93823637Y-98183161D01*
X93823638Y-98183162D01*
X93860796Y-98213903D01*
X93866730Y-98219134D01*
X93901898Y-98252158D01*
X93901901Y-98252160D01*
X93907679Y-98257586D01*
X93914903Y-98261558D01*
X93934506Y-98274881D01*
X93934746Y-98275080D01*
X93934753Y-98275084D01*
X93940856Y-98280133D01*
X93974342Y-98295890D01*
X93991676Y-98304047D01*
X93998708Y-98307629D01*
X94047940Y-98334695D01*
X94055615Y-98336665D01*
X94055621Y-98336668D01*
X94055919Y-98336744D01*
X94078228Y-98344776D01*
X94078503Y-98344906D01*
X94078511Y-98344909D01*
X94085682Y-98348283D01*
X94140849Y-98358806D01*
X94148558Y-98360529D01*
X94182551Y-98369257D01*
X94195293Y-98372529D01*
X94195294Y-98372529D01*
X94202970Y-98374500D01*
X94211207Y-98374500D01*
X94234816Y-98376732D01*
X94235119Y-98376790D01*
X94235123Y-98376790D01*
X94242906Y-98378275D01*
X94298951Y-98374749D01*
X94306862Y-98374500D01*
X103729233Y-98374500D01*
X103740416Y-98375027D01*
X103747909Y-98376702D01*
X103755835Y-98376453D01*
X103755836Y-98376453D01*
X103815986Y-98374562D01*
X103819945Y-98374500D01*
X103847856Y-98374500D01*
X103851791Y-98374003D01*
X103851856Y-98373995D01*
X103863693Y-98373062D01*
X103895951Y-98372048D01*
X103899970Y-98371922D01*
X103907889Y-98371673D01*
X103927343Y-98366021D01*
X103946700Y-98362013D01*
X103958930Y-98360468D01*
X103958931Y-98360468D01*
X103966797Y-98359474D01*
X103974168Y-98356555D01*
X103974170Y-98356555D01*
X104007912Y-98343196D01*
X104019142Y-98339351D01*
X104053983Y-98329229D01*
X104053984Y-98329229D01*
X104061593Y-98327018D01*
X104068412Y-98322985D01*
X104068417Y-98322983D01*
X104079028Y-98316707D01*
X104096776Y-98308012D01*
X104115617Y-98300552D01*
X104151387Y-98274564D01*
X104161307Y-98268048D01*
X104192535Y-98249580D01*
X104192538Y-98249578D01*
X104199362Y-98245542D01*
X104213683Y-98231221D01*
X104228717Y-98218380D01*
X104234879Y-98213903D01*
X104245107Y-98206472D01*
X104273298Y-98172395D01*
X104281288Y-98163616D01*
X104427693Y-98017211D01*
X128574323Y-98017211D01*
X128577810Y-98025600D01*
X129113188Y-98560978D01*
X129127132Y-98568592D01*
X129128965Y-98568461D01*
X129135580Y-98564210D01*
X129670905Y-98028885D01*
X129677665Y-98016505D01*
X129671635Y-98008450D01*
X129620102Y-97975935D01*
X129609855Y-97970714D01*
X129437423Y-97901921D01*
X129426386Y-97898652D01*
X129244306Y-97862433D01*
X129232861Y-97861230D01*
X129047235Y-97858801D01*
X129035755Y-97859704D01*
X128852794Y-97891142D01*
X128841674Y-97894122D01*
X128667498Y-97958379D01*
X128657124Y-97963327D01*
X128583921Y-98006878D01*
X128574323Y-98017211D01*
X104427693Y-98017211D01*
X105424504Y-97020400D01*
X111064500Y-97020400D01*
X111064837Y-97023646D01*
X111064837Y-97023650D01*
X111073239Y-97104621D01*
X111075474Y-97126166D01*
X111077655Y-97132702D01*
X111077655Y-97132704D01*
X111093926Y-97181473D01*
X111131450Y-97293946D01*
X111224522Y-97444348D01*
X111349697Y-97569305D01*
X111355927Y-97573145D01*
X111355928Y-97573146D01*
X111493090Y-97657694D01*
X111500262Y-97662115D01*
X111521644Y-97669207D01*
X111661611Y-97715632D01*
X111661613Y-97715632D01*
X111668139Y-97717797D01*
X111674975Y-97718497D01*
X111674978Y-97718498D01*
X111718031Y-97722909D01*
X111772600Y-97728500D01*
X112573400Y-97728500D01*
X112576646Y-97728163D01*
X112576650Y-97728163D01*
X112672308Y-97718238D01*
X112672312Y-97718237D01*
X112679166Y-97717526D01*
X112685702Y-97715345D01*
X112685704Y-97715345D01*
X112823995Y-97669207D01*
X112846946Y-97661550D01*
X112997348Y-97568478D01*
X113083784Y-97481891D01*
X113146066Y-97447812D01*
X113216886Y-97452815D01*
X113261976Y-97481736D01*
X113349697Y-97569305D01*
X113355927Y-97573145D01*
X113355928Y-97573146D01*
X113493090Y-97657694D01*
X113500262Y-97662115D01*
X113521644Y-97669207D01*
X113661611Y-97715632D01*
X113661613Y-97715632D01*
X113668139Y-97717797D01*
X113674975Y-97718497D01*
X113674978Y-97718498D01*
X113718031Y-97722909D01*
X113772600Y-97728500D01*
X114573400Y-97728500D01*
X114576646Y-97728163D01*
X114576650Y-97728163D01*
X114672308Y-97718238D01*
X114672312Y-97718237D01*
X114679166Y-97717526D01*
X114685702Y-97715345D01*
X114685704Y-97715345D01*
X114823995Y-97669207D01*
X114846946Y-97661550D01*
X114997348Y-97568478D01*
X115122305Y-97443303D01*
X115187682Y-97337242D01*
X115211275Y-97298968D01*
X115211276Y-97298966D01*
X115215115Y-97292738D01*
X115232663Y-97239832D01*
X115273094Y-97181473D01*
X115338658Y-97154236D01*
X115352256Y-97153500D01*
X119347962Y-97153500D01*
X119416083Y-97173502D01*
X119462576Y-97227158D01*
X119467486Y-97239624D01*
X119480222Y-97277799D01*
X119493950Y-97318946D01*
X119587022Y-97469348D01*
X119712197Y-97594305D01*
X119718427Y-97598145D01*
X119718428Y-97598146D01*
X119855788Y-97682816D01*
X119862762Y-97687115D01*
X119880864Y-97693119D01*
X120024111Y-97740632D01*
X120024113Y-97740632D01*
X120030639Y-97742797D01*
X120037475Y-97743497D01*
X120037478Y-97743498D01*
X120080531Y-97747909D01*
X120135100Y-97753500D01*
X120910900Y-97753500D01*
X120914146Y-97753163D01*
X120914150Y-97753163D01*
X121009808Y-97743238D01*
X121009812Y-97743237D01*
X121016666Y-97742526D01*
X121023202Y-97740345D01*
X121023204Y-97740345D01*
X121165665Y-97692816D01*
X121184446Y-97686550D01*
X121334848Y-97593478D01*
X121459805Y-97468303D01*
X121462602Y-97463765D01*
X121519853Y-97423176D01*
X121590776Y-97419946D01*
X121652187Y-97455572D01*
X121659562Y-97464068D01*
X121667598Y-97474207D01*
X121782329Y-97588739D01*
X121793740Y-97597751D01*
X121931743Y-97682816D01*
X121944924Y-97688963D01*
X122099210Y-97740138D01*
X122112586Y-97743005D01*
X122206938Y-97752672D01*
X122213354Y-97753000D01*
X122325885Y-97753000D01*
X122341124Y-97748525D01*
X122342329Y-97747135D01*
X122344000Y-97739452D01*
X122344000Y-97734884D01*
X122852000Y-97734884D01*
X122856475Y-97750123D01*
X122857865Y-97751328D01*
X122865548Y-97752999D01*
X122982595Y-97752999D01*
X122989114Y-97752662D01*
X123084706Y-97742743D01*
X123098100Y-97739851D01*
X123252284Y-97688412D01*
X123265462Y-97682239D01*
X123403307Y-97596937D01*
X123414708Y-97587901D01*
X123529239Y-97473171D01*
X123538251Y-97461760D01*
X123623316Y-97323757D01*
X123629463Y-97310576D01*
X123680638Y-97156290D01*
X123683505Y-97142914D01*
X123693172Y-97048562D01*
X123693500Y-97042146D01*
X123693500Y-96792115D01*
X123689025Y-96776876D01*
X123687635Y-96775671D01*
X123679952Y-96774000D01*
X122870115Y-96774000D01*
X122854876Y-96778475D01*
X122853671Y-96779865D01*
X122852000Y-96787548D01*
X122852000Y-97734884D01*
X122344000Y-97734884D01*
X122344000Y-96364779D01*
X128048270Y-96364779D01*
X128061174Y-96561652D01*
X128109739Y-96752877D01*
X128192339Y-96932049D01*
X128306207Y-97093169D01*
X128447530Y-97230840D01*
X128452326Y-97234045D01*
X128452329Y-97234047D01*
X128577582Y-97317738D01*
X128611576Y-97340452D01*
X128616879Y-97342730D01*
X128616882Y-97342732D01*
X128786432Y-97415576D01*
X128792849Y-97418333D01*
X128875663Y-97437072D01*
X128979644Y-97460601D01*
X128979647Y-97460601D01*
X128985280Y-97461876D01*
X128991051Y-97462103D01*
X128991053Y-97462103D01*
X129041068Y-97464068D01*
X129182423Y-97469622D01*
X129321055Y-97449521D01*
X129371955Y-97442141D01*
X129371959Y-97442140D01*
X129377677Y-97441311D01*
X129383149Y-97439453D01*
X129383151Y-97439453D01*
X129559038Y-97379747D01*
X129559040Y-97379746D01*
X129564502Y-97377892D01*
X129687333Y-97309104D01*
X129687413Y-97309059D01*
X136514302Y-97309059D01*
X136524184Y-97321548D01*
X136547009Y-97336799D01*
X136557123Y-97342291D01*
X136727697Y-97415576D01*
X136738640Y-97419131D01*
X136919708Y-97460103D01*
X136931118Y-97461605D01*
X137116629Y-97468893D01*
X137128111Y-97468291D01*
X137311846Y-97441652D01*
X137323029Y-97438967D01*
X137498826Y-97379292D01*
X137509339Y-97374611D01*
X137608313Y-97319182D01*
X137618178Y-97309104D01*
X137615222Y-97301432D01*
X137078812Y-96765022D01*
X137064868Y-96757408D01*
X137063035Y-96757539D01*
X137056420Y-96761790D01*
X136520498Y-97297712D01*
X136514302Y-97309059D01*
X129687413Y-97309059D01*
X129731605Y-97284311D01*
X129731606Y-97284310D01*
X129736642Y-97281490D01*
X129888331Y-97155331D01*
X129997849Y-97023650D01*
X130010799Y-97008080D01*
X130014490Y-97003642D01*
X130110892Y-96831502D01*
X130125813Y-96787548D01*
X130172453Y-96650151D01*
X130172453Y-96650149D01*
X130174311Y-96644677D01*
X130175157Y-96638846D01*
X130202089Y-96453096D01*
X130202622Y-96449423D01*
X130204099Y-96393000D01*
X130202037Y-96370558D01*
X135989150Y-96370558D01*
X136001292Y-96555805D01*
X136003093Y-96567175D01*
X136048789Y-96747107D01*
X136052631Y-96757956D01*
X136130358Y-96926557D01*
X136136105Y-96936511D01*
X136136902Y-96937640D01*
X136147490Y-96946027D01*
X136160791Y-96938999D01*
X136693978Y-96405812D01*
X136700356Y-96394132D01*
X137430408Y-96394132D01*
X137430539Y-96395965D01*
X137434790Y-96402580D01*
X137970518Y-96938308D01*
X137982898Y-96945068D01*
X137989478Y-96940142D01*
X138047611Y-96836339D01*
X138052292Y-96825826D01*
X138111967Y-96650029D01*
X138114652Y-96638846D01*
X138141587Y-96453071D01*
X138142217Y-96445689D01*
X138143500Y-96396704D01*
X138143257Y-96389305D01*
X138126082Y-96202378D01*
X138123985Y-96191064D01*
X138073591Y-96012383D01*
X138069469Y-96001644D01*
X137993954Y-95848515D01*
X137984407Y-95838138D01*
X137977974Y-95840236D01*
X137438022Y-96380188D01*
X137430408Y-96394132D01*
X136700356Y-96394132D01*
X136701592Y-96391868D01*
X136701461Y-96390035D01*
X136697210Y-96383420D01*
X136160459Y-95846669D01*
X136148079Y-95839909D01*
X136142113Y-95844375D01*
X136073122Y-95975505D01*
X136068717Y-95986139D01*
X136013664Y-96163438D01*
X136011272Y-96174692D01*
X135989451Y-96359057D01*
X135989150Y-96370558D01*
X130202037Y-96370558D01*
X130186046Y-96196532D01*
X130179887Y-96174692D01*
X130134060Y-96012203D01*
X130134059Y-96012201D01*
X130132492Y-96006644D01*
X130128183Y-95997905D01*
X130047786Y-95834876D01*
X130045231Y-95829695D01*
X130027407Y-95805825D01*
X129930637Y-95676235D01*
X129930636Y-95676234D01*
X129927184Y-95671611D01*
X129904764Y-95650886D01*
X129786546Y-95541607D01*
X129786544Y-95541605D01*
X129782305Y-95537687D01*
X129686457Y-95477211D01*
X136514323Y-95477211D01*
X136517810Y-95485600D01*
X137053188Y-96020978D01*
X137067132Y-96028592D01*
X137068965Y-96028461D01*
X137075580Y-96024210D01*
X137610905Y-95488885D01*
X137617665Y-95476505D01*
X137611635Y-95468450D01*
X137560102Y-95435935D01*
X137549855Y-95430714D01*
X137377423Y-95361921D01*
X137366386Y-95358652D01*
X137184306Y-95322433D01*
X137172861Y-95321230D01*
X136987235Y-95318801D01*
X136975755Y-95319704D01*
X136792794Y-95351142D01*
X136781674Y-95354122D01*
X136607498Y-95418379D01*
X136597124Y-95423327D01*
X136523921Y-95466878D01*
X136514323Y-95477211D01*
X129686457Y-95477211D01*
X129615447Y-95432407D01*
X129432197Y-95359297D01*
X129426529Y-95358170D01*
X129426527Y-95358169D01*
X129244360Y-95321934D01*
X129244356Y-95321934D01*
X129238692Y-95320807D01*
X129232917Y-95320731D01*
X129232913Y-95320731D01*
X129134267Y-95319440D01*
X129041413Y-95318224D01*
X129035716Y-95319203D01*
X129035715Y-95319203D01*
X128852664Y-95350657D01*
X128846967Y-95351636D01*
X128661866Y-95419924D01*
X128656905Y-95422876D01*
X128656904Y-95422876D01*
X128497277Y-95517844D01*
X128497274Y-95517846D01*
X128492309Y-95520800D01*
X128487969Y-95524606D01*
X128487965Y-95524609D01*
X128411672Y-95591517D01*
X128343975Y-95650886D01*
X128221830Y-95805825D01*
X128219141Y-95810936D01*
X128219139Y-95810939D01*
X128194102Y-95858527D01*
X128129966Y-95980429D01*
X128071460Y-96168851D01*
X128048270Y-96364779D01*
X122344000Y-96364779D01*
X122344000Y-96247885D01*
X122852000Y-96247885D01*
X122856475Y-96263124D01*
X122857865Y-96264329D01*
X122865548Y-96266000D01*
X123675384Y-96266000D01*
X123690623Y-96261525D01*
X123691828Y-96260135D01*
X123693499Y-96252452D01*
X123693499Y-95997905D01*
X123693162Y-95991386D01*
X123683243Y-95895794D01*
X123680351Y-95882400D01*
X123628912Y-95728216D01*
X123622739Y-95715038D01*
X123537437Y-95577193D01*
X123528401Y-95565792D01*
X123413671Y-95451261D01*
X123402260Y-95442249D01*
X123264257Y-95357184D01*
X123251076Y-95351037D01*
X123096790Y-95299862D01*
X123083414Y-95296995D01*
X122989062Y-95287328D01*
X122982645Y-95287000D01*
X122870115Y-95287000D01*
X122854876Y-95291475D01*
X122853671Y-95292865D01*
X122852000Y-95300548D01*
X122852000Y-96247885D01*
X122344000Y-96247885D01*
X122344000Y-95305116D01*
X122339525Y-95289877D01*
X122338135Y-95288672D01*
X122330452Y-95287001D01*
X122213405Y-95287001D01*
X122206886Y-95287338D01*
X122111294Y-95297257D01*
X122097900Y-95300149D01*
X121943716Y-95351588D01*
X121930538Y-95357761D01*
X121792693Y-95443063D01*
X121781292Y-95452099D01*
X121666762Y-95566828D01*
X121659706Y-95575762D01*
X121601788Y-95616823D01*
X121530865Y-95620053D01*
X121469454Y-95584426D01*
X121462654Y-95576593D01*
X121458978Y-95570652D01*
X121425956Y-95537687D01*
X121338983Y-95450866D01*
X121333803Y-95445695D01*
X121317970Y-95435935D01*
X121289488Y-95418379D01*
X121216383Y-95373316D01*
X121168891Y-95320545D01*
X121156500Y-95266057D01*
X121156500Y-93550763D01*
X121157027Y-93539579D01*
X121158701Y-93532091D01*
X121156562Y-93464032D01*
X121156500Y-93460075D01*
X121156500Y-93432144D01*
X121155994Y-93428138D01*
X121155061Y-93416292D01*
X121153922Y-93380037D01*
X121153673Y-93372110D01*
X121148022Y-93352658D01*
X121144014Y-93333306D01*
X121142468Y-93321068D01*
X121142467Y-93321066D01*
X121141474Y-93313203D01*
X121125194Y-93272086D01*
X121121359Y-93260885D01*
X121109018Y-93218406D01*
X121104985Y-93211587D01*
X121104983Y-93211582D01*
X121098707Y-93200971D01*
X121090010Y-93183221D01*
X121082552Y-93164383D01*
X121056571Y-93128623D01*
X121050053Y-93118701D01*
X121031578Y-93087460D01*
X121031574Y-93087455D01*
X121027542Y-93080637D01*
X121013218Y-93066313D01*
X121000376Y-93051278D01*
X120988472Y-93034893D01*
X120954406Y-93006711D01*
X120945627Y-92998722D01*
X120812405Y-92865500D01*
X120778379Y-92803188D01*
X120775500Y-92776405D01*
X120775500Y-91170666D01*
X120795502Y-91102545D01*
X120846294Y-91058101D01*
X120847946Y-91057550D01*
X120998348Y-90964478D01*
X121084784Y-90877891D01*
X121147066Y-90843812D01*
X121217886Y-90848815D01*
X121262975Y-90877736D01*
X121317537Y-90932203D01*
X121350697Y-90965305D01*
X121356927Y-90969145D01*
X121356928Y-90969146D01*
X121492025Y-91052421D01*
X121501262Y-91058115D01*
X121508501Y-91060516D01*
X121662611Y-91111632D01*
X121662613Y-91111632D01*
X121669139Y-91113797D01*
X121675975Y-91114497D01*
X121675978Y-91114498D01*
X121719031Y-91118909D01*
X121773600Y-91124500D01*
X122434406Y-91124500D01*
X122502527Y-91144502D01*
X122523501Y-91161405D01*
X125607348Y-94245253D01*
X125614888Y-94253539D01*
X125619000Y-94260018D01*
X125624777Y-94265443D01*
X125668651Y-94306643D01*
X125671493Y-94309398D01*
X125691230Y-94329135D01*
X125694427Y-94331615D01*
X125703447Y-94339318D01*
X125735679Y-94369586D01*
X125742625Y-94373405D01*
X125742628Y-94373407D01*
X125753434Y-94379348D01*
X125769953Y-94390199D01*
X125785959Y-94402614D01*
X125793228Y-94405759D01*
X125793232Y-94405762D01*
X125826537Y-94420174D01*
X125837187Y-94425391D01*
X125875940Y-94446695D01*
X125883615Y-94448666D01*
X125883616Y-94448666D01*
X125895562Y-94451733D01*
X125914266Y-94458137D01*
X125915348Y-94458605D01*
X125932855Y-94466181D01*
X125940678Y-94467420D01*
X125940688Y-94467423D01*
X125976524Y-94473099D01*
X125988144Y-94475505D01*
X126023289Y-94484528D01*
X126030970Y-94486500D01*
X126051224Y-94486500D01*
X126070934Y-94488051D01*
X126090943Y-94491220D01*
X126098835Y-94490474D01*
X126110263Y-94489394D01*
X126134962Y-94487059D01*
X126146819Y-94486500D01*
X126928207Y-94486500D01*
X126951816Y-94488732D01*
X126952119Y-94488790D01*
X126952123Y-94488790D01*
X126959906Y-94490275D01*
X127015951Y-94486749D01*
X127023862Y-94486500D01*
X128193848Y-94486500D01*
X128261969Y-94506502D01*
X128296746Y-94539782D01*
X128302873Y-94548453D01*
X128302879Y-94548460D01*
X128306207Y-94553169D01*
X128447530Y-94690840D01*
X128452326Y-94694045D01*
X128452329Y-94694047D01*
X128517809Y-94737799D01*
X128611576Y-94800452D01*
X128616879Y-94802730D01*
X128616882Y-94802732D01*
X128755845Y-94862435D01*
X128792849Y-94878333D01*
X128886185Y-94899453D01*
X128979644Y-94920601D01*
X128979647Y-94920601D01*
X128985280Y-94921876D01*
X128991051Y-94922103D01*
X128991053Y-94922103D01*
X129050054Y-94924421D01*
X129182423Y-94929622D01*
X129297789Y-94912894D01*
X129371955Y-94902141D01*
X129371959Y-94902140D01*
X129377677Y-94901311D01*
X129383149Y-94899453D01*
X129383151Y-94899453D01*
X129559038Y-94839747D01*
X129559040Y-94839746D01*
X129564502Y-94837892D01*
X129736642Y-94741490D01*
X129888331Y-94615331D01*
X129992174Y-94490474D01*
X130010799Y-94468080D01*
X130014490Y-94463642D01*
X130110892Y-94291502D01*
X130121580Y-94260018D01*
X130172453Y-94110151D01*
X130172453Y-94110149D01*
X130174311Y-94104677D01*
X130177634Y-94081763D01*
X130187186Y-94015884D01*
X130202622Y-93909423D01*
X130204099Y-93853000D01*
X130201506Y-93824779D01*
X135988270Y-93824779D01*
X136001174Y-94021652D01*
X136049739Y-94212877D01*
X136132339Y-94392049D01*
X136246207Y-94553169D01*
X136387530Y-94690840D01*
X136392326Y-94694045D01*
X136392329Y-94694047D01*
X136457809Y-94737799D01*
X136551576Y-94800452D01*
X136556879Y-94802730D01*
X136556882Y-94802732D01*
X136695845Y-94862435D01*
X136732849Y-94878333D01*
X136826185Y-94899453D01*
X136919644Y-94920601D01*
X136919647Y-94920601D01*
X136925280Y-94921876D01*
X136931051Y-94922103D01*
X136931053Y-94922103D01*
X136990054Y-94924421D01*
X137122423Y-94929622D01*
X137237789Y-94912894D01*
X137311955Y-94902141D01*
X137311959Y-94902140D01*
X137317677Y-94901311D01*
X137323149Y-94899453D01*
X137323151Y-94899453D01*
X137499038Y-94839747D01*
X137499040Y-94839746D01*
X137504502Y-94837892D01*
X137676642Y-94741490D01*
X137828331Y-94615331D01*
X137932174Y-94490474D01*
X137950799Y-94468080D01*
X137954490Y-94463642D01*
X138050892Y-94291502D01*
X138061580Y-94260018D01*
X138112453Y-94110151D01*
X138112453Y-94110149D01*
X138114311Y-94104677D01*
X138117634Y-94081763D01*
X138127186Y-94015884D01*
X138142622Y-93909423D01*
X138144099Y-93853000D01*
X138131826Y-93719435D01*
X138126575Y-93662286D01*
X138126574Y-93662283D01*
X138126046Y-93656532D01*
X138116684Y-93623334D01*
X138074060Y-93472203D01*
X138074059Y-93472201D01*
X138072492Y-93466644D01*
X138062286Y-93445947D01*
X137987786Y-93294876D01*
X137985231Y-93289695D01*
X137967407Y-93265825D01*
X137870637Y-93136235D01*
X137870636Y-93136234D01*
X137867184Y-93131611D01*
X137858748Y-93123813D01*
X137726546Y-93001607D01*
X137726544Y-93001605D01*
X137722305Y-92997687D01*
X137555447Y-92892407D01*
X137372197Y-92819297D01*
X137366529Y-92818170D01*
X137366527Y-92818169D01*
X137184360Y-92781934D01*
X137184356Y-92781934D01*
X137178692Y-92780807D01*
X137172917Y-92780731D01*
X137172913Y-92780731D01*
X137074267Y-92779440D01*
X136981413Y-92778224D01*
X136975716Y-92779203D01*
X136975715Y-92779203D01*
X136959822Y-92781934D01*
X136786967Y-92811636D01*
X136601866Y-92879924D01*
X136596905Y-92882876D01*
X136596904Y-92882876D01*
X136437277Y-92977844D01*
X136437274Y-92977846D01*
X136432309Y-92980800D01*
X136427969Y-92984606D01*
X136427965Y-92984609D01*
X136318467Y-93080637D01*
X136283975Y-93110886D01*
X136161830Y-93265825D01*
X136159141Y-93270936D01*
X136159139Y-93270939D01*
X136136903Y-93313203D01*
X136069966Y-93440429D01*
X136011460Y-93628851D01*
X135988270Y-93824779D01*
X130201506Y-93824779D01*
X130191826Y-93719435D01*
X130186575Y-93662286D01*
X130186574Y-93662283D01*
X130186046Y-93656532D01*
X130176684Y-93623334D01*
X130134060Y-93472203D01*
X130134059Y-93472201D01*
X130132492Y-93466644D01*
X130122286Y-93445947D01*
X130047786Y-93294876D01*
X130045231Y-93289695D01*
X130027407Y-93265825D01*
X129930637Y-93136235D01*
X129930636Y-93136234D01*
X129927184Y-93131611D01*
X129918748Y-93123813D01*
X129786546Y-93001607D01*
X129786544Y-93001605D01*
X129782305Y-92997687D01*
X129615447Y-92892407D01*
X129432197Y-92819297D01*
X129426529Y-92818170D01*
X129426527Y-92818169D01*
X129244360Y-92781934D01*
X129244356Y-92781934D01*
X129238692Y-92780807D01*
X129232917Y-92780731D01*
X129232913Y-92780731D01*
X129134267Y-92779440D01*
X129041413Y-92778224D01*
X129035716Y-92779203D01*
X129035715Y-92779203D01*
X129019822Y-92781934D01*
X128846967Y-92811636D01*
X128661866Y-92879924D01*
X128656905Y-92882876D01*
X128656904Y-92882876D01*
X128497277Y-92977844D01*
X128497274Y-92977846D01*
X128492309Y-92980800D01*
X128487969Y-92984606D01*
X128487965Y-92984609D01*
X128378467Y-93080637D01*
X128343975Y-93110886D01*
X128340399Y-93115422D01*
X128296186Y-93171506D01*
X128238305Y-93212619D01*
X128197236Y-93219500D01*
X127759500Y-93219500D01*
X127691379Y-93199498D01*
X127644886Y-93145842D01*
X127633500Y-93093500D01*
X127633500Y-91926134D01*
X128052500Y-91926134D01*
X128059255Y-91988316D01*
X128110385Y-92124705D01*
X128197739Y-92241261D01*
X128314295Y-92328615D01*
X128450684Y-92379745D01*
X128512866Y-92386500D01*
X129739134Y-92386500D01*
X129801316Y-92379745D01*
X129937705Y-92328615D01*
X130054261Y-92241261D01*
X130141615Y-92124705D01*
X130192745Y-91988316D01*
X130199500Y-91926134D01*
X130199500Y-91284779D01*
X135988270Y-91284779D01*
X136001174Y-91481652D01*
X136049739Y-91672877D01*
X136132339Y-91852049D01*
X136246207Y-92013169D01*
X136387530Y-92150840D01*
X136392326Y-92154045D01*
X136392329Y-92154047D01*
X136457809Y-92197799D01*
X136551576Y-92260452D01*
X136556879Y-92262730D01*
X136556882Y-92262732D01*
X136697693Y-92323229D01*
X136732849Y-92338333D01*
X136826185Y-92359453D01*
X136919644Y-92380601D01*
X136919647Y-92380601D01*
X136925280Y-92381876D01*
X136931051Y-92382103D01*
X136931053Y-92382103D01*
X136990054Y-92384421D01*
X137122423Y-92389622D01*
X137237789Y-92372894D01*
X137311955Y-92362141D01*
X137311959Y-92362140D01*
X137317677Y-92361311D01*
X137323149Y-92359453D01*
X137323151Y-92359453D01*
X137499038Y-92299747D01*
X137499040Y-92299746D01*
X137504502Y-92297892D01*
X137676642Y-92201490D01*
X137828331Y-92075331D01*
X137935479Y-91946500D01*
X137950799Y-91928080D01*
X137954490Y-91923642D01*
X138050892Y-91751502D01*
X138061580Y-91720018D01*
X138112453Y-91570151D01*
X138112453Y-91570149D01*
X138114311Y-91564677D01*
X138142622Y-91369423D01*
X138144099Y-91313000D01*
X138126046Y-91116532D01*
X138122102Y-91102545D01*
X138074060Y-90932203D01*
X138074059Y-90932201D01*
X138072492Y-90926644D01*
X138062286Y-90905947D01*
X137987786Y-90754876D01*
X137985231Y-90749695D01*
X137967407Y-90725825D01*
X137870637Y-90596235D01*
X137870636Y-90596234D01*
X137867184Y-90591611D01*
X137862948Y-90587695D01*
X137726546Y-90461607D01*
X137726544Y-90461605D01*
X137722305Y-90457687D01*
X137555447Y-90352407D01*
X137372197Y-90279297D01*
X137366529Y-90278170D01*
X137366527Y-90278169D01*
X137184360Y-90241934D01*
X137184356Y-90241934D01*
X137178692Y-90240807D01*
X137172917Y-90240731D01*
X137172913Y-90240731D01*
X137074267Y-90239440D01*
X136981413Y-90238224D01*
X136975716Y-90239203D01*
X136975715Y-90239203D01*
X136792664Y-90270657D01*
X136786967Y-90271636D01*
X136601866Y-90339924D01*
X136596905Y-90342876D01*
X136596904Y-90342876D01*
X136437277Y-90437844D01*
X136437274Y-90437846D01*
X136432309Y-90440800D01*
X136427969Y-90444606D01*
X136427965Y-90444609D01*
X136347349Y-90515308D01*
X136283975Y-90570886D01*
X136280399Y-90575422D01*
X136267637Y-90591611D01*
X136161830Y-90725825D01*
X136159141Y-90730936D01*
X136159139Y-90730939D01*
X136112732Y-90819144D01*
X136069966Y-90900429D01*
X136011460Y-91088851D01*
X135988270Y-91284779D01*
X130199500Y-91284779D01*
X130199500Y-90699866D01*
X130192745Y-90637684D01*
X130141615Y-90501295D01*
X130054261Y-90384739D01*
X129937705Y-90297385D01*
X129801316Y-90246255D01*
X129739134Y-90239500D01*
X128512866Y-90239500D01*
X128450684Y-90246255D01*
X128314295Y-90297385D01*
X128197739Y-90384739D01*
X128110385Y-90501295D01*
X128059255Y-90637684D01*
X128052500Y-90699866D01*
X128052500Y-91926134D01*
X127633500Y-91926134D01*
X127633500Y-89659500D01*
X127653502Y-89591379D01*
X127707158Y-89544886D01*
X127759500Y-89533500D01*
X133786207Y-89533500D01*
X133809816Y-89535732D01*
X133810119Y-89535790D01*
X133810123Y-89535790D01*
X133817906Y-89537275D01*
X133873951Y-89533749D01*
X133881862Y-89533500D01*
X133897856Y-89533500D01*
X133913730Y-89531494D01*
X133921590Y-89530752D01*
X133949049Y-89529024D01*
X133969737Y-89527723D01*
X133969738Y-89527723D01*
X133977650Y-89527225D01*
X133985191Y-89524775D01*
X133985487Y-89524679D01*
X134008631Y-89519506D01*
X134008935Y-89519468D01*
X134008940Y-89519467D01*
X134016797Y-89518474D01*
X134024162Y-89515558D01*
X134024166Y-89515557D01*
X134069011Y-89497801D01*
X134076430Y-89495129D01*
X134129875Y-89477764D01*
X134136572Y-89473514D01*
X134136831Y-89473350D01*
X134157958Y-89462585D01*
X134158246Y-89462471D01*
X134158251Y-89462468D01*
X134165617Y-89459552D01*
X134172025Y-89454896D01*
X134172031Y-89454893D01*
X134211052Y-89426542D01*
X134217589Y-89422099D01*
X134265018Y-89392000D01*
X134270659Y-89385993D01*
X134288446Y-89370312D01*
X134288691Y-89370134D01*
X134288693Y-89370132D01*
X134295107Y-89365472D01*
X134300162Y-89359362D01*
X134330903Y-89322204D01*
X134336134Y-89316270D01*
X134369158Y-89281102D01*
X134369160Y-89281099D01*
X134374586Y-89275321D01*
X134378558Y-89268097D01*
X134391881Y-89248494D01*
X134392080Y-89248254D01*
X134392084Y-89248247D01*
X134397133Y-89242144D01*
X134421047Y-89191324D01*
X134424629Y-89184292D01*
X134451695Y-89135060D01*
X134453665Y-89127385D01*
X134453668Y-89127379D01*
X134453744Y-89127081D01*
X134461776Y-89104772D01*
X134461906Y-89104497D01*
X134461909Y-89104489D01*
X134465283Y-89097318D01*
X134475806Y-89042151D01*
X134477532Y-89034429D01*
X134489529Y-88987707D01*
X134489529Y-88987706D01*
X134491500Y-88980030D01*
X134491500Y-88971793D01*
X134493732Y-88948184D01*
X134493790Y-88947881D01*
X134493790Y-88947877D01*
X134495275Y-88940094D01*
X134491749Y-88884049D01*
X134491500Y-88876138D01*
X134491500Y-86546066D01*
X134511502Y-86477945D01*
X134551195Y-86438923D01*
X134579623Y-86421331D01*
X134579628Y-86421327D01*
X134585848Y-86417478D01*
X134710805Y-86292303D01*
X134746213Y-86234861D01*
X134799775Y-86147968D01*
X134799776Y-86147966D01*
X134803615Y-86141738D01*
X134859297Y-85973861D01*
X134860005Y-85966956D01*
X134864972Y-85918475D01*
X134870000Y-85869400D01*
X134870000Y-84818600D01*
X134869663Y-84815350D01*
X134859738Y-84719692D01*
X134859737Y-84719688D01*
X134859026Y-84712834D01*
X134803050Y-84545054D01*
X134709978Y-84394652D01*
X134584803Y-84269695D01*
X134467383Y-84197316D01*
X134419891Y-84144545D01*
X134407500Y-84090057D01*
X134407500Y-80839172D01*
X134427502Y-80771051D01*
X134467197Y-80732028D01*
X134549120Y-80681332D01*
X134555348Y-80677478D01*
X134680305Y-80552303D01*
X134723363Y-80482450D01*
X134769275Y-80407968D01*
X134769276Y-80407966D01*
X134773115Y-80401738D01*
X134813633Y-80279580D01*
X134826632Y-80240389D01*
X134826632Y-80240387D01*
X134828797Y-80233861D01*
X134831059Y-80211790D01*
X134837145Y-80152385D01*
X134839500Y-80129400D01*
X134839500Y-79128600D01*
X134839163Y-79125350D01*
X134829238Y-79029692D01*
X134829237Y-79029688D01*
X134828526Y-79022834D01*
X134805540Y-78953935D01*
X134777771Y-78870704D01*
X134772550Y-78855054D01*
X134679478Y-78704652D01*
X134554303Y-78579695D01*
X134511124Y-78553079D01*
X134409968Y-78490725D01*
X134409966Y-78490724D01*
X134403738Y-78486885D01*
X134305886Y-78454429D01*
X134242389Y-78433368D01*
X134242387Y-78433368D01*
X134235861Y-78431203D01*
X134229025Y-78430503D01*
X134229022Y-78430502D01*
X134185969Y-78426091D01*
X134131400Y-78420500D01*
X133330600Y-78420500D01*
X133327354Y-78420837D01*
X133327350Y-78420837D01*
X133231692Y-78430762D01*
X133231688Y-78430763D01*
X133224834Y-78431474D01*
X133218298Y-78433655D01*
X133218296Y-78433655D01*
X133139490Y-78459947D01*
X133057054Y-78487450D01*
X132906652Y-78580522D01*
X132901479Y-78585704D01*
X132819862Y-78667463D01*
X132757579Y-78701542D01*
X132686759Y-78696539D01*
X132641671Y-78667618D01*
X132559171Y-78585261D01*
X132547760Y-78576249D01*
X132409757Y-78491184D01*
X132396576Y-78485037D01*
X132242290Y-78433862D01*
X132228914Y-78430995D01*
X132134562Y-78421328D01*
X132128145Y-78421000D01*
X132003115Y-78421000D01*
X131987876Y-78425475D01*
X131986671Y-78426865D01*
X131985000Y-78434548D01*
X131985000Y-80818884D01*
X131989475Y-80834123D01*
X131990865Y-80835328D01*
X131998548Y-80836999D01*
X132128095Y-80836999D01*
X132134614Y-80836662D01*
X132230206Y-80826743D01*
X132243600Y-80823851D01*
X132397784Y-80772412D01*
X132410962Y-80766239D01*
X132548807Y-80680937D01*
X132560208Y-80671901D01*
X132641430Y-80590538D01*
X132703713Y-80556459D01*
X132774533Y-80561462D01*
X132819620Y-80590383D01*
X132902512Y-80673130D01*
X132902517Y-80673134D01*
X132907697Y-80678305D01*
X132913927Y-80682145D01*
X132913928Y-80682146D01*
X132994851Y-80732028D01*
X133058262Y-80771115D01*
X133065206Y-80773418D01*
X133067751Y-80774605D01*
X133121035Y-80821522D01*
X133140500Y-80888799D01*
X133140500Y-84089954D01*
X133120498Y-84158075D01*
X133080803Y-84197098D01*
X132985592Y-84256017D01*
X132962152Y-84270522D01*
X132837195Y-84395697D01*
X132834398Y-84400235D01*
X132777147Y-84440824D01*
X132706224Y-84444054D01*
X132644813Y-84408428D01*
X132637438Y-84399932D01*
X132629402Y-84389793D01*
X132514671Y-84275261D01*
X132503260Y-84266249D01*
X132365257Y-84181184D01*
X132352076Y-84175037D01*
X132197790Y-84123862D01*
X132184414Y-84120995D01*
X132090062Y-84111328D01*
X132083645Y-84111000D01*
X131971115Y-84111000D01*
X131955876Y-84115475D01*
X131954671Y-84116865D01*
X131953000Y-84124548D01*
X131953000Y-86558884D01*
X131957475Y-86574123D01*
X131958865Y-86575328D01*
X131966548Y-86576999D01*
X132083595Y-86576999D01*
X132090114Y-86576662D01*
X132185706Y-86566743D01*
X132199100Y-86563851D01*
X132353284Y-86512412D01*
X132366462Y-86506239D01*
X132504307Y-86420937D01*
X132515708Y-86411901D01*
X132630238Y-86297172D01*
X132637294Y-86288238D01*
X132695212Y-86247177D01*
X132766135Y-86243947D01*
X132827546Y-86279574D01*
X132834346Y-86287407D01*
X132838022Y-86293348D01*
X132843204Y-86298521D01*
X132886583Y-86341824D01*
X132963197Y-86418305D01*
X132969427Y-86422145D01*
X132969428Y-86422146D01*
X133106788Y-86506816D01*
X133113762Y-86511115D01*
X133138168Y-86519210D01*
X133196528Y-86559641D01*
X133223764Y-86625206D01*
X133224500Y-86638803D01*
X133224500Y-88140500D01*
X133204498Y-88208621D01*
X133150842Y-88255114D01*
X133098500Y-88266500D01*
X127205767Y-88266500D01*
X127194584Y-88265973D01*
X127187091Y-88264298D01*
X127179165Y-88264547D01*
X127179164Y-88264547D01*
X127119014Y-88266438D01*
X127115055Y-88266500D01*
X127087144Y-88266500D01*
X127083210Y-88266997D01*
X127083209Y-88266997D01*
X127083144Y-88267005D01*
X127071307Y-88267938D01*
X127039490Y-88268938D01*
X127035029Y-88269078D01*
X127027110Y-88269327D01*
X127009454Y-88274456D01*
X127007658Y-88274978D01*
X126988306Y-88278986D01*
X126981235Y-88279880D01*
X126968203Y-88281526D01*
X126960834Y-88284443D01*
X126960832Y-88284444D01*
X126927097Y-88297800D01*
X126915869Y-88301645D01*
X126873407Y-88313982D01*
X126866584Y-88318017D01*
X126866582Y-88318018D01*
X126855972Y-88324293D01*
X126838224Y-88332988D01*
X126819383Y-88340448D01*
X126812967Y-88345110D01*
X126812966Y-88345110D01*
X126783613Y-88366436D01*
X126773693Y-88372952D01*
X126742465Y-88391420D01*
X126742462Y-88391422D01*
X126735638Y-88395458D01*
X126721314Y-88409782D01*
X126706287Y-88422617D01*
X126689893Y-88434528D01*
X126684840Y-88440636D01*
X126684838Y-88440638D01*
X126661708Y-88468598D01*
X126653718Y-88477378D01*
X126607749Y-88523347D01*
X126599463Y-88530887D01*
X126592982Y-88535000D01*
X126587555Y-88540779D01*
X126587554Y-88540780D01*
X126546356Y-88584652D01*
X126543601Y-88587494D01*
X126523865Y-88607230D01*
X126521385Y-88610427D01*
X126513682Y-88619447D01*
X126483414Y-88651679D01*
X126479595Y-88658625D01*
X126479593Y-88658628D01*
X126473652Y-88669434D01*
X126462801Y-88685953D01*
X126450386Y-88701959D01*
X126447241Y-88709228D01*
X126447238Y-88709232D01*
X126432826Y-88742537D01*
X126427609Y-88753187D01*
X126406305Y-88791940D01*
X126404334Y-88799615D01*
X126404334Y-88799616D01*
X126401267Y-88811562D01*
X126394863Y-88830266D01*
X126386819Y-88848855D01*
X126385580Y-88856678D01*
X126385577Y-88856688D01*
X126379901Y-88892524D01*
X126377495Y-88904144D01*
X126368472Y-88939289D01*
X126366500Y-88946970D01*
X126366500Y-88967224D01*
X126364949Y-88986934D01*
X126361780Y-89006943D01*
X126362526Y-89014835D01*
X126365941Y-89050961D01*
X126366500Y-89062819D01*
X126366500Y-92908406D01*
X126346498Y-92976527D01*
X126292842Y-93023020D01*
X126222568Y-93033124D01*
X126157988Y-93003630D01*
X126151405Y-92997501D01*
X124821182Y-91667277D01*
X123319405Y-90165500D01*
X123285379Y-90103188D01*
X123282500Y-90076405D01*
X123282500Y-89415600D01*
X123280492Y-89396245D01*
X123272238Y-89316692D01*
X123272237Y-89316688D01*
X123271526Y-89309834D01*
X123259950Y-89275135D01*
X123217868Y-89149002D01*
X123215550Y-89142054D01*
X123122478Y-88991652D01*
X122997303Y-88866695D01*
X122981069Y-88856688D01*
X122852968Y-88777725D01*
X122852966Y-88777724D01*
X122846738Y-88773885D01*
X122686254Y-88720655D01*
X122685389Y-88720368D01*
X122685387Y-88720368D01*
X122678861Y-88718203D01*
X122672025Y-88717503D01*
X122672022Y-88717502D01*
X122628969Y-88713091D01*
X122574400Y-88707500D01*
X121773600Y-88707500D01*
X121770354Y-88707837D01*
X121770350Y-88707837D01*
X121674692Y-88717762D01*
X121674688Y-88717763D01*
X121667834Y-88718474D01*
X121661298Y-88720655D01*
X121661296Y-88720655D01*
X121579367Y-88747989D01*
X121500054Y-88774450D01*
X121349652Y-88867522D01*
X121269131Y-88948184D01*
X121263216Y-88954109D01*
X121200934Y-88988188D01*
X121130114Y-88983185D01*
X121085025Y-88954264D01*
X121002483Y-88871866D01*
X120997303Y-88866695D01*
X120981069Y-88856688D01*
X120852968Y-88777725D01*
X120852966Y-88777724D01*
X120846738Y-88773885D01*
X120686254Y-88720655D01*
X120685389Y-88720368D01*
X120685387Y-88720368D01*
X120678861Y-88718203D01*
X120672025Y-88717503D01*
X120672022Y-88717502D01*
X120628969Y-88713091D01*
X120574400Y-88707500D01*
X119773600Y-88707500D01*
X119770354Y-88707837D01*
X119770350Y-88707837D01*
X119674692Y-88717762D01*
X119674688Y-88717763D01*
X119667834Y-88718474D01*
X119661298Y-88720655D01*
X119661296Y-88720655D01*
X119579367Y-88747989D01*
X119500054Y-88774450D01*
X119349652Y-88867522D01*
X119224695Y-88992697D01*
X119220855Y-88998927D01*
X119220854Y-88998928D01*
X119145362Y-89121399D01*
X119131885Y-89143262D01*
X119129581Y-89150209D01*
X119086144Y-89281169D01*
X119076203Y-89311139D01*
X119065500Y-89415600D01*
X119065500Y-90416400D01*
X119065837Y-90419646D01*
X119065837Y-90419650D01*
X119075181Y-90509703D01*
X119076474Y-90522166D01*
X119078655Y-90528702D01*
X119078655Y-90528704D01*
X119097785Y-90586042D01*
X119132450Y-90689946D01*
X119225522Y-90840348D01*
X119350697Y-90965305D01*
X119448617Y-91025664D01*
X119496109Y-91078435D01*
X119508500Y-91132923D01*
X119508500Y-93012233D01*
X119507973Y-93023416D01*
X119506298Y-93030909D01*
X119506547Y-93038835D01*
X119506547Y-93038836D01*
X119508438Y-93098986D01*
X119508500Y-93102945D01*
X119508500Y-93130856D01*
X119508997Y-93134790D01*
X119508997Y-93134791D01*
X119509005Y-93134856D01*
X119509938Y-93146693D01*
X119511327Y-93190889D01*
X119516978Y-93210339D01*
X119520987Y-93229700D01*
X119523526Y-93249797D01*
X119526445Y-93257168D01*
X119526445Y-93257170D01*
X119539804Y-93290912D01*
X119543649Y-93302142D01*
X119552703Y-93333306D01*
X119555982Y-93344593D01*
X119560015Y-93351412D01*
X119560017Y-93351417D01*
X119566293Y-93362028D01*
X119574988Y-93379776D01*
X119582448Y-93398617D01*
X119587110Y-93405033D01*
X119587110Y-93405034D01*
X119608436Y-93434387D01*
X119614952Y-93444307D01*
X119631450Y-93472203D01*
X119637458Y-93482362D01*
X119651779Y-93496683D01*
X119664619Y-93511716D01*
X119676528Y-93528107D01*
X119703914Y-93550763D01*
X119710605Y-93556298D01*
X119719384Y-93564288D01*
X119852595Y-93697499D01*
X119886621Y-93759811D01*
X119889500Y-93786594D01*
X119889500Y-95265954D01*
X119869498Y-95334075D01*
X119829803Y-95373098D01*
X119742904Y-95426873D01*
X119711152Y-95446522D01*
X119705979Y-95451704D01*
X119694344Y-95463359D01*
X119586195Y-95571697D01*
X119582355Y-95577927D01*
X119582354Y-95577928D01*
X119521757Y-95676235D01*
X119493385Y-95722262D01*
X119482789Y-95754209D01*
X119467545Y-95800167D01*
X119427114Y-95858527D01*
X119361550Y-95885764D01*
X119347952Y-95886500D01*
X115352197Y-95886500D01*
X115284076Y-95866498D01*
X115237583Y-95812842D01*
X115232674Y-95800377D01*
X115216867Y-95752998D01*
X115216866Y-95752996D01*
X115214550Y-95746054D01*
X115203512Y-95728216D01*
X115125332Y-95601880D01*
X115121478Y-95595652D01*
X115060326Y-95534606D01*
X115001483Y-95475866D01*
X114996303Y-95470695D01*
X114984402Y-95463359D01*
X114851968Y-95381725D01*
X114851966Y-95381724D01*
X114845738Y-95377885D01*
X114738262Y-95342237D01*
X114684389Y-95324368D01*
X114684387Y-95324368D01*
X114677861Y-95322203D01*
X114671025Y-95321503D01*
X114671022Y-95321502D01*
X114627969Y-95317091D01*
X114573400Y-95311500D01*
X113772600Y-95311500D01*
X113769354Y-95311837D01*
X113769350Y-95311837D01*
X113673692Y-95321762D01*
X113673688Y-95321763D01*
X113666834Y-95322474D01*
X113660298Y-95324655D01*
X113660296Y-95324655D01*
X113556462Y-95359297D01*
X113499054Y-95378450D01*
X113348652Y-95471522D01*
X113295658Y-95524609D01*
X113262216Y-95558109D01*
X113199934Y-95592188D01*
X113129114Y-95587185D01*
X113084025Y-95558264D01*
X113001483Y-95475866D01*
X112996303Y-95470695D01*
X112987197Y-95465082D01*
X112985646Y-95463359D01*
X112984327Y-95462317D01*
X112984505Y-95462091D01*
X112939705Y-95412309D01*
X112928283Y-95342237D01*
X112944196Y-95294823D01*
X112972223Y-95246279D01*
X112972224Y-95246277D01*
X112975527Y-95240556D01*
X113034542Y-95058928D01*
X113048133Y-94929622D01*
X113053814Y-94875565D01*
X113054504Y-94869000D01*
X113041102Y-94741490D01*
X113035232Y-94685635D01*
X113035232Y-94685633D01*
X113034542Y-94679072D01*
X112975527Y-94497444D01*
X112971101Y-94489777D01*
X112920777Y-94402614D01*
X112880040Y-94332056D01*
X112858366Y-94307984D01*
X112756675Y-94195045D01*
X112756674Y-94195044D01*
X112752253Y-94190134D01*
X112632708Y-94103279D01*
X112603094Y-94081763D01*
X112603093Y-94081762D01*
X112597752Y-94077882D01*
X112591724Y-94075198D01*
X112591722Y-94075197D01*
X112429319Y-94002891D01*
X112429318Y-94002891D01*
X112423288Y-94000206D01*
X112329887Y-93980353D01*
X112242944Y-93961872D01*
X112242939Y-93961872D01*
X112236487Y-93960500D01*
X112045513Y-93960500D01*
X112039061Y-93961872D01*
X112039056Y-93961872D01*
X111952112Y-93980353D01*
X111858712Y-94000206D01*
X111852682Y-94002891D01*
X111852681Y-94002891D01*
X111690278Y-94075197D01*
X111690276Y-94075198D01*
X111684248Y-94077882D01*
X111678907Y-94081762D01*
X111678906Y-94081763D01*
X111649292Y-94103279D01*
X111529747Y-94190134D01*
X111525326Y-94195044D01*
X111525325Y-94195045D01*
X111423635Y-94307984D01*
X111401960Y-94332056D01*
X111361223Y-94402614D01*
X111310900Y-94489777D01*
X111306473Y-94497444D01*
X111247458Y-94679072D01*
X111246768Y-94685633D01*
X111246768Y-94685635D01*
X111240898Y-94741490D01*
X111227496Y-94869000D01*
X111228186Y-94875565D01*
X111233868Y-94929622D01*
X111247458Y-95058928D01*
X111306473Y-95240556D01*
X111309776Y-95246278D01*
X111309777Y-95246279D01*
X111335871Y-95291475D01*
X111353769Y-95322474D01*
X111358116Y-95330004D01*
X111374854Y-95398999D01*
X111351634Y-95466091D01*
X111338170Y-95482022D01*
X111299460Y-95520800D01*
X111223695Y-95596697D01*
X111219855Y-95602927D01*
X111219854Y-95602928D01*
X111150136Y-95716032D01*
X111130885Y-95747262D01*
X111111461Y-95805825D01*
X111100156Y-95839909D01*
X111075203Y-95915139D01*
X111064500Y-96019600D01*
X111064500Y-97020400D01*
X105424504Y-97020400D01*
X114819253Y-87625652D01*
X114827539Y-87618112D01*
X114834018Y-87614000D01*
X114880644Y-87564348D01*
X114883398Y-87561507D01*
X114903135Y-87541770D01*
X114905615Y-87538573D01*
X114913320Y-87529551D01*
X114938159Y-87503100D01*
X114943586Y-87497321D01*
X114947405Y-87490375D01*
X114947407Y-87490372D01*
X114953348Y-87479566D01*
X114964199Y-87463047D01*
X114971758Y-87453301D01*
X114976614Y-87447041D01*
X114979759Y-87439772D01*
X114979762Y-87439768D01*
X114994174Y-87406463D01*
X114999391Y-87395813D01*
X115020695Y-87357060D01*
X115025733Y-87337437D01*
X115032137Y-87318734D01*
X115037033Y-87307420D01*
X115037033Y-87307419D01*
X115040181Y-87300145D01*
X115041420Y-87292322D01*
X115041423Y-87292312D01*
X115047099Y-87256476D01*
X115049505Y-87244856D01*
X115058528Y-87209711D01*
X115058528Y-87209710D01*
X115060500Y-87202030D01*
X115060500Y-87181776D01*
X115062051Y-87162065D01*
X115063980Y-87149886D01*
X115065220Y-87142057D01*
X115061059Y-87098038D01*
X115060500Y-87086181D01*
X115060500Y-83508931D01*
X115080502Y-83440810D01*
X115134158Y-83394317D01*
X115173496Y-83383604D01*
X115183855Y-83382530D01*
X115196307Y-83381238D01*
X115196310Y-83381237D01*
X115203166Y-83380526D01*
X115209702Y-83378345D01*
X115209704Y-83378345D01*
X115341806Y-83334272D01*
X115370946Y-83324550D01*
X115521348Y-83231478D01*
X115646305Y-83106303D01*
X115732764Y-82966042D01*
X115739115Y-82955738D01*
X115741262Y-82957062D01*
X115780312Y-82912710D01*
X115848589Y-82893248D01*
X115916549Y-82913788D01*
X115938761Y-82932272D01*
X116046590Y-83045306D01*
X116046602Y-83045316D01*
X116050276Y-83049168D01*
X116237965Y-83188813D01*
X116242717Y-83191229D01*
X116242725Y-83191234D01*
X116262606Y-83201342D01*
X116314263Y-83250046D01*
X116331500Y-83313658D01*
X116331500Y-87304017D01*
X116329268Y-87327626D01*
X116329198Y-87327991D01*
X116329198Y-87327996D01*
X116327713Y-87335779D01*
X116330525Y-87380475D01*
X116331251Y-87392013D01*
X116331500Y-87399925D01*
X116331500Y-87415983D01*
X116331997Y-87419917D01*
X116331997Y-87419918D01*
X116333513Y-87431923D01*
X116334257Y-87439799D01*
X116334713Y-87447041D01*
X116337795Y-87496027D01*
X116340244Y-87503565D01*
X116340245Y-87503569D01*
X116340359Y-87503920D01*
X116345531Y-87527056D01*
X116345579Y-87527435D01*
X116345580Y-87527440D01*
X116346573Y-87535299D01*
X116349489Y-87542664D01*
X116349490Y-87542668D01*
X116367320Y-87587700D01*
X116370002Y-87595150D01*
X116381813Y-87631500D01*
X116387412Y-87648733D01*
X116391655Y-87655420D01*
X116391657Y-87655423D01*
X116391860Y-87655742D01*
X116402626Y-87676872D01*
X116405681Y-87684588D01*
X116410341Y-87691002D01*
X116438803Y-87730177D01*
X116443251Y-87736723D01*
X116469195Y-87777604D01*
X116469198Y-87777607D01*
X116473447Y-87784303D01*
X116479494Y-87789981D01*
X116495182Y-87807776D01*
X116500058Y-87814487D01*
X116540087Y-87847602D01*
X116543474Y-87850404D01*
X116549408Y-87855636D01*
X116559032Y-87864673D01*
X116590494Y-87894217D01*
X116597438Y-87898035D01*
X116597440Y-87898036D01*
X116597768Y-87898216D01*
X116617379Y-87911544D01*
X116617662Y-87911778D01*
X116617666Y-87911781D01*
X116623776Y-87916835D01*
X116657406Y-87932660D01*
X116674764Y-87940828D01*
X116681796Y-87944410D01*
X116731197Y-87971569D01*
X116738871Y-87973539D01*
X116738873Y-87973540D01*
X116739076Y-87973592D01*
X116739235Y-87973633D01*
X116761548Y-87981666D01*
X116761884Y-87981824D01*
X116761887Y-87981825D01*
X116769059Y-87985200D01*
X116776844Y-87986685D01*
X116776847Y-87986686D01*
X116824412Y-87995759D01*
X116832137Y-87997486D01*
X116853563Y-88002987D01*
X116886718Y-88011500D01*
X116895017Y-88011500D01*
X116918626Y-88013732D01*
X116918991Y-88013802D01*
X116918996Y-88013802D01*
X116926779Y-88015287D01*
X116983014Y-88011749D01*
X116990925Y-88011500D01*
X123618980Y-88011500D01*
X123630214Y-88012030D01*
X123637719Y-88013708D01*
X123706012Y-88011562D01*
X123709969Y-88011500D01*
X123737983Y-88011500D01*
X123741908Y-88011004D01*
X123741909Y-88011004D01*
X123742004Y-88010992D01*
X123753849Y-88010059D01*
X123783670Y-88009122D01*
X123790282Y-88008914D01*
X123790283Y-88008914D01*
X123798205Y-88008665D01*
X123817749Y-88002987D01*
X123837112Y-87998977D01*
X123849440Y-87997420D01*
X123849442Y-87997420D01*
X123857299Y-87996427D01*
X123864663Y-87993511D01*
X123864668Y-87993510D01*
X123898556Y-87980093D01*
X123909785Y-87976248D01*
X123926465Y-87971402D01*
X123952393Y-87963869D01*
X123959220Y-87959831D01*
X123959223Y-87959830D01*
X123969906Y-87953512D01*
X123987664Y-87944812D01*
X123999215Y-87940239D01*
X123999221Y-87940235D01*
X124006588Y-87937319D01*
X124042491Y-87911234D01*
X124052410Y-87904719D01*
X124083768Y-87886174D01*
X124083772Y-87886171D01*
X124090598Y-87882134D01*
X124104982Y-87867750D01*
X124120016Y-87854909D01*
X124130073Y-87847602D01*
X124136487Y-87842942D01*
X124164778Y-87808744D01*
X124172767Y-87799965D01*
X126106638Y-85866095D01*
X130603501Y-85866095D01*
X130603838Y-85872614D01*
X130613757Y-85968206D01*
X130616649Y-85981600D01*
X130668088Y-86135784D01*
X130674261Y-86148962D01*
X130759563Y-86286807D01*
X130768599Y-86298208D01*
X130883329Y-86412739D01*
X130894740Y-86421751D01*
X131032743Y-86506816D01*
X131045924Y-86512963D01*
X131200210Y-86564138D01*
X131213586Y-86567005D01*
X131307938Y-86576672D01*
X131314354Y-86577000D01*
X131426885Y-86577000D01*
X131442124Y-86572525D01*
X131443329Y-86571135D01*
X131445000Y-86563452D01*
X131445000Y-85616115D01*
X131440525Y-85600876D01*
X131439135Y-85599671D01*
X131431452Y-85598000D01*
X130621616Y-85598000D01*
X130606377Y-85602475D01*
X130605172Y-85603865D01*
X130603501Y-85611548D01*
X130603501Y-85866095D01*
X126106638Y-85866095D01*
X126900848Y-85071885D01*
X130603500Y-85071885D01*
X130607975Y-85087124D01*
X130609365Y-85088329D01*
X130617048Y-85090000D01*
X131426885Y-85090000D01*
X131442124Y-85085525D01*
X131443329Y-85084135D01*
X131445000Y-85076452D01*
X131445000Y-84129116D01*
X131440525Y-84113877D01*
X131439135Y-84112672D01*
X131431452Y-84111001D01*
X131314405Y-84111001D01*
X131307886Y-84111338D01*
X131212294Y-84121257D01*
X131198900Y-84124149D01*
X131044716Y-84175588D01*
X131031538Y-84181761D01*
X130893693Y-84267063D01*
X130882292Y-84276099D01*
X130767761Y-84390829D01*
X130758749Y-84402240D01*
X130673684Y-84540243D01*
X130667537Y-84553424D01*
X130616362Y-84707710D01*
X130613495Y-84721086D01*
X130603828Y-84815438D01*
X130603500Y-84821855D01*
X130603500Y-85071885D01*
X126900848Y-85071885D01*
X129044483Y-82928250D01*
X129052809Y-82920674D01*
X129059303Y-82916553D01*
X129106086Y-82866734D01*
X129108840Y-82863893D01*
X129128639Y-82844094D01*
X129131063Y-82840969D01*
X129131071Y-82840960D01*
X129131137Y-82840874D01*
X129138845Y-82831849D01*
X129163790Y-82805285D01*
X129169217Y-82799506D01*
X129179023Y-82781669D01*
X129189873Y-82765153D01*
X129202350Y-82749067D01*
X129219976Y-82708334D01*
X129225193Y-82697686D01*
X129234842Y-82680134D01*
X129246569Y-82658803D01*
X129248540Y-82651128D01*
X129248542Y-82651122D01*
X129251631Y-82639089D01*
X129258034Y-82620387D01*
X129266117Y-82601708D01*
X129273060Y-82557873D01*
X129275467Y-82546251D01*
X129286500Y-82503282D01*
X129286500Y-82482935D01*
X129288051Y-82463224D01*
X129289995Y-82450950D01*
X129291235Y-82443121D01*
X129287059Y-82398944D01*
X129286500Y-82387086D01*
X129286500Y-80126095D01*
X130623001Y-80126095D01*
X130623338Y-80132614D01*
X130633257Y-80228206D01*
X130636149Y-80241600D01*
X130687588Y-80395784D01*
X130693761Y-80408962D01*
X130779063Y-80546807D01*
X130788099Y-80558208D01*
X130902829Y-80672739D01*
X130914240Y-80681751D01*
X131052243Y-80766816D01*
X131065424Y-80772963D01*
X131219710Y-80824138D01*
X131233086Y-80827005D01*
X131327438Y-80836672D01*
X131333854Y-80837000D01*
X131458885Y-80837000D01*
X131474124Y-80832525D01*
X131475329Y-80831135D01*
X131477000Y-80823452D01*
X131477000Y-79901115D01*
X131472525Y-79885876D01*
X131471135Y-79884671D01*
X131463452Y-79883000D01*
X130641116Y-79883000D01*
X130625877Y-79887475D01*
X130624672Y-79888865D01*
X130623001Y-79896548D01*
X130623001Y-80126095D01*
X129286500Y-80126095D01*
X129286500Y-79356885D01*
X130623000Y-79356885D01*
X130627475Y-79372124D01*
X130628865Y-79373329D01*
X130636548Y-79375000D01*
X131458885Y-79375000D01*
X131474124Y-79370525D01*
X131475329Y-79369135D01*
X131477000Y-79361452D01*
X131477000Y-78439116D01*
X131472525Y-78423877D01*
X131471135Y-78422672D01*
X131463452Y-78421001D01*
X131333905Y-78421001D01*
X131327386Y-78421338D01*
X131231794Y-78431257D01*
X131218400Y-78434149D01*
X131064216Y-78485588D01*
X131051038Y-78491761D01*
X130913193Y-78577063D01*
X130901792Y-78586099D01*
X130787261Y-78700829D01*
X130778249Y-78712240D01*
X130693184Y-78850243D01*
X130687037Y-78863424D01*
X130635862Y-79017710D01*
X130632995Y-79031086D01*
X130623328Y-79125438D01*
X130623000Y-79131855D01*
X130623000Y-79356885D01*
X129286500Y-79356885D01*
X129286500Y-77684017D01*
X129285494Y-77676052D01*
X129284500Y-77660262D01*
X129284500Y-73395095D01*
X130718001Y-73395095D01*
X130718338Y-73401614D01*
X130728257Y-73497206D01*
X130731149Y-73510600D01*
X130782588Y-73664784D01*
X130788761Y-73677962D01*
X130874063Y-73815807D01*
X130883099Y-73827208D01*
X130997829Y-73941739D01*
X131009240Y-73950751D01*
X131147243Y-74035816D01*
X131160424Y-74041963D01*
X131314710Y-74093138D01*
X131328086Y-74096005D01*
X131422438Y-74105672D01*
X131428854Y-74106000D01*
X131553885Y-74106000D01*
X131569124Y-74101525D01*
X131570329Y-74100135D01*
X131572000Y-74092452D01*
X131572000Y-73170115D01*
X131567525Y-73154876D01*
X131566135Y-73153671D01*
X131558452Y-73152000D01*
X130736116Y-73152000D01*
X130720877Y-73156475D01*
X130719672Y-73157865D01*
X130718001Y-73165548D01*
X130718001Y-73395095D01*
X129284500Y-73395095D01*
X129284500Y-72625885D01*
X130718000Y-72625885D01*
X130722475Y-72641124D01*
X130723865Y-72642329D01*
X130731548Y-72644000D01*
X131553885Y-72644000D01*
X131569124Y-72639525D01*
X131570329Y-72638135D01*
X131572000Y-72630452D01*
X131572000Y-71708116D01*
X131567525Y-71692877D01*
X131566135Y-71691672D01*
X131558452Y-71690001D01*
X131428905Y-71690001D01*
X131422386Y-71690338D01*
X131326794Y-71700257D01*
X131313400Y-71703149D01*
X131159216Y-71754588D01*
X131146038Y-71760761D01*
X131008193Y-71846063D01*
X130996792Y-71855099D01*
X130882261Y-71969829D01*
X130873249Y-71981240D01*
X130788184Y-72119243D01*
X130782037Y-72132424D01*
X130730862Y-72286710D01*
X130727995Y-72300086D01*
X130718328Y-72394438D01*
X130718000Y-72400855D01*
X130718000Y-72625885D01*
X129284500Y-72625885D01*
X129284500Y-65910500D01*
X129304502Y-65842379D01*
X129358158Y-65795886D01*
X129410500Y-65784500D01*
X153164500Y-65784500D01*
X153232621Y-65804502D01*
X153279114Y-65858158D01*
X153290500Y-65910500D01*
X153290500Y-76520406D01*
X153270498Y-76588527D01*
X153253595Y-76609501D01*
X151666500Y-78196595D01*
X151604188Y-78230621D01*
X151577405Y-78233500D01*
X150601974Y-78233500D01*
X150533853Y-78213498D01*
X150501016Y-78182889D01*
X150476632Y-78150235D01*
X150476631Y-78150234D01*
X150473179Y-78145611D01*
X150450759Y-78124886D01*
X150332541Y-78015607D01*
X150332539Y-78015605D01*
X150328300Y-78011687D01*
X150161442Y-77906407D01*
X149978192Y-77833297D01*
X149972524Y-77832170D01*
X149972522Y-77832169D01*
X149790355Y-77795934D01*
X149790351Y-77795934D01*
X149784687Y-77794807D01*
X149778912Y-77794731D01*
X149778908Y-77794731D01*
X149680262Y-77793440D01*
X149587408Y-77792224D01*
X149581711Y-77793203D01*
X149581710Y-77793203D01*
X149565817Y-77795934D01*
X149392962Y-77825636D01*
X149207861Y-77893924D01*
X149202900Y-77896876D01*
X149202899Y-77896876D01*
X149043272Y-77991844D01*
X149043269Y-77991846D01*
X149038304Y-77994800D01*
X149033964Y-77998606D01*
X149033960Y-77998609D01*
X149022561Y-78008606D01*
X148889970Y-78124886D01*
X148767825Y-78279825D01*
X148765136Y-78284936D01*
X148765134Y-78284939D01*
X148755266Y-78303695D01*
X148675961Y-78454429D01*
X148635077Y-78586099D01*
X148619448Y-78636434D01*
X148617455Y-78642851D01*
X148594265Y-78838779D01*
X148607169Y-79035652D01*
X148655734Y-79226877D01*
X148738334Y-79406049D01*
X148852202Y-79567169D01*
X148993525Y-79704840D01*
X148998321Y-79708045D01*
X148998324Y-79708047D01*
X149109030Y-79782018D01*
X149157571Y-79814452D01*
X149162874Y-79816730D01*
X149162877Y-79816732D01*
X149317121Y-79883000D01*
X149338844Y-79892333D01*
X149377655Y-79901115D01*
X149525639Y-79934601D01*
X149525642Y-79934601D01*
X149531275Y-79935876D01*
X149537046Y-79936103D01*
X149537048Y-79936103D01*
X149596049Y-79938421D01*
X149728418Y-79943622D01*
X149857001Y-79924978D01*
X149917950Y-79916141D01*
X149917954Y-79916140D01*
X149923672Y-79915311D01*
X149929144Y-79913453D01*
X149929146Y-79913453D01*
X150105033Y-79853747D01*
X150105035Y-79853746D01*
X150110497Y-79851892D01*
X150282637Y-79755490D01*
X150413232Y-79646875D01*
X150429886Y-79633024D01*
X150429888Y-79633022D01*
X150434326Y-79629331D01*
X150503690Y-79545931D01*
X150562626Y-79506347D01*
X150600563Y-79500500D01*
X151132500Y-79500500D01*
X151200621Y-79520502D01*
X151247114Y-79574158D01*
X151258500Y-79626500D01*
X151258500Y-85885219D01*
X151238498Y-85953340D01*
X151198803Y-85992363D01*
X151067652Y-86073522D01*
X150992344Y-86148962D01*
X150981216Y-86160109D01*
X150918934Y-86194188D01*
X150848114Y-86189185D01*
X150803025Y-86160264D01*
X150720483Y-86077866D01*
X150715303Y-86072695D01*
X150684708Y-86053836D01*
X150570968Y-85983725D01*
X150570966Y-85983724D01*
X150564738Y-85979885D01*
X150449016Y-85941502D01*
X150403389Y-85926368D01*
X150403387Y-85926368D01*
X150396861Y-85924203D01*
X150390025Y-85923503D01*
X150390022Y-85923502D01*
X150346969Y-85919091D01*
X150292400Y-85913500D01*
X149491600Y-85913500D01*
X149488354Y-85913837D01*
X149488350Y-85913837D01*
X149392692Y-85923762D01*
X149392688Y-85923763D01*
X149385834Y-85924474D01*
X149379298Y-85926655D01*
X149379296Y-85926655D01*
X149299312Y-85953340D01*
X149218054Y-85980450D01*
X149067652Y-86073522D01*
X148942695Y-86198697D01*
X148938855Y-86204927D01*
X148938854Y-86204928D01*
X148895675Y-86274978D01*
X148849885Y-86349262D01*
X148830984Y-86406246D01*
X148798902Y-86502973D01*
X148794203Y-86517139D01*
X148793503Y-86523975D01*
X148793502Y-86523978D01*
X148789121Y-86566743D01*
X148783500Y-86621600D01*
X148783500Y-87250406D01*
X148763498Y-87318527D01*
X148746595Y-87339501D01*
X145443500Y-90642595D01*
X145381188Y-90676621D01*
X145354405Y-90679500D01*
X142935594Y-90679500D01*
X142867473Y-90659498D01*
X142846499Y-90642595D01*
X138084405Y-85880500D01*
X138050379Y-85818188D01*
X138047500Y-85791405D01*
X138047500Y-81005874D01*
X138932765Y-81005874D01*
X138933511Y-81013766D01*
X138936941Y-81050051D01*
X138937500Y-81061909D01*
X138937500Y-84256017D01*
X138935268Y-84279626D01*
X138935198Y-84279991D01*
X138935198Y-84279996D01*
X138933713Y-84287779D01*
X138934211Y-84295690D01*
X138937251Y-84344013D01*
X138937500Y-84351925D01*
X138937500Y-84367983D01*
X138937997Y-84371917D01*
X138937997Y-84371918D01*
X138939513Y-84383923D01*
X138940257Y-84391799D01*
X138943297Y-84440116D01*
X138943795Y-84448027D01*
X138946244Y-84455565D01*
X138946245Y-84455569D01*
X138946359Y-84455920D01*
X138951531Y-84479056D01*
X138951579Y-84479435D01*
X138951580Y-84479440D01*
X138952573Y-84487299D01*
X138955489Y-84494664D01*
X138955490Y-84494668D01*
X138973320Y-84539700D01*
X138976001Y-84547148D01*
X138993412Y-84600733D01*
X138997655Y-84607420D01*
X138997657Y-84607423D01*
X138997860Y-84607742D01*
X139008626Y-84628872D01*
X139011681Y-84636588D01*
X139016341Y-84643002D01*
X139044803Y-84682177D01*
X139049251Y-84688723D01*
X139075195Y-84729604D01*
X139075198Y-84729607D01*
X139079447Y-84736303D01*
X139085494Y-84741981D01*
X139101182Y-84759776D01*
X139106058Y-84766487D01*
X139149474Y-84802404D01*
X139155408Y-84807636D01*
X139170562Y-84821866D01*
X139196494Y-84846217D01*
X139203438Y-84850035D01*
X139203440Y-84850036D01*
X139203768Y-84850216D01*
X139223379Y-84863544D01*
X139223662Y-84863778D01*
X139223666Y-84863781D01*
X139229776Y-84868835D01*
X139242612Y-84874875D01*
X139278054Y-84899786D01*
X141253595Y-86875328D01*
X141287621Y-86937640D01*
X141290500Y-86964423D01*
X141290500Y-87622400D01*
X141290837Y-87625646D01*
X141290837Y-87625650D01*
X141300618Y-87719914D01*
X141301474Y-87728166D01*
X141303655Y-87734702D01*
X141303655Y-87734704D01*
X141325428Y-87799965D01*
X141357450Y-87895946D01*
X141450522Y-88046348D01*
X141575697Y-88171305D01*
X141581927Y-88175145D01*
X141581928Y-88175146D01*
X141719288Y-88259816D01*
X141726262Y-88264115D01*
X141806005Y-88290564D01*
X141887611Y-88317632D01*
X141887613Y-88317632D01*
X141894139Y-88319797D01*
X141900975Y-88320497D01*
X141900978Y-88320498D01*
X141944031Y-88324909D01*
X141998600Y-88330500D01*
X142799400Y-88330500D01*
X142802646Y-88330163D01*
X142802650Y-88330163D01*
X142898308Y-88320238D01*
X142898312Y-88320237D01*
X142905166Y-88319526D01*
X142911702Y-88317345D01*
X142911704Y-88317345D01*
X143064290Y-88266438D01*
X143072946Y-88263550D01*
X143223348Y-88170478D01*
X143267562Y-88126187D01*
X143310138Y-88083537D01*
X143372421Y-88049458D01*
X143443241Y-88054461D01*
X143488329Y-88083382D01*
X143570829Y-88165739D01*
X143582240Y-88174751D01*
X143720243Y-88259816D01*
X143733424Y-88265963D01*
X143887710Y-88317138D01*
X143901086Y-88320005D01*
X143995438Y-88329672D01*
X144001854Y-88330000D01*
X144126885Y-88330000D01*
X144142124Y-88325525D01*
X144143329Y-88324135D01*
X144145000Y-88316452D01*
X144145000Y-88311884D01*
X144653000Y-88311884D01*
X144657475Y-88327123D01*
X144658865Y-88328328D01*
X144666548Y-88329999D01*
X144796095Y-88329999D01*
X144802614Y-88329662D01*
X144898206Y-88319743D01*
X144911600Y-88316851D01*
X145065784Y-88265412D01*
X145078962Y-88259239D01*
X145216807Y-88173937D01*
X145228208Y-88164901D01*
X145342739Y-88050171D01*
X145351751Y-88038760D01*
X145436816Y-87900757D01*
X145442963Y-87887576D01*
X145494138Y-87733290D01*
X145497005Y-87719914D01*
X145506672Y-87625562D01*
X145507000Y-87619146D01*
X145507000Y-87394115D01*
X145502525Y-87378876D01*
X145501135Y-87377671D01*
X145493452Y-87376000D01*
X144671115Y-87376000D01*
X144655876Y-87380475D01*
X144654671Y-87381865D01*
X144653000Y-87389548D01*
X144653000Y-88311884D01*
X144145000Y-88311884D01*
X144145000Y-86849885D01*
X144653000Y-86849885D01*
X144657475Y-86865124D01*
X144658865Y-86866329D01*
X144666548Y-86868000D01*
X145488884Y-86868000D01*
X145504123Y-86863525D01*
X145505328Y-86862135D01*
X145506999Y-86854452D01*
X145506999Y-86624905D01*
X145506662Y-86618386D01*
X145496743Y-86522794D01*
X145493851Y-86509400D01*
X145442412Y-86355216D01*
X145436239Y-86342038D01*
X145350937Y-86204193D01*
X145341901Y-86192792D01*
X145227171Y-86078261D01*
X145215760Y-86069249D01*
X145077757Y-85984184D01*
X145064576Y-85978037D01*
X144910290Y-85926862D01*
X144896914Y-85923995D01*
X144802562Y-85914328D01*
X144796145Y-85914000D01*
X144671115Y-85914000D01*
X144655876Y-85918475D01*
X144654671Y-85919865D01*
X144653000Y-85927548D01*
X144653000Y-86849885D01*
X144145000Y-86849885D01*
X144145000Y-85932116D01*
X144140525Y-85916877D01*
X144139135Y-85915672D01*
X144131452Y-85914001D01*
X144001905Y-85914001D01*
X143995386Y-85914338D01*
X143899794Y-85924257D01*
X143886400Y-85927149D01*
X143732216Y-85978588D01*
X143719038Y-85984761D01*
X143581193Y-86070063D01*
X143569792Y-86079099D01*
X143488570Y-86160462D01*
X143426287Y-86194541D01*
X143355467Y-86189538D01*
X143310380Y-86160617D01*
X143227488Y-86077870D01*
X143227483Y-86077866D01*
X143222303Y-86072695D01*
X143191708Y-86053836D01*
X143077968Y-85983725D01*
X143077966Y-85983724D01*
X143071738Y-85979885D01*
X142956016Y-85941502D01*
X142910389Y-85926368D01*
X142910387Y-85926368D01*
X142903861Y-85924203D01*
X142897025Y-85923503D01*
X142897022Y-85923502D01*
X142853969Y-85919091D01*
X142799400Y-85913500D01*
X142141423Y-85913500D01*
X142073302Y-85893498D01*
X142052328Y-85876595D01*
X140245405Y-84069672D01*
X140211379Y-84007360D01*
X140208500Y-83980577D01*
X140208500Y-82323059D01*
X141180297Y-82323059D01*
X141190179Y-82335548D01*
X141213004Y-82350799D01*
X141223118Y-82356291D01*
X141393692Y-82429576D01*
X141404635Y-82433131D01*
X141585703Y-82474103D01*
X141597113Y-82475605D01*
X141782624Y-82482893D01*
X141794106Y-82482291D01*
X141977841Y-82455652D01*
X141989024Y-82452967D01*
X142164821Y-82393292D01*
X142175334Y-82388611D01*
X142274308Y-82333182D01*
X142284173Y-82323104D01*
X142281217Y-82315432D01*
X141744807Y-81779022D01*
X141730863Y-81771408D01*
X141729030Y-81771539D01*
X141722415Y-81775790D01*
X141186493Y-82311712D01*
X141180297Y-82323059D01*
X140208500Y-82323059D01*
X140208500Y-81341417D01*
X140228502Y-81273296D01*
X140245405Y-81252322D01*
X140480806Y-81016921D01*
X140543118Y-80982895D01*
X140613933Y-80987960D01*
X140670769Y-81030507D01*
X140695580Y-81097027D01*
X140690234Y-81143379D01*
X140679660Y-81177434D01*
X140677267Y-81188692D01*
X140655446Y-81373057D01*
X140655145Y-81384558D01*
X140667287Y-81569805D01*
X140669088Y-81581175D01*
X140714784Y-81761107D01*
X140718626Y-81771956D01*
X140796353Y-81940557D01*
X140802100Y-81950511D01*
X140802897Y-81951640D01*
X140813485Y-81960027D01*
X140826786Y-81952999D01*
X141371653Y-81408132D01*
X142096403Y-81408132D01*
X142096534Y-81409965D01*
X142100785Y-81416580D01*
X142636513Y-81952308D01*
X142648893Y-81959068D01*
X142655473Y-81954142D01*
X142713606Y-81850339D01*
X142718287Y-81839826D01*
X142777962Y-81664029D01*
X142780647Y-81652846D01*
X142807582Y-81467071D01*
X142808212Y-81459689D01*
X142809495Y-81410704D01*
X142809252Y-81403305D01*
X142806999Y-81378779D01*
X148594265Y-81378779D01*
X148607169Y-81575652D01*
X148655734Y-81766877D01*
X148738334Y-81946049D01*
X148852202Y-82107169D01*
X148993525Y-82244840D01*
X148998321Y-82248045D01*
X148998324Y-82248047D01*
X149110588Y-82323059D01*
X149157571Y-82354452D01*
X149162874Y-82356730D01*
X149162877Y-82356732D01*
X149261129Y-82398944D01*
X149338844Y-82432333D01*
X149386520Y-82443121D01*
X149525639Y-82474601D01*
X149525642Y-82474601D01*
X149531275Y-82475876D01*
X149537046Y-82476103D01*
X149537048Y-82476103D01*
X149596049Y-82478421D01*
X149728418Y-82483622D01*
X149857015Y-82464976D01*
X149917950Y-82456141D01*
X149917954Y-82456140D01*
X149923672Y-82455311D01*
X149929144Y-82453453D01*
X149929146Y-82453453D01*
X150105033Y-82393747D01*
X150105035Y-82393746D01*
X150110497Y-82391892D01*
X150233328Y-82323104D01*
X150277600Y-82298311D01*
X150277601Y-82298310D01*
X150282637Y-82295490D01*
X150434326Y-82169331D01*
X150560485Y-82017642D01*
X150656887Y-81845502D01*
X150685536Y-81761107D01*
X150718448Y-81664151D01*
X150718448Y-81664149D01*
X150720306Y-81658677D01*
X150721152Y-81652846D01*
X150742310Y-81506922D01*
X150748617Y-81463423D01*
X150750094Y-81407000D01*
X150735881Y-81252322D01*
X150732570Y-81216286D01*
X150732569Y-81216283D01*
X150732041Y-81210532D01*
X150729854Y-81202775D01*
X150680055Y-81026203D01*
X150680054Y-81026201D01*
X150678487Y-81020644D01*
X150675096Y-81013766D01*
X150593781Y-80848876D01*
X150591226Y-80843695D01*
X150573402Y-80819825D01*
X150476632Y-80690235D01*
X150476631Y-80690234D01*
X150473179Y-80685611D01*
X150468123Y-80680937D01*
X150332541Y-80555607D01*
X150332539Y-80555605D01*
X150328300Y-80551687D01*
X150161442Y-80446407D01*
X149978192Y-80373297D01*
X149972524Y-80372170D01*
X149972522Y-80372169D01*
X149790355Y-80335934D01*
X149790351Y-80335934D01*
X149784687Y-80334807D01*
X149778912Y-80334731D01*
X149778908Y-80334731D01*
X149680262Y-80333440D01*
X149587408Y-80332224D01*
X149581711Y-80333203D01*
X149581710Y-80333203D01*
X149398659Y-80364657D01*
X149392962Y-80365636D01*
X149207861Y-80433924D01*
X149202900Y-80436876D01*
X149202899Y-80436876D01*
X149043272Y-80531844D01*
X149043269Y-80531846D01*
X149038304Y-80534800D01*
X149033964Y-80538606D01*
X149033960Y-80538609D01*
X148932932Y-80627209D01*
X148889970Y-80664886D01*
X148767825Y-80819825D01*
X148765136Y-80824936D01*
X148765134Y-80824939D01*
X148726258Y-80898831D01*
X148675961Y-80994429D01*
X148617455Y-81182851D01*
X148594265Y-81378779D01*
X142806999Y-81378779D01*
X142792077Y-81216378D01*
X142789980Y-81205064D01*
X142739586Y-81026383D01*
X142735464Y-81015644D01*
X142659949Y-80862515D01*
X142650402Y-80852138D01*
X142643969Y-80854236D01*
X142104017Y-81394188D01*
X142096403Y-81408132D01*
X141371653Y-81408132D01*
X142276900Y-80502885D01*
X142283660Y-80490505D01*
X142277630Y-80482450D01*
X142226097Y-80449935D01*
X142215850Y-80444714D01*
X142043418Y-80375921D01*
X142032381Y-80372652D01*
X141850301Y-80336433D01*
X141838856Y-80335230D01*
X141653230Y-80332801D01*
X141641750Y-80333704D01*
X141455776Y-80365660D01*
X141385252Y-80357483D01*
X141330344Y-80312476D01*
X141308485Y-80244928D01*
X141326616Y-80176285D01*
X141345343Y-80152385D01*
X141523993Y-79973735D01*
X141586305Y-79939709D01*
X141618032Y-79936927D01*
X141788418Y-79943622D01*
X141917001Y-79924978D01*
X141977950Y-79916141D01*
X141977954Y-79916140D01*
X141983672Y-79915311D01*
X141989144Y-79913453D01*
X141989146Y-79913453D01*
X142165033Y-79853747D01*
X142165035Y-79853746D01*
X142170497Y-79851892D01*
X142342637Y-79755490D01*
X142494326Y-79629331D01*
X142620485Y-79477642D01*
X142716887Y-79305502D01*
X142753050Y-79198972D01*
X142778448Y-79124151D01*
X142778448Y-79124149D01*
X142780306Y-79118677D01*
X142786112Y-79078638D01*
X142797990Y-78996712D01*
X142808617Y-78923423D01*
X142810094Y-78867000D01*
X142796126Y-78714989D01*
X142792570Y-78676286D01*
X142792569Y-78676283D01*
X142792041Y-78670532D01*
X142787084Y-78652953D01*
X142740055Y-78486203D01*
X142740054Y-78486201D01*
X142738487Y-78480644D01*
X142728281Y-78459947D01*
X142653781Y-78308876D01*
X142651226Y-78303695D01*
X142633402Y-78279825D01*
X142536632Y-78150235D01*
X142536631Y-78150234D01*
X142533179Y-78145611D01*
X142510759Y-78124886D01*
X142392541Y-78015607D01*
X142392539Y-78015605D01*
X142388300Y-78011687D01*
X142221442Y-77906407D01*
X142038192Y-77833297D01*
X142032524Y-77832170D01*
X142032522Y-77832169D01*
X141850355Y-77795934D01*
X141850351Y-77795934D01*
X141844687Y-77794807D01*
X141838912Y-77794731D01*
X141838908Y-77794731D01*
X141740262Y-77793440D01*
X141647408Y-77792224D01*
X141641711Y-77793203D01*
X141641710Y-77793203D01*
X141625817Y-77795934D01*
X141452962Y-77825636D01*
X141267861Y-77893924D01*
X141262900Y-77896876D01*
X141262899Y-77896876D01*
X141103272Y-77991844D01*
X141103269Y-77991846D01*
X141098304Y-77994800D01*
X141093964Y-77998606D01*
X141093960Y-77998609D01*
X141082561Y-78008606D01*
X140949970Y-78124886D01*
X140827825Y-78279825D01*
X140825136Y-78284936D01*
X140825134Y-78284939D01*
X140815266Y-78303695D01*
X140735961Y-78454429D01*
X140695077Y-78586099D01*
X140679448Y-78636434D01*
X140677455Y-78642851D01*
X140654265Y-78838779D01*
X140654643Y-78844545D01*
X140663278Y-78976284D01*
X140647775Y-79045567D01*
X140626643Y-79073620D01*
X139889020Y-79811242D01*
X139179517Y-80520745D01*
X139171191Y-80528321D01*
X139164697Y-80532442D01*
X139159274Y-80538217D01*
X139117915Y-80582260D01*
X139115160Y-80585102D01*
X139095361Y-80604901D01*
X139092937Y-80608026D01*
X139092929Y-80608035D01*
X139092863Y-80608121D01*
X139085155Y-80617146D01*
X139054783Y-80649489D01*
X139050965Y-80656433D01*
X139050964Y-80656435D01*
X139044978Y-80667324D01*
X139034127Y-80683842D01*
X139021650Y-80699928D01*
X139004024Y-80740661D01*
X138998807Y-80751309D01*
X138977431Y-80790192D01*
X138975460Y-80797867D01*
X138975458Y-80797873D01*
X138972369Y-80809906D01*
X138965966Y-80828608D01*
X138957883Y-80847287D01*
X138952752Y-80879683D01*
X138950940Y-80891122D01*
X138948535Y-80902735D01*
X138937500Y-80945713D01*
X138937500Y-80966060D01*
X138935949Y-80985771D01*
X138932765Y-81005874D01*
X138047500Y-81005874D01*
X138047500Y-79308594D01*
X138067502Y-79240473D01*
X138084405Y-79219499D01*
X140306499Y-76997405D01*
X140368811Y-76963379D01*
X140395594Y-76960500D01*
X140799843Y-76960500D01*
X140867964Y-76980502D01*
X140902741Y-77013782D01*
X140908868Y-77022453D01*
X140908874Y-77022460D01*
X140912202Y-77027169D01*
X141053525Y-77164840D01*
X141058321Y-77168045D01*
X141058324Y-77168047D01*
X141169828Y-77242551D01*
X141217571Y-77274452D01*
X141222874Y-77276730D01*
X141222877Y-77276732D01*
X141393537Y-77350053D01*
X141398844Y-77352333D01*
X141492180Y-77373453D01*
X141585639Y-77394601D01*
X141585642Y-77394601D01*
X141591275Y-77395876D01*
X141597046Y-77396103D01*
X141597048Y-77396103D01*
X141656049Y-77398421D01*
X141788418Y-77403622D01*
X141903980Y-77386866D01*
X141977950Y-77376141D01*
X141977954Y-77376140D01*
X141983672Y-77375311D01*
X141989144Y-77373453D01*
X141989146Y-77373453D01*
X142165033Y-77313747D01*
X142165035Y-77313746D01*
X142170497Y-77311892D01*
X142342637Y-77215490D01*
X142494326Y-77089331D01*
X142620485Y-76937642D01*
X142716887Y-76765502D01*
X142736407Y-76708000D01*
X142778448Y-76584151D01*
X142778448Y-76584149D01*
X142780306Y-76578677D01*
X142789094Y-76518072D01*
X142808084Y-76387096D01*
X142808617Y-76383423D01*
X142810094Y-76327000D01*
X142807501Y-76298779D01*
X148594265Y-76298779D01*
X148607169Y-76495652D01*
X148655734Y-76686877D01*
X148738334Y-76866049D01*
X148852202Y-77027169D01*
X148993525Y-77164840D01*
X148998321Y-77168045D01*
X148998324Y-77168047D01*
X149109828Y-77242551D01*
X149157571Y-77274452D01*
X149162874Y-77276730D01*
X149162877Y-77276732D01*
X149333537Y-77350053D01*
X149338844Y-77352333D01*
X149432180Y-77373453D01*
X149525639Y-77394601D01*
X149525642Y-77394601D01*
X149531275Y-77395876D01*
X149537046Y-77396103D01*
X149537048Y-77396103D01*
X149596049Y-77398421D01*
X149728418Y-77403622D01*
X149843980Y-77386866D01*
X149917950Y-77376141D01*
X149917954Y-77376140D01*
X149923672Y-77375311D01*
X149929144Y-77373453D01*
X149929146Y-77373453D01*
X150105033Y-77313747D01*
X150105035Y-77313746D01*
X150110497Y-77311892D01*
X150282637Y-77215490D01*
X150434326Y-77089331D01*
X150560485Y-76937642D01*
X150656887Y-76765502D01*
X150676407Y-76708000D01*
X150718448Y-76584151D01*
X150718448Y-76584149D01*
X150720306Y-76578677D01*
X150729094Y-76518072D01*
X150748084Y-76387096D01*
X150748617Y-76383423D01*
X150750094Y-76327000D01*
X150735314Y-76166148D01*
X150732570Y-76136286D01*
X150732569Y-76136283D01*
X150732041Y-76130532D01*
X150722679Y-76097334D01*
X150680055Y-75946203D01*
X150680054Y-75946201D01*
X150678487Y-75940644D01*
X150668281Y-75919947D01*
X150593781Y-75768876D01*
X150591226Y-75763695D01*
X150581967Y-75751295D01*
X150476632Y-75610235D01*
X150476631Y-75610234D01*
X150473179Y-75605611D01*
X150450759Y-75584886D01*
X150332541Y-75475607D01*
X150332539Y-75475605D01*
X150328300Y-75471687D01*
X150161442Y-75366407D01*
X149978192Y-75293297D01*
X149972524Y-75292170D01*
X149972522Y-75292169D01*
X149790355Y-75255934D01*
X149790351Y-75255934D01*
X149784687Y-75254807D01*
X149778912Y-75254731D01*
X149778908Y-75254731D01*
X149680262Y-75253440D01*
X149587408Y-75252224D01*
X149581711Y-75253203D01*
X149581710Y-75253203D01*
X149565817Y-75255934D01*
X149392962Y-75285636D01*
X149207861Y-75353924D01*
X149202900Y-75356876D01*
X149202899Y-75356876D01*
X149043272Y-75451844D01*
X149043269Y-75451846D01*
X149038304Y-75454800D01*
X149033964Y-75458606D01*
X149033960Y-75458609D01*
X148916603Y-75561529D01*
X148889970Y-75584886D01*
X148767825Y-75739825D01*
X148765136Y-75744936D01*
X148765134Y-75744939D01*
X148736428Y-75799500D01*
X148675961Y-75914429D01*
X148617455Y-76102851D01*
X148594265Y-76298779D01*
X142807501Y-76298779D01*
X142795314Y-76166148D01*
X142792570Y-76136286D01*
X142792569Y-76136283D01*
X142792041Y-76130532D01*
X142782679Y-76097334D01*
X142740055Y-75946203D01*
X142740054Y-75946201D01*
X142738487Y-75940644D01*
X142728281Y-75919947D01*
X142653781Y-75768876D01*
X142651226Y-75763695D01*
X142641967Y-75751295D01*
X142536632Y-75610235D01*
X142536631Y-75610234D01*
X142533179Y-75605611D01*
X142510759Y-75584886D01*
X142392541Y-75475607D01*
X142392539Y-75475605D01*
X142388300Y-75471687D01*
X142221442Y-75366407D01*
X142038192Y-75293297D01*
X142032524Y-75292170D01*
X142032522Y-75292169D01*
X141850355Y-75255934D01*
X141850351Y-75255934D01*
X141844687Y-75254807D01*
X141838912Y-75254731D01*
X141838908Y-75254731D01*
X141740262Y-75253440D01*
X141647408Y-75252224D01*
X141631248Y-75255001D01*
X141560726Y-75246825D01*
X141520816Y-75219916D01*
X141376495Y-75075595D01*
X141342469Y-75013283D01*
X141347534Y-74942468D01*
X141390081Y-74885632D01*
X141456601Y-74860821D01*
X141465590Y-74860500D01*
X142345129Y-74860500D01*
X142407311Y-74853745D01*
X142543700Y-74802615D01*
X142660256Y-74715261D01*
X142747610Y-74598705D01*
X142798740Y-74462316D01*
X142805495Y-74400134D01*
X142805495Y-73758779D01*
X148594265Y-73758779D01*
X148607169Y-73955652D01*
X148655734Y-74146877D01*
X148738334Y-74326049D01*
X148852202Y-74487169D01*
X148993525Y-74624840D01*
X148998321Y-74628045D01*
X148998324Y-74628047D01*
X149063804Y-74671799D01*
X149157571Y-74734452D01*
X149162874Y-74736730D01*
X149162877Y-74736732D01*
X149303688Y-74797229D01*
X149338844Y-74812333D01*
X149432180Y-74833453D01*
X149525639Y-74854601D01*
X149525642Y-74854601D01*
X149531275Y-74855876D01*
X149537046Y-74856103D01*
X149537048Y-74856103D01*
X149590601Y-74858207D01*
X149728418Y-74863622D01*
X149843784Y-74846894D01*
X149917950Y-74836141D01*
X149917954Y-74836140D01*
X149923672Y-74835311D01*
X149929144Y-74833453D01*
X149929146Y-74833453D01*
X150105033Y-74773747D01*
X150105035Y-74773746D01*
X150110497Y-74771892D01*
X150282637Y-74675490D01*
X150434326Y-74549331D01*
X150560485Y-74397642D01*
X150656887Y-74225502D01*
X150672397Y-74179813D01*
X150718448Y-74044151D01*
X150718448Y-74044149D01*
X150720306Y-74038677D01*
X150721702Y-74029054D01*
X150742454Y-73885928D01*
X150748617Y-73843423D01*
X150750094Y-73787000D01*
X150738773Y-73663793D01*
X150732570Y-73596286D01*
X150732569Y-73596283D01*
X150732041Y-73590532D01*
X150723282Y-73559473D01*
X150680055Y-73406203D01*
X150680054Y-73406201D01*
X150678487Y-73400644D01*
X150672005Y-73387498D01*
X150593781Y-73228876D01*
X150591226Y-73223695D01*
X150573402Y-73199825D01*
X150476632Y-73070235D01*
X150476631Y-73070234D01*
X150473179Y-73065611D01*
X150450759Y-73044886D01*
X150332541Y-72935607D01*
X150332539Y-72935605D01*
X150328300Y-72931687D01*
X150161442Y-72826407D01*
X149978192Y-72753297D01*
X149972524Y-72752170D01*
X149972522Y-72752169D01*
X149790355Y-72715934D01*
X149790351Y-72715934D01*
X149784687Y-72714807D01*
X149778912Y-72714731D01*
X149778908Y-72714731D01*
X149680262Y-72713440D01*
X149587408Y-72712224D01*
X149581711Y-72713203D01*
X149581710Y-72713203D01*
X149398659Y-72744657D01*
X149392962Y-72745636D01*
X149207861Y-72813924D01*
X149202900Y-72816876D01*
X149202899Y-72816876D01*
X149043272Y-72911844D01*
X149043269Y-72911846D01*
X149038304Y-72914800D01*
X149033964Y-72918606D01*
X149033960Y-72918609D01*
X148957771Y-72985426D01*
X148889970Y-73044886D01*
X148767825Y-73199825D01*
X148765136Y-73204936D01*
X148765134Y-73204939D01*
X148752540Y-73228876D01*
X148675961Y-73374429D01*
X148617455Y-73562851D01*
X148594265Y-73758779D01*
X142805495Y-73758779D01*
X142805495Y-73173866D01*
X142798740Y-73111684D01*
X142747610Y-72975295D01*
X142660256Y-72858739D01*
X142543700Y-72771385D01*
X142407311Y-72720255D01*
X142345129Y-72713500D01*
X141118861Y-72713500D01*
X141056679Y-72720255D01*
X140920290Y-72771385D01*
X140803734Y-72858739D01*
X140716380Y-72975295D01*
X140665250Y-73111684D01*
X140658495Y-73173866D01*
X140658495Y-74053405D01*
X140638493Y-74121526D01*
X140584837Y-74168019D01*
X140514563Y-74178123D01*
X140449983Y-74148629D01*
X140443400Y-74142500D01*
X138806647Y-72505747D01*
X138799107Y-72497461D01*
X138794995Y-72490982D01*
X138745343Y-72444356D01*
X138742502Y-72441602D01*
X138722765Y-72421865D01*
X138719568Y-72419385D01*
X138710546Y-72411680D01*
X138706093Y-72407498D01*
X138678316Y-72381414D01*
X138671370Y-72377595D01*
X138671367Y-72377593D01*
X138660561Y-72371652D01*
X138644042Y-72360801D01*
X138643578Y-72360441D01*
X138628036Y-72348386D01*
X138620767Y-72345241D01*
X138620763Y-72345238D01*
X138587458Y-72330826D01*
X138576808Y-72325609D01*
X138538055Y-72304305D01*
X138518432Y-72299267D01*
X138499729Y-72292863D01*
X138488415Y-72287967D01*
X138488414Y-72287967D01*
X138481140Y-72284819D01*
X138473317Y-72283580D01*
X138473307Y-72283577D01*
X138437471Y-72277901D01*
X138425851Y-72275495D01*
X138390706Y-72266472D01*
X138390705Y-72266472D01*
X138383025Y-72264500D01*
X138362771Y-72264500D01*
X138343060Y-72262949D01*
X138330881Y-72261020D01*
X138323052Y-72259780D01*
X138315160Y-72260526D01*
X138279034Y-72263941D01*
X138267176Y-72264500D01*
X135005197Y-72264500D01*
X134937076Y-72244498D01*
X134890583Y-72190842D01*
X134885674Y-72178377D01*
X134869867Y-72130998D01*
X134869866Y-72130996D01*
X134867550Y-72124054D01*
X134774478Y-71973652D01*
X134649303Y-71848695D01*
X134643072Y-71844854D01*
X134504968Y-71759725D01*
X134504966Y-71759724D01*
X134498738Y-71755885D01*
X134418995Y-71729436D01*
X134337389Y-71702368D01*
X134337387Y-71702368D01*
X134330861Y-71700203D01*
X134324025Y-71699503D01*
X134324022Y-71699502D01*
X134280969Y-71695091D01*
X134226400Y-71689500D01*
X133425600Y-71689500D01*
X133422354Y-71689837D01*
X133422350Y-71689837D01*
X133326692Y-71699762D01*
X133326688Y-71699763D01*
X133319834Y-71700474D01*
X133313298Y-71702655D01*
X133313296Y-71702655D01*
X133296928Y-71708116D01*
X133152054Y-71756450D01*
X133001652Y-71849522D01*
X132996479Y-71854704D01*
X132914862Y-71936463D01*
X132852579Y-71970542D01*
X132781759Y-71965539D01*
X132736671Y-71936618D01*
X132654171Y-71854261D01*
X132642760Y-71845249D01*
X132504757Y-71760184D01*
X132491576Y-71754037D01*
X132337290Y-71702862D01*
X132323914Y-71699995D01*
X132229562Y-71690328D01*
X132223145Y-71690000D01*
X132098115Y-71690000D01*
X132082876Y-71694475D01*
X132081671Y-71695865D01*
X132080000Y-71703548D01*
X132080000Y-74087884D01*
X132084475Y-74103123D01*
X132085865Y-74104328D01*
X132093548Y-74105999D01*
X132223095Y-74105999D01*
X132229614Y-74105662D01*
X132325206Y-74095743D01*
X132338600Y-74092851D01*
X132492784Y-74041412D01*
X132505962Y-74035239D01*
X132643807Y-73949937D01*
X132655208Y-73940901D01*
X132736430Y-73859538D01*
X132798713Y-73825459D01*
X132869533Y-73830462D01*
X132914620Y-73859383D01*
X132997512Y-73942130D01*
X132997517Y-73942134D01*
X133002697Y-73947305D01*
X133008927Y-73951145D01*
X133008928Y-73951146D01*
X133146937Y-74036216D01*
X133153262Y-74040115D01*
X133215954Y-74060909D01*
X133314611Y-74093632D01*
X133314613Y-74093632D01*
X133321139Y-74095797D01*
X133327975Y-74096497D01*
X133327978Y-74096498D01*
X133371031Y-74100909D01*
X133425600Y-74106500D01*
X134226400Y-74106500D01*
X134229646Y-74106163D01*
X134229650Y-74106163D01*
X134325308Y-74096238D01*
X134325312Y-74096237D01*
X134332166Y-74095526D01*
X134338702Y-74093345D01*
X134338704Y-74093345D01*
X134486155Y-74044151D01*
X134499946Y-74039550D01*
X134650348Y-73946478D01*
X134775305Y-73821303D01*
X134790845Y-73796093D01*
X134864275Y-73676968D01*
X134864276Y-73676966D01*
X134868115Y-73670738D01*
X134885663Y-73617832D01*
X134926094Y-73559473D01*
X134991658Y-73532236D01*
X135005256Y-73531500D01*
X137988401Y-73531500D01*
X138056522Y-73551502D01*
X138077496Y-73568405D01*
X140002618Y-75493527D01*
X140036644Y-75555839D01*
X140031579Y-75626654D01*
X139989032Y-75683490D01*
X139937431Y-75704346D01*
X139937743Y-75705562D01*
X139930067Y-75707533D01*
X139922203Y-75708526D01*
X139914837Y-75711442D01*
X139914831Y-75711444D01*
X139881098Y-75724800D01*
X139869868Y-75728645D01*
X139835017Y-75738770D01*
X139827407Y-75740981D01*
X139820584Y-75745016D01*
X139809966Y-75751295D01*
X139792213Y-75759992D01*
X139784568Y-75763019D01*
X139773383Y-75767448D01*
X139766968Y-75772109D01*
X139737612Y-75793437D01*
X139727695Y-75799951D01*
X139689638Y-75822458D01*
X139675317Y-75836779D01*
X139660284Y-75849619D01*
X139643893Y-75861528D01*
X139638842Y-75867634D01*
X139615702Y-75895605D01*
X139607712Y-75904384D01*
X137021747Y-78490348D01*
X137013461Y-78497888D01*
X137006982Y-78502000D01*
X137001557Y-78507777D01*
X136960357Y-78551651D01*
X136957602Y-78554493D01*
X136937865Y-78574230D01*
X136935385Y-78577427D01*
X136927682Y-78586447D01*
X136897414Y-78618679D01*
X136893595Y-78625625D01*
X136893593Y-78625628D01*
X136887652Y-78636434D01*
X136876801Y-78652953D01*
X136864386Y-78668959D01*
X136861241Y-78676228D01*
X136861238Y-78676232D01*
X136846826Y-78709537D01*
X136841609Y-78720187D01*
X136820305Y-78758940D01*
X136818334Y-78766615D01*
X136818334Y-78766616D01*
X136815267Y-78778562D01*
X136808863Y-78797266D01*
X136800819Y-78815855D01*
X136799580Y-78823678D01*
X136799577Y-78823688D01*
X136793901Y-78859524D01*
X136791495Y-78871144D01*
X136780500Y-78913970D01*
X136780500Y-78934224D01*
X136778949Y-78953934D01*
X136775780Y-78973943D01*
X136776526Y-78981835D01*
X136779941Y-79017961D01*
X136780500Y-79029819D01*
X136780500Y-86027233D01*
X136779973Y-86038416D01*
X136778298Y-86045909D01*
X136778547Y-86053835D01*
X136778547Y-86053836D01*
X136780438Y-86113986D01*
X136780500Y-86117945D01*
X136780500Y-86145856D01*
X136780997Y-86149790D01*
X136780997Y-86149791D01*
X136781005Y-86149856D01*
X136781938Y-86161693D01*
X136783327Y-86205889D01*
X136788978Y-86225339D01*
X136792987Y-86244700D01*
X136795526Y-86264797D01*
X136798445Y-86272168D01*
X136798445Y-86272170D01*
X136811804Y-86305912D01*
X136815649Y-86317142D01*
X136824982Y-86349266D01*
X136827982Y-86359593D01*
X136832015Y-86366412D01*
X136832017Y-86366417D01*
X136838293Y-86377028D01*
X136846988Y-86394776D01*
X136854448Y-86413617D01*
X136859110Y-86420033D01*
X136859110Y-86420034D01*
X136880436Y-86449387D01*
X136886952Y-86459307D01*
X136897975Y-86477945D01*
X136909458Y-86497362D01*
X136923779Y-86511683D01*
X136936619Y-86526716D01*
X136948528Y-86543107D01*
X136954634Y-86548158D01*
X136982605Y-86571298D01*
X136991384Y-86579288D01*
X142117348Y-91705253D01*
X142124888Y-91713539D01*
X142129000Y-91720018D01*
X142134777Y-91725443D01*
X142178651Y-91766643D01*
X142181493Y-91769398D01*
X142201230Y-91789135D01*
X142204427Y-91791615D01*
X142213447Y-91799318D01*
X142245679Y-91829586D01*
X142252625Y-91833405D01*
X142252628Y-91833407D01*
X142263434Y-91839348D01*
X142279953Y-91850199D01*
X142295959Y-91862614D01*
X142303228Y-91865759D01*
X142303232Y-91865762D01*
X142336537Y-91880174D01*
X142347187Y-91885391D01*
X142385940Y-91906695D01*
X142393615Y-91908666D01*
X142393616Y-91908666D01*
X142405562Y-91911733D01*
X142424266Y-91918137D01*
X142425348Y-91918605D01*
X142442855Y-91926181D01*
X142450678Y-91927420D01*
X142450688Y-91927423D01*
X142486524Y-91933099D01*
X142498144Y-91935505D01*
X142529959Y-91943673D01*
X142540970Y-91946500D01*
X142561224Y-91946500D01*
X142580934Y-91948051D01*
X142600943Y-91951220D01*
X142608835Y-91950474D01*
X142627580Y-91948702D01*
X142644962Y-91947059D01*
X142656819Y-91946500D01*
X145590233Y-91946500D01*
X145601416Y-91947027D01*
X145608909Y-91948702D01*
X145616835Y-91948453D01*
X145616836Y-91948453D01*
X145676986Y-91946562D01*
X145680945Y-91946500D01*
X145708856Y-91946500D01*
X145712791Y-91946003D01*
X145712856Y-91945995D01*
X145724693Y-91945062D01*
X145756951Y-91944048D01*
X145760970Y-91943922D01*
X145768889Y-91943673D01*
X145788343Y-91938021D01*
X145807700Y-91934013D01*
X145819930Y-91932468D01*
X145819931Y-91932468D01*
X145827797Y-91931474D01*
X145835168Y-91928555D01*
X145835170Y-91928555D01*
X145868912Y-91915196D01*
X145880142Y-91911351D01*
X145914983Y-91901229D01*
X145914984Y-91901229D01*
X145922593Y-91899018D01*
X145929412Y-91894985D01*
X145929417Y-91894983D01*
X145940028Y-91888707D01*
X145957776Y-91880012D01*
X145976617Y-91872552D01*
X146012387Y-91846564D01*
X146022307Y-91840048D01*
X146053535Y-91821580D01*
X146053538Y-91821578D01*
X146060362Y-91817542D01*
X146074683Y-91803221D01*
X146089717Y-91790380D01*
X146099694Y-91783131D01*
X146106107Y-91778472D01*
X146134298Y-91744395D01*
X146142288Y-91735616D01*
X149510500Y-88367405D01*
X149572812Y-88333379D01*
X149599595Y-88330500D01*
X150292400Y-88330500D01*
X150295646Y-88330163D01*
X150295650Y-88330163D01*
X150391308Y-88320238D01*
X150391312Y-88320237D01*
X150398166Y-88319526D01*
X150404702Y-88317345D01*
X150404704Y-88317345D01*
X150557290Y-88266438D01*
X150565946Y-88263550D01*
X150716348Y-88170478D01*
X150802784Y-88083891D01*
X150865066Y-88049812D01*
X150935886Y-88054815D01*
X150980975Y-88083736D01*
X151037838Y-88140500D01*
X151068697Y-88171305D01*
X151074927Y-88175145D01*
X151074928Y-88175146D01*
X151212288Y-88259816D01*
X151219262Y-88264115D01*
X151299005Y-88290564D01*
X151380611Y-88317632D01*
X151380613Y-88317632D01*
X151387139Y-88319797D01*
X151393975Y-88320497D01*
X151393978Y-88320498D01*
X151437031Y-88324909D01*
X151491600Y-88330500D01*
X152292400Y-88330500D01*
X152295646Y-88330163D01*
X152295650Y-88330163D01*
X152391308Y-88320238D01*
X152391312Y-88320237D01*
X152398166Y-88319526D01*
X152404702Y-88317345D01*
X152404704Y-88317345D01*
X152557290Y-88266438D01*
X152565946Y-88263550D01*
X152716348Y-88170478D01*
X152841305Y-88045303D01*
X152845338Y-88038760D01*
X152930275Y-87900968D01*
X152930276Y-87900966D01*
X152934115Y-87894738D01*
X152968944Y-87789730D01*
X152987632Y-87733389D01*
X152987632Y-87733387D01*
X152989797Y-87726861D01*
X152991767Y-87707640D01*
X152995699Y-87669256D01*
X153000500Y-87622400D01*
X153000500Y-86621600D01*
X153000163Y-86618350D01*
X152990238Y-86522692D01*
X152990237Y-86522688D01*
X152989526Y-86515834D01*
X152986671Y-86507275D01*
X152939676Y-86366417D01*
X152933550Y-86348054D01*
X152840478Y-86197652D01*
X152715303Y-86072695D01*
X152684708Y-86053836D01*
X152585384Y-85992611D01*
X152537890Y-85939838D01*
X152525500Y-85885351D01*
X152525500Y-79181594D01*
X152545502Y-79113473D01*
X152562405Y-79092499D01*
X153424284Y-78230621D01*
X154316253Y-77338652D01*
X154324539Y-77331112D01*
X154331018Y-77327000D01*
X154377644Y-77277348D01*
X154380398Y-77274507D01*
X154400135Y-77254770D01*
X154402615Y-77251573D01*
X154410320Y-77242551D01*
X154440586Y-77210321D01*
X154444405Y-77203375D01*
X154444407Y-77203372D01*
X154450348Y-77192566D01*
X154461199Y-77176047D01*
X154468758Y-77166301D01*
X154473614Y-77160041D01*
X154476759Y-77152772D01*
X154476762Y-77152768D01*
X154491174Y-77119463D01*
X154496391Y-77108813D01*
X154517695Y-77070060D01*
X154522733Y-77050437D01*
X154529137Y-77031734D01*
X154534033Y-77020420D01*
X154534033Y-77020419D01*
X154537181Y-77013145D01*
X154538420Y-77005322D01*
X154538423Y-77005312D01*
X154544099Y-76969476D01*
X154546505Y-76957856D01*
X154555528Y-76922711D01*
X154555528Y-76922710D01*
X154557500Y-76915030D01*
X154557500Y-76894776D01*
X154559051Y-76875065D01*
X154560980Y-76862886D01*
X154562220Y-76855057D01*
X154558059Y-76811038D01*
X154557500Y-76799181D01*
X154557500Y-65222793D01*
X154559732Y-65199184D01*
X154559790Y-65198881D01*
X154559790Y-65198877D01*
X154561275Y-65191094D01*
X154557749Y-65135049D01*
X154557500Y-65127138D01*
X154557500Y-65111144D01*
X154555494Y-65095270D01*
X154554751Y-65087402D01*
X154553718Y-65070970D01*
X154551225Y-65031350D01*
X154548679Y-65023513D01*
X154543506Y-65000369D01*
X154543468Y-65000065D01*
X154543467Y-65000060D01*
X154542474Y-64992203D01*
X154539558Y-64984838D01*
X154539557Y-64984834D01*
X154521801Y-64939989D01*
X154519129Y-64932570D01*
X154501764Y-64879125D01*
X154497514Y-64872428D01*
X154497350Y-64872169D01*
X154486585Y-64851042D01*
X154486471Y-64850754D01*
X154486468Y-64850749D01*
X154483552Y-64843383D01*
X154478896Y-64836975D01*
X154478893Y-64836969D01*
X154450542Y-64797948D01*
X154446092Y-64791401D01*
X154416000Y-64743982D01*
X154409993Y-64738341D01*
X154394312Y-64720554D01*
X154394134Y-64720309D01*
X154394132Y-64720307D01*
X154389472Y-64713893D01*
X154383362Y-64708838D01*
X154346204Y-64678097D01*
X154340270Y-64672866D01*
X154305102Y-64639842D01*
X154305099Y-64639840D01*
X154299321Y-64634414D01*
X154292097Y-64630442D01*
X154272494Y-64617119D01*
X154272254Y-64616920D01*
X154272247Y-64616916D01*
X154266144Y-64611867D01*
X154215324Y-64587953D01*
X154208292Y-64584371D01*
X154159060Y-64557305D01*
X154151385Y-64555335D01*
X154151379Y-64555332D01*
X154151081Y-64555256D01*
X154128772Y-64547224D01*
X154128497Y-64547094D01*
X154128489Y-64547091D01*
X154121318Y-64543717D01*
X154066151Y-64533194D01*
X154058442Y-64531471D01*
X154024449Y-64522743D01*
X154011707Y-64519471D01*
X154011706Y-64519471D01*
X154004030Y-64517500D01*
X153995793Y-64517500D01*
X153972184Y-64515268D01*
X153971881Y-64515210D01*
X153971877Y-64515210D01*
X153964094Y-64513725D01*
X153908049Y-64517251D01*
X153900138Y-64517500D01*
X128722793Y-64517500D01*
X128699184Y-64515268D01*
X128698881Y-64515210D01*
X128698877Y-64515210D01*
X128691094Y-64513725D01*
X128635049Y-64517251D01*
X128627138Y-64517500D01*
X128611144Y-64517500D01*
X128595270Y-64519506D01*
X128587410Y-64520248D01*
X128559951Y-64521976D01*
X128539263Y-64523277D01*
X128539262Y-64523277D01*
X128531350Y-64523775D01*
X128523809Y-64526225D01*
X128523513Y-64526321D01*
X128500369Y-64531494D01*
X128500065Y-64531532D01*
X128500060Y-64531533D01*
X128492203Y-64532526D01*
X128484838Y-64535442D01*
X128484834Y-64535443D01*
X128439989Y-64553199D01*
X128432570Y-64555871D01*
X128379125Y-64573236D01*
X128372429Y-64577486D01*
X128372428Y-64577486D01*
X128372169Y-64577650D01*
X128351042Y-64588415D01*
X128350754Y-64588529D01*
X128350749Y-64588532D01*
X128343383Y-64591448D01*
X128336975Y-64596104D01*
X128336969Y-64596107D01*
X128297948Y-64624458D01*
X128291411Y-64628901D01*
X128243982Y-64659000D01*
X128238556Y-64664778D01*
X128238555Y-64664779D01*
X128238341Y-64665007D01*
X128220554Y-64680688D01*
X128220309Y-64680866D01*
X128220307Y-64680868D01*
X128213893Y-64685528D01*
X128208839Y-64691637D01*
X128208838Y-64691638D01*
X128178097Y-64728796D01*
X128172866Y-64734730D01*
X128139842Y-64769898D01*
X128139840Y-64769901D01*
X128134414Y-64775679D01*
X128130445Y-64782899D01*
X128117119Y-64802506D01*
X128116920Y-64802746D01*
X128116916Y-64802753D01*
X128111867Y-64808856D01*
X128108493Y-64816027D01*
X128087953Y-64859676D01*
X128084371Y-64866708D01*
X128057305Y-64915940D01*
X128055335Y-64923615D01*
X128055332Y-64923621D01*
X128055256Y-64923919D01*
X128047224Y-64946228D01*
X128047094Y-64946503D01*
X128047091Y-64946511D01*
X128043717Y-64953682D01*
X128041780Y-64963837D01*
X128033195Y-65008843D01*
X128031471Y-65016558D01*
X128017500Y-65070970D01*
X128017500Y-65079207D01*
X128015268Y-65102816D01*
X128013725Y-65110906D01*
X128014467Y-65122702D01*
X128017251Y-65166951D01*
X128017500Y-65174862D01*
X128017500Y-77627887D01*
X128016829Y-77638540D01*
X128015500Y-77643718D01*
X128015500Y-82107578D01*
X127995498Y-82175699D01*
X127978595Y-82196673D01*
X123471672Y-86703595D01*
X123409360Y-86737621D01*
X123382577Y-86740500D01*
X117728500Y-86740500D01*
X117660379Y-86720498D01*
X117613886Y-86666842D01*
X117602500Y-86614500D01*
X117602500Y-83310777D01*
X117622502Y-83242656D01*
X117663135Y-83203058D01*
X117777578Y-83133612D01*
X117777582Y-83133609D01*
X117782144Y-83130841D01*
X117958834Y-82977517D01*
X118107165Y-82796614D01*
X118109801Y-82791984D01*
X118109804Y-82791979D01*
X118128301Y-82759484D01*
X118179384Y-82710178D01*
X118249015Y-82696317D01*
X118315085Y-82722301D01*
X118342323Y-82751450D01*
X118428798Y-82879896D01*
X118432477Y-82883753D01*
X118432479Y-82883755D01*
X118477549Y-82931000D01*
X118590276Y-83049168D01*
X118777965Y-83188813D01*
X118782716Y-83191229D01*
X118782720Y-83191231D01*
X118897197Y-83249434D01*
X118986500Y-83294838D01*
X119209917Y-83364210D01*
X119215204Y-83364911D01*
X119215205Y-83364911D01*
X119436545Y-83394248D01*
X119436549Y-83394248D01*
X119441829Y-83394948D01*
X119447158Y-83394748D01*
X119447160Y-83394748D01*
X119558717Y-83390560D01*
X119675604Y-83386172D01*
X119787813Y-83362628D01*
X119899332Y-83339229D01*
X119899335Y-83339228D01*
X119904559Y-83338132D01*
X120122146Y-83252203D01*
X120317578Y-83133612D01*
X120317583Y-83133609D01*
X120317586Y-83133607D01*
X120322144Y-83130841D01*
X120498834Y-82977517D01*
X120647165Y-82796614D01*
X120649801Y-82791984D01*
X120649804Y-82791979D01*
X120668301Y-82759484D01*
X120719384Y-82710178D01*
X120789015Y-82696317D01*
X120855085Y-82722301D01*
X120882323Y-82751450D01*
X120968798Y-82879896D01*
X120972477Y-82883753D01*
X120972479Y-82883755D01*
X121017549Y-82931000D01*
X121130276Y-83049168D01*
X121317965Y-83188813D01*
X121322716Y-83191229D01*
X121322720Y-83191231D01*
X121437197Y-83249434D01*
X121526500Y-83294838D01*
X121749917Y-83364210D01*
X121755204Y-83364911D01*
X121755205Y-83364911D01*
X121976545Y-83394248D01*
X121976549Y-83394248D01*
X121981829Y-83394948D01*
X121987158Y-83394748D01*
X121987160Y-83394748D01*
X122098717Y-83390560D01*
X122215604Y-83386172D01*
X122327813Y-83362628D01*
X122439332Y-83339229D01*
X122439335Y-83339228D01*
X122444559Y-83338132D01*
X122662146Y-83252203D01*
X122857578Y-83133612D01*
X122857583Y-83133609D01*
X122857586Y-83133607D01*
X122862144Y-83130841D01*
X123038834Y-82977517D01*
X123187165Y-82796614D01*
X123265612Y-82658803D01*
X123300255Y-82597945D01*
X123300256Y-82597943D01*
X123302896Y-82593305D01*
X123382716Y-82373404D01*
X123389562Y-82335548D01*
X123414674Y-82196673D01*
X123424344Y-82143197D01*
X123425500Y-82118684D01*
X123425500Y-81504262D01*
X123418060Y-81416580D01*
X123411156Y-81335209D01*
X123411155Y-81335205D01*
X123410705Y-81329898D01*
X123390570Y-81252322D01*
X123353275Y-81108629D01*
X123353274Y-81108625D01*
X123351933Y-81103460D01*
X123334801Y-81065427D01*
X123258045Y-80895036D01*
X123255850Y-80890163D01*
X123248795Y-80879683D01*
X123188546Y-80790192D01*
X123125202Y-80696104D01*
X123119604Y-80690235D01*
X123036012Y-80602609D01*
X122963724Y-80526832D01*
X122859768Y-80449486D01*
X122780323Y-80390377D01*
X122780317Y-80390373D01*
X122776035Y-80387187D01*
X122749392Y-80373641D01*
X122697736Y-80324938D01*
X122680500Y-80261326D01*
X122680500Y-79548768D01*
X122681027Y-79537585D01*
X122682702Y-79530092D01*
X122680562Y-79462001D01*
X122680500Y-79458044D01*
X122680500Y-79430144D01*
X122679996Y-79426153D01*
X122679063Y-79414311D01*
X122678804Y-79406049D01*
X122677674Y-79370111D01*
X122675462Y-79362497D01*
X122675461Y-79362492D01*
X122672023Y-79350659D01*
X122668012Y-79331295D01*
X122666467Y-79319064D01*
X122665474Y-79311203D01*
X122662557Y-79303836D01*
X122662556Y-79303831D01*
X122649198Y-79270092D01*
X122645354Y-79258865D01*
X122635230Y-79224022D01*
X122633018Y-79216407D01*
X122622707Y-79198972D01*
X122614012Y-79181224D01*
X122606552Y-79162383D01*
X122580564Y-79126613D01*
X122574048Y-79116693D01*
X122555580Y-79085465D01*
X122555578Y-79085462D01*
X122551542Y-79078638D01*
X122537221Y-79064317D01*
X122524380Y-79049283D01*
X122521680Y-79045567D01*
X122512472Y-79032893D01*
X122478395Y-79004702D01*
X122469616Y-78996712D01*
X120486049Y-77013145D01*
X119698617Y-76225712D01*
X119664592Y-76163402D01*
X119669657Y-76092587D01*
X119712204Y-76035751D01*
X119780371Y-76011084D01*
X119780362Y-76010999D01*
X119780705Y-76010963D01*
X119781190Y-76010788D01*
X119783600Y-76010663D01*
X119879206Y-76000743D01*
X119892600Y-75997851D01*
X120046784Y-75946412D01*
X120059962Y-75940239D01*
X120197807Y-75854937D01*
X120209208Y-75845901D01*
X120323739Y-75731171D01*
X120332751Y-75719760D01*
X120417816Y-75581757D01*
X120423963Y-75568576D01*
X120475138Y-75414290D01*
X120478005Y-75400914D01*
X120487672Y-75306562D01*
X120488000Y-75300146D01*
X120488000Y-75075115D01*
X120483525Y-75059876D01*
X120482135Y-75058671D01*
X120474452Y-75057000D01*
X119252000Y-75057000D01*
X119183879Y-75036998D01*
X119137386Y-74983342D01*
X119126000Y-74931000D01*
X119126000Y-74530885D01*
X119634000Y-74530885D01*
X119638475Y-74546124D01*
X119639865Y-74547329D01*
X119647548Y-74549000D01*
X120469884Y-74549000D01*
X120485123Y-74544525D01*
X120486328Y-74543135D01*
X120487999Y-74535452D01*
X120487999Y-74305905D01*
X120487662Y-74299386D01*
X120477743Y-74203794D01*
X120474851Y-74190400D01*
X120423412Y-74036216D01*
X120417239Y-74023038D01*
X120331937Y-73885193D01*
X120322901Y-73873792D01*
X120208171Y-73759261D01*
X120196760Y-73750249D01*
X120058757Y-73665184D01*
X120045576Y-73659037D01*
X119891290Y-73607862D01*
X119877914Y-73604995D01*
X119783562Y-73595328D01*
X119777145Y-73595000D01*
X119652115Y-73595000D01*
X119636876Y-73599475D01*
X119635671Y-73600865D01*
X119634000Y-73608548D01*
X119634000Y-74530885D01*
X119126000Y-74530885D01*
X119126000Y-73613116D01*
X119121525Y-73597877D01*
X119120135Y-73596672D01*
X119112452Y-73595001D01*
X118982905Y-73595001D01*
X118976386Y-73595338D01*
X118880794Y-73605257D01*
X118867400Y-73608149D01*
X118713216Y-73659588D01*
X118700038Y-73665761D01*
X118562193Y-73751063D01*
X118550792Y-73760099D01*
X118469570Y-73841462D01*
X118407287Y-73875541D01*
X118336467Y-73870538D01*
X118291380Y-73841617D01*
X118208488Y-73758870D01*
X118208483Y-73758866D01*
X118203303Y-73753695D01*
X118158374Y-73726000D01*
X118058968Y-73664725D01*
X118058966Y-73664724D01*
X118052738Y-73660885D01*
X117935705Y-73622067D01*
X117891389Y-73607368D01*
X117891387Y-73607368D01*
X117884861Y-73605203D01*
X117878025Y-73604503D01*
X117878022Y-73604502D01*
X117834969Y-73600091D01*
X117780400Y-73594500D01*
X116979600Y-73594500D01*
X116976354Y-73594837D01*
X116976350Y-73594837D01*
X116880692Y-73604762D01*
X116880688Y-73604763D01*
X116873834Y-73605474D01*
X116867298Y-73607655D01*
X116867296Y-73607655D01*
X116759991Y-73643455D01*
X116706054Y-73661450D01*
X116555652Y-73754522D01*
X116430695Y-73879697D01*
X116426855Y-73885927D01*
X116426854Y-73885928D01*
X116368179Y-73981117D01*
X116337885Y-74030262D01*
X116282203Y-74198139D01*
X116282118Y-74198969D01*
X116249392Y-74259329D01*
X116187181Y-74293540D01*
X116160031Y-74296500D01*
X114117596Y-74296500D01*
X114049475Y-74276498D01*
X114002982Y-74222842D01*
X113992878Y-74152568D01*
X114022372Y-74087988D01*
X114028501Y-74081405D01*
X114195001Y-73914905D01*
X114257313Y-73880879D01*
X114284096Y-73878000D01*
X114339987Y-73878000D01*
X114346439Y-73876628D01*
X114346444Y-73876628D01*
X114433388Y-73858147D01*
X114526788Y-73838294D01*
X114555616Y-73825459D01*
X114695222Y-73763303D01*
X114695224Y-73763302D01*
X114701252Y-73760618D01*
X114709643Y-73754522D01*
X114767785Y-73712279D01*
X114855753Y-73648366D01*
X114879695Y-73621776D01*
X114979121Y-73511352D01*
X114979122Y-73511351D01*
X114983540Y-73506444D01*
X115079027Y-73341056D01*
X115138042Y-73159428D01*
X115142330Y-73118635D01*
X115155407Y-72994207D01*
X115182420Y-72928550D01*
X115191622Y-72918282D01*
X117141499Y-70968405D01*
X117203811Y-70934379D01*
X117230594Y-70931500D01*
X117891400Y-70931500D01*
X117894646Y-70931163D01*
X117894650Y-70931163D01*
X117990308Y-70921238D01*
X117990312Y-70921237D01*
X117997166Y-70920526D01*
X118003702Y-70918345D01*
X118003704Y-70918345D01*
X118157998Y-70866868D01*
X118164946Y-70864550D01*
X118315348Y-70771478D01*
X118320915Y-70765901D01*
X118402138Y-70684537D01*
X118464421Y-70650458D01*
X118535241Y-70655461D01*
X118580329Y-70684382D01*
X118662829Y-70766739D01*
X118674240Y-70775751D01*
X118812243Y-70860816D01*
X118825424Y-70866963D01*
X118979710Y-70918138D01*
X118993086Y-70921005D01*
X119087438Y-70930672D01*
X119093854Y-70931000D01*
X119218885Y-70931000D01*
X119234124Y-70926525D01*
X119235329Y-70925135D01*
X119237000Y-70917452D01*
X119237000Y-70912884D01*
X119745000Y-70912884D01*
X119749475Y-70928123D01*
X119750865Y-70929328D01*
X119758548Y-70930999D01*
X119888095Y-70930999D01*
X119894614Y-70930662D01*
X119990206Y-70920743D01*
X120003600Y-70917851D01*
X120157784Y-70866412D01*
X120170962Y-70860239D01*
X120308807Y-70774937D01*
X120320208Y-70765901D01*
X120434739Y-70651171D01*
X120443751Y-70639760D01*
X120528816Y-70501757D01*
X120534963Y-70488576D01*
X120586138Y-70334290D01*
X120589005Y-70320914D01*
X120598672Y-70226562D01*
X120599000Y-70220146D01*
X120599000Y-69995115D01*
X120594525Y-69979876D01*
X120593135Y-69978671D01*
X120585452Y-69977000D01*
X119763115Y-69977000D01*
X119747876Y-69981475D01*
X119746671Y-69982865D01*
X119745000Y-69990548D01*
X119745000Y-70912884D01*
X119237000Y-70912884D01*
X119237000Y-69450885D01*
X119745000Y-69450885D01*
X119749475Y-69466124D01*
X119750865Y-69467329D01*
X119758548Y-69469000D01*
X120580884Y-69469000D01*
X120596123Y-69464525D01*
X120597328Y-69463135D01*
X120598999Y-69455452D01*
X120598999Y-69225905D01*
X120598662Y-69219386D01*
X120588743Y-69123794D01*
X120585851Y-69110400D01*
X120534412Y-68956216D01*
X120528239Y-68943038D01*
X120442937Y-68805193D01*
X120433901Y-68793792D01*
X120319171Y-68679261D01*
X120307760Y-68670249D01*
X120169757Y-68585184D01*
X120156576Y-68579037D01*
X120002290Y-68527862D01*
X119988914Y-68524995D01*
X119894562Y-68515328D01*
X119888145Y-68515000D01*
X119763115Y-68515000D01*
X119747876Y-68519475D01*
X119746671Y-68520865D01*
X119745000Y-68528548D01*
X119745000Y-69450885D01*
X119237000Y-69450885D01*
X119237000Y-68533116D01*
X119232525Y-68517877D01*
X119231135Y-68516672D01*
X119223452Y-68515001D01*
X119093905Y-68515001D01*
X119087386Y-68515338D01*
X118991794Y-68525257D01*
X118978400Y-68528149D01*
X118824216Y-68579588D01*
X118811038Y-68585761D01*
X118673193Y-68671063D01*
X118661792Y-68680099D01*
X118580570Y-68761462D01*
X118518287Y-68795541D01*
X118447467Y-68790538D01*
X118402380Y-68761617D01*
X118319488Y-68678870D01*
X118319483Y-68678866D01*
X118314303Y-68673695D01*
X118308072Y-68669854D01*
X118169968Y-68584725D01*
X118169966Y-68584724D01*
X118163738Y-68580885D01*
X118083995Y-68554436D01*
X118002389Y-68527368D01*
X118002387Y-68527368D01*
X117995861Y-68525203D01*
X117989025Y-68524503D01*
X117989022Y-68524502D01*
X117945969Y-68520091D01*
X117891400Y-68514500D01*
X117090600Y-68514500D01*
X117087354Y-68514837D01*
X117087350Y-68514837D01*
X116991692Y-68524762D01*
X116991688Y-68524763D01*
X116984834Y-68525474D01*
X116978298Y-68527655D01*
X116978296Y-68527655D01*
X116961928Y-68533116D01*
X116817054Y-68581450D01*
X116666652Y-68674522D01*
X116541695Y-68799697D01*
X116537855Y-68805927D01*
X116537854Y-68805928D01*
X116478930Y-68901521D01*
X116448885Y-68950262D01*
X116393203Y-69118139D01*
X116382500Y-69222600D01*
X116382500Y-69883405D01*
X116362498Y-69951526D01*
X116345595Y-69972500D01*
X114294000Y-72024095D01*
X114231688Y-72058121D01*
X114204905Y-72061000D01*
X114149013Y-72061000D01*
X114142561Y-72062372D01*
X114142556Y-72062372D01*
X114055612Y-72080853D01*
X113962212Y-72100706D01*
X113956182Y-72103391D01*
X113956181Y-72103391D01*
X113793778Y-72175697D01*
X113793776Y-72175698D01*
X113787748Y-72178382D01*
X113633247Y-72290634D01*
X113628826Y-72295544D01*
X113628825Y-72295545D01*
X113539782Y-72394438D01*
X113505460Y-72432556D01*
X113409973Y-72597944D01*
X113350958Y-72779572D01*
X113350268Y-72786133D01*
X113350268Y-72786135D01*
X113345712Y-72829486D01*
X113336306Y-72918983D01*
X113333593Y-72944792D01*
X113306580Y-73010449D01*
X113297378Y-73020718D01*
X112947499Y-73370596D01*
X112885187Y-73404621D01*
X112858404Y-73407500D01*
X108582672Y-73407500D01*
X108514551Y-73387498D01*
X108468058Y-73333842D01*
X108457954Y-73263568D01*
X108471163Y-73222833D01*
X108523397Y-73123552D01*
X108527799Y-73112926D01*
X108588051Y-72918882D01*
X108590443Y-72907628D01*
X108609964Y-72742702D01*
X108610400Y-72735299D01*
X108610400Y-72281115D01*
X108605925Y-72265876D01*
X108604535Y-72264671D01*
X108596852Y-72263000D01*
X107314000Y-72263000D01*
X107245879Y-72242998D01*
X107199386Y-72189342D01*
X107188000Y-72137000D01*
X107188000Y-71736885D01*
X107696000Y-71736885D01*
X107700475Y-71752124D01*
X107701865Y-71753329D01*
X107709548Y-71755000D01*
X108592285Y-71755000D01*
X108607524Y-71750525D01*
X108608729Y-71749135D01*
X108610400Y-71741452D01*
X108610400Y-71297019D01*
X108610134Y-71291230D01*
X108596286Y-71140521D01*
X108594188Y-71129200D01*
X108539038Y-70933653D01*
X108534913Y-70922906D01*
X108445048Y-70740678D01*
X108439038Y-70730870D01*
X108317464Y-70568062D01*
X108309775Y-70559522D01*
X108160564Y-70421593D01*
X108151439Y-70414592D01*
X107979599Y-70306169D01*
X107969351Y-70300948D01*
X107780633Y-70225657D01*
X107769597Y-70222388D01*
X107713770Y-70211283D01*
X107700894Y-70212435D01*
X107696000Y-70227591D01*
X107696000Y-71736885D01*
X107188000Y-71736885D01*
X107188000Y-70224752D01*
X107184194Y-70211790D01*
X107169278Y-70209854D01*
X107143997Y-70214198D01*
X107132877Y-70217178D01*
X106942252Y-70287503D01*
X106931874Y-70292453D01*
X106757257Y-70396339D01*
X106747945Y-70403105D01*
X106595182Y-70537074D01*
X106587265Y-70545417D01*
X106461477Y-70704978D01*
X106455206Y-70714635D01*
X106360606Y-70894440D01*
X106356201Y-70905074D01*
X106295947Y-71099123D01*
X106294679Y-71105090D01*
X106260949Y-71167563D01*
X106198799Y-71201882D01*
X106127960Y-71197153D01*
X106070923Y-71154876D01*
X106050165Y-71113094D01*
X105997938Y-70927909D01*
X105994649Y-70921238D01*
X105905475Y-70740414D01*
X105902921Y-70735235D01*
X105774384Y-70563102D01*
X105770148Y-70559186D01*
X105620870Y-70421195D01*
X105620867Y-70421193D01*
X105616630Y-70417276D01*
X105434943Y-70302640D01*
X105235408Y-70223034D01*
X105229748Y-70221908D01*
X105229744Y-70221907D01*
X105030374Y-70182250D01*
X105030371Y-70182250D01*
X105024707Y-70181123D01*
X105018932Y-70181047D01*
X105018928Y-70181047D01*
X104911255Y-70179638D01*
X104809896Y-70178311D01*
X104804199Y-70179290D01*
X104804198Y-70179290D01*
X104611305Y-70212435D01*
X104598170Y-70214692D01*
X104396620Y-70289048D01*
X104211994Y-70398888D01*
X104207654Y-70402694D01*
X104207650Y-70402697D01*
X104101558Y-70495738D01*
X104050477Y-70540535D01*
X104046902Y-70545070D01*
X104046901Y-70545071D01*
X104013720Y-70587162D01*
X103917478Y-70709244D01*
X103914789Y-70714355D01*
X103914787Y-70714358D01*
X103887669Y-70765901D01*
X103817450Y-70899365D01*
X103753745Y-71104531D01*
X103753638Y-71105437D01*
X103720661Y-71166521D01*
X103658512Y-71200843D01*
X103587673Y-71196117D01*
X103530635Y-71153842D01*
X103509872Y-71112054D01*
X103506194Y-71099014D01*
X103457938Y-70927909D01*
X103454649Y-70921238D01*
X103365475Y-70740414D01*
X103362921Y-70735235D01*
X103234384Y-70563102D01*
X103230148Y-70559186D01*
X103080870Y-70421195D01*
X103080867Y-70421193D01*
X103076630Y-70417276D01*
X102894943Y-70302640D01*
X102695408Y-70223034D01*
X102689748Y-70221908D01*
X102689744Y-70221907D01*
X102490374Y-70182250D01*
X102490371Y-70182250D01*
X102484707Y-70181123D01*
X102478932Y-70181047D01*
X102478928Y-70181047D01*
X102371255Y-70179638D01*
X102269896Y-70178311D01*
X102264199Y-70179290D01*
X102264198Y-70179290D01*
X102071305Y-70212435D01*
X102058170Y-70214692D01*
X101856620Y-70289048D01*
X101671994Y-70398888D01*
X101667654Y-70402694D01*
X101667650Y-70402697D01*
X101561558Y-70495738D01*
X101510477Y-70540535D01*
X101506902Y-70545070D01*
X101506901Y-70545071D01*
X101473720Y-70587162D01*
X101377478Y-70709244D01*
X101374789Y-70714355D01*
X101374787Y-70714358D01*
X101347669Y-70765901D01*
X101277450Y-70899365D01*
X101213745Y-71104531D01*
X101213638Y-71105437D01*
X101180661Y-71166521D01*
X101118512Y-71200843D01*
X101047673Y-71196117D01*
X100990635Y-71153842D01*
X100969872Y-71112054D01*
X100966194Y-71099014D01*
X100917938Y-70927909D01*
X100914649Y-70921238D01*
X100825475Y-70740414D01*
X100822921Y-70735235D01*
X100694384Y-70563102D01*
X100690148Y-70559186D01*
X100540870Y-70421195D01*
X100540867Y-70421193D01*
X100536630Y-70417276D01*
X100354943Y-70302640D01*
X100155408Y-70223034D01*
X100149748Y-70221908D01*
X100149744Y-70221907D01*
X99950374Y-70182250D01*
X99950371Y-70182250D01*
X99944707Y-70181123D01*
X99938932Y-70181047D01*
X99938928Y-70181047D01*
X99831255Y-70179638D01*
X99729896Y-70178311D01*
X99724199Y-70179290D01*
X99724198Y-70179290D01*
X99531305Y-70212435D01*
X99518170Y-70214692D01*
X99316620Y-70289048D01*
X99131994Y-70398888D01*
X99127654Y-70402694D01*
X99127650Y-70402697D01*
X99021558Y-70495738D01*
X98970477Y-70540535D01*
X98966902Y-70545070D01*
X98966901Y-70545071D01*
X98933720Y-70587162D01*
X98837478Y-70709244D01*
X98834789Y-70714355D01*
X98834787Y-70714358D01*
X98807669Y-70765901D01*
X98737450Y-70899365D01*
X98673745Y-71104531D01*
X98662346Y-71200843D01*
X98654834Y-71264310D01*
X98626964Y-71329607D01*
X98568215Y-71369471D01*
X98529707Y-71375500D01*
X98231594Y-71375500D01*
X98163473Y-71355498D01*
X98142499Y-71338595D01*
X95225405Y-68421500D01*
X95191379Y-68359188D01*
X95188500Y-68332405D01*
X95188500Y-67671600D01*
X95177526Y-67565834D01*
X95121550Y-67398054D01*
X95028478Y-67247652D01*
X94941891Y-67161216D01*
X94907812Y-67098934D01*
X94912815Y-67028114D01*
X94941736Y-66983025D01*
X95024134Y-66900483D01*
X95029305Y-66895303D01*
X95122115Y-66744738D01*
X95177797Y-66576861D01*
X95188500Y-66472400D01*
X95188500Y-65811594D01*
X95208502Y-65743473D01*
X95225405Y-65722499D01*
X95888499Y-65059405D01*
X95950811Y-65025379D01*
X95977594Y-65022500D01*
X98530668Y-65022500D01*
X98598789Y-65042502D01*
X98645282Y-65096158D01*
X98656138Y-65136969D01*
X98667749Y-65263328D01*
X98669318Y-65268890D01*
X98669318Y-65268892D01*
X98676386Y-65293953D01*
X98726062Y-65470091D01*
X98821079Y-65662765D01*
X98840487Y-65688756D01*
X98920485Y-65795886D01*
X98949616Y-65834898D01*
X98953850Y-65838812D01*
X98953852Y-65838814D01*
X99102700Y-65976407D01*
X99107370Y-65980724D01*
X99289057Y-66095360D01*
X99488592Y-66174966D01*
X99494252Y-66176092D01*
X99494256Y-66176093D01*
X99693626Y-66215750D01*
X99693629Y-66215750D01*
X99699293Y-66216877D01*
X99705068Y-66216953D01*
X99705072Y-66216953D01*
X99812745Y-66218362D01*
X99914104Y-66219689D01*
X99919801Y-66218710D01*
X99919802Y-66218710D01*
X100120133Y-66184287D01*
X100120134Y-66184287D01*
X100125830Y-66183308D01*
X100327380Y-66108952D01*
X100512006Y-65999112D01*
X100516346Y-65995306D01*
X100516350Y-65995303D01*
X100669182Y-65861272D01*
X100673523Y-65857465D01*
X100695224Y-65829938D01*
X100802945Y-65693293D01*
X100806522Y-65688756D01*
X100809359Y-65683365D01*
X100903858Y-65503751D01*
X100906550Y-65498635D01*
X100970255Y-65293469D01*
X100970362Y-65292563D01*
X101003339Y-65231479D01*
X101065488Y-65197157D01*
X101136327Y-65201883D01*
X101193365Y-65244158D01*
X101214128Y-65285946D01*
X101266062Y-65470091D01*
X101361079Y-65662765D01*
X101380487Y-65688756D01*
X101460485Y-65795886D01*
X101489616Y-65834898D01*
X101493850Y-65838812D01*
X101493852Y-65838814D01*
X101642700Y-65976407D01*
X101647370Y-65980724D01*
X101829057Y-66095360D01*
X102028592Y-66174966D01*
X102034252Y-66176092D01*
X102034256Y-66176093D01*
X102233626Y-66215750D01*
X102233629Y-66215750D01*
X102239293Y-66216877D01*
X102245068Y-66216953D01*
X102245072Y-66216953D01*
X102352745Y-66218362D01*
X102454104Y-66219689D01*
X102459801Y-66218710D01*
X102459802Y-66218710D01*
X102660133Y-66184287D01*
X102660134Y-66184287D01*
X102665830Y-66183308D01*
X102867380Y-66108952D01*
X103052006Y-65999112D01*
X103056346Y-65995306D01*
X103056350Y-65995303D01*
X103209182Y-65861272D01*
X103213523Y-65857465D01*
X103235224Y-65829938D01*
X103342945Y-65693293D01*
X103346522Y-65688756D01*
X103349359Y-65683365D01*
X103443858Y-65503751D01*
X103446550Y-65498635D01*
X103510255Y-65293469D01*
X103510362Y-65292563D01*
X103543339Y-65231479D01*
X103605488Y-65197157D01*
X103676327Y-65201883D01*
X103733365Y-65244158D01*
X103754128Y-65285946D01*
X103806062Y-65470091D01*
X103901079Y-65662765D01*
X103920487Y-65688756D01*
X104000485Y-65795886D01*
X104029616Y-65834898D01*
X104033850Y-65838812D01*
X104033852Y-65838814D01*
X104182700Y-65976407D01*
X104187370Y-65980724D01*
X104369057Y-66095360D01*
X104568592Y-66174966D01*
X104574252Y-66176092D01*
X104574256Y-66176093D01*
X104773626Y-66215750D01*
X104773629Y-66215750D01*
X104779293Y-66216877D01*
X104785068Y-66216953D01*
X104785072Y-66216953D01*
X104892745Y-66218362D01*
X104994104Y-66219689D01*
X104999801Y-66218710D01*
X104999802Y-66218710D01*
X105200133Y-66184287D01*
X105200134Y-66184287D01*
X105205830Y-66183308D01*
X105407380Y-66108952D01*
X105592006Y-65999112D01*
X105596346Y-65995306D01*
X105596350Y-65995303D01*
X105749182Y-65861272D01*
X105753523Y-65857465D01*
X105775224Y-65829938D01*
X105882945Y-65693293D01*
X105886522Y-65688756D01*
X105889359Y-65683365D01*
X105983858Y-65503751D01*
X105986550Y-65498635D01*
X106050255Y-65293469D01*
X106050459Y-65291744D01*
X106083568Y-65230423D01*
X106145718Y-65196104D01*
X106216557Y-65200835D01*
X106273593Y-65243112D01*
X106294352Y-65284896D01*
X106344962Y-65464347D01*
X106349087Y-65475094D01*
X106438952Y-65657322D01*
X106444962Y-65667130D01*
X106566536Y-65829938D01*
X106574225Y-65838478D01*
X106723436Y-65976407D01*
X106732561Y-65983408D01*
X106904401Y-66091831D01*
X106914649Y-66097052D01*
X107103367Y-66172343D01*
X107114403Y-66175612D01*
X107170230Y-66186717D01*
X107183106Y-66185565D01*
X107187083Y-66173248D01*
X107696000Y-66173248D01*
X107699806Y-66186210D01*
X107714722Y-66188146D01*
X107740003Y-66183802D01*
X107751123Y-66180822D01*
X107941748Y-66110497D01*
X107952126Y-66105547D01*
X108126743Y-66001661D01*
X108136055Y-65994895D01*
X108288818Y-65860926D01*
X108296735Y-65852583D01*
X108422523Y-65693022D01*
X108428794Y-65683365D01*
X108523394Y-65503560D01*
X108527799Y-65492926D01*
X108588051Y-65298882D01*
X108590443Y-65287628D01*
X108609964Y-65122702D01*
X108610400Y-65115299D01*
X108610400Y-64661115D01*
X108605925Y-64645876D01*
X108604535Y-64644671D01*
X108596852Y-64643000D01*
X107714115Y-64643000D01*
X107698876Y-64647475D01*
X107697671Y-64648865D01*
X107696000Y-64656548D01*
X107696000Y-66173248D01*
X107187083Y-66173248D01*
X107188000Y-66170409D01*
X107188000Y-64116885D01*
X107696000Y-64116885D01*
X107700475Y-64132124D01*
X107701865Y-64133329D01*
X107709548Y-64135000D01*
X108592285Y-64135000D01*
X108607524Y-64130525D01*
X108608729Y-64129135D01*
X108610400Y-64121452D01*
X108610400Y-63677019D01*
X108610134Y-63671230D01*
X108596286Y-63520521D01*
X108594188Y-63509200D01*
X108539038Y-63313653D01*
X108534913Y-63302906D01*
X108445048Y-63120678D01*
X108439038Y-63110870D01*
X108317464Y-62948062D01*
X108309775Y-62939522D01*
X108160564Y-62801593D01*
X108151439Y-62794592D01*
X107979599Y-62686169D01*
X107969351Y-62680948D01*
X107780633Y-62605657D01*
X107769597Y-62602388D01*
X107713770Y-62591283D01*
X107700894Y-62592435D01*
X107696000Y-62607591D01*
X107696000Y-64116885D01*
X107188000Y-64116885D01*
X107188000Y-62604752D01*
X107184194Y-62591790D01*
X107169278Y-62589854D01*
X107143997Y-62594198D01*
X107132877Y-62597178D01*
X106942252Y-62667503D01*
X106931874Y-62672453D01*
X106757257Y-62776339D01*
X106747945Y-62783105D01*
X106595182Y-62917074D01*
X106587265Y-62925417D01*
X106461477Y-63084978D01*
X106455206Y-63094635D01*
X106360606Y-63274440D01*
X106356201Y-63285074D01*
X106295947Y-63479123D01*
X106294679Y-63485090D01*
X106260949Y-63547563D01*
X106198799Y-63581882D01*
X106127960Y-63577153D01*
X106070923Y-63534876D01*
X106050165Y-63493094D01*
X105997938Y-63307909D01*
X105902921Y-63115235D01*
X105774384Y-62943102D01*
X105770148Y-62939186D01*
X105620870Y-62801195D01*
X105620867Y-62801193D01*
X105616630Y-62797276D01*
X105611749Y-62794196D01*
X105611746Y-62794194D01*
X105594265Y-62783165D01*
X105547327Y-62729899D01*
X105535500Y-62676603D01*
X105535500Y-61539793D01*
X105537732Y-61516184D01*
X105537790Y-61515881D01*
X105537790Y-61515877D01*
X105539275Y-61508094D01*
X105535749Y-61452049D01*
X105535500Y-61444138D01*
X105535500Y-61428144D01*
X105533494Y-61412270D01*
X105532751Y-61404402D01*
X105529723Y-61356263D01*
X105529723Y-61356262D01*
X105529225Y-61348350D01*
X105526679Y-61340513D01*
X105521506Y-61317369D01*
X105521468Y-61317065D01*
X105521467Y-61317060D01*
X105520474Y-61309203D01*
X105517558Y-61301838D01*
X105517557Y-61301834D01*
X105499801Y-61256989D01*
X105497129Y-61249570D01*
X105479764Y-61196125D01*
X105475514Y-61189428D01*
X105475350Y-61189169D01*
X105464585Y-61168042D01*
X105464471Y-61167754D01*
X105464468Y-61167749D01*
X105461552Y-61160383D01*
X105456896Y-61153975D01*
X105456893Y-61153969D01*
X105428542Y-61114948D01*
X105424092Y-61108401D01*
X105394000Y-61060982D01*
X105387993Y-61055341D01*
X105372312Y-61037554D01*
X105372134Y-61037309D01*
X105372132Y-61037307D01*
X105367472Y-61030893D01*
X105361362Y-61025838D01*
X105324204Y-60995097D01*
X105318270Y-60989866D01*
X105283102Y-60956842D01*
X105283099Y-60956840D01*
X105277321Y-60951414D01*
X105270097Y-60947442D01*
X105250494Y-60934119D01*
X105250254Y-60933920D01*
X105250247Y-60933916D01*
X105244144Y-60928867D01*
X105193324Y-60904953D01*
X105186293Y-60901371D01*
X105178271Y-60896961D01*
X105128216Y-60846617D01*
X105113323Y-60777199D01*
X105138325Y-60710751D01*
X105195283Y-60668367D01*
X105239733Y-60660551D01*
X154814768Y-60959245D01*
G37*
%TD.AperFunction*%
%TD*%
M02*
