M48
; DRILL file {KiCad (6.0.1)} date Tue Mar  8 01:46:22 2022
; FORMAT={-:-/ absolute / inch / decimal}
; #@! TF.CreationDate,2022-03-08T01:46:22-06:00
; #@! TF.GenerationSoftware,Kicad,Pcbnew,(6.0.1)
; #@! TF.FileFunction,Plated,1,2,PTH
FMAT,2
INCH
; #@! TA.AperFunction,Plated,PTH,ViaDrill
T1C0.0157
; #@! TA.AperFunction,Plated,PTH,ComponentDrill
T2C0.0307
; #@! TA.AperFunction,Plated,PTH,ComponentDrill
T3C0.0320
; #@! TA.AperFunction,Plated,PTH,ComponentDrill
T4C0.0469
%
G90
G05
T1
X4.08Y-3.69
X4.18Y-3.5
X4.415Y-3.735
X4.4978Y-2.8728
X4.505Y-3.02
T2
X5.0837Y-3.595
X5.0837Y-3.695
X5.0837Y-3.795
X5.0837Y-3.895
X5.3963Y-3.595
X5.3963Y-3.695
X5.3963Y-3.795
X5.3963Y-3.895
X5.58Y-2.905
X5.58Y-3.005
X5.58Y-3.105
X5.58Y-3.205
X5.8926Y-2.905
X5.8926Y-3.005
X5.8926Y-3.105
X5.8926Y-3.205
T3
X3.93Y-2.535
X3.93Y-2.835
X4.03Y-2.535
X4.03Y-2.835
X4.13Y-2.535
X4.13Y-2.835
X4.23Y-2.535
X4.23Y-2.835
T4
X4.505Y-3.22
X4.605Y-3.22
X4.705Y-3.22
X4.805Y-3.22
T0
M30
