%TF.GenerationSoftware,KiCad,Pcbnew,(6.0.1)*%
%TF.CreationDate,2022-03-08T01:46:33-06:00*%
%TF.ProjectId,senior_design,73656e69-6f72-45f6-9465-7369676e2e6b,rev?*%
%TF.SameCoordinates,Original*%
%TF.FileFunction,Legend,Top*%
%TF.FilePolarity,Positive*%
%FSLAX46Y46*%
G04 Gerber Fmt 4.6, Leading zero omitted, Abs format (unit mm)*
G04 Created by KiCad (PCBNEW (6.0.1)) date 2022-03-08 01:46:33*
%MOMM*%
%LPD*%
G01*
G04 APERTURE LIST*
%ADD10C,0.150000*%
%ADD11C,0.200000*%
%ADD12C,0.127000*%
%ADD13C,0.120000*%
%ADD14C,0.152400*%
G04 APERTURE END LIST*
D10*
%TO.C,H4*%
X147828095Y-52132380D02*
X147828095Y-51132380D01*
X147828095Y-51608571D02*
X148399523Y-51608571D01*
X148399523Y-52132380D02*
X148399523Y-51132380D01*
X149304285Y-51465714D02*
X149304285Y-52132380D01*
X149066190Y-51084761D02*
X148828095Y-51799047D01*
X149447142Y-51799047D01*
%TO.C,H3*%
X147828095Y-102932380D02*
X147828095Y-101932380D01*
X147828095Y-102408571D02*
X148399523Y-102408571D01*
X148399523Y-102932380D02*
X148399523Y-101932380D01*
X148780476Y-101932380D02*
X149399523Y-101932380D01*
X149066190Y-102313333D01*
X149209047Y-102313333D01*
X149304285Y-102360952D01*
X149351904Y-102408571D01*
X149399523Y-102503809D01*
X149399523Y-102741904D01*
X149351904Y-102837142D01*
X149304285Y-102884761D01*
X149209047Y-102932380D01*
X148923333Y-102932380D01*
X148828095Y-102884761D01*
X148780476Y-102837142D01*
%TO.C,H2*%
X97028095Y-102932380D02*
X97028095Y-101932380D01*
X97028095Y-102408571D02*
X97599523Y-102408571D01*
X97599523Y-102932380D02*
X97599523Y-101932380D01*
X98028095Y-102027619D02*
X98075714Y-101980000D01*
X98170952Y-101932380D01*
X98409047Y-101932380D01*
X98504285Y-101980000D01*
X98551904Y-102027619D01*
X98599523Y-102122857D01*
X98599523Y-102218095D01*
X98551904Y-102360952D01*
X97980476Y-102932380D01*
X98599523Y-102932380D01*
%TO.C,H1*%
X97028095Y-52132380D02*
X97028095Y-51132380D01*
X97028095Y-51608571D02*
X97599523Y-51608571D01*
X97599523Y-52132380D02*
X97599523Y-51132380D01*
X98599523Y-52132380D02*
X98028095Y-52132380D01*
X98313809Y-52132380D02*
X98313809Y-51132380D01*
X98218571Y-51275238D01*
X98123333Y-51370476D01*
X98028095Y-51418095D01*
%TO.C,U11*%
X138859428Y-68667380D02*
X138859428Y-69476904D01*
X138907047Y-69572142D01*
X138954666Y-69619761D01*
X139049904Y-69667380D01*
X139240380Y-69667380D01*
X139335619Y-69619761D01*
X139383238Y-69572142D01*
X139430857Y-69476904D01*
X139430857Y-68667380D01*
X139859428Y-69381666D02*
X140335619Y-69381666D01*
X139764190Y-69667380D02*
X140097523Y-68667380D01*
X140430857Y-69667380D01*
X140668952Y-68667380D02*
X141335619Y-68667380D01*
X140907047Y-69667380D01*
X142145142Y-69000714D02*
X142145142Y-69667380D01*
X141907047Y-68619761D02*
X141668952Y-69334047D01*
X142288000Y-69334047D01*
X143192761Y-69667380D02*
X142621333Y-69667380D01*
X142907047Y-69667380D02*
X142907047Y-68667380D01*
X142811809Y-68810238D01*
X142716571Y-68905476D01*
X142621333Y-68953095D01*
X144192761Y-69572142D02*
X144145142Y-69619761D01*
X144002285Y-69667380D01*
X143907047Y-69667380D01*
X143764190Y-69619761D01*
X143668952Y-69524523D01*
X143621333Y-69429285D01*
X143573714Y-69238809D01*
X143573714Y-69095952D01*
X143621333Y-68905476D01*
X143668952Y-68810238D01*
X143764190Y-68715000D01*
X143907047Y-68667380D01*
X144002285Y-68667380D01*
X144145142Y-68715000D01*
X144192761Y-68762619D01*
X144621333Y-69667380D02*
X144621333Y-68667380D01*
X145002285Y-68667380D01*
X145097523Y-68715000D01*
X145145142Y-68762619D01*
X145192761Y-68857857D01*
X145192761Y-69000714D01*
X145145142Y-69095952D01*
X145097523Y-69143571D01*
X145002285Y-69191190D01*
X144621333Y-69191190D01*
X146573714Y-68667380D02*
X146764190Y-68667380D01*
X146859428Y-68715000D01*
X146954666Y-68810238D01*
X147002285Y-69000714D01*
X147002285Y-69334047D01*
X146954666Y-69524523D01*
X146859428Y-69619761D01*
X146764190Y-69667380D01*
X146573714Y-69667380D01*
X146478476Y-69619761D01*
X146383238Y-69524523D01*
X146335619Y-69334047D01*
X146335619Y-69000714D01*
X146383238Y-68810238D01*
X146478476Y-68715000D01*
X146573714Y-68667380D01*
X147430857Y-69000714D02*
X147430857Y-70000714D01*
X147430857Y-69048333D02*
X147526095Y-69000714D01*
X147716571Y-69000714D01*
X147811809Y-69048333D01*
X147859428Y-69095952D01*
X147907047Y-69191190D01*
X147907047Y-69476904D01*
X147859428Y-69572142D01*
X147811809Y-69619761D01*
X147716571Y-69667380D01*
X147526095Y-69667380D01*
X147430857Y-69619761D01*
X149049904Y-69381666D02*
X149526095Y-69381666D01*
X148954666Y-69667380D02*
X149288000Y-68667380D01*
X149621333Y-69667380D01*
X149954666Y-69667380D02*
X149954666Y-69000714D01*
X149954666Y-69095952D02*
X150002285Y-69048333D01*
X150097523Y-69000714D01*
X150240380Y-69000714D01*
X150335619Y-69048333D01*
X150383238Y-69143571D01*
X150383238Y-69667380D01*
X150383238Y-69143571D02*
X150430857Y-69048333D01*
X150526095Y-69000714D01*
X150668952Y-69000714D01*
X150764190Y-69048333D01*
X150811809Y-69143571D01*
X150811809Y-69667380D01*
X151288000Y-69000714D02*
X151288000Y-70000714D01*
X151288000Y-69048333D02*
X151383238Y-69000714D01*
X151573714Y-69000714D01*
X151668952Y-69048333D01*
X151716571Y-69095952D01*
X151764190Y-69191190D01*
X151764190Y-69476904D01*
X151716571Y-69572142D01*
X151668952Y-69619761D01*
X151573714Y-69667380D01*
X151383238Y-69667380D01*
X151288000Y-69619761D01*
%TO.C,U7*%
X126413428Y-100290380D02*
X126413428Y-101099904D01*
X126461047Y-101195142D01*
X126508666Y-101242761D01*
X126603904Y-101290380D01*
X126794380Y-101290380D01*
X126889619Y-101242761D01*
X126937238Y-101195142D01*
X126984857Y-101099904D01*
X126984857Y-100290380D01*
X127413428Y-101004666D02*
X127889619Y-101004666D01*
X127318190Y-101290380D02*
X127651523Y-100290380D01*
X127984857Y-101290380D01*
X128222952Y-100290380D02*
X128889619Y-100290380D01*
X128461047Y-101290380D01*
X129699142Y-100623714D02*
X129699142Y-101290380D01*
X129461047Y-100242761D02*
X129222952Y-100957047D01*
X129842000Y-100957047D01*
X130746761Y-101290380D02*
X130175333Y-101290380D01*
X130461047Y-101290380D02*
X130461047Y-100290380D01*
X130365809Y-100433238D01*
X130270571Y-100528476D01*
X130175333Y-100576095D01*
X131746761Y-101195142D02*
X131699142Y-101242761D01*
X131556285Y-101290380D01*
X131461047Y-101290380D01*
X131318190Y-101242761D01*
X131222952Y-101147523D01*
X131175333Y-101052285D01*
X131127714Y-100861809D01*
X131127714Y-100718952D01*
X131175333Y-100528476D01*
X131222952Y-100433238D01*
X131318190Y-100338000D01*
X131461047Y-100290380D01*
X131556285Y-100290380D01*
X131699142Y-100338000D01*
X131746761Y-100385619D01*
X132175333Y-101290380D02*
X132175333Y-100290380D01*
X132556285Y-100290380D01*
X132651523Y-100338000D01*
X132699142Y-100385619D01*
X132746761Y-100480857D01*
X132746761Y-100623714D01*
X132699142Y-100718952D01*
X132651523Y-100766571D01*
X132556285Y-100814190D01*
X132175333Y-100814190D01*
X134127714Y-100290380D02*
X134318190Y-100290380D01*
X134413428Y-100338000D01*
X134508666Y-100433238D01*
X134556285Y-100623714D01*
X134556285Y-100957047D01*
X134508666Y-101147523D01*
X134413428Y-101242761D01*
X134318190Y-101290380D01*
X134127714Y-101290380D01*
X134032476Y-101242761D01*
X133937238Y-101147523D01*
X133889619Y-100957047D01*
X133889619Y-100623714D01*
X133937238Y-100433238D01*
X134032476Y-100338000D01*
X134127714Y-100290380D01*
X134984857Y-100623714D02*
X134984857Y-101623714D01*
X134984857Y-100671333D02*
X135080095Y-100623714D01*
X135270571Y-100623714D01*
X135365809Y-100671333D01*
X135413428Y-100718952D01*
X135461047Y-100814190D01*
X135461047Y-101099904D01*
X135413428Y-101195142D01*
X135365809Y-101242761D01*
X135270571Y-101290380D01*
X135080095Y-101290380D01*
X134984857Y-101242761D01*
X136603904Y-101004666D02*
X137080095Y-101004666D01*
X136508666Y-101290380D02*
X136842000Y-100290380D01*
X137175333Y-101290380D01*
X137508666Y-101290380D02*
X137508666Y-100623714D01*
X137508666Y-100718952D02*
X137556285Y-100671333D01*
X137651523Y-100623714D01*
X137794380Y-100623714D01*
X137889619Y-100671333D01*
X137937238Y-100766571D01*
X137937238Y-101290380D01*
X137937238Y-100766571D02*
X137984857Y-100671333D01*
X138080095Y-100623714D01*
X138222952Y-100623714D01*
X138318190Y-100671333D01*
X138365809Y-100766571D01*
X138365809Y-101290380D01*
X138842000Y-100623714D02*
X138842000Y-101623714D01*
X138842000Y-100671333D02*
X138937238Y-100623714D01*
X139127714Y-100623714D01*
X139222952Y-100671333D01*
X139270571Y-100718952D01*
X139318190Y-100814190D01*
X139318190Y-101099904D01*
X139270571Y-101195142D01*
X139222952Y-101242761D01*
X139127714Y-101290380D01*
X138937238Y-101290380D01*
X138842000Y-101242761D01*
%TO.C,U4*%
X90980619Y-93273571D02*
X91123476Y-93321190D01*
X91171095Y-93368809D01*
X91218714Y-93464047D01*
X91218714Y-93606904D01*
X91171095Y-93702142D01*
X91123476Y-93749761D01*
X91028238Y-93797380D01*
X90647285Y-93797380D01*
X90647285Y-92797380D01*
X90980619Y-92797380D01*
X91075857Y-92845000D01*
X91123476Y-92892619D01*
X91171095Y-92987857D01*
X91171095Y-93083095D01*
X91123476Y-93178333D01*
X91075857Y-93225952D01*
X90980619Y-93273571D01*
X90647285Y-93273571D01*
X92075857Y-93797380D02*
X92075857Y-93273571D01*
X92028238Y-93178333D01*
X91933000Y-93130714D01*
X91742523Y-93130714D01*
X91647285Y-93178333D01*
X92075857Y-93749761D02*
X91980619Y-93797380D01*
X91742523Y-93797380D01*
X91647285Y-93749761D01*
X91599666Y-93654523D01*
X91599666Y-93559285D01*
X91647285Y-93464047D01*
X91742523Y-93416428D01*
X91980619Y-93416428D01*
X92075857Y-93368809D01*
X92694904Y-93797380D02*
X92599666Y-93749761D01*
X92552047Y-93654523D01*
X92552047Y-92797380D01*
X93504428Y-93797380D02*
X93504428Y-93273571D01*
X93456809Y-93178333D01*
X93361571Y-93130714D01*
X93171095Y-93130714D01*
X93075857Y-93178333D01*
X93504428Y-93749761D02*
X93409190Y-93797380D01*
X93171095Y-93797380D01*
X93075857Y-93749761D01*
X93028238Y-93654523D01*
X93028238Y-93559285D01*
X93075857Y-93464047D01*
X93171095Y-93416428D01*
X93409190Y-93416428D01*
X93504428Y-93368809D01*
X93980619Y-93130714D02*
X93980619Y-93797380D01*
X93980619Y-93225952D02*
X94028238Y-93178333D01*
X94123476Y-93130714D01*
X94266333Y-93130714D01*
X94361571Y-93178333D01*
X94409190Y-93273571D01*
X94409190Y-93797380D01*
X95313952Y-93749761D02*
X95218714Y-93797380D01*
X95028238Y-93797380D01*
X94933000Y-93749761D01*
X94885380Y-93702142D01*
X94837761Y-93606904D01*
X94837761Y-93321190D01*
X94885380Y-93225952D01*
X94933000Y-93178333D01*
X95028238Y-93130714D01*
X95218714Y-93130714D01*
X95313952Y-93178333D01*
X96123476Y-93749761D02*
X96028238Y-93797380D01*
X95837761Y-93797380D01*
X95742523Y-93749761D01*
X95694904Y-93654523D01*
X95694904Y-93273571D01*
X95742523Y-93178333D01*
X95837761Y-93130714D01*
X96028238Y-93130714D01*
X96123476Y-93178333D01*
X96171095Y-93273571D01*
X96171095Y-93368809D01*
X95694904Y-93464047D01*
X97028238Y-93797380D02*
X97028238Y-92797380D01*
X97028238Y-93749761D02*
X96933000Y-93797380D01*
X96742523Y-93797380D01*
X96647285Y-93749761D01*
X96599666Y-93702142D01*
X96552047Y-93606904D01*
X96552047Y-93321190D01*
X96599666Y-93225952D01*
X96647285Y-93178333D01*
X96742523Y-93130714D01*
X96933000Y-93130714D01*
X97028238Y-93178333D01*
X98266333Y-93797380D02*
X98266333Y-92797380D01*
X98504428Y-92797380D01*
X98647285Y-92845000D01*
X98742523Y-92940238D01*
X98790142Y-93035476D01*
X98837761Y-93225952D01*
X98837761Y-93368809D01*
X98790142Y-93559285D01*
X98742523Y-93654523D01*
X98647285Y-93749761D01*
X98504428Y-93797380D01*
X98266333Y-93797380D01*
X99647285Y-93749761D02*
X99552047Y-93797380D01*
X99361571Y-93797380D01*
X99266333Y-93749761D01*
X99218714Y-93654523D01*
X99218714Y-93273571D01*
X99266333Y-93178333D01*
X99361571Y-93130714D01*
X99552047Y-93130714D01*
X99647285Y-93178333D01*
X99694904Y-93273571D01*
X99694904Y-93368809D01*
X99218714Y-93464047D01*
X100123476Y-93797380D02*
X100123476Y-93130714D01*
X100123476Y-93225952D02*
X100171095Y-93178333D01*
X100266333Y-93130714D01*
X100409190Y-93130714D01*
X100504428Y-93178333D01*
X100552047Y-93273571D01*
X100552047Y-93797380D01*
X100552047Y-93273571D02*
X100599666Y-93178333D01*
X100694904Y-93130714D01*
X100837761Y-93130714D01*
X100933000Y-93178333D01*
X100980619Y-93273571D01*
X100980619Y-93797380D01*
X101599666Y-93797380D02*
X101504428Y-93749761D01*
X101456809Y-93702142D01*
X101409190Y-93606904D01*
X101409190Y-93321190D01*
X101456809Y-93225952D01*
X101504428Y-93178333D01*
X101599666Y-93130714D01*
X101742523Y-93130714D01*
X101837761Y-93178333D01*
X101885380Y-93225952D01*
X101933000Y-93321190D01*
X101933000Y-93606904D01*
X101885380Y-93702142D01*
X101837761Y-93749761D01*
X101742523Y-93797380D01*
X101599666Y-93797380D01*
X102790142Y-93797380D02*
X102790142Y-92797380D01*
X102790142Y-93749761D02*
X102694904Y-93797380D01*
X102504428Y-93797380D01*
X102409190Y-93749761D01*
X102361571Y-93702142D01*
X102313952Y-93606904D01*
X102313952Y-93321190D01*
X102361571Y-93225952D01*
X102409190Y-93178333D01*
X102504428Y-93130714D01*
X102694904Y-93130714D01*
X102790142Y-93178333D01*
X103694904Y-93130714D02*
X103694904Y-93797380D01*
X103266333Y-93130714D02*
X103266333Y-93654523D01*
X103313952Y-93749761D01*
X103409190Y-93797380D01*
X103552047Y-93797380D01*
X103647285Y-93749761D01*
X103694904Y-93702142D01*
X104313952Y-93797380D02*
X104218714Y-93749761D01*
X104171095Y-93654523D01*
X104171095Y-92797380D01*
X105123476Y-93797380D02*
X105123476Y-93273571D01*
X105075857Y-93178333D01*
X104980619Y-93130714D01*
X104790142Y-93130714D01*
X104694904Y-93178333D01*
X105123476Y-93749761D02*
X105028238Y-93797380D01*
X104790142Y-93797380D01*
X104694904Y-93749761D01*
X104647285Y-93654523D01*
X104647285Y-93559285D01*
X104694904Y-93464047D01*
X104790142Y-93416428D01*
X105028238Y-93416428D01*
X105123476Y-93368809D01*
X105456809Y-93130714D02*
X105837761Y-93130714D01*
X105599666Y-92797380D02*
X105599666Y-93654523D01*
X105647285Y-93749761D01*
X105742523Y-93797380D01*
X105837761Y-93797380D01*
X106313952Y-93797380D02*
X106218714Y-93749761D01*
X106171095Y-93702142D01*
X106123476Y-93606904D01*
X106123476Y-93321190D01*
X106171095Y-93225952D01*
X106218714Y-93178333D01*
X106313952Y-93130714D01*
X106456809Y-93130714D01*
X106552047Y-93178333D01*
X106599666Y-93225952D01*
X106647285Y-93321190D01*
X106647285Y-93606904D01*
X106599666Y-93702142D01*
X106552047Y-93749761D01*
X106456809Y-93797380D01*
X106313952Y-93797380D01*
X107075857Y-93797380D02*
X107075857Y-93130714D01*
X107075857Y-93321190D02*
X107123476Y-93225952D01*
X107171095Y-93178333D01*
X107266333Y-93130714D01*
X107361571Y-93130714D01*
%TO.C,U3*%
X96887733Y-67395794D02*
X96887733Y-68206924D01*
X96935447Y-68302351D01*
X96983160Y-68350064D01*
X97078587Y-68397778D01*
X97269441Y-68397778D01*
X97364868Y-68350064D01*
X97412582Y-68302351D01*
X97460295Y-68206924D01*
X97460295Y-67395794D01*
X97842004Y-67395794D02*
X98462279Y-67395794D01*
X98128285Y-67777502D01*
X98271425Y-67777502D01*
X98366852Y-67825216D01*
X98414566Y-67872929D01*
X98462279Y-67968356D01*
X98462279Y-68206924D01*
X98414566Y-68302351D01*
X98366852Y-68350064D01*
X98271425Y-68397778D01*
X97985144Y-68397778D01*
X97889717Y-68350064D01*
X97842004Y-68302351D01*
%TO.C,R30*%
X150249142Y-89224380D02*
X149915809Y-88748190D01*
X149677714Y-89224380D02*
X149677714Y-88224380D01*
X150058666Y-88224380D01*
X150153904Y-88272000D01*
X150201523Y-88319619D01*
X150249142Y-88414857D01*
X150249142Y-88557714D01*
X150201523Y-88652952D01*
X150153904Y-88700571D01*
X150058666Y-88748190D01*
X149677714Y-88748190D01*
X150582476Y-88224380D02*
X151201523Y-88224380D01*
X150868190Y-88605333D01*
X151011047Y-88605333D01*
X151106285Y-88652952D01*
X151153904Y-88700571D01*
X151201523Y-88795809D01*
X151201523Y-89033904D01*
X151153904Y-89129142D01*
X151106285Y-89176761D01*
X151011047Y-89224380D01*
X150725333Y-89224380D01*
X150630095Y-89176761D01*
X150582476Y-89129142D01*
X151820571Y-88224380D02*
X151915809Y-88224380D01*
X152011047Y-88272000D01*
X152058666Y-88319619D01*
X152106285Y-88414857D01*
X152153904Y-88605333D01*
X152153904Y-88843428D01*
X152106285Y-89033904D01*
X152058666Y-89129142D01*
X152011047Y-89176761D01*
X151915809Y-89224380D01*
X151820571Y-89224380D01*
X151725333Y-89176761D01*
X151677714Y-89129142D01*
X151630095Y-89033904D01*
X151582476Y-88843428D01*
X151582476Y-88605333D01*
X151630095Y-88414857D01*
X151677714Y-88319619D01*
X151725333Y-88272000D01*
X151820571Y-88224380D01*
%TO.C,R26*%
X132183142Y-71700380D02*
X131849809Y-71224190D01*
X131611714Y-71700380D02*
X131611714Y-70700380D01*
X131992666Y-70700380D01*
X132087904Y-70748000D01*
X132135523Y-70795619D01*
X132183142Y-70890857D01*
X132183142Y-71033714D01*
X132135523Y-71128952D01*
X132087904Y-71176571D01*
X131992666Y-71224190D01*
X131611714Y-71224190D01*
X132564095Y-70795619D02*
X132611714Y-70748000D01*
X132706952Y-70700380D01*
X132945047Y-70700380D01*
X133040285Y-70748000D01*
X133087904Y-70795619D01*
X133135523Y-70890857D01*
X133135523Y-70986095D01*
X133087904Y-71128952D01*
X132516476Y-71700380D01*
X133135523Y-71700380D01*
X133992666Y-70700380D02*
X133802190Y-70700380D01*
X133706952Y-70748000D01*
X133659333Y-70795619D01*
X133564095Y-70938476D01*
X133516476Y-71128952D01*
X133516476Y-71509904D01*
X133564095Y-71605142D01*
X133611714Y-71652761D01*
X133706952Y-71700380D01*
X133897428Y-71700380D01*
X133992666Y-71652761D01*
X134040285Y-71605142D01*
X134087904Y-71509904D01*
X134087904Y-71271809D01*
X134040285Y-71176571D01*
X133992666Y-71128952D01*
X133897428Y-71081333D01*
X133706952Y-71081333D01*
X133611714Y-71128952D01*
X133564095Y-71176571D01*
X133516476Y-71271809D01*
%TO.C,R22*%
X142756142Y-85924380D02*
X142422809Y-85448190D01*
X142184714Y-85924380D02*
X142184714Y-84924380D01*
X142565666Y-84924380D01*
X142660904Y-84972000D01*
X142708523Y-85019619D01*
X142756142Y-85114857D01*
X142756142Y-85257714D01*
X142708523Y-85352952D01*
X142660904Y-85400571D01*
X142565666Y-85448190D01*
X142184714Y-85448190D01*
X143137095Y-85019619D02*
X143184714Y-84972000D01*
X143279952Y-84924380D01*
X143518047Y-84924380D01*
X143613285Y-84972000D01*
X143660904Y-85019619D01*
X143708523Y-85114857D01*
X143708523Y-85210095D01*
X143660904Y-85352952D01*
X143089476Y-85924380D01*
X143708523Y-85924380D01*
X144089476Y-85019619D02*
X144137095Y-84972000D01*
X144232333Y-84924380D01*
X144470428Y-84924380D01*
X144565666Y-84972000D01*
X144613285Y-85019619D01*
X144660904Y-85114857D01*
X144660904Y-85210095D01*
X144613285Y-85352952D01*
X144041857Y-85924380D01*
X144660904Y-85924380D01*
%TO.C,R19*%
X132088142Y-78431380D02*
X131754809Y-77955190D01*
X131516714Y-78431380D02*
X131516714Y-77431380D01*
X131897666Y-77431380D01*
X131992904Y-77479000D01*
X132040523Y-77526619D01*
X132088142Y-77621857D01*
X132088142Y-77764714D01*
X132040523Y-77859952D01*
X131992904Y-77907571D01*
X131897666Y-77955190D01*
X131516714Y-77955190D01*
X133040523Y-78431380D02*
X132469095Y-78431380D01*
X132754809Y-78431380D02*
X132754809Y-77431380D01*
X132659571Y-77574238D01*
X132564333Y-77669476D01*
X132469095Y-77717095D01*
X133516714Y-78431380D02*
X133707190Y-78431380D01*
X133802428Y-78383761D01*
X133850047Y-78336142D01*
X133945285Y-78193285D01*
X133992904Y-78002809D01*
X133992904Y-77621857D01*
X133945285Y-77526619D01*
X133897666Y-77479000D01*
X133802428Y-77431380D01*
X133611952Y-77431380D01*
X133516714Y-77479000D01*
X133469095Y-77526619D01*
X133421476Y-77621857D01*
X133421476Y-77859952D01*
X133469095Y-77955190D01*
X133516714Y-78002809D01*
X133611952Y-78050428D01*
X133802428Y-78050428D01*
X133897666Y-78002809D01*
X133945285Y-77955190D01*
X133992904Y-77859952D01*
%TO.C,R14*%
X120531142Y-92018380D02*
X120197809Y-91542190D01*
X119959714Y-92018380D02*
X119959714Y-91018380D01*
X120340666Y-91018380D01*
X120435904Y-91066000D01*
X120483523Y-91113619D01*
X120531142Y-91208857D01*
X120531142Y-91351714D01*
X120483523Y-91446952D01*
X120435904Y-91494571D01*
X120340666Y-91542190D01*
X119959714Y-91542190D01*
X121483523Y-92018380D02*
X120912095Y-92018380D01*
X121197809Y-92018380D02*
X121197809Y-91018380D01*
X121102571Y-91161238D01*
X121007333Y-91256476D01*
X120912095Y-91304095D01*
X122340666Y-91351714D02*
X122340666Y-92018380D01*
X122102571Y-90970761D02*
X121864476Y-91685047D01*
X122483523Y-91685047D01*
%TO.C,R11*%
X112530142Y-98622380D02*
X112196809Y-98146190D01*
X111958714Y-98622380D02*
X111958714Y-97622380D01*
X112339666Y-97622380D01*
X112434904Y-97670000D01*
X112482523Y-97717619D01*
X112530142Y-97812857D01*
X112530142Y-97955714D01*
X112482523Y-98050952D01*
X112434904Y-98098571D01*
X112339666Y-98146190D01*
X111958714Y-98146190D01*
X113482523Y-98622380D02*
X112911095Y-98622380D01*
X113196809Y-98622380D02*
X113196809Y-97622380D01*
X113101571Y-97765238D01*
X113006333Y-97860476D01*
X112911095Y-97908095D01*
X114434904Y-98622380D02*
X113863476Y-98622380D01*
X114149190Y-98622380D02*
X114149190Y-97622380D01*
X114053952Y-97765238D01*
X113958714Y-97860476D01*
X113863476Y-97908095D01*
%TO.C,R5*%
X92782380Y-67238666D02*
X92306190Y-67572000D01*
X92782380Y-67810095D02*
X91782380Y-67810095D01*
X91782380Y-67429142D01*
X91830000Y-67333904D01*
X91877619Y-67286285D01*
X91972857Y-67238666D01*
X92115714Y-67238666D01*
X92210952Y-67286285D01*
X92258571Y-67333904D01*
X92306190Y-67429142D01*
X92306190Y-67810095D01*
X91782380Y-66333904D02*
X91782380Y-66810095D01*
X92258571Y-66857714D01*
X92210952Y-66810095D01*
X92163333Y-66714857D01*
X92163333Y-66476761D01*
X92210952Y-66381523D01*
X92258571Y-66333904D01*
X92353809Y-66286285D01*
X92591904Y-66286285D01*
X92687142Y-66333904D01*
X92734761Y-66381523D01*
X92782380Y-66476761D01*
X92782380Y-66714857D01*
X92734761Y-66810095D01*
X92687142Y-66857714D01*
%TO.C,R2*%
X118213333Y-73605380D02*
X117880000Y-73129190D01*
X117641904Y-73605380D02*
X117641904Y-72605380D01*
X118022857Y-72605380D01*
X118118095Y-72653000D01*
X118165714Y-72700619D01*
X118213333Y-72795857D01*
X118213333Y-72938714D01*
X118165714Y-73033952D01*
X118118095Y-73081571D01*
X118022857Y-73129190D01*
X117641904Y-73129190D01*
X118594285Y-72700619D02*
X118641904Y-72653000D01*
X118737142Y-72605380D01*
X118975238Y-72605380D01*
X119070476Y-72653000D01*
X119118095Y-72700619D01*
X119165714Y-72795857D01*
X119165714Y-72891095D01*
X119118095Y-73033952D01*
X118546666Y-73605380D01*
X119165714Y-73605380D01*
%TO.C,R1*%
X118324333Y-68525380D02*
X117991000Y-68049190D01*
X117752904Y-68525380D02*
X117752904Y-67525380D01*
X118133857Y-67525380D01*
X118229095Y-67573000D01*
X118276714Y-67620619D01*
X118324333Y-67715857D01*
X118324333Y-67858714D01*
X118276714Y-67953952D01*
X118229095Y-68001571D01*
X118133857Y-68049190D01*
X117752904Y-68049190D01*
X119276714Y-68525380D02*
X118705285Y-68525380D01*
X118991000Y-68525380D02*
X118991000Y-67525380D01*
X118895761Y-67668238D01*
X118800523Y-67763476D01*
X118705285Y-67811095D01*
%TO.C,J1*%
X110070333Y-86431380D02*
X110070333Y-85431380D01*
X110403666Y-86145666D01*
X110737000Y-85431380D01*
X110737000Y-86431380D01*
X111641761Y-86431380D02*
X111641761Y-85907571D01*
X111594142Y-85812333D01*
X111498904Y-85764714D01*
X111308428Y-85764714D01*
X111213190Y-85812333D01*
X111641761Y-86383761D02*
X111546523Y-86431380D01*
X111308428Y-86431380D01*
X111213190Y-86383761D01*
X111165571Y-86288523D01*
X111165571Y-86193285D01*
X111213190Y-86098047D01*
X111308428Y-86050428D01*
X111546523Y-86050428D01*
X111641761Y-86002809D01*
X112117952Y-86431380D02*
X112117952Y-85764714D01*
X112117952Y-85431380D02*
X112070333Y-85479000D01*
X112117952Y-85526619D01*
X112165571Y-85479000D01*
X112117952Y-85431380D01*
X112117952Y-85526619D01*
X112594142Y-85764714D02*
X112594142Y-86431380D01*
X112594142Y-85859952D02*
X112641761Y-85812333D01*
X112737000Y-85764714D01*
X112879857Y-85764714D01*
X112975095Y-85812333D01*
X113022714Y-85907571D01*
X113022714Y-86431380D01*
X114594142Y-85907571D02*
X114737000Y-85955190D01*
X114784619Y-86002809D01*
X114832238Y-86098047D01*
X114832238Y-86240904D01*
X114784619Y-86336142D01*
X114737000Y-86383761D01*
X114641761Y-86431380D01*
X114260809Y-86431380D01*
X114260809Y-85431380D01*
X114594142Y-85431380D01*
X114689380Y-85479000D01*
X114737000Y-85526619D01*
X114784619Y-85621857D01*
X114784619Y-85717095D01*
X114737000Y-85812333D01*
X114689380Y-85859952D01*
X114594142Y-85907571D01*
X114260809Y-85907571D01*
X115403666Y-86431380D02*
X115308428Y-86383761D01*
X115260809Y-86336142D01*
X115213190Y-86240904D01*
X115213190Y-85955190D01*
X115260809Y-85859952D01*
X115308428Y-85812333D01*
X115403666Y-85764714D01*
X115546523Y-85764714D01*
X115641761Y-85812333D01*
X115689380Y-85859952D01*
X115737000Y-85955190D01*
X115737000Y-86240904D01*
X115689380Y-86336142D01*
X115641761Y-86383761D01*
X115546523Y-86431380D01*
X115403666Y-86431380D01*
X116594142Y-86431380D02*
X116594142Y-85907571D01*
X116546523Y-85812333D01*
X116451285Y-85764714D01*
X116260809Y-85764714D01*
X116165571Y-85812333D01*
X116594142Y-86383761D02*
X116498904Y-86431380D01*
X116260809Y-86431380D01*
X116165571Y-86383761D01*
X116117952Y-86288523D01*
X116117952Y-86193285D01*
X116165571Y-86098047D01*
X116260809Y-86050428D01*
X116498904Y-86050428D01*
X116594142Y-86002809D01*
X117070333Y-86431380D02*
X117070333Y-85764714D01*
X117070333Y-85955190D02*
X117117952Y-85859952D01*
X117165571Y-85812333D01*
X117260809Y-85764714D01*
X117356047Y-85764714D01*
X118117952Y-86431380D02*
X118117952Y-85431380D01*
X118117952Y-86383761D02*
X118022714Y-86431380D01*
X117832238Y-86431380D01*
X117737000Y-86383761D01*
X117689380Y-86336142D01*
X117641761Y-86240904D01*
X117641761Y-85955190D01*
X117689380Y-85859952D01*
X117737000Y-85812333D01*
X117832238Y-85764714D01*
X118022714Y-85764714D01*
X118117952Y-85812333D01*
X119927476Y-86336142D02*
X119879857Y-86383761D01*
X119737000Y-86431380D01*
X119641761Y-86431380D01*
X119498904Y-86383761D01*
X119403666Y-86288523D01*
X119356047Y-86193285D01*
X119308428Y-86002809D01*
X119308428Y-85859952D01*
X119356047Y-85669476D01*
X119403666Y-85574238D01*
X119498904Y-85479000D01*
X119641761Y-85431380D01*
X119737000Y-85431380D01*
X119879857Y-85479000D01*
X119927476Y-85526619D01*
X120498904Y-86431380D02*
X120403666Y-86383761D01*
X120356047Y-86336142D01*
X120308428Y-86240904D01*
X120308428Y-85955190D01*
X120356047Y-85859952D01*
X120403666Y-85812333D01*
X120498904Y-85764714D01*
X120641761Y-85764714D01*
X120737000Y-85812333D01*
X120784619Y-85859952D01*
X120832238Y-85955190D01*
X120832238Y-86240904D01*
X120784619Y-86336142D01*
X120737000Y-86383761D01*
X120641761Y-86431380D01*
X120498904Y-86431380D01*
X121260809Y-85764714D02*
X121260809Y-86431380D01*
X121260809Y-85859952D02*
X121308428Y-85812333D01*
X121403666Y-85764714D01*
X121546523Y-85764714D01*
X121641761Y-85812333D01*
X121689380Y-85907571D01*
X121689380Y-86431380D01*
X122165571Y-85764714D02*
X122165571Y-86431380D01*
X122165571Y-85859952D02*
X122213190Y-85812333D01*
X122308428Y-85764714D01*
X122451285Y-85764714D01*
X122546523Y-85812333D01*
X122594142Y-85907571D01*
X122594142Y-86431380D01*
X123451285Y-86383761D02*
X123356047Y-86431380D01*
X123165571Y-86431380D01*
X123070333Y-86383761D01*
X123022714Y-86288523D01*
X123022714Y-85907571D01*
X123070333Y-85812333D01*
X123165571Y-85764714D01*
X123356047Y-85764714D01*
X123451285Y-85812333D01*
X123498904Y-85907571D01*
X123498904Y-86002809D01*
X123022714Y-86098047D01*
X124356047Y-86383761D02*
X124260809Y-86431380D01*
X124070333Y-86431380D01*
X123975095Y-86383761D01*
X123927476Y-86336142D01*
X123879857Y-86240904D01*
X123879857Y-85955190D01*
X123927476Y-85859952D01*
X123975095Y-85812333D01*
X124070333Y-85764714D01*
X124260809Y-85764714D01*
X124356047Y-85812333D01*
X124641761Y-85764714D02*
X125022714Y-85764714D01*
X124784619Y-85431380D02*
X124784619Y-86288523D01*
X124832238Y-86383761D01*
X124927476Y-86431380D01*
X125022714Y-86431380D01*
X125498904Y-86431380D02*
X125403666Y-86383761D01*
X125356047Y-86336142D01*
X125308428Y-86240904D01*
X125308428Y-85955190D01*
X125356047Y-85859952D01*
X125403666Y-85812333D01*
X125498904Y-85764714D01*
X125641761Y-85764714D01*
X125737000Y-85812333D01*
X125784619Y-85859952D01*
X125832238Y-85955190D01*
X125832238Y-86240904D01*
X125784619Y-86336142D01*
X125737000Y-86383761D01*
X125641761Y-86431380D01*
X125498904Y-86431380D01*
X126260809Y-86431380D02*
X126260809Y-85764714D01*
X126260809Y-85955190D02*
X126308428Y-85859952D01*
X126356047Y-85812333D01*
X126451285Y-85764714D01*
X126546523Y-85764714D01*
%TO.C,C5*%
X132569833Y-84021142D02*
X132522214Y-84068761D01*
X132379357Y-84116380D01*
X132284119Y-84116380D01*
X132141261Y-84068761D01*
X132046023Y-83973523D01*
X131998404Y-83878285D01*
X131950785Y-83687809D01*
X131950785Y-83544952D01*
X131998404Y-83354476D01*
X132046023Y-83259238D01*
X132141261Y-83164000D01*
X132284119Y-83116380D01*
X132379357Y-83116380D01*
X132522214Y-83164000D01*
X132569833Y-83211619D01*
X133474595Y-83116380D02*
X132998404Y-83116380D01*
X132950785Y-83592571D01*
X132998404Y-83544952D01*
X133093642Y-83497333D01*
X133331738Y-83497333D01*
X133426976Y-83544952D01*
X133474595Y-83592571D01*
X133522214Y-83687809D01*
X133522214Y-83925904D01*
X133474595Y-84021142D01*
X133426976Y-84068761D01*
X133331738Y-84116380D01*
X133093642Y-84116380D01*
X132998404Y-84068761D01*
X132950785Y-84021142D01*
%TO.C,C2*%
X121393833Y-98557142D02*
X121346214Y-98604761D01*
X121203357Y-98652380D01*
X121108119Y-98652380D01*
X120965261Y-98604761D01*
X120870023Y-98509523D01*
X120822404Y-98414285D01*
X120774785Y-98223809D01*
X120774785Y-98080952D01*
X120822404Y-97890476D01*
X120870023Y-97795238D01*
X120965261Y-97700000D01*
X121108119Y-97652380D01*
X121203357Y-97652380D01*
X121346214Y-97700000D01*
X121393833Y-97747619D01*
X121774785Y-97747619D02*
X121822404Y-97700000D01*
X121917642Y-97652380D01*
X122155738Y-97652380D01*
X122250976Y-97700000D01*
X122298595Y-97747619D01*
X122346214Y-97842857D01*
X122346214Y-97938095D01*
X122298595Y-98080952D01*
X121727166Y-98652380D01*
X122346214Y-98652380D01*
D11*
%TO.C,U11*%
X140766995Y-73787000D02*
G75*
G03*
X140766995Y-73787000I-100000J0D01*
G01*
D12*
X142526995Y-72802000D02*
X148876995Y-72802000D01*
X142526995Y-82392000D02*
X148876995Y-82392000D01*
D11*
%TO.C,U7*%
X128161000Y-91313000D02*
G75*
G03*
X128161000Y-91313000I-100000J0D01*
G01*
D12*
X129921000Y-90328000D02*
X136271000Y-90328000D01*
X129921000Y-99918000D02*
X136271000Y-99918000D01*
D13*
%TO.C,U4*%
X98933000Y-78580000D02*
X102793000Y-78580000D01*
X102793000Y-78580000D02*
X102793000Y-78815000D01*
X102793000Y-91600000D02*
X102793000Y-91365000D01*
X95073000Y-78580000D02*
X95073000Y-78815000D01*
X95073000Y-78815000D02*
X93258000Y-78815000D01*
X95073000Y-91600000D02*
X95073000Y-91365000D01*
X98933000Y-91600000D02*
X102793000Y-91600000D01*
X98933000Y-91600000D02*
X95073000Y-91600000D01*
X98933000Y-78580000D02*
X95073000Y-78580000D01*
D14*
%TO.C,U3*%
X108712000Y-65278000D02*
X98552000Y-65278000D01*
X98552000Y-71120000D02*
X108712000Y-71120000D01*
X108712000Y-65278000D02*
X108712000Y-71120000D01*
X98552000Y-65278000D02*
X98552000Y-67183000D01*
X98552000Y-71120000D02*
X98552000Y-69215000D01*
X98552000Y-69215000D02*
G75*
G03*
X98552000Y-67183000I0J1016000D01*
G01*
D13*
%TO.C,R30*%
X151119064Y-87857000D02*
X150664936Y-87857000D01*
X151119064Y-86387000D02*
X150664936Y-86387000D01*
%TO.C,R26*%
X132598936Y-72163000D02*
X133053064Y-72163000D01*
X132598936Y-73633000D02*
X133053064Y-73633000D01*
%TO.C,R22*%
X143171936Y-86387000D02*
X143626064Y-86387000D01*
X143171936Y-87857000D02*
X143626064Y-87857000D01*
%TO.C,R19*%
X132503936Y-78894000D02*
X132958064Y-78894000D01*
X132503936Y-80364000D02*
X132958064Y-80364000D01*
%TO.C,R14*%
X121401064Y-90651000D02*
X120946936Y-90651000D01*
X121401064Y-89181000D02*
X120946936Y-89181000D01*
%TO.C,R11*%
X113400064Y-97255000D02*
X112945936Y-97255000D01*
X113400064Y-95785000D02*
X112945936Y-95785000D01*
%TO.C,R5*%
X93245000Y-67299064D02*
X93245000Y-66844936D01*
X94715000Y-67299064D02*
X94715000Y-66844936D01*
%TO.C,R2*%
X118152936Y-74068000D02*
X118607064Y-74068000D01*
X118152936Y-75538000D02*
X118607064Y-75538000D01*
%TO.C,R1*%
X118263936Y-68988000D02*
X118718064Y-68988000D01*
X118263936Y-70458000D02*
X118718064Y-70458000D01*
%TO.C,J1*%
X116167000Y-79358000D02*
X117767000Y-79358000D01*
X114427000Y-84778000D02*
X114427000Y-83778000D01*
X121247000Y-78758000D02*
X121247000Y-79358000D01*
X120307000Y-79358000D02*
X120307000Y-78758000D01*
X114677000Y-84778000D02*
X114677000Y-83778000D01*
X117767000Y-79358000D02*
X117767000Y-78758000D01*
X114677000Y-83248000D02*
X121797000Y-83248000D01*
X113047000Y-84778000D02*
X123427000Y-84778000D01*
X114427000Y-83778000D02*
X114677000Y-83248000D01*
X112757000Y-79788000D02*
X112757000Y-83788000D01*
X121247000Y-79358000D02*
X122847000Y-79358000D01*
X118707000Y-79358000D02*
X120307000Y-79358000D01*
X123427000Y-84778000D02*
X123427000Y-78758000D01*
X114427000Y-83778000D02*
X122047000Y-83778000D01*
X118707000Y-78758000D02*
X118707000Y-79358000D01*
X116167000Y-78758000D02*
X116167000Y-79358000D01*
X113627000Y-78758000D02*
X113627000Y-79358000D01*
X122047000Y-83778000D02*
X122047000Y-84778000D01*
X122847000Y-79358000D02*
X122847000Y-78758000D01*
X115227000Y-79358000D02*
X115227000Y-78758000D01*
X121797000Y-83248000D02*
X122047000Y-83778000D01*
X113627000Y-79358000D02*
X115227000Y-79358000D01*
X121797000Y-84778000D02*
X121797000Y-83778000D01*
X113047000Y-78758000D02*
X113047000Y-84778000D01*
X123427000Y-78758000D02*
X113047000Y-78758000D01*
%TO.C,C5*%
X132475248Y-84609000D02*
X132997752Y-84609000D01*
X132475248Y-86079000D02*
X132997752Y-86079000D01*
%TO.C,C2*%
X121821752Y-97255000D02*
X121299248Y-97255000D01*
X121821752Y-95785000D02*
X121299248Y-95785000D01*
%TD*%
M02*
