%TF.GenerationSoftware,KiCad,Pcbnew,(6.0.1)*%
%TF.CreationDate,2022-03-29T22:20:04-05:00*%
%TF.ProjectId,microcontroller_board_ATMEGA_TH,6d696372-6f63-46f6-9e74-726f6c6c6572,rev?*%
%TF.SameCoordinates,Original*%
%TF.FileFunction,Soldermask,Top*%
%TF.FilePolarity,Negative*%
%FSLAX46Y46*%
G04 Gerber Fmt 4.6, Leading zero omitted, Abs format (unit mm)*
G04 Created by KiCad (PCBNEW (6.0.1)) date 2022-03-29 22:20:04*
%MOMM*%
%LPD*%
G01*
G04 APERTURE LIST*
G04 Aperture macros list*
%AMRoundRect*
0 Rectangle with rounded corners*
0 $1 Rounding radius*
0 $2 $3 $4 $5 $6 $7 $8 $9 X,Y pos of 4 corners*
0 Add a 4 corners polygon primitive as box body*
4,1,4,$2,$3,$4,$5,$6,$7,$8,$9,$2,$3,0*
0 Add four circle primitives for the rounded corners*
1,1,$1+$1,$2,$3*
1,1,$1+$1,$4,$5*
1,1,$1+$1,$6,$7*
1,1,$1+$1,$8,$9*
0 Add four rect primitives between the rounded corners*
20,1,$1+$1,$2,$3,$4,$5,0*
20,1,$1+$1,$4,$5,$6,$7,0*
20,1,$1+$1,$6,$7,$8,$9,0*
20,1,$1+$1,$8,$9,$2,$3,0*%
G04 Aperture macros list end*
%ADD10R,1.700000X1.700000*%
%ADD11O,1.700000X1.700000*%
%ADD12RoundRect,0.250000X-0.600000X0.600000X-0.600000X-0.600000X0.600000X-0.600000X0.600000X0.600000X0*%
%ADD13C,1.700000*%
%ADD14C,1.400000*%
%ADD15O,1.400000X1.400000*%
%ADD16O,2.641600X1.320800*%
%ADD17C,3.200000*%
%ADD18R,1.130000X1.130000*%
%ADD19C,1.130000*%
%ADD20R,1.158000X1.158000*%
%ADD21C,1.158000*%
%ADD22C,1.600000*%
%ADD23O,1.600000X1.600000*%
%ADD24R,1.250000X1.250000*%
%ADD25C,1.250000*%
G04 APERTURE END LIST*
D10*
%TO.C,J7*%
X128524000Y-44958000D03*
D11*
X128524000Y-42418000D03*
X128524000Y-39878000D03*
X128524000Y-37338000D03*
%TD*%
D12*
%TO.C,J11*%
X115697000Y-100838000D03*
D13*
X115697000Y-103378000D03*
X113157000Y-100838000D03*
X113157000Y-103378000D03*
X110617000Y-100838000D03*
X110617000Y-103378000D03*
%TD*%
D14*
%TO.C,R13*%
X132085004Y-95631000D03*
D15*
X133985004Y-95631000D03*
%TD*%
D14*
%TO.C,R4*%
X73279000Y-88011000D03*
D15*
X73279000Y-86111000D03*
%TD*%
D11*
%TO.C,J5*%
X97790000Y-43561000D03*
X97790000Y-41021000D03*
D10*
X97790000Y-38481000D03*
%TD*%
D16*
%TO.C,IC2*%
X114046000Y-40132000D03*
X114046000Y-42672000D03*
X114046000Y-45212000D03*
X114046000Y-47752000D03*
X114046000Y-50292000D03*
X114046000Y-52832000D03*
X114046000Y-55372000D03*
X114046000Y-57912000D03*
X114046000Y-60452000D03*
X114046000Y-62992000D03*
X121666000Y-62992000D03*
X121666000Y-60452000D03*
X121666000Y-57912000D03*
X121666000Y-55372000D03*
X121666000Y-52832000D03*
X121666000Y-50292000D03*
X121666000Y-47752000D03*
X121666000Y-45212000D03*
X121666000Y-42672000D03*
X121666000Y-40132000D03*
%TD*%
D10*
%TO.C,J6*%
X154559000Y-59690000D03*
D11*
X154559000Y-62230000D03*
X154559000Y-64770000D03*
X154559000Y-67310000D03*
%TD*%
D17*
%TO.C,H3*%
X82550000Y-31750000D03*
%TD*%
D10*
%TO.C,J1*%
X105933011Y-71120000D03*
D11*
X108473011Y-71120000D03*
X111013011Y-71120000D03*
%TD*%
D18*
%TO.C,U2*%
X77776496Y-85217000D03*
D19*
X77776496Y-87757000D03*
X77776496Y-90297000D03*
X77776496Y-92837000D03*
X85716496Y-92837000D03*
X85716496Y-90297000D03*
X85716496Y-87757000D03*
X85716496Y-85217000D03*
%TD*%
D10*
%TO.C,J9*%
X154686000Y-43830011D03*
D11*
X154686000Y-46370011D03*
X154686000Y-48910011D03*
%TD*%
D10*
%TO.C,J8*%
X153543000Y-89535000D03*
D11*
X153543000Y-92075000D03*
X153543000Y-94615000D03*
X153543000Y-97155000D03*
X153543000Y-99695000D03*
X153543000Y-102235000D03*
X153543000Y-104775000D03*
%TD*%
D14*
%TO.C,R20*%
X137651998Y-109855000D03*
D15*
X139551998Y-109855000D03*
%TD*%
D17*
%TO.C,H2*%
X82550000Y-116840000D03*
%TD*%
D14*
%TO.C,R8*%
X138159998Y-81534000D03*
D15*
X140059998Y-81534000D03*
%TD*%
D14*
%TO.C,R16*%
X137800004Y-100838000D03*
D15*
X139700004Y-100838000D03*
%TD*%
D20*
%TO.C,Y1*%
X76073000Y-109220000D03*
D21*
X91313000Y-109220000D03*
X91313000Y-101600000D03*
X76073000Y-101600000D03*
%TD*%
D22*
%TO.C,C2*%
X108204000Y-42478000D03*
D23*
X108204000Y-49978000D03*
%TD*%
D17*
%TO.C,H1*%
X146050000Y-31750000D03*
%TD*%
D14*
%TO.C,R10*%
X138303000Y-85979000D03*
D15*
X140203000Y-85979000D03*
%TD*%
D10*
%TO.C,J4*%
X97663000Y-58282992D03*
D11*
X97663000Y-55742992D03*
X97663000Y-53202992D03*
X97663000Y-50662992D03*
%TD*%
D14*
%TO.C,R3*%
X91440000Y-74819000D03*
D15*
X91440000Y-72919000D03*
%TD*%
%TO.C,R7*%
X134344998Y-81534000D03*
D14*
X132444998Y-81534000D03*
%TD*%
D18*
%TO.C,U1*%
X78157496Y-69850000D03*
D19*
X78157496Y-72390000D03*
X78157496Y-74930000D03*
X78157496Y-77470000D03*
X86097496Y-77470000D03*
X86097496Y-74930000D03*
X86097496Y-72390000D03*
X86097496Y-69850000D03*
%TD*%
D14*
%TO.C,R2*%
X73787000Y-72517000D03*
D15*
X73787000Y-70617000D03*
%TD*%
D11*
%TO.C,J2*%
X110632011Y-78232000D03*
X108092011Y-78232000D03*
D10*
X105552011Y-78232000D03*
%TD*%
D14*
%TO.C,R5*%
X91440000Y-90165000D03*
D15*
X91440000Y-88265000D03*
%TD*%
D10*
%TO.C,J3*%
X105791000Y-86360000D03*
D11*
X108331000Y-86360000D03*
X110871000Y-86360000D03*
%TD*%
D14*
%TO.C,R15*%
X132190998Y-100711000D03*
D15*
X134090998Y-100711000D03*
%TD*%
D24*
%TO.C,U3*%
X138938000Y-41783000D03*
D25*
X138938000Y-44323000D03*
X138938000Y-46863000D03*
X138938000Y-49403000D03*
X138938000Y-51943000D03*
X138938000Y-54483000D03*
X138938000Y-57023000D03*
X138938000Y-59563000D03*
X138938000Y-62103000D03*
X138938000Y-64643000D03*
X138938000Y-67183000D03*
X138938000Y-69723000D03*
X138938000Y-72263000D03*
X138938000Y-74803000D03*
X146812000Y-74803000D03*
X146812000Y-72263000D03*
X146812000Y-69723000D03*
X146812000Y-67183000D03*
X146812000Y-64643000D03*
X146812000Y-62103000D03*
X146812000Y-59563000D03*
X146812000Y-57023000D03*
X146812000Y-54483000D03*
X146812000Y-51943000D03*
X146812000Y-49403000D03*
X146812000Y-46863000D03*
X146812000Y-44323000D03*
X146812000Y-41783000D03*
%TD*%
D14*
%TO.C,R6*%
X108458000Y-60182000D03*
D15*
X108458000Y-62082000D03*
%TD*%
D14*
%TO.C,R14*%
X138557000Y-95885000D03*
D15*
X140457000Y-95885000D03*
%TD*%
D22*
%TO.C,C1*%
X73025000Y-39938000D03*
D23*
X73025000Y-47438000D03*
%TD*%
D17*
%TO.C,H4*%
X146050000Y-116840000D03*
%TD*%
D10*
%TO.C,J10*%
X131953000Y-73533000D03*
D11*
X131953000Y-70993000D03*
X131953000Y-68453000D03*
X131953000Y-65913000D03*
X131953000Y-63373000D03*
X131953000Y-60833000D03*
X131953000Y-58293000D03*
X131953000Y-55753000D03*
%TD*%
D14*
%TO.C,R9*%
X132190998Y-85852000D03*
D15*
X134090998Y-85852000D03*
%TD*%
D16*
%TO.C,IC1*%
X81280000Y-38481000D03*
X81280000Y-41021000D03*
X81280000Y-43561000D03*
X81280000Y-46101000D03*
X81280000Y-48641000D03*
X81280000Y-51181000D03*
X81280000Y-53721000D03*
X81280000Y-56261000D03*
X81280000Y-58801000D03*
X81280000Y-61341000D03*
X88900000Y-61341000D03*
X88900000Y-58801000D03*
X88900000Y-56261000D03*
X88900000Y-53721000D03*
X88900000Y-51181000D03*
X88900000Y-48641000D03*
X88900000Y-46101000D03*
X88900000Y-43561000D03*
X88900000Y-41021000D03*
X88900000Y-38481000D03*
%TD*%
D14*
%TO.C,R19*%
X132063998Y-109855000D03*
D15*
X133963998Y-109855000D03*
%TD*%
D14*
%TO.C,R1*%
X73660000Y-52435000D03*
D15*
X73660000Y-54335000D03*
%TD*%
M02*
