M48
; DRILL file {KiCad (6.0.1)} date Tue Mar 29 22:42:56 2022
; FORMAT={-:-/ absolute / inch / decimal}
; #@! TF.CreationDate,2022-03-29T22:42:56-05:00
; #@! TF.GenerationSoftware,Kicad,Pcbnew,(6.0.1)
; #@! TF.FileFunction,Plated,1,2,PTH
FMAT,2
INCH
; #@! TA.AperFunction,Plated,PTH,ViaDrill
T1C0.0157
; #@! TA.AperFunction,Plated,PTH,ComponentDrill
T2C0.0256
; #@! TA.AperFunction,Plated,PTH,ComponentDrill
T3C0.0276
; #@! TA.AperFunction,Plated,PTH,ComponentDrill
T4C0.0307
; #@! TA.AperFunction,Plated,PTH,ComponentDrill
T5C0.0315
; #@! TA.AperFunction,Plated,PTH,ComponentDrill
T6C0.0320
; #@! TA.AperFunction,Plated,PTH,ComponentDrill
T7C0.0327
; #@! TA.AperFunction,Plated,PTH,ComponentDrill
T8C0.0394
%
G90
G05
T1
X2.74Y-2.455
X2.82Y-2.535
X2.965Y-3.145
X4.24Y-3.555
X4.335Y-1.58
X4.34Y-1.45
X4.5675Y-4.3975
X4.725Y-3.77
X4.925Y-2.605
X4.93Y-1.68
X5.09Y-3.55
X5.1594Y-3.3356
X5.34Y-3.005
X5.83Y-3.15
X5.87Y-3.115
X5.935Y-4.4
T2
X2.995Y-4.0
X2.995Y-4.3
X3.595Y-4.0
X3.595Y-4.3
T3
X2.885Y-3.3902
X2.885Y-3.465
X2.9Y-2.0644
X2.9Y-2.1392
X2.905Y-2.7802
X2.905Y-2.855
X3.6Y-2.8708
X3.6Y-2.9456
X3.6Y-3.475
X3.6Y-3.5498
X4.27Y-2.3694
X4.27Y-2.4442
X5.1994Y-4.325
X5.2002Y-3.765
X5.2044Y-3.38
X5.2044Y-3.965
X5.2144Y-3.21
X5.2742Y-4.325
X5.275Y-3.765
X5.2792Y-3.38
X5.2792Y-3.965
X5.2892Y-3.21
X5.4194Y-4.325
X5.4252Y-3.97
X5.4394Y-3.21
X5.445Y-3.385
X5.455Y-3.775
X5.4942Y-4.325
X5.5Y-3.97
X5.5142Y-3.21
X5.5198Y-3.385
X5.5298Y-3.775
T4
X3.0621Y-3.355
X3.0621Y-3.455
X3.0621Y-3.555
X3.0621Y-3.655
X3.0771Y-2.75
X3.0771Y-2.85
X3.0771Y-2.95
X3.0771Y-3.05
X3.3747Y-3.355
X3.3747Y-3.455
X3.3747Y-3.555
X3.3747Y-3.655
X3.3897Y-2.75
X3.3897Y-2.85
X3.3897Y-2.95
X3.3897Y-3.05
T5
X2.875Y-1.5724
X2.875Y-1.8676
X4.26Y-1.6724
X4.26Y-1.9676
T6
X3.2Y-1.515
X3.2Y-1.615
X3.2Y-1.715
X3.2Y-1.815
X3.2Y-1.915
X3.2Y-2.015
X3.2Y-2.115
X3.2Y-2.215
X3.2Y-2.315
X3.2Y-2.415
X3.5Y-1.515
X3.5Y-1.615
X3.5Y-1.715
X3.5Y-1.815
X3.5Y-1.915
X3.5Y-2.015
X3.5Y-2.115
X3.5Y-2.215
X3.5Y-2.315
X3.5Y-2.415
X4.49Y-1.58
X4.49Y-1.68
X4.49Y-1.78
X4.49Y-1.88
X4.49Y-1.98
X4.49Y-2.08
X4.49Y-2.18
X4.49Y-2.28
X4.49Y-2.38
X4.49Y-2.48
X4.79Y-1.58
X4.79Y-1.68
X4.79Y-1.78
X4.79Y-1.88
X4.79Y-1.98
X4.79Y-2.08
X4.79Y-2.18
X4.79Y-2.28
X4.79Y-2.38
X4.79Y-2.48
T7
X5.47Y-1.645
X5.47Y-1.745
X5.47Y-1.845
X5.47Y-1.945
X5.47Y-2.045
X5.47Y-2.145
X5.47Y-2.245
X5.47Y-2.345
X5.47Y-2.445
X5.47Y-2.545
X5.47Y-2.645
X5.47Y-2.745
X5.47Y-2.845
X5.47Y-2.945
X5.78Y-1.645
X5.78Y-1.745
X5.78Y-1.845
X5.78Y-1.945
X5.78Y-2.045
X5.78Y-2.145
X5.78Y-2.245
X5.78Y-2.345
X5.78Y-2.445
X5.78Y-2.545
X5.78Y-2.645
X5.78Y-2.745
X5.78Y-2.845
X5.78Y-2.945
T8
X3.845Y-1.9946
X3.845Y-2.0946
X3.845Y-2.1946
X3.845Y-2.2946
X3.85Y-1.515
X3.85Y-1.615
X3.85Y-1.715
X4.1556Y-3.08
X4.165Y-3.4
X4.1706Y-2.8
X4.2556Y-3.08
X4.265Y-3.4
X4.2706Y-2.8
X4.355Y-3.97
X4.355Y-4.07
X4.3556Y-3.08
X4.365Y-3.4
X4.3706Y-2.8
X4.455Y-3.97
X4.455Y-4.07
X4.555Y-3.97
X4.555Y-4.07
X5.06Y-1.47
X5.06Y-1.57
X5.06Y-1.67
X5.06Y-1.77
X5.195Y-2.195
X5.195Y-2.295
X5.195Y-2.395
X5.195Y-2.495
X5.195Y-2.595
X5.195Y-2.695
X5.195Y-2.795
X5.195Y-2.895
X6.045Y-3.525
X6.045Y-3.625
X6.045Y-3.725
X6.045Y-3.825
X6.045Y-3.925
X6.045Y-4.025
X6.045Y-4.125
X6.085Y-2.35
X6.085Y-2.45
X6.085Y-2.55
X6.085Y-2.65
X6.09Y-1.7256
X6.09Y-1.8256
X6.09Y-1.9256
T0
M30
