%TF.GenerationSoftware,KiCad,Pcbnew,(6.0.1)*%
%TF.CreationDate,2022-03-29T22:43:00-05:00*%
%TF.ProjectId,microcontroller_board_ATMEGA_TH,6d696372-6f63-46f6-9e74-726f6c6c6572,rev?*%
%TF.SameCoordinates,Original*%
%TF.FileFunction,Legend,Top*%
%TF.FilePolarity,Positive*%
%FSLAX46Y46*%
G04 Gerber Fmt 4.6, Leading zero omitted, Abs format (unit mm)*
G04 Created by KiCad (PCBNEW (6.0.1)) date 2022-03-29 22:43:00*
%MOMM*%
%LPD*%
G01*
G04 APERTURE LIST*
%ADD10C,0.300000*%
%ADD11C,0.150000*%
%ADD12C,0.120000*%
%ADD13C,0.152400*%
%ADD14C,0.127000*%
%ADD15C,0.200000*%
G04 APERTURE END LIST*
D10*
X92941428Y-109810357D02*
X93441428Y-109810357D01*
X93655714Y-110596071D02*
X92941428Y-110596071D01*
X92941428Y-109096071D01*
X93655714Y-109096071D01*
X95155714Y-110453214D02*
X95084285Y-110524642D01*
X94870000Y-110596071D01*
X94727142Y-110596071D01*
X94512857Y-110524642D01*
X94370000Y-110381785D01*
X94298571Y-110238928D01*
X94227142Y-109953214D01*
X94227142Y-109738928D01*
X94298571Y-109453214D01*
X94370000Y-109310357D01*
X94512857Y-109167500D01*
X94727142Y-109096071D01*
X94870000Y-109096071D01*
X95084285Y-109167500D01*
X95155714Y-109238928D01*
X95798571Y-109810357D02*
X96298571Y-109810357D01*
X96512857Y-110596071D02*
X95798571Y-110596071D01*
X95798571Y-109096071D01*
X96512857Y-109096071D01*
X98941428Y-109596071D02*
X98941428Y-110596071D01*
X98584285Y-109024642D02*
X98227142Y-110096071D01*
X99155714Y-110096071D01*
X100370000Y-109596071D02*
X100370000Y-110596071D01*
X100012857Y-109024642D02*
X99655714Y-110096071D01*
X100584285Y-110096071D01*
X101870000Y-109096071D02*
X101155714Y-109096071D01*
X101084285Y-109810357D01*
X101155714Y-109738928D01*
X101298571Y-109667500D01*
X101655714Y-109667500D01*
X101798571Y-109738928D01*
X101870000Y-109810357D01*
X101941428Y-109953214D01*
X101941428Y-110310357D01*
X101870000Y-110453214D01*
X101798571Y-110524642D01*
X101655714Y-110596071D01*
X101298571Y-110596071D01*
X101155714Y-110524642D01*
X101084285Y-110453214D01*
X103512857Y-109096071D02*
X104370000Y-109096071D01*
X103941428Y-110596071D02*
X103941428Y-109096071D01*
X105441428Y-110524642D02*
X105298571Y-110596071D01*
X105012857Y-110596071D01*
X104870000Y-110524642D01*
X104798571Y-110381785D01*
X104798571Y-109810357D01*
X104870000Y-109667500D01*
X105012857Y-109596071D01*
X105298571Y-109596071D01*
X105441428Y-109667500D01*
X105512857Y-109810357D01*
X105512857Y-109953214D01*
X104798571Y-110096071D01*
X106798571Y-110596071D02*
X106798571Y-109810357D01*
X106727142Y-109667500D01*
X106584285Y-109596071D01*
X106298571Y-109596071D01*
X106155714Y-109667500D01*
X106798571Y-110524642D02*
X106655714Y-110596071D01*
X106298571Y-110596071D01*
X106155714Y-110524642D01*
X106084285Y-110381785D01*
X106084285Y-110238928D01*
X106155714Y-110096071D01*
X106298571Y-110024642D01*
X106655714Y-110024642D01*
X106798571Y-109953214D01*
X107512857Y-110596071D02*
X107512857Y-109596071D01*
X107512857Y-109738928D02*
X107584285Y-109667500D01*
X107727142Y-109596071D01*
X107941428Y-109596071D01*
X108084285Y-109667500D01*
X108155714Y-109810357D01*
X108155714Y-110596071D01*
X108155714Y-109810357D02*
X108227142Y-109667500D01*
X108370000Y-109596071D01*
X108584285Y-109596071D01*
X108727142Y-109667500D01*
X108798571Y-109810357D01*
X108798571Y-110596071D01*
X110584285Y-109238928D02*
X110655714Y-109167500D01*
X110798571Y-109096071D01*
X111155714Y-109096071D01*
X111298571Y-109167500D01*
X111370000Y-109238928D01*
X111441428Y-109381785D01*
X111441428Y-109524642D01*
X111370000Y-109738928D01*
X110512857Y-110596071D01*
X111441428Y-110596071D01*
X111941428Y-109096071D02*
X112941428Y-109096071D01*
X112298571Y-110596071D01*
X90941428Y-113011071D02*
X90941428Y-111511071D01*
X91441428Y-112582500D01*
X91941428Y-111511071D01*
X91941428Y-113011071D01*
X92655714Y-113011071D02*
X92655714Y-112011071D01*
X92655714Y-111511071D02*
X92584285Y-111582500D01*
X92655714Y-111653928D01*
X92727142Y-111582500D01*
X92655714Y-111511071D01*
X92655714Y-111653928D01*
X94012857Y-112939642D02*
X93870000Y-113011071D01*
X93584285Y-113011071D01*
X93441428Y-112939642D01*
X93370000Y-112868214D01*
X93298571Y-112725357D01*
X93298571Y-112296785D01*
X93370000Y-112153928D01*
X93441428Y-112082500D01*
X93584285Y-112011071D01*
X93870000Y-112011071D01*
X94012857Y-112082500D01*
X94655714Y-113011071D02*
X94655714Y-112011071D01*
X94655714Y-112296785D02*
X94727142Y-112153928D01*
X94798571Y-112082500D01*
X94941428Y-112011071D01*
X95084285Y-112011071D01*
X95798571Y-113011071D02*
X95655714Y-112939642D01*
X95584285Y-112868214D01*
X95512857Y-112725357D01*
X95512857Y-112296785D01*
X95584285Y-112153928D01*
X95655714Y-112082500D01*
X95798571Y-112011071D01*
X96012857Y-112011071D01*
X96155714Y-112082500D01*
X96227142Y-112153928D01*
X96298571Y-112296785D01*
X96298571Y-112725357D01*
X96227142Y-112868214D01*
X96155714Y-112939642D01*
X96012857Y-113011071D01*
X95798571Y-113011071D01*
X97584285Y-112939642D02*
X97441428Y-113011071D01*
X97155714Y-113011071D01*
X97012857Y-112939642D01*
X96941428Y-112868214D01*
X96870000Y-112725357D01*
X96870000Y-112296785D01*
X96941428Y-112153928D01*
X97012857Y-112082500D01*
X97155714Y-112011071D01*
X97441428Y-112011071D01*
X97584285Y-112082500D01*
X98441428Y-113011071D02*
X98298571Y-112939642D01*
X98227142Y-112868214D01*
X98155714Y-112725357D01*
X98155714Y-112296785D01*
X98227142Y-112153928D01*
X98298571Y-112082500D01*
X98441428Y-112011071D01*
X98655714Y-112011071D01*
X98798571Y-112082500D01*
X98870000Y-112153928D01*
X98941428Y-112296785D01*
X98941428Y-112725357D01*
X98870000Y-112868214D01*
X98798571Y-112939642D01*
X98655714Y-113011071D01*
X98441428Y-113011071D01*
X99584285Y-112011071D02*
X99584285Y-113011071D01*
X99584285Y-112153928D02*
X99655714Y-112082500D01*
X99798571Y-112011071D01*
X100012857Y-112011071D01*
X100155714Y-112082500D01*
X100227142Y-112225357D01*
X100227142Y-113011071D01*
X100727142Y-112011071D02*
X101298571Y-112011071D01*
X100941428Y-111511071D02*
X100941428Y-112796785D01*
X101012857Y-112939642D01*
X101155714Y-113011071D01*
X101298571Y-113011071D01*
X101798571Y-113011071D02*
X101798571Y-112011071D01*
X101798571Y-112296785D02*
X101870000Y-112153928D01*
X101941428Y-112082500D01*
X102084285Y-112011071D01*
X102227142Y-112011071D01*
X102941428Y-113011071D02*
X102798571Y-112939642D01*
X102727142Y-112868214D01*
X102655714Y-112725357D01*
X102655714Y-112296785D01*
X102727142Y-112153928D01*
X102798571Y-112082500D01*
X102941428Y-112011071D01*
X103155714Y-112011071D01*
X103298571Y-112082500D01*
X103370000Y-112153928D01*
X103441428Y-112296785D01*
X103441428Y-112725357D01*
X103370000Y-112868214D01*
X103298571Y-112939642D01*
X103155714Y-113011071D01*
X102941428Y-113011071D01*
X104298571Y-113011071D02*
X104155714Y-112939642D01*
X104084285Y-112796785D01*
X104084285Y-111511071D01*
X105084285Y-113011071D02*
X104941428Y-112939642D01*
X104870000Y-112796785D01*
X104870000Y-111511071D01*
X106227142Y-112939642D02*
X106084285Y-113011071D01*
X105798571Y-113011071D01*
X105655714Y-112939642D01*
X105584285Y-112796785D01*
X105584285Y-112225357D01*
X105655714Y-112082500D01*
X105798571Y-112011071D01*
X106084285Y-112011071D01*
X106227142Y-112082500D01*
X106298571Y-112225357D01*
X106298571Y-112368214D01*
X105584285Y-112511071D01*
X106941428Y-113011071D02*
X106941428Y-112011071D01*
X106941428Y-112296785D02*
X107012857Y-112153928D01*
X107084285Y-112082500D01*
X107227142Y-112011071D01*
X107370000Y-112011071D01*
X109512857Y-112225357D02*
X109727142Y-112296785D01*
X109798571Y-112368214D01*
X109870000Y-112511071D01*
X109870000Y-112725357D01*
X109798571Y-112868214D01*
X109727142Y-112939642D01*
X109584285Y-113011071D01*
X109012857Y-113011071D01*
X109012857Y-111511071D01*
X109512857Y-111511071D01*
X109655714Y-111582500D01*
X109727142Y-111653928D01*
X109798571Y-111796785D01*
X109798571Y-111939642D01*
X109727142Y-112082500D01*
X109655714Y-112153928D01*
X109512857Y-112225357D01*
X109012857Y-112225357D01*
X110727142Y-113011071D02*
X110584285Y-112939642D01*
X110512857Y-112868214D01*
X110441428Y-112725357D01*
X110441428Y-112296785D01*
X110512857Y-112153928D01*
X110584285Y-112082500D01*
X110727142Y-112011071D01*
X110941428Y-112011071D01*
X111084285Y-112082500D01*
X111155714Y-112153928D01*
X111227142Y-112296785D01*
X111227142Y-112725357D01*
X111155714Y-112868214D01*
X111084285Y-112939642D01*
X110941428Y-113011071D01*
X110727142Y-113011071D01*
X112512857Y-113011071D02*
X112512857Y-112225357D01*
X112441428Y-112082500D01*
X112298571Y-112011071D01*
X112012857Y-112011071D01*
X111870000Y-112082500D01*
X112512857Y-112939642D02*
X112370000Y-113011071D01*
X112012857Y-113011071D01*
X111870000Y-112939642D01*
X111798571Y-112796785D01*
X111798571Y-112653928D01*
X111870000Y-112511071D01*
X112012857Y-112439642D01*
X112370000Y-112439642D01*
X112512857Y-112368214D01*
X113227142Y-113011071D02*
X113227142Y-112011071D01*
X113227142Y-112296785D02*
X113298571Y-112153928D01*
X113370000Y-112082500D01*
X113512857Y-112011071D01*
X113655714Y-112011071D01*
X114798571Y-113011071D02*
X114798571Y-111511071D01*
X114798571Y-112939642D02*
X114655714Y-113011071D01*
X114370000Y-113011071D01*
X114227142Y-112939642D01*
X114155714Y-112868214D01*
X114084285Y-112725357D01*
X114084285Y-112296785D01*
X114155714Y-112153928D01*
X114227142Y-112082500D01*
X114370000Y-112011071D01*
X114655714Y-112011071D01*
X114798571Y-112082500D01*
X75268428Y-98325714D02*
X75197000Y-98397142D01*
X74982714Y-98468571D01*
X74839857Y-98468571D01*
X74625571Y-98397142D01*
X74482714Y-98254285D01*
X74411285Y-98111428D01*
X74339857Y-97825714D01*
X74339857Y-97611428D01*
X74411285Y-97325714D01*
X74482714Y-97182857D01*
X74625571Y-97040000D01*
X74839857Y-96968571D01*
X74982714Y-96968571D01*
X75197000Y-97040000D01*
X75268428Y-97111428D01*
X75911285Y-98468571D02*
X75911285Y-97468571D01*
X75911285Y-97754285D02*
X75982714Y-97611428D01*
X76054142Y-97540000D01*
X76197000Y-97468571D01*
X76339857Y-97468571D01*
X76697000Y-97468571D02*
X77054142Y-98468571D01*
X77411285Y-97468571D02*
X77054142Y-98468571D01*
X76911285Y-98825714D01*
X76839857Y-98897142D01*
X76697000Y-98968571D01*
X77911285Y-98397142D02*
X78054142Y-98468571D01*
X78339857Y-98468571D01*
X78482714Y-98397142D01*
X78554142Y-98254285D01*
X78554142Y-98182857D01*
X78482714Y-98040000D01*
X78339857Y-97968571D01*
X78125571Y-97968571D01*
X77982714Y-97897142D01*
X77911285Y-97754285D01*
X77911285Y-97682857D01*
X77982714Y-97540000D01*
X78125571Y-97468571D01*
X78339857Y-97468571D01*
X78482714Y-97540000D01*
X78982714Y-97468571D02*
X79554142Y-97468571D01*
X79197000Y-96968571D02*
X79197000Y-98254285D01*
X79268428Y-98397142D01*
X79411285Y-98468571D01*
X79554142Y-98468571D01*
X80697000Y-98468571D02*
X80697000Y-97682857D01*
X80625571Y-97540000D01*
X80482714Y-97468571D01*
X80197000Y-97468571D01*
X80054142Y-97540000D01*
X80697000Y-98397142D02*
X80554142Y-98468571D01*
X80197000Y-98468571D01*
X80054142Y-98397142D01*
X79982714Y-98254285D01*
X79982714Y-98111428D01*
X80054142Y-97968571D01*
X80197000Y-97897142D01*
X80554142Y-97897142D01*
X80697000Y-97825714D01*
X81625571Y-98468571D02*
X81482714Y-98397142D01*
X81411285Y-98254285D01*
X81411285Y-96968571D01*
X83625571Y-96968571D02*
X83911285Y-96968571D01*
X84054142Y-97040000D01*
X84197000Y-97182857D01*
X84268428Y-97468571D01*
X84268428Y-97968571D01*
X84197000Y-98254285D01*
X84054142Y-98397142D01*
X83911285Y-98468571D01*
X83625571Y-98468571D01*
X83482714Y-98397142D01*
X83339857Y-98254285D01*
X83268428Y-97968571D01*
X83268428Y-97468571D01*
X83339857Y-97182857D01*
X83482714Y-97040000D01*
X83625571Y-96968571D01*
X84839857Y-98397142D02*
X84982714Y-98468571D01*
X85268428Y-98468571D01*
X85411285Y-98397142D01*
X85482714Y-98254285D01*
X85482714Y-98182857D01*
X85411285Y-98040000D01*
X85268428Y-97968571D01*
X85054142Y-97968571D01*
X84911285Y-97897142D01*
X84839857Y-97754285D01*
X84839857Y-97682857D01*
X84911285Y-97540000D01*
X85054142Y-97468571D01*
X85268428Y-97468571D01*
X85411285Y-97540000D01*
X86768428Y-98397142D02*
X86625571Y-98468571D01*
X86339857Y-98468571D01*
X86197000Y-98397142D01*
X86125571Y-98325714D01*
X86054142Y-98182857D01*
X86054142Y-97754285D01*
X86125571Y-97611428D01*
X86197000Y-97540000D01*
X86339857Y-97468571D01*
X86625571Y-97468571D01*
X86768428Y-97540000D01*
X87411285Y-98468571D02*
X87411285Y-97468571D01*
X87411285Y-96968571D02*
X87339857Y-97040000D01*
X87411285Y-97111428D01*
X87482714Y-97040000D01*
X87411285Y-96968571D01*
X87411285Y-97111428D01*
X88339857Y-98468571D02*
X88197000Y-98397142D01*
X88125571Y-98254285D01*
X88125571Y-96968571D01*
X89125571Y-98468571D02*
X88982714Y-98397142D01*
X88911285Y-98254285D01*
X88911285Y-96968571D01*
X90339857Y-98468571D02*
X90339857Y-97682857D01*
X90268428Y-97540000D01*
X90125571Y-97468571D01*
X89839857Y-97468571D01*
X89697000Y-97540000D01*
X90339857Y-98397142D02*
X90197000Y-98468571D01*
X89839857Y-98468571D01*
X89697000Y-98397142D01*
X89625571Y-98254285D01*
X89625571Y-98111428D01*
X89697000Y-97968571D01*
X89839857Y-97897142D01*
X90197000Y-97897142D01*
X90339857Y-97825714D01*
X90839857Y-97468571D02*
X91411285Y-97468571D01*
X91054142Y-96968571D02*
X91054142Y-98254285D01*
X91125571Y-98397142D01*
X91268428Y-98468571D01*
X91411285Y-98468571D01*
X92125571Y-98468571D02*
X91982714Y-98397142D01*
X91911285Y-98325714D01*
X91839857Y-98182857D01*
X91839857Y-97754285D01*
X91911285Y-97611428D01*
X91982714Y-97540000D01*
X92125571Y-97468571D01*
X92339857Y-97468571D01*
X92482714Y-97540000D01*
X92554142Y-97611428D01*
X92625571Y-97754285D01*
X92625571Y-98182857D01*
X92554142Y-98325714D01*
X92482714Y-98397142D01*
X92339857Y-98468571D01*
X92125571Y-98468571D01*
X93268428Y-98468571D02*
X93268428Y-97468571D01*
X93268428Y-97754285D02*
X93339857Y-97611428D01*
X93411285Y-97540000D01*
X93554142Y-97468571D01*
X93697000Y-97468571D01*
D11*
X117324238Y-70351095D02*
X117276619Y-70493952D01*
X117276619Y-70732047D01*
X117324238Y-70827285D01*
X117371857Y-70874904D01*
X117467095Y-70922523D01*
X117562333Y-70922523D01*
X117657571Y-70874904D01*
X117705190Y-70827285D01*
X117752809Y-70732047D01*
X117800428Y-70541571D01*
X117848047Y-70446333D01*
X117895666Y-70398714D01*
X117990904Y-70351095D01*
X118086142Y-70351095D01*
X118181380Y-70398714D01*
X118229000Y-70446333D01*
X118276619Y-70541571D01*
X118276619Y-70779666D01*
X118229000Y-70922523D01*
X117324238Y-71732047D02*
X117276619Y-71636809D01*
X117276619Y-71446333D01*
X117324238Y-71351095D01*
X117419476Y-71303476D01*
X117800428Y-71303476D01*
X117895666Y-71351095D01*
X117943285Y-71446333D01*
X117943285Y-71636809D01*
X117895666Y-71732047D01*
X117800428Y-71779666D01*
X117705190Y-71779666D01*
X117609952Y-71303476D01*
X117943285Y-72208238D02*
X117276619Y-72208238D01*
X117848047Y-72208238D02*
X117895666Y-72255857D01*
X117943285Y-72351095D01*
X117943285Y-72493952D01*
X117895666Y-72589190D01*
X117800428Y-72636809D01*
X117276619Y-72636809D01*
X117324238Y-73065380D02*
X117276619Y-73160619D01*
X117276619Y-73351095D01*
X117324238Y-73446333D01*
X117419476Y-73493952D01*
X117467095Y-73493952D01*
X117562333Y-73446333D01*
X117609952Y-73351095D01*
X117609952Y-73208238D01*
X117657571Y-73113000D01*
X117752809Y-73065380D01*
X117800428Y-73065380D01*
X117895666Y-73113000D01*
X117943285Y-73208238D01*
X117943285Y-73351095D01*
X117895666Y-73446333D01*
X117276619Y-74065380D02*
X117324238Y-73970142D01*
X117371857Y-73922523D01*
X117467095Y-73874904D01*
X117752809Y-73874904D01*
X117848047Y-73922523D01*
X117895666Y-73970142D01*
X117943285Y-74065380D01*
X117943285Y-74208238D01*
X117895666Y-74303476D01*
X117848047Y-74351095D01*
X117752809Y-74398714D01*
X117467095Y-74398714D01*
X117371857Y-74351095D01*
X117324238Y-74303476D01*
X117276619Y-74208238D01*
X117276619Y-74065380D01*
X117276619Y-74827285D02*
X117943285Y-74827285D01*
X117752809Y-74827285D02*
X117848047Y-74874904D01*
X117895666Y-74922523D01*
X117943285Y-75017761D01*
X117943285Y-75113000D01*
X117800428Y-76541571D02*
X117752809Y-76684428D01*
X117705190Y-76732047D01*
X117609952Y-76779666D01*
X117467095Y-76779666D01*
X117371857Y-76732047D01*
X117324238Y-76684428D01*
X117276619Y-76589190D01*
X117276619Y-76208238D01*
X118276619Y-76208238D01*
X118276619Y-76541571D01*
X118229000Y-76636809D01*
X118181380Y-76684428D01*
X118086142Y-76732047D01*
X117990904Y-76732047D01*
X117895666Y-76684428D01*
X117848047Y-76636809D01*
X117800428Y-76541571D01*
X117800428Y-76208238D01*
X117276619Y-77351095D02*
X117324238Y-77255857D01*
X117371857Y-77208238D01*
X117467095Y-77160619D01*
X117752809Y-77160619D01*
X117848047Y-77208238D01*
X117895666Y-77255857D01*
X117943285Y-77351095D01*
X117943285Y-77493952D01*
X117895666Y-77589190D01*
X117848047Y-77636809D01*
X117752809Y-77684428D01*
X117467095Y-77684428D01*
X117371857Y-77636809D01*
X117324238Y-77589190D01*
X117276619Y-77493952D01*
X117276619Y-77351095D01*
X117276619Y-78541571D02*
X117800428Y-78541571D01*
X117895666Y-78493952D01*
X117943285Y-78398714D01*
X117943285Y-78208238D01*
X117895666Y-78113000D01*
X117324238Y-78541571D02*
X117276619Y-78446333D01*
X117276619Y-78208238D01*
X117324238Y-78113000D01*
X117419476Y-78065380D01*
X117514714Y-78065380D01*
X117609952Y-78113000D01*
X117657571Y-78208238D01*
X117657571Y-78446333D01*
X117705190Y-78541571D01*
X117276619Y-79017761D02*
X117943285Y-79017761D01*
X117752809Y-79017761D02*
X117848047Y-79065380D01*
X117895666Y-79113000D01*
X117943285Y-79208238D01*
X117943285Y-79303476D01*
X117276619Y-80065380D02*
X118276619Y-80065380D01*
X117324238Y-80065380D02*
X117276619Y-79970142D01*
X117276619Y-79779666D01*
X117324238Y-79684428D01*
X117371857Y-79636809D01*
X117467095Y-79589190D01*
X117752809Y-79589190D01*
X117848047Y-79636809D01*
X117895666Y-79684428D01*
X117943285Y-79779666D01*
X117943285Y-79970142D01*
X117895666Y-80065380D01*
X117276619Y-81303476D02*
X118276619Y-81303476D01*
X117800428Y-81303476D02*
X117800428Y-81874904D01*
X117276619Y-81874904D02*
X118276619Y-81874904D01*
X117324238Y-82732047D02*
X117276619Y-82636809D01*
X117276619Y-82446333D01*
X117324238Y-82351095D01*
X117419476Y-82303476D01*
X117800428Y-82303476D01*
X117895666Y-82351095D01*
X117943285Y-82446333D01*
X117943285Y-82636809D01*
X117895666Y-82732047D01*
X117800428Y-82779666D01*
X117705190Y-82779666D01*
X117609952Y-82303476D01*
X117276619Y-83636809D02*
X117800428Y-83636809D01*
X117895666Y-83589190D01*
X117943285Y-83493952D01*
X117943285Y-83303476D01*
X117895666Y-83208238D01*
X117324238Y-83636809D02*
X117276619Y-83541571D01*
X117276619Y-83303476D01*
X117324238Y-83208238D01*
X117419476Y-83160619D01*
X117514714Y-83160619D01*
X117609952Y-83208238D01*
X117657571Y-83303476D01*
X117657571Y-83541571D01*
X117705190Y-83636809D01*
X117276619Y-84541571D02*
X118276619Y-84541571D01*
X117324238Y-84541571D02*
X117276619Y-84446333D01*
X117276619Y-84255857D01*
X117324238Y-84160619D01*
X117371857Y-84113000D01*
X117467095Y-84065380D01*
X117752809Y-84065380D01*
X117848047Y-84113000D01*
X117895666Y-84160619D01*
X117943285Y-84255857D01*
X117943285Y-84446333D01*
X117895666Y-84541571D01*
X117324238Y-85398714D02*
X117276619Y-85303476D01*
X117276619Y-85113000D01*
X117324238Y-85017761D01*
X117419476Y-84970142D01*
X117800428Y-84970142D01*
X117895666Y-85017761D01*
X117943285Y-85113000D01*
X117943285Y-85303476D01*
X117895666Y-85398714D01*
X117800428Y-85446333D01*
X117705190Y-85446333D01*
X117609952Y-84970142D01*
X117276619Y-85874904D02*
X117943285Y-85874904D01*
X117752809Y-85874904D02*
X117848047Y-85922523D01*
X117895666Y-85970142D01*
X117943285Y-86065380D01*
X117943285Y-86160619D01*
X117324238Y-86446333D02*
X117276619Y-86541571D01*
X117276619Y-86732047D01*
X117324238Y-86827285D01*
X117419476Y-86874904D01*
X117467095Y-86874904D01*
X117562333Y-86827285D01*
X117609952Y-86732047D01*
X117609952Y-86589190D01*
X117657571Y-86493952D01*
X117752809Y-86446333D01*
X117800428Y-86446333D01*
X117895666Y-86493952D01*
X117943285Y-86589190D01*
X117943285Y-86732047D01*
X117895666Y-86827285D01*
X129318238Y-37488761D02*
X129461095Y-37536380D01*
X129699190Y-37536380D01*
X129794428Y-37488761D01*
X129842047Y-37441142D01*
X129889666Y-37345904D01*
X129889666Y-37250666D01*
X129842047Y-37155428D01*
X129794428Y-37107809D01*
X129699190Y-37060190D01*
X129508714Y-37012571D01*
X129413476Y-36964952D01*
X129365857Y-36917333D01*
X129318238Y-36822095D01*
X129318238Y-36726857D01*
X129365857Y-36631619D01*
X129413476Y-36584000D01*
X129508714Y-36536380D01*
X129746809Y-36536380D01*
X129889666Y-36584000D01*
X130318238Y-36869714D02*
X130318238Y-37869714D01*
X130318238Y-36917333D02*
X130413476Y-36869714D01*
X130603952Y-36869714D01*
X130699190Y-36917333D01*
X130746809Y-36964952D01*
X130794428Y-37060190D01*
X130794428Y-37345904D01*
X130746809Y-37441142D01*
X130699190Y-37488761D01*
X130603952Y-37536380D01*
X130413476Y-37536380D01*
X130318238Y-37488761D01*
X131651571Y-37536380D02*
X131651571Y-37012571D01*
X131603952Y-36917333D01*
X131508714Y-36869714D01*
X131318238Y-36869714D01*
X131223000Y-36917333D01*
X131651571Y-37488761D02*
X131556333Y-37536380D01*
X131318238Y-37536380D01*
X131223000Y-37488761D01*
X131175380Y-37393523D01*
X131175380Y-37298285D01*
X131223000Y-37203047D01*
X131318238Y-37155428D01*
X131556333Y-37155428D01*
X131651571Y-37107809D01*
X132127761Y-37536380D02*
X132127761Y-36869714D01*
X132127761Y-37060190D02*
X132175380Y-36964952D01*
X132223000Y-36917333D01*
X132318238Y-36869714D01*
X132413476Y-36869714D01*
X133127761Y-37488761D02*
X133032523Y-37536380D01*
X132842047Y-37536380D01*
X132746809Y-37488761D01*
X132699190Y-37393523D01*
X132699190Y-37012571D01*
X132746809Y-36917333D01*
X132842047Y-36869714D01*
X133032523Y-36869714D01*
X133127761Y-36917333D01*
X133175380Y-37012571D01*
X133175380Y-37107809D01*
X132699190Y-37203047D01*
X134365857Y-37536380D02*
X134365857Y-36536380D01*
X134746809Y-36536380D01*
X134842047Y-36584000D01*
X134889666Y-36631619D01*
X134937285Y-36726857D01*
X134937285Y-36869714D01*
X134889666Y-36964952D01*
X134842047Y-37012571D01*
X134746809Y-37060190D01*
X134365857Y-37060190D01*
X135365857Y-37536380D02*
X135365857Y-36869714D01*
X135365857Y-36536380D02*
X135318238Y-36584000D01*
X135365857Y-36631619D01*
X135413476Y-36584000D01*
X135365857Y-36536380D01*
X135365857Y-36631619D01*
X135842047Y-36869714D02*
X135842047Y-37536380D01*
X135842047Y-36964952D02*
X135889666Y-36917333D01*
X135984904Y-36869714D01*
X136127761Y-36869714D01*
X136223000Y-36917333D01*
X136270619Y-37012571D01*
X136270619Y-37536380D01*
X136699190Y-37488761D02*
X136794428Y-37536380D01*
X136984904Y-37536380D01*
X137080142Y-37488761D01*
X137127761Y-37393523D01*
X137127761Y-37345904D01*
X137080142Y-37250666D01*
X136984904Y-37203047D01*
X136842047Y-37203047D01*
X136746809Y-37155428D01*
X136699190Y-37060190D01*
X136699190Y-37012571D01*
X136746809Y-36917333D01*
X136842047Y-36869714D01*
X136984904Y-36869714D01*
X137080142Y-36917333D01*
X93377238Y-48156761D02*
X93520095Y-48204380D01*
X93758190Y-48204380D01*
X93853428Y-48156761D01*
X93901047Y-48109142D01*
X93948666Y-48013904D01*
X93948666Y-47918666D01*
X93901047Y-47823428D01*
X93853428Y-47775809D01*
X93758190Y-47728190D01*
X93567714Y-47680571D01*
X93472476Y-47632952D01*
X93424857Y-47585333D01*
X93377238Y-47490095D01*
X93377238Y-47394857D01*
X93424857Y-47299619D01*
X93472476Y-47252000D01*
X93567714Y-47204380D01*
X93805809Y-47204380D01*
X93948666Y-47252000D01*
X94377238Y-47537714D02*
X94377238Y-48537714D01*
X94377238Y-47585333D02*
X94472476Y-47537714D01*
X94662952Y-47537714D01*
X94758190Y-47585333D01*
X94805809Y-47632952D01*
X94853428Y-47728190D01*
X94853428Y-48013904D01*
X94805809Y-48109142D01*
X94758190Y-48156761D01*
X94662952Y-48204380D01*
X94472476Y-48204380D01*
X94377238Y-48156761D01*
X95710571Y-48204380D02*
X95710571Y-47680571D01*
X95662952Y-47585333D01*
X95567714Y-47537714D01*
X95377238Y-47537714D01*
X95282000Y-47585333D01*
X95710571Y-48156761D02*
X95615333Y-48204380D01*
X95377238Y-48204380D01*
X95282000Y-48156761D01*
X95234380Y-48061523D01*
X95234380Y-47966285D01*
X95282000Y-47871047D01*
X95377238Y-47823428D01*
X95615333Y-47823428D01*
X95710571Y-47775809D01*
X96186761Y-48204380D02*
X96186761Y-47537714D01*
X96186761Y-47728190D02*
X96234380Y-47632952D01*
X96282000Y-47585333D01*
X96377238Y-47537714D01*
X96472476Y-47537714D01*
X97186761Y-48156761D02*
X97091523Y-48204380D01*
X96901047Y-48204380D01*
X96805809Y-48156761D01*
X96758190Y-48061523D01*
X96758190Y-47680571D01*
X96805809Y-47585333D01*
X96901047Y-47537714D01*
X97091523Y-47537714D01*
X97186761Y-47585333D01*
X97234380Y-47680571D01*
X97234380Y-47775809D01*
X96758190Y-47871047D01*
X98424857Y-48204380D02*
X98424857Y-47204380D01*
X98805809Y-47204380D01*
X98901047Y-47252000D01*
X98948666Y-47299619D01*
X98996285Y-47394857D01*
X98996285Y-47537714D01*
X98948666Y-47632952D01*
X98901047Y-47680571D01*
X98805809Y-47728190D01*
X98424857Y-47728190D01*
X99424857Y-48204380D02*
X99424857Y-47537714D01*
X99424857Y-47204380D02*
X99377238Y-47252000D01*
X99424857Y-47299619D01*
X99472476Y-47252000D01*
X99424857Y-47204380D01*
X99424857Y-47299619D01*
X99901047Y-47537714D02*
X99901047Y-48204380D01*
X99901047Y-47632952D02*
X99948666Y-47585333D01*
X100043904Y-47537714D01*
X100186761Y-47537714D01*
X100282000Y-47585333D01*
X100329619Y-47680571D01*
X100329619Y-48204380D01*
X100758190Y-48156761D02*
X100853428Y-48204380D01*
X101043904Y-48204380D01*
X101139142Y-48156761D01*
X101186761Y-48061523D01*
X101186761Y-48013904D01*
X101139142Y-47918666D01*
X101043904Y-47871047D01*
X100901047Y-47871047D01*
X100805809Y-47823428D01*
X100758190Y-47728190D01*
X100758190Y-47680571D01*
X100805809Y-47585333D01*
X100901047Y-47537714D01*
X101043904Y-47537714D01*
X101139142Y-47585333D01*
X108839952Y-37742761D02*
X108982809Y-37790380D01*
X109220904Y-37790380D01*
X109316142Y-37742761D01*
X109363761Y-37695142D01*
X109411380Y-37599904D01*
X109411380Y-37504666D01*
X109363761Y-37409428D01*
X109316142Y-37361809D01*
X109220904Y-37314190D01*
X109030428Y-37266571D01*
X108935190Y-37218952D01*
X108887571Y-37171333D01*
X108839952Y-37076095D01*
X108839952Y-36980857D01*
X108887571Y-36885619D01*
X108935190Y-36838000D01*
X109030428Y-36790380D01*
X109268523Y-36790380D01*
X109411380Y-36838000D01*
X109839952Y-37790380D02*
X109839952Y-37123714D01*
X109839952Y-36790380D02*
X109792333Y-36838000D01*
X109839952Y-36885619D01*
X109887571Y-36838000D01*
X109839952Y-36790380D01*
X109839952Y-36885619D01*
X110316142Y-37123714D02*
X110316142Y-37790380D01*
X110316142Y-37218952D02*
X110363761Y-37171333D01*
X110459000Y-37123714D01*
X110601857Y-37123714D01*
X110697095Y-37171333D01*
X110744714Y-37266571D01*
X110744714Y-37790380D01*
X111601857Y-37742761D02*
X111506619Y-37790380D01*
X111316142Y-37790380D01*
X111220904Y-37742761D01*
X111173285Y-37647523D01*
X111173285Y-37266571D01*
X111220904Y-37171333D01*
X111316142Y-37123714D01*
X111506619Y-37123714D01*
X111601857Y-37171333D01*
X111649476Y-37266571D01*
X111649476Y-37361809D01*
X111173285Y-37457047D01*
X112744714Y-36790380D02*
X112982809Y-37790380D01*
X113173285Y-37076095D01*
X113363761Y-37790380D01*
X113601857Y-36790380D01*
X114411380Y-37790380D02*
X114411380Y-37266571D01*
X114363761Y-37171333D01*
X114268523Y-37123714D01*
X114078047Y-37123714D01*
X113982809Y-37171333D01*
X114411380Y-37742761D02*
X114316142Y-37790380D01*
X114078047Y-37790380D01*
X113982809Y-37742761D01*
X113935190Y-37647523D01*
X113935190Y-37552285D01*
X113982809Y-37457047D01*
X114078047Y-37409428D01*
X114316142Y-37409428D01*
X114411380Y-37361809D01*
X114792333Y-37123714D02*
X115030428Y-37790380D01*
X115268523Y-37123714D01*
X116030428Y-37742761D02*
X115935190Y-37790380D01*
X115744714Y-37790380D01*
X115649476Y-37742761D01*
X115601857Y-37647523D01*
X115601857Y-37266571D01*
X115649476Y-37171333D01*
X115744714Y-37123714D01*
X115935190Y-37123714D01*
X116030428Y-37171333D01*
X116078047Y-37266571D01*
X116078047Y-37361809D01*
X115601857Y-37457047D01*
X117792333Y-36838000D02*
X117697095Y-36790380D01*
X117554238Y-36790380D01*
X117411380Y-36838000D01*
X117316142Y-36933238D01*
X117268523Y-37028476D01*
X117220904Y-37218952D01*
X117220904Y-37361809D01*
X117268523Y-37552285D01*
X117316142Y-37647523D01*
X117411380Y-37742761D01*
X117554238Y-37790380D01*
X117649476Y-37790380D01*
X117792333Y-37742761D01*
X117839952Y-37695142D01*
X117839952Y-37361809D01*
X117649476Y-37361809D01*
X118649476Y-37742761D02*
X118554238Y-37790380D01*
X118363761Y-37790380D01*
X118268523Y-37742761D01*
X118220904Y-37647523D01*
X118220904Y-37266571D01*
X118268523Y-37171333D01*
X118363761Y-37123714D01*
X118554238Y-37123714D01*
X118649476Y-37171333D01*
X118697095Y-37266571D01*
X118697095Y-37361809D01*
X118220904Y-37457047D01*
X119125666Y-37123714D02*
X119125666Y-37790380D01*
X119125666Y-37218952D02*
X119173285Y-37171333D01*
X119268523Y-37123714D01*
X119411380Y-37123714D01*
X119506619Y-37171333D01*
X119554238Y-37266571D01*
X119554238Y-37790380D01*
X120411380Y-37742761D02*
X120316142Y-37790380D01*
X120125666Y-37790380D01*
X120030428Y-37742761D01*
X119982809Y-37647523D01*
X119982809Y-37266571D01*
X120030428Y-37171333D01*
X120125666Y-37123714D01*
X120316142Y-37123714D01*
X120411380Y-37171333D01*
X120459000Y-37266571D01*
X120459000Y-37361809D01*
X119982809Y-37457047D01*
X120887571Y-37790380D02*
X120887571Y-37123714D01*
X120887571Y-37314190D02*
X120935190Y-37218952D01*
X120982809Y-37171333D01*
X121078047Y-37123714D01*
X121173285Y-37123714D01*
X121935190Y-37790380D02*
X121935190Y-37266571D01*
X121887571Y-37171333D01*
X121792333Y-37123714D01*
X121601857Y-37123714D01*
X121506619Y-37171333D01*
X121935190Y-37742761D02*
X121839952Y-37790380D01*
X121601857Y-37790380D01*
X121506619Y-37742761D01*
X121459000Y-37647523D01*
X121459000Y-37552285D01*
X121506619Y-37457047D01*
X121601857Y-37409428D01*
X121839952Y-37409428D01*
X121935190Y-37361809D01*
X122268523Y-37123714D02*
X122649476Y-37123714D01*
X122411380Y-36790380D02*
X122411380Y-37647523D01*
X122459000Y-37742761D01*
X122554238Y-37790380D01*
X122649476Y-37790380D01*
X123125666Y-37790380D02*
X123030428Y-37742761D01*
X122982809Y-37695142D01*
X122935190Y-37599904D01*
X122935190Y-37314190D01*
X122982809Y-37218952D01*
X123030428Y-37171333D01*
X123125666Y-37123714D01*
X123268523Y-37123714D01*
X123363761Y-37171333D01*
X123411380Y-37218952D01*
X123459000Y-37314190D01*
X123459000Y-37599904D01*
X123411380Y-37695142D01*
X123363761Y-37742761D01*
X123268523Y-37790380D01*
X123125666Y-37790380D01*
X123887571Y-37790380D02*
X123887571Y-37123714D01*
X123887571Y-37314190D02*
X123935190Y-37218952D01*
X123982809Y-37171333D01*
X124078047Y-37123714D01*
X124173285Y-37123714D01*
X76875761Y-37234761D02*
X77018619Y-37282380D01*
X77256714Y-37282380D01*
X77351952Y-37234761D01*
X77399571Y-37187142D01*
X77447190Y-37091904D01*
X77447190Y-36996666D01*
X77399571Y-36901428D01*
X77351952Y-36853809D01*
X77256714Y-36806190D01*
X77066238Y-36758571D01*
X76971000Y-36710952D01*
X76923380Y-36663333D01*
X76875761Y-36568095D01*
X76875761Y-36472857D01*
X76923380Y-36377619D01*
X76971000Y-36330000D01*
X77066238Y-36282380D01*
X77304333Y-36282380D01*
X77447190Y-36330000D01*
X78304333Y-36615714D02*
X78304333Y-37615714D01*
X78304333Y-37234761D02*
X78209095Y-37282380D01*
X78018619Y-37282380D01*
X77923380Y-37234761D01*
X77875761Y-37187142D01*
X77828142Y-37091904D01*
X77828142Y-36806190D01*
X77875761Y-36710952D01*
X77923380Y-36663333D01*
X78018619Y-36615714D01*
X78209095Y-36615714D01*
X78304333Y-36663333D01*
X79209095Y-36615714D02*
X79209095Y-37282380D01*
X78780523Y-36615714D02*
X78780523Y-37139523D01*
X78828142Y-37234761D01*
X78923380Y-37282380D01*
X79066238Y-37282380D01*
X79161476Y-37234761D01*
X79209095Y-37187142D01*
X80113857Y-37282380D02*
X80113857Y-36758571D01*
X80066238Y-36663333D01*
X79971000Y-36615714D01*
X79780523Y-36615714D01*
X79685285Y-36663333D01*
X80113857Y-37234761D02*
X80018619Y-37282380D01*
X79780523Y-37282380D01*
X79685285Y-37234761D01*
X79637666Y-37139523D01*
X79637666Y-37044285D01*
X79685285Y-36949047D01*
X79780523Y-36901428D01*
X80018619Y-36901428D01*
X80113857Y-36853809D01*
X80590047Y-37282380D02*
X80590047Y-36615714D01*
X80590047Y-36806190D02*
X80637666Y-36710952D01*
X80685285Y-36663333D01*
X80780523Y-36615714D01*
X80875761Y-36615714D01*
X81590047Y-37234761D02*
X81494809Y-37282380D01*
X81304333Y-37282380D01*
X81209095Y-37234761D01*
X81161476Y-37139523D01*
X81161476Y-36758571D01*
X81209095Y-36663333D01*
X81304333Y-36615714D01*
X81494809Y-36615714D01*
X81590047Y-36663333D01*
X81637666Y-36758571D01*
X81637666Y-36853809D01*
X81161476Y-36949047D01*
X82732904Y-36282380D02*
X82971000Y-37282380D01*
X83161476Y-36568095D01*
X83351952Y-37282380D01*
X83590047Y-36282380D01*
X84399571Y-37282380D02*
X84399571Y-36758571D01*
X84351952Y-36663333D01*
X84256714Y-36615714D01*
X84066238Y-36615714D01*
X83971000Y-36663333D01*
X84399571Y-37234761D02*
X84304333Y-37282380D01*
X84066238Y-37282380D01*
X83971000Y-37234761D01*
X83923380Y-37139523D01*
X83923380Y-37044285D01*
X83971000Y-36949047D01*
X84066238Y-36901428D01*
X84304333Y-36901428D01*
X84399571Y-36853809D01*
X84780523Y-36615714D02*
X85018619Y-37282380D01*
X85256714Y-36615714D01*
X86018619Y-37234761D02*
X85923380Y-37282380D01*
X85732904Y-37282380D01*
X85637666Y-37234761D01*
X85590047Y-37139523D01*
X85590047Y-36758571D01*
X85637666Y-36663333D01*
X85732904Y-36615714D01*
X85923380Y-36615714D01*
X86018619Y-36663333D01*
X86066238Y-36758571D01*
X86066238Y-36853809D01*
X85590047Y-36949047D01*
X87780523Y-36330000D02*
X87685285Y-36282380D01*
X87542428Y-36282380D01*
X87399571Y-36330000D01*
X87304333Y-36425238D01*
X87256714Y-36520476D01*
X87209095Y-36710952D01*
X87209095Y-36853809D01*
X87256714Y-37044285D01*
X87304333Y-37139523D01*
X87399571Y-37234761D01*
X87542428Y-37282380D01*
X87637666Y-37282380D01*
X87780523Y-37234761D01*
X87828142Y-37187142D01*
X87828142Y-36853809D01*
X87637666Y-36853809D01*
X88637666Y-37234761D02*
X88542428Y-37282380D01*
X88351952Y-37282380D01*
X88256714Y-37234761D01*
X88209095Y-37139523D01*
X88209095Y-36758571D01*
X88256714Y-36663333D01*
X88351952Y-36615714D01*
X88542428Y-36615714D01*
X88637666Y-36663333D01*
X88685285Y-36758571D01*
X88685285Y-36853809D01*
X88209095Y-36949047D01*
X89113857Y-36615714D02*
X89113857Y-37282380D01*
X89113857Y-36710952D02*
X89161476Y-36663333D01*
X89256714Y-36615714D01*
X89399571Y-36615714D01*
X89494809Y-36663333D01*
X89542428Y-36758571D01*
X89542428Y-37282380D01*
X90399571Y-37234761D02*
X90304333Y-37282380D01*
X90113857Y-37282380D01*
X90018619Y-37234761D01*
X89971000Y-37139523D01*
X89971000Y-36758571D01*
X90018619Y-36663333D01*
X90113857Y-36615714D01*
X90304333Y-36615714D01*
X90399571Y-36663333D01*
X90447190Y-36758571D01*
X90447190Y-36853809D01*
X89971000Y-36949047D01*
X90875761Y-37282380D02*
X90875761Y-36615714D01*
X90875761Y-36806190D02*
X90923380Y-36710952D01*
X90971000Y-36663333D01*
X91066238Y-36615714D01*
X91161476Y-36615714D01*
X91923380Y-37282380D02*
X91923380Y-36758571D01*
X91875761Y-36663333D01*
X91780523Y-36615714D01*
X91590047Y-36615714D01*
X91494809Y-36663333D01*
X91923380Y-37234761D02*
X91828142Y-37282380D01*
X91590047Y-37282380D01*
X91494809Y-37234761D01*
X91447190Y-37139523D01*
X91447190Y-37044285D01*
X91494809Y-36949047D01*
X91590047Y-36901428D01*
X91828142Y-36901428D01*
X91923380Y-36853809D01*
X92256714Y-36615714D02*
X92637666Y-36615714D01*
X92399571Y-36282380D02*
X92399571Y-37139523D01*
X92447190Y-37234761D01*
X92542428Y-37282380D01*
X92637666Y-37282380D01*
X93113857Y-37282380D02*
X93018619Y-37234761D01*
X92971000Y-37187142D01*
X92923380Y-37091904D01*
X92923380Y-36806190D01*
X92971000Y-36710952D01*
X93018619Y-36663333D01*
X93113857Y-36615714D01*
X93256714Y-36615714D01*
X93351952Y-36663333D01*
X93399571Y-36710952D01*
X93447190Y-36806190D01*
X93447190Y-37091904D01*
X93399571Y-37187142D01*
X93351952Y-37234761D01*
X93256714Y-37282380D01*
X93113857Y-37282380D01*
X93875761Y-37282380D02*
X93875761Y-36615714D01*
X93875761Y-36806190D02*
X93923380Y-36710952D01*
X93971000Y-36663333D01*
X94066238Y-36615714D01*
X94161476Y-36615714D01*
X150408095Y-86637761D02*
X150550952Y-86685380D01*
X150789047Y-86685380D01*
X150884285Y-86637761D01*
X150931904Y-86590142D01*
X150979523Y-86494904D01*
X150979523Y-86399666D01*
X150931904Y-86304428D01*
X150884285Y-86256809D01*
X150789047Y-86209190D01*
X150598571Y-86161571D01*
X150503333Y-86113952D01*
X150455714Y-86066333D01*
X150408095Y-85971095D01*
X150408095Y-85875857D01*
X150455714Y-85780619D01*
X150503333Y-85733000D01*
X150598571Y-85685380D01*
X150836666Y-85685380D01*
X150979523Y-85733000D01*
X151408095Y-86685380D02*
X151408095Y-85685380D01*
X151646190Y-85685380D01*
X151789047Y-85733000D01*
X151884285Y-85828238D01*
X151931904Y-85923476D01*
X151979523Y-86113952D01*
X151979523Y-86256809D01*
X151931904Y-86447285D01*
X151884285Y-86542523D01*
X151789047Y-86637761D01*
X151646190Y-86685380D01*
X151408095Y-86685380D01*
X153741428Y-86590142D02*
X153693809Y-86637761D01*
X153550952Y-86685380D01*
X153455714Y-86685380D01*
X153312857Y-86637761D01*
X153217619Y-86542523D01*
X153170000Y-86447285D01*
X153122380Y-86256809D01*
X153122380Y-86113952D01*
X153170000Y-85923476D01*
X153217619Y-85828238D01*
X153312857Y-85733000D01*
X153455714Y-85685380D01*
X153550952Y-85685380D01*
X153693809Y-85733000D01*
X153741428Y-85780619D01*
X154598571Y-86685380D02*
X154598571Y-86161571D01*
X154550952Y-86066333D01*
X154455714Y-86018714D01*
X154265238Y-86018714D01*
X154170000Y-86066333D01*
X154598571Y-86637761D02*
X154503333Y-86685380D01*
X154265238Y-86685380D01*
X154170000Y-86637761D01*
X154122380Y-86542523D01*
X154122380Y-86447285D01*
X154170000Y-86352047D01*
X154265238Y-86304428D01*
X154503333Y-86304428D01*
X154598571Y-86256809D01*
X155074761Y-86685380D02*
X155074761Y-86018714D01*
X155074761Y-86209190D02*
X155122380Y-86113952D01*
X155170000Y-86066333D01*
X155265238Y-86018714D01*
X155360476Y-86018714D01*
X156122380Y-86685380D02*
X156122380Y-85685380D01*
X156122380Y-86637761D02*
X156027142Y-86685380D01*
X155836666Y-86685380D01*
X155741428Y-86637761D01*
X155693809Y-86590142D01*
X155646190Y-86494904D01*
X155646190Y-86209190D01*
X155693809Y-86113952D01*
X155741428Y-86066333D01*
X155836666Y-86018714D01*
X156027142Y-86018714D01*
X156122380Y-86066333D01*
X127413238Y-52474761D02*
X127556095Y-52522380D01*
X127794190Y-52522380D01*
X127889428Y-52474761D01*
X127937047Y-52427142D01*
X127984666Y-52331904D01*
X127984666Y-52236666D01*
X127937047Y-52141428D01*
X127889428Y-52093809D01*
X127794190Y-52046190D01*
X127603714Y-51998571D01*
X127508476Y-51950952D01*
X127460857Y-51903333D01*
X127413238Y-51808095D01*
X127413238Y-51712857D01*
X127460857Y-51617619D01*
X127508476Y-51570000D01*
X127603714Y-51522380D01*
X127841809Y-51522380D01*
X127984666Y-51570000D01*
X128413238Y-51855714D02*
X128413238Y-52855714D01*
X128413238Y-51903333D02*
X128508476Y-51855714D01*
X128698952Y-51855714D01*
X128794190Y-51903333D01*
X128841809Y-51950952D01*
X128889428Y-52046190D01*
X128889428Y-52331904D01*
X128841809Y-52427142D01*
X128794190Y-52474761D01*
X128698952Y-52522380D01*
X128508476Y-52522380D01*
X128413238Y-52474761D01*
X129746571Y-52522380D02*
X129746571Y-51998571D01*
X129698952Y-51903333D01*
X129603714Y-51855714D01*
X129413238Y-51855714D01*
X129318000Y-51903333D01*
X129746571Y-52474761D02*
X129651333Y-52522380D01*
X129413238Y-52522380D01*
X129318000Y-52474761D01*
X129270380Y-52379523D01*
X129270380Y-52284285D01*
X129318000Y-52189047D01*
X129413238Y-52141428D01*
X129651333Y-52141428D01*
X129746571Y-52093809D01*
X130222761Y-52522380D02*
X130222761Y-51855714D01*
X130222761Y-52046190D02*
X130270380Y-51950952D01*
X130318000Y-51903333D01*
X130413238Y-51855714D01*
X130508476Y-51855714D01*
X131222761Y-52474761D02*
X131127523Y-52522380D01*
X130937047Y-52522380D01*
X130841809Y-52474761D01*
X130794190Y-52379523D01*
X130794190Y-51998571D01*
X130841809Y-51903333D01*
X130937047Y-51855714D01*
X131127523Y-51855714D01*
X131222761Y-51903333D01*
X131270380Y-51998571D01*
X131270380Y-52093809D01*
X130794190Y-52189047D01*
X132460857Y-52522380D02*
X132460857Y-51522380D01*
X132841809Y-51522380D01*
X132937047Y-51570000D01*
X132984666Y-51617619D01*
X133032285Y-51712857D01*
X133032285Y-51855714D01*
X132984666Y-51950952D01*
X132937047Y-51998571D01*
X132841809Y-52046190D01*
X132460857Y-52046190D01*
X133460857Y-52522380D02*
X133460857Y-51855714D01*
X133460857Y-51522380D02*
X133413238Y-51570000D01*
X133460857Y-51617619D01*
X133508476Y-51570000D01*
X133460857Y-51522380D01*
X133460857Y-51617619D01*
X133937047Y-51855714D02*
X133937047Y-52522380D01*
X133937047Y-51950952D02*
X133984666Y-51903333D01*
X134079904Y-51855714D01*
X134222761Y-51855714D01*
X134318000Y-51903333D01*
X134365619Y-51998571D01*
X134365619Y-52522380D01*
X134794190Y-52474761D02*
X134889428Y-52522380D01*
X135079904Y-52522380D01*
X135175142Y-52474761D01*
X135222761Y-52379523D01*
X135222761Y-52331904D01*
X135175142Y-52236666D01*
X135079904Y-52189047D01*
X134937047Y-52189047D01*
X134841809Y-52141428D01*
X134794190Y-52046190D01*
X134794190Y-51998571D01*
X134841809Y-51903333D01*
X134937047Y-51855714D01*
X135079904Y-51855714D01*
X135175142Y-51903333D01*
X149638238Y-71143761D02*
X149781095Y-71191380D01*
X150019190Y-71191380D01*
X150114428Y-71143761D01*
X150162047Y-71096142D01*
X150209666Y-71000904D01*
X150209666Y-70905666D01*
X150162047Y-70810428D01*
X150114428Y-70762809D01*
X150019190Y-70715190D01*
X149828714Y-70667571D01*
X149733476Y-70619952D01*
X149685857Y-70572333D01*
X149638238Y-70477095D01*
X149638238Y-70381857D01*
X149685857Y-70286619D01*
X149733476Y-70239000D01*
X149828714Y-70191380D01*
X150066809Y-70191380D01*
X150209666Y-70239000D01*
X150638238Y-70524714D02*
X150638238Y-71524714D01*
X150638238Y-70572333D02*
X150733476Y-70524714D01*
X150923952Y-70524714D01*
X151019190Y-70572333D01*
X151066809Y-70619952D01*
X151114428Y-70715190D01*
X151114428Y-71000904D01*
X151066809Y-71096142D01*
X151019190Y-71143761D01*
X150923952Y-71191380D01*
X150733476Y-71191380D01*
X150638238Y-71143761D01*
X151971571Y-71191380D02*
X151971571Y-70667571D01*
X151923952Y-70572333D01*
X151828714Y-70524714D01*
X151638238Y-70524714D01*
X151543000Y-70572333D01*
X151971571Y-71143761D02*
X151876333Y-71191380D01*
X151638238Y-71191380D01*
X151543000Y-71143761D01*
X151495380Y-71048523D01*
X151495380Y-70953285D01*
X151543000Y-70858047D01*
X151638238Y-70810428D01*
X151876333Y-70810428D01*
X151971571Y-70762809D01*
X152447761Y-71191380D02*
X152447761Y-70524714D01*
X152447761Y-70715190D02*
X152495380Y-70619952D01*
X152543000Y-70572333D01*
X152638238Y-70524714D01*
X152733476Y-70524714D01*
X153447761Y-71143761D02*
X153352523Y-71191380D01*
X153162047Y-71191380D01*
X153066809Y-71143761D01*
X153019190Y-71048523D01*
X153019190Y-70667571D01*
X153066809Y-70572333D01*
X153162047Y-70524714D01*
X153352523Y-70524714D01*
X153447761Y-70572333D01*
X153495380Y-70667571D01*
X153495380Y-70762809D01*
X153019190Y-70858047D01*
X154685857Y-71191380D02*
X154685857Y-70191380D01*
X155066809Y-70191380D01*
X155162047Y-70239000D01*
X155209666Y-70286619D01*
X155257285Y-70381857D01*
X155257285Y-70524714D01*
X155209666Y-70619952D01*
X155162047Y-70667571D01*
X155066809Y-70715190D01*
X154685857Y-70715190D01*
X155685857Y-71191380D02*
X155685857Y-70524714D01*
X155685857Y-70191380D02*
X155638238Y-70239000D01*
X155685857Y-70286619D01*
X155733476Y-70239000D01*
X155685857Y-70191380D01*
X155685857Y-70286619D01*
X156162047Y-70524714D02*
X156162047Y-71191380D01*
X156162047Y-70619952D02*
X156209666Y-70572333D01*
X156304904Y-70524714D01*
X156447761Y-70524714D01*
X156543000Y-70572333D01*
X156590619Y-70667571D01*
X156590619Y-71191380D01*
X157019190Y-71143761D02*
X157114428Y-71191380D01*
X157304904Y-71191380D01*
X157400142Y-71143761D01*
X157447761Y-71048523D01*
X157447761Y-71000904D01*
X157400142Y-70905666D01*
X157304904Y-70858047D01*
X157162047Y-70858047D01*
X157066809Y-70810428D01*
X157019190Y-70715190D01*
X157019190Y-70667571D01*
X157066809Y-70572333D01*
X157162047Y-70524714D01*
X157304904Y-70524714D01*
X157400142Y-70572333D01*
X150400238Y-51839761D02*
X150543095Y-51887380D01*
X150781190Y-51887380D01*
X150876428Y-51839761D01*
X150924047Y-51792142D01*
X150971666Y-51696904D01*
X150971666Y-51601666D01*
X150924047Y-51506428D01*
X150876428Y-51458809D01*
X150781190Y-51411190D01*
X150590714Y-51363571D01*
X150495476Y-51315952D01*
X150447857Y-51268333D01*
X150400238Y-51173095D01*
X150400238Y-51077857D01*
X150447857Y-50982619D01*
X150495476Y-50935000D01*
X150590714Y-50887380D01*
X150828809Y-50887380D01*
X150971666Y-50935000D01*
X151400238Y-51220714D02*
X151400238Y-52220714D01*
X151400238Y-51268333D02*
X151495476Y-51220714D01*
X151685952Y-51220714D01*
X151781190Y-51268333D01*
X151828809Y-51315952D01*
X151876428Y-51411190D01*
X151876428Y-51696904D01*
X151828809Y-51792142D01*
X151781190Y-51839761D01*
X151685952Y-51887380D01*
X151495476Y-51887380D01*
X151400238Y-51839761D01*
X152733571Y-51887380D02*
X152733571Y-51363571D01*
X152685952Y-51268333D01*
X152590714Y-51220714D01*
X152400238Y-51220714D01*
X152305000Y-51268333D01*
X152733571Y-51839761D02*
X152638333Y-51887380D01*
X152400238Y-51887380D01*
X152305000Y-51839761D01*
X152257380Y-51744523D01*
X152257380Y-51649285D01*
X152305000Y-51554047D01*
X152400238Y-51506428D01*
X152638333Y-51506428D01*
X152733571Y-51458809D01*
X153209761Y-51887380D02*
X153209761Y-51220714D01*
X153209761Y-51411190D02*
X153257380Y-51315952D01*
X153305000Y-51268333D01*
X153400238Y-51220714D01*
X153495476Y-51220714D01*
X154209761Y-51839761D02*
X154114523Y-51887380D01*
X153924047Y-51887380D01*
X153828809Y-51839761D01*
X153781190Y-51744523D01*
X153781190Y-51363571D01*
X153828809Y-51268333D01*
X153924047Y-51220714D01*
X154114523Y-51220714D01*
X154209761Y-51268333D01*
X154257380Y-51363571D01*
X154257380Y-51458809D01*
X153781190Y-51554047D01*
X155447857Y-51887380D02*
X155447857Y-50887380D01*
X155828809Y-50887380D01*
X155924047Y-50935000D01*
X155971666Y-50982619D01*
X156019285Y-51077857D01*
X156019285Y-51220714D01*
X155971666Y-51315952D01*
X155924047Y-51363571D01*
X155828809Y-51411190D01*
X155447857Y-51411190D01*
X156447857Y-51887380D02*
X156447857Y-51220714D01*
X156447857Y-50887380D02*
X156400238Y-50935000D01*
X156447857Y-50982619D01*
X156495476Y-50935000D01*
X156447857Y-50887380D01*
X156447857Y-50982619D01*
X156924047Y-51220714D02*
X156924047Y-51887380D01*
X156924047Y-51315952D02*
X156971666Y-51268333D01*
X157066904Y-51220714D01*
X157209761Y-51220714D01*
X157305000Y-51268333D01*
X157352619Y-51363571D01*
X157352619Y-51887380D01*
X157781190Y-51839761D02*
X157876428Y-51887380D01*
X158066904Y-51887380D01*
X158162142Y-51839761D01*
X158209761Y-51744523D01*
X158209761Y-51696904D01*
X158162142Y-51601666D01*
X158066904Y-51554047D01*
X157924047Y-51554047D01*
X157828809Y-51506428D01*
X157781190Y-51411190D01*
X157781190Y-51363571D01*
X157828809Y-51268333D01*
X157924047Y-51220714D01*
X158066904Y-51220714D01*
X158162142Y-51268333D01*
X138216238Y-39282666D02*
X138692428Y-39282666D01*
X138121000Y-39568380D02*
X138454333Y-38568380D01*
X138787666Y-39568380D01*
X138978142Y-38568380D02*
X139549571Y-38568380D01*
X139263857Y-39568380D02*
X139263857Y-38568380D01*
X139882904Y-39568380D02*
X139882904Y-38568380D01*
X140216238Y-39282666D01*
X140549571Y-38568380D01*
X140549571Y-39568380D01*
X141406714Y-39520761D02*
X141311476Y-39568380D01*
X141121000Y-39568380D01*
X141025761Y-39520761D01*
X140978142Y-39425523D01*
X140978142Y-39044571D01*
X141025761Y-38949333D01*
X141121000Y-38901714D01*
X141311476Y-38901714D01*
X141406714Y-38949333D01*
X141454333Y-39044571D01*
X141454333Y-39139809D01*
X140978142Y-39235047D01*
X142311476Y-38901714D02*
X142311476Y-39711238D01*
X142263857Y-39806476D01*
X142216238Y-39854095D01*
X142121000Y-39901714D01*
X141978142Y-39901714D01*
X141882904Y-39854095D01*
X142311476Y-39520761D02*
X142216238Y-39568380D01*
X142025761Y-39568380D01*
X141930523Y-39520761D01*
X141882904Y-39473142D01*
X141835285Y-39377904D01*
X141835285Y-39092190D01*
X141882904Y-38996952D01*
X141930523Y-38949333D01*
X142025761Y-38901714D01*
X142216238Y-38901714D01*
X142311476Y-38949333D01*
X143216238Y-39568380D02*
X143216238Y-39044571D01*
X143168619Y-38949333D01*
X143073380Y-38901714D01*
X142882904Y-38901714D01*
X142787666Y-38949333D01*
X143216238Y-39520761D02*
X143121000Y-39568380D01*
X142882904Y-39568380D01*
X142787666Y-39520761D01*
X142740047Y-39425523D01*
X142740047Y-39330285D01*
X142787666Y-39235047D01*
X142882904Y-39187428D01*
X143121000Y-39187428D01*
X143216238Y-39139809D01*
X143597190Y-38568380D02*
X144216238Y-38568380D01*
X143882904Y-38949333D01*
X144025761Y-38949333D01*
X144121000Y-38996952D01*
X144168619Y-39044571D01*
X144216238Y-39139809D01*
X144216238Y-39377904D01*
X144168619Y-39473142D01*
X144121000Y-39520761D01*
X144025761Y-39568380D01*
X143740047Y-39568380D01*
X143644809Y-39520761D01*
X143597190Y-39473142D01*
X144597190Y-38663619D02*
X144644809Y-38616000D01*
X144740047Y-38568380D01*
X144978142Y-38568380D01*
X145073380Y-38616000D01*
X145121000Y-38663619D01*
X145168619Y-38758857D01*
X145168619Y-38854095D01*
X145121000Y-38996952D01*
X144549571Y-39568380D01*
X145168619Y-39568380D01*
X145740047Y-38996952D02*
X145644809Y-38949333D01*
X145597190Y-38901714D01*
X145549571Y-38806476D01*
X145549571Y-38758857D01*
X145597190Y-38663619D01*
X145644809Y-38616000D01*
X145740047Y-38568380D01*
X145930523Y-38568380D01*
X146025761Y-38616000D01*
X146073380Y-38663619D01*
X146121000Y-38758857D01*
X146121000Y-38806476D01*
X146073380Y-38901714D01*
X146025761Y-38949333D01*
X145930523Y-38996952D01*
X145740047Y-38996952D01*
X145644809Y-39044571D01*
X145597190Y-39092190D01*
X145549571Y-39187428D01*
X145549571Y-39377904D01*
X145597190Y-39473142D01*
X145644809Y-39520761D01*
X145740047Y-39568380D01*
X145930523Y-39568380D01*
X146025761Y-39520761D01*
X146073380Y-39473142D01*
X146121000Y-39377904D01*
X146121000Y-39187428D01*
X146073380Y-39092190D01*
X146025761Y-39044571D01*
X145930523Y-38996952D01*
X146549571Y-38901714D02*
X146549571Y-39901714D01*
X146549571Y-38949333D02*
X146644809Y-38901714D01*
X146835285Y-38901714D01*
X146930523Y-38949333D01*
X146978142Y-38996952D01*
X147025761Y-39092190D01*
X147025761Y-39377904D01*
X146978142Y-39473142D01*
X146930523Y-39520761D01*
X146835285Y-39568380D01*
X146644809Y-39568380D01*
X146549571Y-39520761D01*
X108696619Y-94559380D02*
X108696619Y-93559380D01*
X109125190Y-94511761D02*
X109268047Y-94559380D01*
X109506142Y-94559380D01*
X109601380Y-94511761D01*
X109649000Y-94464142D01*
X109696619Y-94368904D01*
X109696619Y-94273666D01*
X109649000Y-94178428D01*
X109601380Y-94130809D01*
X109506142Y-94083190D01*
X109315666Y-94035571D01*
X109220428Y-93987952D01*
X109172809Y-93940333D01*
X109125190Y-93845095D01*
X109125190Y-93749857D01*
X109172809Y-93654619D01*
X109220428Y-93607000D01*
X109315666Y-93559380D01*
X109553761Y-93559380D01*
X109696619Y-93607000D01*
X110125190Y-94559380D02*
X110125190Y-93559380D01*
X110506142Y-93559380D01*
X110601380Y-93607000D01*
X110649000Y-93654619D01*
X110696619Y-93749857D01*
X110696619Y-93892714D01*
X110649000Y-93987952D01*
X110601380Y-94035571D01*
X110506142Y-94083190D01*
X110125190Y-94083190D01*
X111887095Y-94559380D02*
X111887095Y-93559380D01*
X111887095Y-94035571D02*
X112458523Y-94035571D01*
X112458523Y-94559380D02*
X112458523Y-93559380D01*
X113315666Y-94511761D02*
X113220428Y-94559380D01*
X113029952Y-94559380D01*
X112934714Y-94511761D01*
X112887095Y-94416523D01*
X112887095Y-94035571D01*
X112934714Y-93940333D01*
X113029952Y-93892714D01*
X113220428Y-93892714D01*
X113315666Y-93940333D01*
X113363285Y-94035571D01*
X113363285Y-94130809D01*
X112887095Y-94226047D01*
X114220428Y-94559380D02*
X114220428Y-94035571D01*
X114172809Y-93940333D01*
X114077571Y-93892714D01*
X113887095Y-93892714D01*
X113791857Y-93940333D01*
X114220428Y-94511761D02*
X114125190Y-94559380D01*
X113887095Y-94559380D01*
X113791857Y-94511761D01*
X113744238Y-94416523D01*
X113744238Y-94321285D01*
X113791857Y-94226047D01*
X113887095Y-94178428D01*
X114125190Y-94178428D01*
X114220428Y-94130809D01*
X115125190Y-94559380D02*
X115125190Y-93559380D01*
X115125190Y-94511761D02*
X115029952Y-94559380D01*
X114839476Y-94559380D01*
X114744238Y-94511761D01*
X114696619Y-94464142D01*
X114649000Y-94368904D01*
X114649000Y-94083190D01*
X114696619Y-93987952D01*
X114744238Y-93940333D01*
X114839476Y-93892714D01*
X115029952Y-93892714D01*
X115125190Y-93940333D01*
X115982333Y-94511761D02*
X115887095Y-94559380D01*
X115696619Y-94559380D01*
X115601380Y-94511761D01*
X115553761Y-94416523D01*
X115553761Y-94035571D01*
X115601380Y-93940333D01*
X115696619Y-93892714D01*
X115887095Y-93892714D01*
X115982333Y-93940333D01*
X116029952Y-94035571D01*
X116029952Y-94130809D01*
X115553761Y-94226047D01*
X116458523Y-94559380D02*
X116458523Y-93892714D01*
X116458523Y-94083190D02*
X116506142Y-93987952D01*
X116553761Y-93940333D01*
X116649000Y-93892714D01*
X116744238Y-93892714D01*
X77843666Y-66603619D02*
X77891285Y-66556000D01*
X77986523Y-66508380D01*
X78224619Y-66508380D01*
X78319857Y-66556000D01*
X78367476Y-66603619D01*
X78415095Y-66698857D01*
X78415095Y-66794095D01*
X78367476Y-66936952D01*
X77796047Y-67508380D01*
X78415095Y-67508380D01*
X78748428Y-67508380D02*
X79272238Y-66841714D01*
X78748428Y-66841714D02*
X79272238Y-67508380D01*
X80605571Y-66508380D02*
X80796047Y-66508380D01*
X80891285Y-66556000D01*
X80986523Y-66651238D01*
X81034142Y-66841714D01*
X81034142Y-67175047D01*
X80986523Y-67365523D01*
X80891285Y-67460761D01*
X80796047Y-67508380D01*
X80605571Y-67508380D01*
X80510333Y-67460761D01*
X80415095Y-67365523D01*
X80367476Y-67175047D01*
X80367476Y-66841714D01*
X80415095Y-66651238D01*
X80510333Y-66556000D01*
X80605571Y-66508380D01*
X81462714Y-66841714D02*
X81462714Y-67841714D01*
X81462714Y-66889333D02*
X81557952Y-66841714D01*
X81748428Y-66841714D01*
X81843666Y-66889333D01*
X81891285Y-66936952D01*
X81938904Y-67032190D01*
X81938904Y-67317904D01*
X81891285Y-67413142D01*
X81843666Y-67460761D01*
X81748428Y-67508380D01*
X81557952Y-67508380D01*
X81462714Y-67460761D01*
X83081761Y-67222666D02*
X83557952Y-67222666D01*
X82986523Y-67508380D02*
X83319857Y-66508380D01*
X83653190Y-67508380D01*
X83986523Y-67508380D02*
X83986523Y-66841714D01*
X83986523Y-66936952D02*
X84034142Y-66889333D01*
X84129380Y-66841714D01*
X84272238Y-66841714D01*
X84367476Y-66889333D01*
X84415095Y-66984571D01*
X84415095Y-67508380D01*
X84415095Y-66984571D02*
X84462714Y-66889333D01*
X84557952Y-66841714D01*
X84700809Y-66841714D01*
X84796047Y-66889333D01*
X84843666Y-66984571D01*
X84843666Y-67508380D01*
X85319857Y-66841714D02*
X85319857Y-67841714D01*
X85319857Y-66889333D02*
X85415095Y-66841714D01*
X85605571Y-66841714D01*
X85700809Y-66889333D01*
X85748428Y-66936952D01*
X85796047Y-67032190D01*
X85796047Y-67317904D01*
X85748428Y-67413142D01*
X85700809Y-67460761D01*
X85605571Y-67508380D01*
X85415095Y-67508380D01*
X85319857Y-67460761D01*
X87510333Y-67508380D02*
X86938904Y-67508380D01*
X87224619Y-67508380D02*
X87224619Y-66508380D01*
X87129380Y-66651238D01*
X87034142Y-66746476D01*
X86938904Y-66794095D01*
X77311857Y-82351619D02*
X77359476Y-82304000D01*
X77454714Y-82256380D01*
X77692809Y-82256380D01*
X77788047Y-82304000D01*
X77835666Y-82351619D01*
X77883285Y-82446857D01*
X77883285Y-82542095D01*
X77835666Y-82684952D01*
X77264238Y-83256380D01*
X77883285Y-83256380D01*
X78216619Y-83256380D02*
X78740428Y-82589714D01*
X78216619Y-82589714D02*
X78740428Y-83256380D01*
X80073761Y-82256380D02*
X80264238Y-82256380D01*
X80359476Y-82304000D01*
X80454714Y-82399238D01*
X80502333Y-82589714D01*
X80502333Y-82923047D01*
X80454714Y-83113523D01*
X80359476Y-83208761D01*
X80264238Y-83256380D01*
X80073761Y-83256380D01*
X79978523Y-83208761D01*
X79883285Y-83113523D01*
X79835666Y-82923047D01*
X79835666Y-82589714D01*
X79883285Y-82399238D01*
X79978523Y-82304000D01*
X80073761Y-82256380D01*
X80930904Y-82589714D02*
X80930904Y-83589714D01*
X80930904Y-82637333D02*
X81026142Y-82589714D01*
X81216619Y-82589714D01*
X81311857Y-82637333D01*
X81359476Y-82684952D01*
X81407095Y-82780190D01*
X81407095Y-83065904D01*
X81359476Y-83161142D01*
X81311857Y-83208761D01*
X81216619Y-83256380D01*
X81026142Y-83256380D01*
X80930904Y-83208761D01*
X83026142Y-83256380D02*
X83026142Y-82732571D01*
X82978523Y-82637333D01*
X82883285Y-82589714D01*
X82692809Y-82589714D01*
X82597571Y-82637333D01*
X83026142Y-83208761D02*
X82930904Y-83256380D01*
X82692809Y-83256380D01*
X82597571Y-83208761D01*
X82549952Y-83113523D01*
X82549952Y-83018285D01*
X82597571Y-82923047D01*
X82692809Y-82875428D01*
X82930904Y-82875428D01*
X83026142Y-82827809D01*
X83502333Y-83256380D02*
X83502333Y-82589714D01*
X83502333Y-82684952D02*
X83549952Y-82637333D01*
X83645190Y-82589714D01*
X83788047Y-82589714D01*
X83883285Y-82637333D01*
X83930904Y-82732571D01*
X83930904Y-83256380D01*
X83930904Y-82732571D02*
X83978523Y-82637333D01*
X84073761Y-82589714D01*
X84216619Y-82589714D01*
X84311857Y-82637333D01*
X84359476Y-82732571D01*
X84359476Y-83256380D01*
X84835666Y-82589714D02*
X84835666Y-83589714D01*
X84835666Y-82637333D02*
X84930904Y-82589714D01*
X85121380Y-82589714D01*
X85216619Y-82637333D01*
X85264238Y-82684952D01*
X85311857Y-82780190D01*
X85311857Y-83065904D01*
X85264238Y-83161142D01*
X85216619Y-83208761D01*
X85121380Y-83256380D01*
X84930904Y-83256380D01*
X84835666Y-83208761D01*
X86454714Y-82351619D02*
X86502333Y-82304000D01*
X86597571Y-82256380D01*
X86835666Y-82256380D01*
X86930904Y-82304000D01*
X86978523Y-82351619D01*
X87026142Y-82446857D01*
X87026142Y-82542095D01*
X86978523Y-82684952D01*
X86407095Y-83256380D01*
X87026142Y-83256380D01*
%TO.C,R13*%
X131535004Y-97098619D02*
X131582623Y-97051000D01*
X131677861Y-97003380D01*
X131915956Y-97003380D01*
X132011194Y-97051000D01*
X132058813Y-97098619D01*
X132106432Y-97193857D01*
X132106432Y-97289095D01*
X132058813Y-97431952D01*
X131487384Y-98003380D01*
X132106432Y-98003380D01*
X132535004Y-97908142D02*
X132582623Y-97955761D01*
X132535004Y-98003380D01*
X132487384Y-97955761D01*
X132535004Y-97908142D01*
X132535004Y-98003380D01*
X132963575Y-97098619D02*
X133011194Y-97051000D01*
X133106432Y-97003380D01*
X133344527Y-97003380D01*
X133439765Y-97051000D01*
X133487384Y-97098619D01*
X133535004Y-97193857D01*
X133535004Y-97289095D01*
X133487384Y-97431952D01*
X132915956Y-98003380D01*
X133535004Y-98003380D01*
X133963575Y-98003380D02*
X133963575Y-97003380D01*
X134535004Y-98003380D02*
X134106432Y-97431952D01*
X134535004Y-97003380D02*
X133963575Y-97574809D01*
%TO.C,R4*%
X71811380Y-87227666D02*
X71335190Y-87561000D01*
X71811380Y-87799095D02*
X70811380Y-87799095D01*
X70811380Y-87418142D01*
X70859000Y-87322904D01*
X70906619Y-87275285D01*
X71001857Y-87227666D01*
X71144714Y-87227666D01*
X71239952Y-87275285D01*
X71287571Y-87322904D01*
X71335190Y-87418142D01*
X71335190Y-87799095D01*
X71144714Y-86370523D02*
X71811380Y-86370523D01*
X70763761Y-86608619D02*
X71478047Y-86846714D01*
X71478047Y-86227666D01*
%TO.C,J5*%
X99472857Y-43886428D02*
X100234761Y-43886428D01*
X99853809Y-44267380D02*
X99853809Y-43505476D01*
X101187142Y-43267380D02*
X100710952Y-43267380D01*
X100663333Y-43743571D01*
X100710952Y-43695952D01*
X100806190Y-43648333D01*
X101044285Y-43648333D01*
X101139523Y-43695952D01*
X101187142Y-43743571D01*
X101234761Y-43838809D01*
X101234761Y-44076904D01*
X101187142Y-44172142D01*
X101139523Y-44219761D01*
X101044285Y-44267380D01*
X100806190Y-44267380D01*
X100710952Y-44219761D01*
X100663333Y-44172142D01*
X99599857Y-38679428D02*
X100361761Y-38679428D01*
X101314142Y-38060380D02*
X100837952Y-38060380D01*
X100790333Y-38536571D01*
X100837952Y-38488952D01*
X100933190Y-38441333D01*
X101171285Y-38441333D01*
X101266523Y-38488952D01*
X101314142Y-38536571D01*
X101361761Y-38631809D01*
X101361761Y-38869904D01*
X101314142Y-38965142D01*
X101266523Y-39012761D01*
X101171285Y-39060380D01*
X100933190Y-39060380D01*
X100837952Y-39012761D01*
X100790333Y-38965142D01*
X101226904Y-40775000D02*
X101131666Y-40727380D01*
X100988809Y-40727380D01*
X100845952Y-40775000D01*
X100750714Y-40870238D01*
X100703095Y-40965476D01*
X100655476Y-41155952D01*
X100655476Y-41298809D01*
X100703095Y-41489285D01*
X100750714Y-41584523D01*
X100845952Y-41679761D01*
X100988809Y-41727380D01*
X101084047Y-41727380D01*
X101226904Y-41679761D01*
X101274523Y-41632142D01*
X101274523Y-41298809D01*
X101084047Y-41298809D01*
%TO.C,J6*%
X154225666Y-56812380D02*
X154225666Y-57526666D01*
X154178047Y-57669523D01*
X154082809Y-57764761D01*
X153939952Y-57812380D01*
X153844714Y-57812380D01*
X155130428Y-56812380D02*
X154939952Y-56812380D01*
X154844714Y-56860000D01*
X154797095Y-56907619D01*
X154701857Y-57050476D01*
X154654238Y-57240952D01*
X154654238Y-57621904D01*
X154701857Y-57717142D01*
X154749476Y-57764761D01*
X154844714Y-57812380D01*
X155035190Y-57812380D01*
X155130428Y-57764761D01*
X155178047Y-57717142D01*
X155225666Y-57621904D01*
X155225666Y-57383809D01*
X155178047Y-57288571D01*
X155130428Y-57240952D01*
X155035190Y-57193333D01*
X154844714Y-57193333D01*
X154749476Y-57240952D01*
X154701857Y-57288571D01*
X154654238Y-57383809D01*
%TO.C,H3*%
X81788095Y-28002380D02*
X81788095Y-27002380D01*
X81788095Y-27478571D02*
X82359523Y-27478571D01*
X82359523Y-28002380D02*
X82359523Y-27002380D01*
X82740476Y-27002380D02*
X83359523Y-27002380D01*
X83026190Y-27383333D01*
X83169047Y-27383333D01*
X83264285Y-27430952D01*
X83311904Y-27478571D01*
X83359523Y-27573809D01*
X83359523Y-27811904D01*
X83311904Y-27907142D01*
X83264285Y-27954761D01*
X83169047Y-28002380D01*
X82883333Y-28002380D01*
X82788095Y-27954761D01*
X82740476Y-27907142D01*
%TO.C,J1*%
X106497380Y-68849809D02*
X105497380Y-68849809D01*
X106497380Y-68373619D02*
X105497380Y-68373619D01*
X106497380Y-67802190D01*
X105497380Y-67802190D01*
X108989761Y-69659333D02*
X109037380Y-69516476D01*
X109037380Y-69278380D01*
X108989761Y-69183142D01*
X108942142Y-69135523D01*
X108846904Y-69087904D01*
X108751666Y-69087904D01*
X108656428Y-69135523D01*
X108608809Y-69183142D01*
X108561190Y-69278380D01*
X108513571Y-69468857D01*
X108465952Y-69564095D01*
X108418333Y-69611714D01*
X108323095Y-69659333D01*
X108227857Y-69659333D01*
X108132619Y-69611714D01*
X108085000Y-69564095D01*
X108037380Y-69468857D01*
X108037380Y-69230761D01*
X108085000Y-69087904D01*
X109132619Y-67992666D02*
X109085000Y-68087904D01*
X108989761Y-68183142D01*
X108846904Y-68326000D01*
X108799285Y-68421238D01*
X108799285Y-68516476D01*
X109037380Y-68468857D02*
X108989761Y-68564095D01*
X108894523Y-68659333D01*
X108704047Y-68706952D01*
X108370714Y-68706952D01*
X108180238Y-68659333D01*
X108085000Y-68564095D01*
X108037380Y-68468857D01*
X108037380Y-68278380D01*
X108085000Y-68183142D01*
X108180238Y-68087904D01*
X108370714Y-68040285D01*
X108704047Y-68040285D01*
X108894523Y-68087904D01*
X108989761Y-68183142D01*
X109037380Y-68278380D01*
X109037380Y-68468857D01*
X108037380Y-67611714D02*
X108846904Y-67611714D01*
X108942142Y-67564095D01*
X108989761Y-67516476D01*
X109037380Y-67421238D01*
X109037380Y-67230761D01*
X108989761Y-67135523D01*
X108942142Y-67087904D01*
X108846904Y-67040285D01*
X108037380Y-67040285D01*
X111656761Y-69373619D02*
X111704380Y-69230761D01*
X111704380Y-68992666D01*
X111656761Y-68897428D01*
X111609142Y-68849809D01*
X111513904Y-68802190D01*
X111418666Y-68802190D01*
X111323428Y-68849809D01*
X111275809Y-68897428D01*
X111228190Y-68992666D01*
X111180571Y-69183142D01*
X111132952Y-69278380D01*
X111085333Y-69326000D01*
X110990095Y-69373619D01*
X110894857Y-69373619D01*
X110799619Y-69326000D01*
X110752000Y-69278380D01*
X110704380Y-69183142D01*
X110704380Y-68945047D01*
X110752000Y-68802190D01*
X111704380Y-68373619D02*
X110704380Y-68373619D01*
X111704380Y-67897428D02*
X110704380Y-67897428D01*
X111704380Y-67326000D01*
X110704380Y-67326000D01*
%TO.C,R20*%
X137054378Y-111227380D02*
X137673426Y-111227380D01*
X137340093Y-111608333D01*
X137482950Y-111608333D01*
X137578188Y-111655952D01*
X137625807Y-111703571D01*
X137673426Y-111798809D01*
X137673426Y-112036904D01*
X137625807Y-112132142D01*
X137578188Y-112179761D01*
X137482950Y-112227380D01*
X137197236Y-112227380D01*
X137101998Y-112179761D01*
X137054378Y-112132142D01*
X138101998Y-112132142D02*
X138149617Y-112179761D01*
X138101998Y-112227380D01*
X138054378Y-112179761D01*
X138101998Y-112132142D01*
X138101998Y-112227380D01*
X138482950Y-111227380D02*
X139101998Y-111227380D01*
X138768664Y-111608333D01*
X138911521Y-111608333D01*
X139006759Y-111655952D01*
X139054378Y-111703571D01*
X139101998Y-111798809D01*
X139101998Y-112036904D01*
X139054378Y-112132142D01*
X139006759Y-112179761D01*
X138911521Y-112227380D01*
X138625807Y-112227380D01*
X138530569Y-112179761D01*
X138482950Y-112132142D01*
X139530569Y-112227380D02*
X139530569Y-111227380D01*
X140101998Y-112227380D02*
X139673426Y-111655952D01*
X140101998Y-111227380D02*
X139530569Y-111798809D01*
%TO.C,H2*%
X81788095Y-113092380D02*
X81788095Y-112092380D01*
X81788095Y-112568571D02*
X82359523Y-112568571D01*
X82359523Y-113092380D02*
X82359523Y-112092380D01*
X82788095Y-112187619D02*
X82835714Y-112140000D01*
X82930952Y-112092380D01*
X83169047Y-112092380D01*
X83264285Y-112140000D01*
X83311904Y-112187619D01*
X83359523Y-112282857D01*
X83359523Y-112378095D01*
X83311904Y-112520952D01*
X82740476Y-113092380D01*
X83359523Y-113092380D01*
%TO.C,R8*%
X137562378Y-82906380D02*
X138181426Y-82906380D01*
X137848093Y-83287333D01*
X137990950Y-83287333D01*
X138086188Y-83334952D01*
X138133807Y-83382571D01*
X138181426Y-83477809D01*
X138181426Y-83715904D01*
X138133807Y-83811142D01*
X138086188Y-83858761D01*
X137990950Y-83906380D01*
X137705236Y-83906380D01*
X137609998Y-83858761D01*
X137562378Y-83811142D01*
X138609998Y-83811142D02*
X138657617Y-83858761D01*
X138609998Y-83906380D01*
X138562378Y-83858761D01*
X138609998Y-83811142D01*
X138609998Y-83906380D01*
X138990950Y-82906380D02*
X139609998Y-82906380D01*
X139276664Y-83287333D01*
X139419521Y-83287333D01*
X139514759Y-83334952D01*
X139562378Y-83382571D01*
X139609998Y-83477809D01*
X139609998Y-83715904D01*
X139562378Y-83811142D01*
X139514759Y-83858761D01*
X139419521Y-83906380D01*
X139133807Y-83906380D01*
X139038569Y-83858761D01*
X138990950Y-83811142D01*
X140038569Y-83906380D02*
X140038569Y-82906380D01*
X140609998Y-83906380D02*
X140181426Y-83334952D01*
X140609998Y-82906380D02*
X140038569Y-83477809D01*
%TO.C,R16*%
X137202384Y-102210380D02*
X137821432Y-102210380D01*
X137488099Y-102591333D01*
X137630956Y-102591333D01*
X137726194Y-102638952D01*
X137773813Y-102686571D01*
X137821432Y-102781809D01*
X137821432Y-103019904D01*
X137773813Y-103115142D01*
X137726194Y-103162761D01*
X137630956Y-103210380D01*
X137345242Y-103210380D01*
X137250004Y-103162761D01*
X137202384Y-103115142D01*
X138250004Y-103115142D02*
X138297623Y-103162761D01*
X138250004Y-103210380D01*
X138202384Y-103162761D01*
X138250004Y-103115142D01*
X138250004Y-103210380D01*
X138630956Y-102210380D02*
X139250004Y-102210380D01*
X138916670Y-102591333D01*
X139059527Y-102591333D01*
X139154765Y-102638952D01*
X139202384Y-102686571D01*
X139250004Y-102781809D01*
X139250004Y-103019904D01*
X139202384Y-103115142D01*
X139154765Y-103162761D01*
X139059527Y-103210380D01*
X138773813Y-103210380D01*
X138678575Y-103162761D01*
X138630956Y-103115142D01*
X139678575Y-103210380D02*
X139678575Y-102210380D01*
X140250004Y-103210380D02*
X139821432Y-102638952D01*
X140250004Y-102210380D02*
X139678575Y-102781809D01*
%TO.C,C2*%
X105236380Y-48870852D02*
X105236380Y-48251804D01*
X105617333Y-48585137D01*
X105617333Y-48442280D01*
X105664952Y-48347042D01*
X105712571Y-48299423D01*
X105807809Y-48251804D01*
X106045904Y-48251804D01*
X106141142Y-48299423D01*
X106188761Y-48347042D01*
X106236380Y-48442280D01*
X106236380Y-48727995D01*
X106188761Y-48823233D01*
X106141142Y-48870852D01*
X105236380Y-47918471D02*
X105236380Y-47299423D01*
X105617333Y-47632756D01*
X105617333Y-47489899D01*
X105664952Y-47394661D01*
X105712571Y-47347042D01*
X105807809Y-47299423D01*
X106045904Y-47299423D01*
X106141142Y-47347042D01*
X106188761Y-47394661D01*
X106236380Y-47489899D01*
X106236380Y-47775614D01*
X106188761Y-47870852D01*
X106141142Y-47918471D01*
X105236380Y-46680375D02*
X105236380Y-46585137D01*
X105284000Y-46489899D01*
X105331619Y-46442280D01*
X105426857Y-46394661D01*
X105617333Y-46347042D01*
X105855428Y-46347042D01*
X106045904Y-46394661D01*
X106141142Y-46442280D01*
X106188761Y-46489899D01*
X106236380Y-46585137D01*
X106236380Y-46680375D01*
X106188761Y-46775614D01*
X106141142Y-46823233D01*
X106045904Y-46870852D01*
X105855428Y-46918471D01*
X105617333Y-46918471D01*
X105426857Y-46870852D01*
X105331619Y-46823233D01*
X105284000Y-46775614D01*
X105236380Y-46680375D01*
X105236380Y-45727995D02*
X105236380Y-45632756D01*
X105284000Y-45537518D01*
X105331619Y-45489899D01*
X105426857Y-45442280D01*
X105617333Y-45394661D01*
X105855428Y-45394661D01*
X106045904Y-45442280D01*
X106141142Y-45489899D01*
X106188761Y-45537518D01*
X106236380Y-45632756D01*
X106236380Y-45727995D01*
X106188761Y-45823233D01*
X106141142Y-45870852D01*
X106045904Y-45918471D01*
X105855428Y-45966090D01*
X105617333Y-45966090D01*
X105426857Y-45918471D01*
X105331619Y-45870852D01*
X105284000Y-45823233D01*
X105236380Y-45727995D01*
X105569714Y-44966090D02*
X106569714Y-44966090D01*
X105617333Y-44966090D02*
X105569714Y-44870852D01*
X105569714Y-44680375D01*
X105617333Y-44585137D01*
X105664952Y-44537518D01*
X105760190Y-44489899D01*
X106045904Y-44489899D01*
X106141142Y-44537518D01*
X106188761Y-44585137D01*
X106236380Y-44680375D01*
X106236380Y-44870852D01*
X106188761Y-44966090D01*
X105712571Y-43727995D02*
X105712571Y-44061328D01*
X106236380Y-44061328D02*
X105236380Y-44061328D01*
X105236380Y-43585137D01*
%TO.C,H1*%
X145288095Y-28002380D02*
X145288095Y-27002380D01*
X145288095Y-27478571D02*
X145859523Y-27478571D01*
X145859523Y-28002380D02*
X145859523Y-27002380D01*
X146859523Y-28002380D02*
X146288095Y-28002380D01*
X146573809Y-28002380D02*
X146573809Y-27002380D01*
X146478571Y-27145238D01*
X146383333Y-27240476D01*
X146288095Y-27288095D01*
%TO.C,R10*%
X137705380Y-87351380D02*
X138324428Y-87351380D01*
X137991095Y-87732333D01*
X138133952Y-87732333D01*
X138229190Y-87779952D01*
X138276809Y-87827571D01*
X138324428Y-87922809D01*
X138324428Y-88160904D01*
X138276809Y-88256142D01*
X138229190Y-88303761D01*
X138133952Y-88351380D01*
X137848238Y-88351380D01*
X137753000Y-88303761D01*
X137705380Y-88256142D01*
X138753000Y-88256142D02*
X138800619Y-88303761D01*
X138753000Y-88351380D01*
X138705380Y-88303761D01*
X138753000Y-88256142D01*
X138753000Y-88351380D01*
X139133952Y-87351380D02*
X139753000Y-87351380D01*
X139419666Y-87732333D01*
X139562523Y-87732333D01*
X139657761Y-87779952D01*
X139705380Y-87827571D01*
X139753000Y-87922809D01*
X139753000Y-88160904D01*
X139705380Y-88256142D01*
X139657761Y-88303761D01*
X139562523Y-88351380D01*
X139276809Y-88351380D01*
X139181571Y-88303761D01*
X139133952Y-88256142D01*
X140181571Y-88351380D02*
X140181571Y-87351380D01*
X140753000Y-88351380D02*
X140324428Y-87779952D01*
X140753000Y-87351380D02*
X140181571Y-87922809D01*
%TO.C,R3*%
X89972380Y-74035666D02*
X89496190Y-74369000D01*
X89972380Y-74607095D02*
X88972380Y-74607095D01*
X88972380Y-74226142D01*
X89020000Y-74130904D01*
X89067619Y-74083285D01*
X89162857Y-74035666D01*
X89305714Y-74035666D01*
X89400952Y-74083285D01*
X89448571Y-74130904D01*
X89496190Y-74226142D01*
X89496190Y-74607095D01*
X88972380Y-73702333D02*
X88972380Y-73083285D01*
X89353333Y-73416619D01*
X89353333Y-73273761D01*
X89400952Y-73178523D01*
X89448571Y-73130904D01*
X89543809Y-73083285D01*
X89781904Y-73083285D01*
X89877142Y-73130904D01*
X89924761Y-73178523D01*
X89972380Y-73273761D01*
X89972380Y-73559476D01*
X89924761Y-73654714D01*
X89877142Y-73702333D01*
%TO.C,R7*%
X131894998Y-83001619D02*
X131942617Y-82954000D01*
X132037855Y-82906380D01*
X132275950Y-82906380D01*
X132371188Y-82954000D01*
X132418807Y-83001619D01*
X132466426Y-83096857D01*
X132466426Y-83192095D01*
X132418807Y-83334952D01*
X131847378Y-83906380D01*
X132466426Y-83906380D01*
X132894998Y-83811142D02*
X132942617Y-83858761D01*
X132894998Y-83906380D01*
X132847378Y-83858761D01*
X132894998Y-83811142D01*
X132894998Y-83906380D01*
X133323569Y-83001619D02*
X133371188Y-82954000D01*
X133466426Y-82906380D01*
X133704521Y-82906380D01*
X133799759Y-82954000D01*
X133847378Y-83001619D01*
X133894998Y-83096857D01*
X133894998Y-83192095D01*
X133847378Y-83334952D01*
X133275950Y-83906380D01*
X133894998Y-83906380D01*
X134323569Y-83906380D02*
X134323569Y-82906380D01*
X134894998Y-83906380D02*
X134466426Y-83334952D01*
X134894998Y-82906380D02*
X134323569Y-83477809D01*
%TO.C,R2*%
X72319380Y-71733666D02*
X71843190Y-72067000D01*
X72319380Y-72305095D02*
X71319380Y-72305095D01*
X71319380Y-71924142D01*
X71367000Y-71828904D01*
X71414619Y-71781285D01*
X71509857Y-71733666D01*
X71652714Y-71733666D01*
X71747952Y-71781285D01*
X71795571Y-71828904D01*
X71843190Y-71924142D01*
X71843190Y-72305095D01*
X71414619Y-71352714D02*
X71367000Y-71305095D01*
X71319380Y-71209857D01*
X71319380Y-70971761D01*
X71367000Y-70876523D01*
X71414619Y-70828904D01*
X71509857Y-70781285D01*
X71605095Y-70781285D01*
X71747952Y-70828904D01*
X72319380Y-71400333D01*
X72319380Y-70781285D01*
%TO.C,R5*%
X89972380Y-89381666D02*
X89496190Y-89715000D01*
X89972380Y-89953095D02*
X88972380Y-89953095D01*
X88972380Y-89572142D01*
X89020000Y-89476904D01*
X89067619Y-89429285D01*
X89162857Y-89381666D01*
X89305714Y-89381666D01*
X89400952Y-89429285D01*
X89448571Y-89476904D01*
X89496190Y-89572142D01*
X89496190Y-89953095D01*
X88972380Y-88476904D02*
X88972380Y-88953095D01*
X89448571Y-89000714D01*
X89400952Y-88953095D01*
X89353333Y-88857857D01*
X89353333Y-88619761D01*
X89400952Y-88524523D01*
X89448571Y-88476904D01*
X89543809Y-88429285D01*
X89781904Y-88429285D01*
X89877142Y-88476904D01*
X89924761Y-88524523D01*
X89972380Y-88619761D01*
X89972380Y-88857857D01*
X89924761Y-88953095D01*
X89877142Y-89000714D01*
%TO.C,R15*%
X131640998Y-102178619D02*
X131688617Y-102131000D01*
X131783855Y-102083380D01*
X132021950Y-102083380D01*
X132117188Y-102131000D01*
X132164807Y-102178619D01*
X132212426Y-102273857D01*
X132212426Y-102369095D01*
X132164807Y-102511952D01*
X131593378Y-103083380D01*
X132212426Y-103083380D01*
X132640998Y-102988142D02*
X132688617Y-103035761D01*
X132640998Y-103083380D01*
X132593378Y-103035761D01*
X132640998Y-102988142D01*
X132640998Y-103083380D01*
X133069569Y-102178619D02*
X133117188Y-102131000D01*
X133212426Y-102083380D01*
X133450521Y-102083380D01*
X133545759Y-102131000D01*
X133593378Y-102178619D01*
X133640998Y-102273857D01*
X133640998Y-102369095D01*
X133593378Y-102511952D01*
X133021950Y-103083380D01*
X133640998Y-103083380D01*
X134069569Y-103083380D02*
X134069569Y-102083380D01*
X134640998Y-103083380D02*
X134212426Y-102511952D01*
X134640998Y-102083380D02*
X134069569Y-102654809D01*
%TO.C,R6*%
X106323714Y-61917712D02*
X106990380Y-61917712D01*
X105942761Y-62155807D02*
X106657047Y-62393902D01*
X106657047Y-61774855D01*
X106990380Y-61346283D02*
X106990380Y-61155807D01*
X106942761Y-61060569D01*
X106895142Y-61012950D01*
X106752285Y-60917712D01*
X106561809Y-60870093D01*
X106180857Y-60870093D01*
X106085619Y-60917712D01*
X106038000Y-60965331D01*
X105990380Y-61060569D01*
X105990380Y-61251045D01*
X106038000Y-61346283D01*
X106085619Y-61393902D01*
X106180857Y-61441521D01*
X106418952Y-61441521D01*
X106514190Y-61393902D01*
X106561809Y-61346283D01*
X106609428Y-61251045D01*
X106609428Y-61060569D01*
X106561809Y-60965331D01*
X106514190Y-60917712D01*
X106418952Y-60870093D01*
X106990380Y-60441521D02*
X105990380Y-60441521D01*
X106990380Y-59870093D02*
X106418952Y-60298664D01*
X105990380Y-59870093D02*
X106561809Y-60441521D01*
%TO.C,R14*%
X137959380Y-97257380D02*
X138578428Y-97257380D01*
X138245095Y-97638333D01*
X138387952Y-97638333D01*
X138483190Y-97685952D01*
X138530809Y-97733571D01*
X138578428Y-97828809D01*
X138578428Y-98066904D01*
X138530809Y-98162142D01*
X138483190Y-98209761D01*
X138387952Y-98257380D01*
X138102238Y-98257380D01*
X138007000Y-98209761D01*
X137959380Y-98162142D01*
X139007000Y-98162142D02*
X139054619Y-98209761D01*
X139007000Y-98257380D01*
X138959380Y-98209761D01*
X139007000Y-98162142D01*
X139007000Y-98257380D01*
X139387952Y-97257380D02*
X140007000Y-97257380D01*
X139673666Y-97638333D01*
X139816523Y-97638333D01*
X139911761Y-97685952D01*
X139959380Y-97733571D01*
X140007000Y-97828809D01*
X140007000Y-98066904D01*
X139959380Y-98162142D01*
X139911761Y-98209761D01*
X139816523Y-98257380D01*
X139530809Y-98257380D01*
X139435571Y-98209761D01*
X139387952Y-98162142D01*
X140435571Y-98257380D02*
X140435571Y-97257380D01*
X141007000Y-98257380D02*
X140578428Y-97685952D01*
X141007000Y-97257380D02*
X140435571Y-97828809D01*
%TO.C,C1*%
X70057380Y-46330852D02*
X70057380Y-45711804D01*
X70438333Y-46045137D01*
X70438333Y-45902280D01*
X70485952Y-45807042D01*
X70533571Y-45759423D01*
X70628809Y-45711804D01*
X70866904Y-45711804D01*
X70962142Y-45759423D01*
X71009761Y-45807042D01*
X71057380Y-45902280D01*
X71057380Y-46187995D01*
X71009761Y-46283233D01*
X70962142Y-46330852D01*
X70057380Y-45378471D02*
X70057380Y-44759423D01*
X70438333Y-45092756D01*
X70438333Y-44949899D01*
X70485952Y-44854661D01*
X70533571Y-44807042D01*
X70628809Y-44759423D01*
X70866904Y-44759423D01*
X70962142Y-44807042D01*
X71009761Y-44854661D01*
X71057380Y-44949899D01*
X71057380Y-45235614D01*
X71009761Y-45330852D01*
X70962142Y-45378471D01*
X70057380Y-44140375D02*
X70057380Y-44045137D01*
X70105000Y-43949899D01*
X70152619Y-43902280D01*
X70247857Y-43854661D01*
X70438333Y-43807042D01*
X70676428Y-43807042D01*
X70866904Y-43854661D01*
X70962142Y-43902280D01*
X71009761Y-43949899D01*
X71057380Y-44045137D01*
X71057380Y-44140375D01*
X71009761Y-44235614D01*
X70962142Y-44283233D01*
X70866904Y-44330852D01*
X70676428Y-44378471D01*
X70438333Y-44378471D01*
X70247857Y-44330852D01*
X70152619Y-44283233D01*
X70105000Y-44235614D01*
X70057380Y-44140375D01*
X70057380Y-43187995D02*
X70057380Y-43092756D01*
X70105000Y-42997518D01*
X70152619Y-42949899D01*
X70247857Y-42902280D01*
X70438333Y-42854661D01*
X70676428Y-42854661D01*
X70866904Y-42902280D01*
X70962142Y-42949899D01*
X71009761Y-42997518D01*
X71057380Y-43092756D01*
X71057380Y-43187995D01*
X71009761Y-43283233D01*
X70962142Y-43330852D01*
X70866904Y-43378471D01*
X70676428Y-43426090D01*
X70438333Y-43426090D01*
X70247857Y-43378471D01*
X70152619Y-43330852D01*
X70105000Y-43283233D01*
X70057380Y-43187995D01*
X70390714Y-42426090D02*
X71390714Y-42426090D01*
X70438333Y-42426090D02*
X70390714Y-42330852D01*
X70390714Y-42140375D01*
X70438333Y-42045137D01*
X70485952Y-41997518D01*
X70581190Y-41949899D01*
X70866904Y-41949899D01*
X70962142Y-41997518D01*
X71009761Y-42045137D01*
X71057380Y-42140375D01*
X71057380Y-42330852D01*
X71009761Y-42426090D01*
X70533571Y-41187995D02*
X70533571Y-41521328D01*
X71057380Y-41521328D02*
X70057380Y-41521328D01*
X70057380Y-41045137D01*
%TO.C,H4*%
X145288095Y-113092380D02*
X145288095Y-112092380D01*
X145288095Y-112568571D02*
X145859523Y-112568571D01*
X145859523Y-113092380D02*
X145859523Y-112092380D01*
X146764285Y-112425714D02*
X146764285Y-113092380D01*
X146526190Y-112044761D02*
X146288095Y-112759047D01*
X146907142Y-112759047D01*
%TO.C,R9*%
X131640998Y-87319619D02*
X131688617Y-87272000D01*
X131783855Y-87224380D01*
X132021950Y-87224380D01*
X132117188Y-87272000D01*
X132164807Y-87319619D01*
X132212426Y-87414857D01*
X132212426Y-87510095D01*
X132164807Y-87652952D01*
X131593378Y-88224380D01*
X132212426Y-88224380D01*
X132640998Y-88129142D02*
X132688617Y-88176761D01*
X132640998Y-88224380D01*
X132593378Y-88176761D01*
X132640998Y-88129142D01*
X132640998Y-88224380D01*
X133069569Y-87319619D02*
X133117188Y-87272000D01*
X133212426Y-87224380D01*
X133450521Y-87224380D01*
X133545759Y-87272000D01*
X133593378Y-87319619D01*
X133640998Y-87414857D01*
X133640998Y-87510095D01*
X133593378Y-87652952D01*
X133021950Y-88224380D01*
X133640998Y-88224380D01*
X134069569Y-88224380D02*
X134069569Y-87224380D01*
X134640998Y-88224380D02*
X134212426Y-87652952D01*
X134640998Y-87224380D02*
X134069569Y-87795809D01*
%TO.C,R19*%
X131513998Y-111322619D02*
X131561617Y-111275000D01*
X131656855Y-111227380D01*
X131894950Y-111227380D01*
X131990188Y-111275000D01*
X132037807Y-111322619D01*
X132085426Y-111417857D01*
X132085426Y-111513095D01*
X132037807Y-111655952D01*
X131466378Y-112227380D01*
X132085426Y-112227380D01*
X132513998Y-112132142D02*
X132561617Y-112179761D01*
X132513998Y-112227380D01*
X132466378Y-112179761D01*
X132513998Y-112132142D01*
X132513998Y-112227380D01*
X132942569Y-111322619D02*
X132990188Y-111275000D01*
X133085426Y-111227380D01*
X133323521Y-111227380D01*
X133418759Y-111275000D01*
X133466378Y-111322619D01*
X133513998Y-111417857D01*
X133513998Y-111513095D01*
X133466378Y-111655952D01*
X132894950Y-112227380D01*
X133513998Y-112227380D01*
X133942569Y-112227380D02*
X133942569Y-111227380D01*
X134513998Y-112227380D02*
X134085426Y-111655952D01*
X134513998Y-111227380D02*
X133942569Y-111798809D01*
%TO.C,R1*%
X71525714Y-54170712D02*
X72192380Y-54170712D01*
X71144761Y-54408807D02*
X71859047Y-54646902D01*
X71859047Y-54027855D01*
X72192380Y-53599283D02*
X72192380Y-53408807D01*
X72144761Y-53313569D01*
X72097142Y-53265950D01*
X71954285Y-53170712D01*
X71763809Y-53123093D01*
X71382857Y-53123093D01*
X71287619Y-53170712D01*
X71240000Y-53218331D01*
X71192380Y-53313569D01*
X71192380Y-53504045D01*
X71240000Y-53599283D01*
X71287619Y-53646902D01*
X71382857Y-53694521D01*
X71620952Y-53694521D01*
X71716190Y-53646902D01*
X71763809Y-53599283D01*
X71811428Y-53504045D01*
X71811428Y-53313569D01*
X71763809Y-53218331D01*
X71716190Y-53170712D01*
X71620952Y-53123093D01*
X72192380Y-52694521D02*
X71192380Y-52694521D01*
X72192380Y-52123093D02*
X71620952Y-52551664D01*
X71192380Y-52123093D02*
X71763809Y-52694521D01*
D12*
%TO.C,J7*%
X129854000Y-43688000D02*
X127194000Y-43688000D01*
X129854000Y-44958000D02*
X129854000Y-46288000D01*
X129854000Y-43688000D02*
X129854000Y-36008000D01*
X129854000Y-46288000D02*
X128524000Y-46288000D01*
X127194000Y-43688000D02*
X127194000Y-36008000D01*
X129854000Y-36008000D02*
X127194000Y-36008000D01*
%TO.C,J11*%
X115197000Y-96158000D02*
X115697000Y-97158000D01*
X106707000Y-105358000D02*
X106707000Y-98858000D01*
X105407000Y-97548000D02*
X120907000Y-97548000D01*
X105407000Y-106668000D02*
X105407000Y-97548000D01*
X115207000Y-98858000D02*
X119607000Y-98858000D01*
X111107000Y-98858000D02*
X111107000Y-98858000D01*
X115207000Y-97548000D02*
X115207000Y-98858000D01*
X116197000Y-96158000D02*
X115197000Y-96158000D01*
X115697000Y-97158000D02*
X116197000Y-96158000D01*
X106707000Y-98858000D02*
X111107000Y-98858000D01*
X120907000Y-106668000D02*
X105407000Y-106668000D01*
X111107000Y-98858000D02*
X111107000Y-97548000D01*
X120907000Y-97548000D02*
X120907000Y-106668000D01*
X119607000Y-105358000D02*
X106707000Y-105358000D01*
X119607000Y-98858000D02*
X119607000Y-105358000D01*
%TO.C,R13*%
X132502137Y-94931000D02*
G75*
G03*
X132405099Y-96380359I-417133J-700000D01*
G01*
%TO.C,R4*%
X72579000Y-87593867D02*
G75*
G03*
X74028359Y-87690905I700000J-417133D01*
G01*
%TO.C,J5*%
X96460000Y-39751000D02*
X99120000Y-39751000D01*
X99120000Y-39751000D02*
X99120000Y-44891000D01*
X96460000Y-37151000D02*
X97790000Y-37151000D01*
X96460000Y-44891000D02*
X99120000Y-44891000D01*
X96460000Y-38481000D02*
X96460000Y-37151000D01*
X96460000Y-39751000D02*
X96460000Y-44891000D01*
D13*
%TO.C,IC2*%
X120777000Y-64262000D02*
X114935000Y-64262000D01*
X120777000Y-38862000D02*
X118872000Y-38862000D01*
X114935000Y-38862000D02*
X114935000Y-64262000D01*
X120777000Y-64262000D02*
X120777000Y-38862000D01*
X114935000Y-38862000D02*
X116840000Y-38862000D01*
X116840000Y-38862000D02*
G75*
G03*
X118872000Y-38862000I1016000J0D01*
G01*
D12*
%TO.C,J6*%
X153229000Y-60960000D02*
X153229000Y-68640000D01*
X153229000Y-60960000D02*
X155889000Y-60960000D01*
X153229000Y-59690000D02*
X153229000Y-58360000D01*
X153229000Y-68640000D02*
X155889000Y-68640000D01*
X153229000Y-58360000D02*
X154559000Y-58360000D01*
X155889000Y-60960000D02*
X155889000Y-68640000D01*
%TO.C,J1*%
X107203011Y-72450000D02*
X107203011Y-69790000D01*
X107203011Y-72450000D02*
X112343011Y-72450000D01*
X107203011Y-69790000D02*
X112343011Y-69790000D01*
X105933011Y-72450000D02*
X104603011Y-72450000D01*
X104603011Y-72450000D02*
X104603011Y-71120000D01*
X112343011Y-72450000D02*
X112343011Y-69790000D01*
D14*
%TO.C,U2*%
X78571496Y-84232000D02*
X84921496Y-84232000D01*
X78571496Y-93822000D02*
X84921496Y-93822000D01*
D15*
X76811496Y-85217000D02*
G75*
G03*
X76811496Y-85217000I-100000J0D01*
G01*
D12*
%TO.C,J9*%
X153356000Y-45100011D02*
X156016000Y-45100011D01*
X153356000Y-43830011D02*
X153356000Y-42500011D01*
X153356000Y-42500011D02*
X154686000Y-42500011D01*
X153356000Y-50240011D02*
X156016000Y-50240011D01*
X153356000Y-45100011D02*
X153356000Y-50240011D01*
X156016000Y-45100011D02*
X156016000Y-50240011D01*
%TO.C,J8*%
X152213000Y-106105000D02*
X154873000Y-106105000D01*
X152213000Y-88205000D02*
X153543000Y-88205000D01*
X154873000Y-90805000D02*
X154873000Y-106105000D01*
X152213000Y-90805000D02*
X152213000Y-106105000D01*
X152213000Y-89535000D02*
X152213000Y-88205000D01*
X152213000Y-90805000D02*
X154873000Y-90805000D01*
%TO.C,R20*%
X138069131Y-109155000D02*
G75*
G03*
X137972093Y-110604359I-417133J-700000D01*
G01*
%TO.C,R8*%
X138577131Y-80834000D02*
G75*
G03*
X138480093Y-82283359I-417133J-700000D01*
G01*
%TO.C,R16*%
X138217137Y-100138000D02*
G75*
G03*
X138120099Y-101587359I-417133J-700000D01*
G01*
D14*
%TO.C,Y1*%
X94123000Y-100110000D02*
X94123000Y-102870000D01*
X90043000Y-112010000D02*
X92843000Y-112010000D01*
X73263000Y-109220000D02*
X73263000Y-112010000D01*
X90043000Y-98810000D02*
X92843000Y-98810000D01*
X94123000Y-110710000D02*
X94123000Y-107950000D01*
X73263000Y-112010000D02*
X76073000Y-112010000D01*
X73263000Y-100110000D02*
X73263000Y-102870000D01*
X77343000Y-98810000D02*
X74543000Y-98810000D01*
X74543000Y-98810000D02*
G75*
G03*
X73263000Y-100110000I9999J-1289999D01*
G01*
X92843000Y-112010000D02*
G75*
G03*
X94123000Y-110710000I-9999J1289999D01*
G01*
X94123000Y-100110000D02*
G75*
G03*
X92843000Y-98810000I-1289999J10001D01*
G01*
D15*
X72793000Y-109410000D02*
G75*
G03*
X72793000Y-109410000I-100000J0D01*
G01*
D12*
%TO.C,C2*%
X108204000Y-48937995D02*
X108204000Y-48247995D01*
X108204000Y-43517995D02*
X108204000Y-44207995D01*
X109624000Y-48247995D02*
X109624000Y-44207995D01*
X106784000Y-44207995D02*
X106784000Y-48247995D01*
X106784000Y-48247995D02*
X109624000Y-48247995D01*
X109624000Y-44207995D02*
X106784000Y-44207995D01*
%TO.C,R10*%
X138720133Y-85279000D02*
G75*
G03*
X138623095Y-86728359I-417133J-700000D01*
G01*
%TO.C,J4*%
X98993000Y-57012992D02*
X96333000Y-57012992D01*
X98993000Y-59612992D02*
X97663000Y-59612992D01*
X98993000Y-49332992D02*
X96333000Y-49332992D01*
X98993000Y-58282992D02*
X98993000Y-59612992D01*
X98993000Y-57012992D02*
X98993000Y-49332992D01*
X96333000Y-57012992D02*
X96333000Y-49332992D01*
%TO.C,R3*%
X90740000Y-74401867D02*
G75*
G03*
X92189359Y-74498905I700000J-417133D01*
G01*
%TO.C,R7*%
X132862131Y-80834000D02*
G75*
G03*
X132765093Y-82283359I-417133J-700000D01*
G01*
D14*
%TO.C,U1*%
X78952496Y-68865000D02*
X85302496Y-68865000D01*
X78952496Y-78455000D02*
X85302496Y-78455000D01*
D15*
X77192496Y-69850000D02*
G75*
G03*
X77192496Y-69850000I-100000J0D01*
G01*
D12*
%TO.C,R2*%
X73087000Y-72099867D02*
G75*
G03*
X74536359Y-72196905I700000J-417133D01*
G01*
%TO.C,J2*%
X104222011Y-79562000D02*
X104222011Y-78232000D01*
X105552011Y-79562000D02*
X104222011Y-79562000D01*
X111962011Y-79562000D02*
X111962011Y-76902000D01*
X106822011Y-79562000D02*
X111962011Y-79562000D01*
X106822011Y-76902000D02*
X111962011Y-76902000D01*
X106822011Y-79562000D02*
X106822011Y-76902000D01*
%TO.C,R5*%
X90740000Y-89747867D02*
G75*
G03*
X92189359Y-89844905I700000J-417133D01*
G01*
%TO.C,J3*%
X107061000Y-87690000D02*
X107061000Y-85030000D01*
X105791000Y-87690000D02*
X104461000Y-87690000D01*
X104461000Y-87690000D02*
X104461000Y-86360000D01*
X107061000Y-85030000D02*
X112201000Y-85030000D01*
X112201000Y-87690000D02*
X112201000Y-85030000D01*
X107061000Y-87690000D02*
X112201000Y-87690000D01*
%TO.C,R15*%
X132608131Y-100011000D02*
G75*
G03*
X132511093Y-101460359I-417133J-700000D01*
G01*
D14*
%TO.C,U3*%
X139255500Y-75748000D02*
X146494500Y-75748000D01*
X139255500Y-40838000D02*
X146494500Y-40838000D01*
D15*
X137875000Y-41783000D02*
G75*
G03*
X137875000Y-41783000I-100000J0D01*
G01*
D12*
%TO.C,R6*%
X109158000Y-60599131D02*
G75*
G03*
X107708641Y-60502093I-700000J417133D01*
G01*
%TO.C,R14*%
X138974133Y-95185000D02*
G75*
G03*
X138877095Y-96634359I-417133J-700000D01*
G01*
%TO.C,C1*%
X73025000Y-46397995D02*
X73025000Y-45707995D01*
X73025000Y-40977995D02*
X73025000Y-41667995D01*
X74445000Y-41667995D02*
X71605000Y-41667995D01*
X74445000Y-45707995D02*
X74445000Y-41667995D01*
X71605000Y-41667995D02*
X71605000Y-45707995D01*
X71605000Y-45707995D02*
X74445000Y-45707995D01*
%TO.C,J10*%
X133283000Y-54423000D02*
X130623000Y-54423000D01*
X133283000Y-74863000D02*
X131953000Y-74863000D01*
X133283000Y-73533000D02*
X133283000Y-74863000D01*
X133283000Y-72263000D02*
X133283000Y-54423000D01*
X133283000Y-72263000D02*
X130623000Y-72263000D01*
X130623000Y-72263000D02*
X130623000Y-54423000D01*
%TO.C,R9*%
X132608131Y-85152000D02*
G75*
G03*
X132511093Y-86601359I-417133J-700000D01*
G01*
D13*
%TO.C,IC1*%
X82169000Y-37211000D02*
X84074000Y-37211000D01*
X82169000Y-37211000D02*
X82169000Y-62611000D01*
X88011000Y-62611000D02*
X88011000Y-37211000D01*
X88011000Y-37211000D02*
X86106000Y-37211000D01*
X88011000Y-62611000D02*
X82169000Y-62611000D01*
X84074000Y-37211000D02*
G75*
G03*
X86106000Y-37211000I1016000J0D01*
G01*
D12*
%TO.C,R19*%
X132481131Y-109155000D02*
G75*
G03*
X132384093Y-110604359I-417133J-700000D01*
G01*
%TO.C,R1*%
X74360000Y-52852131D02*
G75*
G03*
X72910641Y-52755093I-700000J417133D01*
G01*
%TD*%
M02*
